<svg width="1000" height="1000" viewBox="0 0 1000 1000" fill="none" xmlns="http://www.w3.org/2000/svg">
<g clip-path="url(#clip0_3_6775)">
<rect width="1000" height="1000" rx="50" fill="none"/>
<path d="M267.667 353.611C267.667 353.611 236.185 366.065 231.555 396.315C226.926 426.565 298.463 515.176 298.463 515.176L519.074 396.296L449.324 273.889L267.667 353.611Z" fill="#C7DCF9"/>
<path d="M316.444 382.204C316.444 382.204 293.231 406.037 286.111 432.408C278.991 458.778 278.074 505.87 279.259 523.509C313.889 555.556 450.768 528.704 450.768 528.704L582.676 373.537C582.676 373.537 560.315 331.083 548.963 319.445C537.611 307.806 500.815 293.333 458.361 310.417C433.444 345.778 316.444 382.204 316.444 382.204Z" fill="#E1ECFF"/>
<g style="mix-blend-mode:multiply">
<path d="M306.083 394.528C306.083 394.528 357.296 410.963 414.944 388.694C472.593 366.426 483.037 303.704 483.037 303.704L458.333 310.426L316.444 382.204L306.083 394.528Z" fill="#E1ECFF"/>
</g>
<path d="M514.565 586.926C514.565 586.926 579.315 587.343 597.509 591.991C615.704 596.639 663.861 705.63 683.787 716.065C703.713 726.5 720.639 709.167 742.593 696.296C764.546 683.426 784.667 667.852 785.296 661.352C785.926 654.852 776.602 628.88 768.537 623.639C760.472 618.398 737.056 618.028 724.565 626.028C706.213 576.028 680.121 503.111 656.195 493.074C632.269 483.037 559.759 478.259 559.759 478.259L514.565 586.926Z" fill="#E1ECFF"/>
<g style="mix-blend-mode:multiply" opacity="0.51">
<path d="M582.676 539.204C582.676 539.204 635.398 544.972 649.963 564.593C664.528 584.213 693.389 704.269 725.695 707.111C726.213 746 659.306 760.046 659.306 760.046L498.926 581.843L582.676 539.204Z" fill="#E1ECFF"/>
</g>
<path d="M340.602 577.092C340.602 577.092 380.417 660.602 416.528 683.379C452.639 706.157 518.065 704.315 536.111 719.231C554.157 734.148 550.343 805.805 568.38 824.787C586.417 843.768 611.796 855.398 635.518 853.259C659.241 851.12 678.222 839.741 678.463 829.065C678.704 818.389 677.75 809.13 666.602 803.435C655.454 797.741 639.75 793 639.074 786.361C638.398 779.722 625.787 678.648 620.556 651.176C615.324 623.704 574.694 585.491 522.333 566.241C472.75 524.722 396.593 542.509 396.593 542.509L340.602 577.092Z" fill="#E1ECFF"/>
<g style="mix-blend-mode:multiply">
<path d="M352.185 599.435C352.185 599.435 397.88 601.769 438.917 583.741C431.074 541.982 406.88 529.648 406.88 529.648L340.602 577.093L352.185 599.435Z" fill="#E1ECFF"/>
</g>
<path d="M415.417 163.333C379.63 144.176 304.63 137.713 258.333 195.13C212.037 252.546 235.111 312.093 254.565 339.815C274.935 368.907 344.954 413.37 419.685 371.611C494.417 329.852 502.25 209.833 415.417 163.333Z" fill="#E1ECFF"/>
<path d="M409.259 198.444C441.046 206.037 461.695 250.639 451.019 293.343C440.343 336.046 403.565 364.759 362.287 364.991C321.009 365.222 279.963 337.037 280.185 284.333C280.407 233.685 340.232 181.963 409.259 198.444Z" fill="#1C3177"/>
<g style="mix-blend-mode:multiply">
<path d="M317.676 532.019C359.093 512.796 328.111 468.908 369.398 458.926C423.833 466.667 438.889 463.889 438.889 463.889C438.889 463.889 334.75 555.352 317.676 532.019Z" fill="#E1ECFF"/>
</g>
<path d="M352.185 414.63L421.111 591.991L518.62 589.667L607.824 533.204L634.398 452.537L569.871 258.945L538.546 349.574L457.408 414.102L352.185 414.63Z" fill="#FF97C9"/>
<path d="M317.676 532.019C340.528 530.167 352.167 515.287 359.093 508.685C362.62 505.315 361.917 502.361 360.139 492.639C358.361 482.917 364.528 472.944 372.954 468.676C377.583 481.13 383.269 483.491 387.657 482.907C392.046 482.324 396.556 456.102 410.907 456.333C425.259 456.565 436.769 475.556 438.685 485.037C440.602 494.519 431.333 521.565 419.704 540.546C408.074 559.528 391.667 583.028 354.732 590.38C317.796 597.731 296.796 578.87 284.694 555.028C280.611 546.981 279.139 535.861 279.269 523.472C279.269 523.472 287.537 534.389 317.676 532.019Z" fill="#E1ECFF"/>
<path d="M592.093 325.62C592.093 325.62 596.491 339.926 593.528 345.5C590.565 351.074 586.528 355.685 583.565 362.824C580.602 369.963 584.991 396.87 598.037 401.491C611.083 406.111 621.88 394.019 625.324 387.018C628.769 380.018 626.861 361.639 621.759 348.824C616.657 336.009 607.065 324.62 592.093 325.62Z" fill="#E1ECFF"/>
<path d="M607.093 147.88L610.019 153.806C610.194 154.165 610.454 154.476 610.777 154.711C611.1 154.947 611.475 155.1 611.87 155.157L618.417 156.083C618.874 156.149 619.304 156.341 619.658 156.639C620.012 156.937 620.275 157.328 620.418 157.767C620.56 158.207 620.577 158.678 620.466 159.127C620.354 159.575 620.119 159.984 619.787 160.306L615.056 164.935C614.768 165.214 614.553 165.559 614.429 165.94C614.304 166.32 614.275 166.726 614.343 167.12L615.454 173.602C615.532 174.056 615.482 174.524 615.309 174.951C615.136 175.379 614.846 175.749 614.474 176.021C614.101 176.293 613.659 176.455 613.199 176.489C612.739 176.523 612.279 176.427 611.87 176.213L606.009 173.139C605.656 172.952 605.261 172.854 604.861 172.854C604.461 172.854 604.067 172.952 603.713 173.139L597.852 176.213C597.443 176.43 596.982 176.527 596.52 176.495C596.058 176.462 595.615 176.3 595.241 176.028C594.867 175.756 594.576 175.385 594.403 174.956C594.229 174.527 594.179 174.058 594.259 173.602L595.38 167.12C595.447 166.726 595.418 166.32 595.294 165.94C595.169 165.559 594.954 165.214 594.667 164.935L589.935 160.306C589.603 159.984 589.368 159.575 589.257 159.127C589.145 158.678 589.162 158.207 589.305 157.767C589.447 157.328 589.71 156.937 590.064 156.639C590.418 156.341 590.848 156.149 591.306 156.083L597.852 155.157C598.247 155.1 598.623 154.947 598.945 154.711C599.268 154.476 599.528 154.165 599.704 153.806L602.63 147.88C602.833 147.461 603.15 147.108 603.545 146.861C603.94 146.615 604.396 146.484 604.861 146.484C605.327 146.484 605.783 146.615 606.177 146.861C606.572 147.108 606.889 147.461 607.093 147.88Z" fill="#FEC272"/>
<path d="M293.833 775L296.287 779.972C296.433 780.274 296.652 780.535 296.923 780.732C297.195 780.929 297.51 781.056 297.843 781.102L303.333 781.898C303.716 781.954 304.076 782.116 304.371 782.365C304.667 782.615 304.887 782.942 305.006 783.31C305.126 783.678 305.14 784.072 305.047 784.447C304.954 784.823 304.758 785.165 304.482 785.435L300.509 789.306C300.265 789.541 300.084 789.834 299.98 790.157C299.877 790.48 299.855 790.824 299.917 791.157L300.843 796.62C300.906 797.002 300.862 797.393 300.716 797.751C300.57 798.108 300.327 798.418 300.015 798.646C299.703 798.874 299.334 799.01 298.948 799.04C298.563 799.07 298.177 798.992 297.833 798.815L292.926 796.231C292.629 796.076 292.298 795.996 291.963 795.996C291.628 795.996 291.297 796.076 291 796.231L286.111 798.796C285.768 798.977 285.381 799.058 284.994 799.03C284.607 799.002 284.236 798.866 283.923 798.637C283.609 798.408 283.366 798.097 283.221 797.737C283.076 797.377 283.035 796.984 283.102 796.602L284.028 791.139C284.085 790.805 284.06 790.461 283.955 790.139C283.851 789.816 283.669 789.524 283.426 789.287L279.463 785.417C279.186 785.147 278.99 784.804 278.898 784.429C278.805 784.053 278.819 783.659 278.939 783.291C279.058 782.924 279.278 782.596 279.573 782.347C279.869 782.097 280.228 781.936 280.611 781.88L286.093 781.083C286.426 781.037 286.742 780.909 287.015 780.713C287.288 780.516 287.508 780.255 287.658 779.954L290.111 774.981C290.284 774.635 290.55 774.343 290.88 774.14C291.21 773.937 291.591 773.83 291.978 773.832C292.366 773.834 292.745 773.944 293.073 774.151C293.401 774.357 293.664 774.651 293.833 775Z" fill="#FEC272"/>
<g style="mix-blend-mode:soft-light" opacity="0.48">
<path d="M381.512 251.684C404.3 246.661 421.332 236.056 419.555 227.995C417.779 219.935 397.866 217.473 375.079 222.495C352.292 227.518 335.26 238.124 337.036 246.184C338.813 254.244 358.725 256.706 381.512 251.684Z" fill="white"/>
</g>
<g style="mix-blend-mode:multiply">
<path d="M433.407 511.63C433.407 511.63 407.194 488.204 402.444 488.204C397.694 488.204 385.046 506.722 387.898 511.63C390.75 516.537 405.398 532.611 421.481 537.556C426.694 527.611 433.407 511.63 433.407 511.63Z" fill="#E1ECFF"/>
</g>
<g style="mix-blend-mode:multiply" opacity="0.5">
<path d="M457.407 414.102L518.62 589.667L607.824 533.204L538.546 349.574L457.407 414.102Z" fill="#FF97C9"/>
</g>
<g style="mix-blend-mode:multiply">
<path d="M625.806 684.713C616.631 692.314 606.32 698.429 595.25 702.833C584.87 706.833 581.361 715.018 584.5 730.037C587.639 745.055 589.398 768.472 595.88 774.639C602.361 780.805 624.657 777.528 636.213 763.194C632.593 734.954 625.806 684.713 625.806 684.713Z" fill="#E1ECFF"/>
</g>
<g style="mix-blend-mode:multiply">
<path d="M686.222 531.593C686.222 531.593 673.259 537.241 674.491 546.25C675.722 555.259 688.963 598.806 694.185 602.731C699.407 606.657 714.861 599.694 714.861 599.694C698.991 554.731 686.222 531.593 686.222 531.593Z" fill="#E1ECFF"/>
</g>
<path d="M139.185 635.796C128.88 614.426 162.463 591.556 191.037 593.204C219.611 594.852 231.62 621.232 241.741 631.074C262.88 651.611 262.213 671.704 247.574 680.343C232.935 688.982 152.824 664.065 139.185 635.796Z" fill="#99ADF9"/>
<path d="M715.63 304.731C707.296 297.435 715.871 263.139 735.556 255.111C755.241 247.083 779.685 255.861 784.908 269.62C790.13 283.38 732.713 319.676 715.63 304.731Z" fill="#99ADF9"/>
<path d="M812.092 323.083C807.824 329.167 804.981 346.491 813.991 349.574C823 352.657 829.815 334.833 826.648 325.556C823.481 316.278 814.944 319.018 812.092 323.083Z" fill="#99ADF9"/>
<path opacity="0.44" d="M818.574 182.5C811.852 185.667 800.769 199.278 807.065 206.435C813.361 213.593 828.111 201.5 829.972 191.88C831.833 182.259 823.065 180.389 818.574 182.5Z" fill="#99ADF9"/>
<path opacity="0.44" d="M186.463 725.713C180.648 721.083 163.546 717.148 159.898 725.954C156.25 734.759 173.62 742.62 183.046 740.083C192.472 737.546 190.333 728.806 186.463 725.713Z" fill="#99ADF9"/>
<g style="mix-blend-mode:multiply" opacity="0.64">
<path d="M236.676 625.213C226.333 627.157 228 636.407 231.315 644.787C234.63 653.167 246.296 655.555 254.528 647.898C249.185 635.185 236.676 625.213 236.676 625.213Z" fill="#99ADF9"/>
</g>
<g style="mix-blend-mode:multiply" opacity="0.64">
<path d="M177.222 611.259C169.815 612.083 163.778 622.806 169 631.5C174.222 640.195 184.176 646.528 189.87 644.158C195.565 641.787 196.519 628.972 192.407 620.75C188.296 612.528 184.343 610.463 177.222 611.259Z" fill="#99ADF9"/>
</g>
<g style="mix-blend-mode:multiply" opacity="0.64">
<path d="M761.796 262.5C757.732 263.796 753.611 268.194 753.972 272.944C754.333 277.694 758.482 281.843 762.982 281.278C767.482 280.713 771.315 273.444 770.389 268.222C769.463 263 764.898 261.519 761.796 262.5Z" fill="#99ADF9"/>
</g>
<g style="mix-blend-mode:multiply" opacity="0.64">
<path d="M718.75 271.759C718.75 271.759 724.306 277.315 723.38 283.62C722.454 289.926 712.88 289.343 712.88 289.343C712.88 289.343 714.306 278.593 718.75 271.759Z" fill="#99ADF9"/>
</g>
</g>
<defs>
<clipPath id="clip0_3_6775">
<rect width="1000" height="1000" rx="50" fill="white"/>
</clipPath>
</defs>
</svg>
