<svg width="997" height="997" viewBox="0 0 997 997" fill="none" xmlns="http://www.w3.org/2000/svg">
<path d="M598.366 316.861C528.105 314.941 415.86 370.118 356.741 443.813C266.125 556.76 179.008 501.399 94.7059 577.891C30.944 635.763 10.9486 760.729 105.784 825.544C200.619 890.358 364.459 820.808 461.297 860.079C558.135 899.349 644.856 931.576 743.356 916.741C856.451 899.746 956.271 797.6 937.826 615.057C914.24 381.528 748.332 320.951 598.366 316.861Z" fill="#E1ECFF"/>
<path d="M868.276 656.054C868.276 656.054 927.256 682.086 930.718 732.675C933.792 777.614 910.141 823.744 868.276 845.299C820.448 869.873 799.677 828.987 814.817 803.139C829.957 777.291 914.166 737.595 856.922 686.767C856.922 665.045 868.276 656.054 868.276 656.054Z" fill="#F774B9"/>
<path opacity="0.58" d="M268.47 649.998C247.561 647.801 209.038 648.715 188.249 654.115C169.306 659.035 151.323 680.886 179.94 691.041C208.558 701.196 184.75 713.649 146.707 715.467C108.664 717.286 91.6042 742.368 118.375 756.28C145.147 770.192 199.723 771.05 244.948 771.05C290.173 771.05 348.655 764.025 373.349 749.218C398.043 734.41 379.063 720.36 370.487 716.464C361.911 712.569 353.594 711.655 355.929 705.553C358.265 699.451 368.853 681.671 353.243 667.944C326.795 644.736 290.875 652.361 268.47 649.998Z" fill="#99ADF9"/>
<path d="M472.56 623.125C472.56 623.125 470.769 662.266 467.538 666.928C464.307 671.59 435.228 679.677 433.621 688.835C432.015 697.992 432.19 713.972 446.905 716.843C461.62 719.714 493.063 719.003 501.122 718.689C509.181 718.375 525.89 695.703 533.247 643.997C489.444 623.993 472.56 623.125 472.56 623.125Z" fill="#F774B9"/>
<path d="M548.95 133.312C548.95 133.312 526.951 91.4377 511.581 81.7447C496.211 72.0516 486.028 76.7781 482.253 86.9512C478.477 97.1243 477.517 138.038 477.517 138.038C477.517 138.038 434.941 177.54 418.86 221.297C402.779 265.054 399.225 353.759 500.697 365.567C602.17 377.374 706.725 343.826 751.443 313.547C736.765 239.511 715.948 143.005 711.212 116.317C706.476 89.6284 691.826 76.3904 675.735 76.4827C659.645 76.575 639.742 113.916 633.63 136.626C591.295 131.65 548.95 133.312 548.95 133.312Z" fill="#FF97C9"/>
<path opacity="0.3" d="M644.939 138.906C644.939 138.906 658.943 93.7272 671.129 93.9673C682.041 94.1796 687.09 128.124 688.004 144.842C688.036 145.436 687.93 146.029 687.696 146.576C687.461 147.123 687.103 147.608 686.65 147.994C686.197 148.379 685.662 148.656 685.085 148.801C684.508 148.946 683.905 148.956 683.324 148.83C668.443 145.654 644.939 138.906 644.939 138.906Z" fill="white"/>
<path opacity="0.3" d="M477.268 138.195C477.268 138.195 476.123 90.5515 486.259 86.9882C496.552 83.3602 513.03 113.492 519.696 128.881C519.93 129.428 520.035 130.021 520.002 130.616C519.97 131.21 519.801 131.789 519.51 132.307C519.218 132.826 518.81 133.27 518.319 133.606C517.828 133.942 517.266 134.16 516.677 134.244C501.63 136.404 477.268 138.195 477.268 138.195Z" fill="white"/>
<path d="M751.443 313.547C758.662 342.645 801.588 419.986 827.842 462.571C854.097 505.156 877.286 558.578 875.846 626.088C874.406 693.598 848.946 712.033 813.663 722.28C778.38 732.527 756.631 729.665 736.118 732.379C715.606 735.093 694.18 743.891 680.296 732.379C666.412 720.868 659.165 714.083 643.711 722.123C628.258 730.164 588.996 727.958 578.749 725.28C568.502 722.603 563.453 702.1 580.596 691.53C552.523 700.522 480.896 692.287 463.744 622.94C450.026 567.348 491.438 452.416 500.669 426.143C510.113 399.188 514.388 384.269 509.181 359.908C543.513 350.215 751.443 313.547 751.443 313.547Z" fill="#FF97C9"/>
<path d="M780.753 379.709C780.753 379.709 743.734 420.032 751.443 461.149C756.797 489.822 792.126 505.617 795.911 530.219C799.696 554.821 826.67 595.763 872.08 574.604C866.384 504.196 780.753 379.709 780.753 379.709Z" fill="#F774B9"/>
<g style="mix-blend-mode:multiply" opacity="0.19">
<path d="M842.733 485.336C842.733 485.336 873.049 670.206 758.542 730.792C838.246 779.119 946.809 632.938 946.809 632.938L842.733 485.336Z" fill="#FF97C9"/>
</g>
<path d="M674.637 645.807C674.637 645.807 676.483 685.382 710.898 691.853C706.486 700.836 675.108 694.844 673.686 726.222C667.852 722.659 660.596 714.083 643.721 722.123C666.587 683.646 674.637 645.807 674.637 645.807Z" fill="#F774B9"/>
<path opacity="0.3" d="M498.5 402.428C498.5 402.428 510.28 391.959 544.658 396.889C579.036 401.819 622.747 500.734 617.152 559.834C611.558 618.934 618.888 687.173 564.21 700.014C509.689 721.182 392.338 640.665 392.338 640.665L498.5 402.428Z" fill="white"/>
<path d="M615.925 495.647C615.98 529.905 612.869 564.034 609.536 598.117C607.884 615.066 606.379 632.07 603.351 648.89C601.117 661.242 598.412 683.388 582.497 685.437C577.272 686.111 577.198 694.429 582.497 693.746C598.449 691.687 605.576 677.323 608.899 663.143C613.063 645.382 614.983 627.141 616.783 609.001C620.476 571.345 624.288 533.607 624.233 495.712C624.233 490.367 615.925 490.358 615.925 495.712V495.647Z" fill="#F774B9"/>
<path d="M686.564 562.197C683.97 589.218 678.182 615.804 670.778 641.892C667.085 654.733 663.088 667.464 658.833 680.111C656.709 686.431 654.537 692.739 652.315 699.035C650.164 705.147 648.087 711.387 643.637 716.261C640.037 720.203 645.899 726.093 649.509 722.132C658.26 712.55 661.371 698.435 665.451 686.444C670.067 672.984 674.388 659.442 678.311 645.77C686.158 618.417 692.158 590.547 694.872 562.197C695.389 556.88 687.072 556.917 686.564 562.197Z" fill="#F774B9"/>
<path d="M728.798 556.289C715.874 562.493 703.651 573.266 694.143 583.9C684.634 594.535 679.086 607.625 675.966 621.389C672.846 635.154 669.91 651.216 675.292 664.777C679.834 676.215 689.038 685.401 699.839 691.096C714.674 698.925 731.798 700.383 748.295 700.134C753.631 700.06 753.649 691.752 748.295 691.826C731.752 692.075 714.24 690.718 699.94 681.542C686.407 672.855 679.705 659.386 680.923 643.388C682.142 627.39 685.835 610.155 694.771 596.566C699.386 589.522 705.691 583.845 711.987 578.334C718.496 572.629 725.133 567.256 732.97 563.471C737.789 561.154 733.58 553.99 728.779 556.298L728.798 556.289Z" fill="#F774B9"/>
<path d="M715.071 690.127C704.353 694.281 693.192 697.9 682.76 702.737C678.832 704.509 675.552 707.458 673.374 711.176C671.196 714.894 670.227 719.197 670.603 723.489C671.073 728.77 679.382 728.816 678.911 723.489C678.08 714.184 684.524 710.833 692.075 707.907L717.286 698.14C722.225 696.229 720.056 688.188 715.08 690.127H715.071Z" fill="#F774B9"/>
<path d="M582.507 706.005C580.103 711.124 579.084 716.783 579.553 722.419C580.042 727.699 588.35 727.754 587.861 722.419C587.395 718.253 588.031 714.038 589.707 710.196C590.63 708.138 590.289 705.756 588.221 704.519C586.448 703.457 583.458 703.965 582.534 706.005H582.507Z" fill="#F774B9"/>
<path d="M610.072 706.504C607.219 711.978 606.998 717.895 607.182 723.942C607.339 729.278 615.648 729.296 615.491 723.942C615.352 719.474 615.121 714.784 617.245 710.704C619.709 705.959 612.546 701.759 610.072 706.504Z" fill="#F774B9"/>
<path d="M510.639 368.013C510.639 368.013 639.308 378.832 751.424 313.547C757.498 331.087 765.779 349.735 765.779 349.735C765.779 349.735 654.244 417.429 509.005 399.363C503.79 390.759 510.639 368.013 510.639 368.013Z" fill="#738DE0"/>
<path d="M455.287 227.288C458.555 224.427 486.268 223.743 489.185 225.562C492.103 227.381 488.872 247.007 472.236 247.007C455.601 247.007 452.758 229.504 455.287 227.288Z" fill="#1C3177"/>
<path d="M574.494 227.288C577.771 224.427 605.484 223.743 608.401 225.562C611.318 227.381 608.087 247.007 591.452 247.007C574.817 247.007 571.973 229.504 574.494 227.288Z" fill="#1C3177"/>
<path d="M515.052 307.408C515.052 307.408 523.721 285.493 528.899 285.964C534.078 286.434 545.959 307.408 545.959 307.408" stroke="#1C3177" stroke-width="9" stroke-miterlimit="10" stroke-linecap="round"/>
<path d="M396.151 270.399C407.187 269.974 418.239 270.159 429.255 270.953C434.59 271.341 434.572 263.033 429.255 262.645C418.239 261.851 407.187 261.666 396.151 262.091C390.824 262.294 390.796 270.602 396.151 270.399Z" fill="#F774B9"/>
<path d="M399.853 311.415C409.039 307.298 418.438 303.671 428.009 300.549C433.067 298.897 430.907 290.875 425.802 292.545C415.557 295.909 405.496 299.81 395.661 304.233C390.796 306.42 395.015 313.584 399.853 311.415Z" fill="#F774B9"/>
<path d="M626.633 272.024C635.755 266.514 645.303 261.741 655.186 257.752C660.088 255.786 657.956 247.754 652.98 249.739C642.414 253.954 632.202 259.008 622.442 264.851C617.826 267.62 622.036 274.784 626.633 272.024Z" fill="#F774B9"/>
<path d="M629.836 295.25C639.29 295.813 648.706 296.764 658.076 298.158C663.301 298.934 665.562 290.93 660.282 290.145C650.127 288.641 640.028 287.551 629.818 286.942C624.473 286.619 624.491 294.927 629.818 295.25H629.836Z" fill="#F774B9"/>
<path d="M523.758 135.315C531.399 134.485 539.092 134.235 546.772 134.567C552.117 134.798 552.107 126.49 546.772 126.259C539.092 125.926 531.399 126.176 523.758 127.007C518.505 127.579 518.44 135.897 523.758 135.315Z" fill="#F774B9"/>
<path d="M637.175 138.62C642.706 138.715 648.17 139.846 653.284 141.952C658.242 143.946 660.392 135.915 655.491 133.939C649.664 131.604 643.453 130.374 637.175 130.311C631.83 130.228 631.83 138.537 637.175 138.62Z" fill="#F774B9"/>
<path d="M515.052 444.588C529.246 444.588 540.753 433.817 540.753 420.531C540.753 407.244 529.246 396.474 515.052 396.474C500.858 396.474 489.352 407.244 489.352 420.531C489.352 433.817 500.858 444.588 515.052 444.588Z" fill="#FFD3B3"/>
<path d="M523.875 419.935C524.357 416.363 519.55 412.765 513.139 411.899C506.727 411.033 501.138 413.227 500.656 416.8C500.173 420.372 504.98 423.969 511.392 424.835C517.804 425.701 523.392 423.507 523.875 419.935Z" fill="#1C3177"/>
<path d="M512.283 419.201C508.929 427.992 507.899 437.499 509.292 446.804" stroke="#1C3177" stroke-width="7" stroke-miterlimit="10"/>
<path d="M168.936 737.577L228.202 804.57L260.393 790.63L237.111 779.017L244.441 746.264L168.936 737.577Z" fill="#738DE0"/>
<path d="M290.136 746.993L316.474 722.733L330.681 749.412L290.136 746.993Z" fill="#738DE0"/>
<path d="M214.66 599.382L383.005 617.761C383.005 617.761 401.551 661.436 381.537 692.629L253.22 700.623L262.931 673.243L241.449 665.968L258.343 628.396L214.66 599.382Z" fill="#738DE0"/>
</svg>
