<svg width="1000" height="1000" viewBox="0 0 1000 1000" fill="none" xmlns="http://www.w3.org/2000/svg">
<g clip-path="url(#clip0_3_6874)">
<rect width="1000" height="1000" rx="50" fill="none"/>
<path d="M414.343 318.759L751.843 347.463C756.154 347.803 760.345 349.052 764.139 351.126C767.934 353.201 771.247 356.054 773.861 359.5C784.046 372.907 799.519 398.444 806.12 435.491C811.482 465.602 800.843 521.157 781.37 551.833C779.115 555.341 776.166 558.35 772.704 560.675C769.242 563 765.341 564.591 761.241 565.352L431.667 627.528L414.343 318.759Z" fill="#E1ECFF"/>
<path d="M431.939 627.501C496.243 621.309 541.725 547.255 533.525 462.095C525.325 376.936 466.549 312.921 402.244 319.112C337.94 325.304 292.458 399.359 300.658 484.518C308.858 569.677 367.634 633.693 431.939 627.501Z" fill="#F0F4FF"/>
<path d="M427.133 609.375C482.082 604.084 520.773 539.009 513.553 464.025C506.333 389.041 455.935 332.544 400.986 337.835C346.038 343.126 307.346 408.201 314.566 483.185C321.786 558.169 372.184 614.666 427.133 609.375Z" fill="#C7DCF9"/>
<g style="mix-blend-mode:multiply" opacity="0.37">
<path d="M440.056 327.778C440.056 327.778 378.852 438.639 423.268 545.713C393.556 595.713 401.63 650.639 407.315 652.824C413 655.009 607.028 584.787 612.398 588.583C617.769 592.38 563.889 296.296 563.889 296.296L440.056 327.778Z" fill="#C7DCF9"/>
</g>
<path d="M520.861 327.778C520.861 327.778 571.889 371.019 580.667 469.009C588.074 551.287 532.269 608.509 532.269 608.509L718.926 573.324C718.926 573.324 759.398 520.546 759.398 453.88C759.398 380.333 710.472 343.944 710.472 343.944L520.861 327.778Z" fill="#99ADF9"/>
<g style="mix-blend-mode:multiply" opacity="0.58">
<path d="M511.657 514.815C507.954 529.231 502.065 546.111 502.065 546.111L429.343 586L431.667 627.556L761.241 565.37C765.341 564.61 769.242 563.018 772.704 560.693C776.166 558.368 779.115 555.359 781.37 551.852C789.398 539.194 795.926 522.306 800.444 504.722L511.657 514.815Z" fill="#E1ECFF"/>
</g>
<path d="M612.398 383.278C612.398 383.278 640.278 379.722 644.667 400.87C647.87 416.324 627.139 423.028 627.139 423.028" stroke="#1C3177" stroke-width="9" stroke-miterlimit="10" stroke-linecap="round"/>
<path d="M634.88 487.454C634.88 487.454 664.241 495.102 658.62 516.667C655.13 530.056 631.537 532.667 631.537 532.667" stroke="#1C3177" stroke-width="9" stroke-miterlimit="10" stroke-linecap="round"/>
<path d="M685.454 423.046C677.185 422.611 673 433.371 673.12 444.88C673.241 456.389 675.491 474.509 686.407 475.046C697.324 475.583 699.37 462.713 698.509 449.046C697.648 435.38 694.444 423.519 685.454 423.046Z" fill="#1C3177"/>
<path d="M696.398 434.972C696.398 434.972 686.722 438.315 686.88 446.611C687.037 454.908 691.574 461.556 697.991 462.945C700.195 453.664 699.642 443.942 696.398 434.972Z" fill="#FF97C9"/>
<path d="M502.065 546.083C502.065 546.083 333.926 543.537 295.963 552.565C258 561.593 264.648 586.491 276.037 597.639C287.426 608.787 287.657 625.417 260.38 627.537C233.102 629.657 158.833 635.361 149.343 661.694C139.852 688.028 178.046 710.333 255.824 707.722C333.602 705.111 425.454 691.769 444.907 707.935C464.361 724.102 416.676 726.454 437.556 747.343C458.435 768.232 568.046 760.157 605.056 745.213C642.065 730.269 661.537 705.352 640.167 680.204C618.796 655.056 590.259 649.074 597.509 635.12C603.676 623.25 603.407 605.778 588 598.028C562.87 602.38 431.954 627.5 431.954 627.5C431.954 627.5 426.852 612.815 441.759 606.482C456.667 600.148 485.185 590.148 502.065 546.083Z" fill="#FEA691"/>
<g style="mix-blend-mode:multiply" opacity="0.21">
<path d="M382.63 546.435C382.63 546.435 476.352 559.926 441.759 606.481C508.426 625.815 570.231 534.556 570.231 534.556L461.732 512.38L382.63 546.435Z" fill="#FEA691"/>
</g>
<g style="mix-blend-mode:multiply" opacity="0.21">
<path d="M492.028 616.018C492.028 616.018 589.806 604.037 600.361 627.528C624.657 615.185 618.963 584.824 618.963 584.824L525 594.315L492.028 616.018Z" fill="#FEA691"/>
</g>
<g style="mix-blend-mode:multiply" opacity="0.21">
<path d="M197.407 635.704C179.083 643.185 168.806 673.87 207.713 681.305C246.62 688.741 409.852 671.972 435.63 686.046C461.407 700.12 449.333 717.398 449.333 717.398L135.907 739.509L129.269 645.555L197.407 635.704Z" fill="#FEA691"/>
</g>
<path d="M258.009 798.815C251.167 787.046 279.204 772.565 308.009 772.093C336.815 771.62 359.731 785.056 357.676 794.232C355.62 803.408 323.324 807.408 306.083 807.519C288.843 807.63 261.963 805.62 258.009 798.815Z" fill="#FEA691"/>
</g>
<defs>
<clipPath id="clip0_3_6874">
<rect width="1000" height="1000" rx="50" fill="white"/>
</clipPath>
</defs>
</svg>
