<svg width="1000" height="1000" viewBox="0 0 1000 1000" fill="none" xmlns="http://www.w3.org/2000/svg">
<g clip-path="url(#clip0_3_6895)">
<rect width="1000" height="1000" rx="50" fill="none"/>
<path opacity="0.27" d="M406.185 205.417L199.861 774C196.852 782.277 197.147 791.395 200.683 799.46C204.219 807.526 210.726 813.92 218.852 817.315C266.704 837.398 369.37 872.324 504.694 872.324C640.018 872.324 742.657 837.398 790.546 817.315C798.671 813.918 805.175 807.523 808.709 799.458C812.244 791.393 812.537 782.276 809.528 774L603.204 205.417H406.185Z" fill="#FF97C9"/>
<path d="M287.019 271.37C297.63 271.37 306.231 262.769 306.231 252.158C306.231 241.547 297.63 232.945 287.019 232.945C276.407 232.945 267.806 241.547 267.806 252.158C267.806 262.769 276.407 271.37 287.019 271.37Z" fill="#738DE0"/>
<path d="M722.37 271.37C732.981 271.37 741.583 262.769 741.583 252.158C741.583 241.547 732.981 232.945 722.37 232.945C711.759 232.945 703.157 241.547 703.157 252.158C703.157 262.769 711.759 271.37 722.37 271.37Z" fill="#738DE0"/>
<path d="M504.694 302.926C515.305 302.926 523.907 294.324 523.907 283.713C523.907 273.102 515.305 264.5 504.694 264.5C494.083 264.5 485.481 273.102 485.481 283.713C485.481 294.324 494.083 302.926 504.694 302.926Z" fill="#738DE0"/>
<path d="M762.037 214.907C762.037 250.815 657.741 279.917 503.611 279.917C349.482 279.917 247.398 250.815 247.398 214.907C247.398 179 349.426 149.907 503.565 149.907C657.704 149.907 762.037 179.009 762.037 214.907Z" fill="#99ADF9"/>
<g style="mix-blend-mode:soft-light" opacity="0.42">
<path d="M762.037 191.185C762.037 227.083 657.741 256.195 503.611 256.195C349.482 256.195 247.444 227.083 247.444 191.185C247.444 155.287 349.472 126.176 503.611 126.176C657.75 126.176 762.037 155.287 762.037 191.185Z" fill="white"/>
</g>
<path d="M504.954 213.009C548.991 213.009 590.38 207.713 626.407 198.398C618.565 140.833 564.963 96.2964 500 96.2964C436.018 96.2964 383.056 139.509 373.981 195.824C412.167 206.732 457 213.009 504.954 213.009Z" fill="#99ADF9"/>
<path d="M604.518 654.232C605.509 644.685 596.426 640.046 580.926 638.945C565.426 637.843 556.046 641.148 555.055 650.695C554.701 653.996 555.514 657.318 557.352 660.084C557.688 660.612 557.866 661.226 557.866 661.852C557.866 662.478 557.688 663.092 557.352 663.621C555.889 665.991 554.75 668.435 555.583 669.371C556.787 670.722 559.63 669.537 562.898 667.306C563.359 666.994 563.892 666.805 564.446 666.758C565.001 666.711 565.558 666.807 566.065 667.037C568.24 667.97 570.514 668.657 572.842 669.083C573.488 669.2 574.085 669.504 574.558 669.959C575.031 670.414 575.359 670.998 575.5 671.639C576.055 674.417 577.157 677.195 579.352 677.38C582.13 677.639 583.565 675.398 584.111 672.111C584.212 671.419 584.529 670.777 585.019 670.278C585.508 669.779 586.144 669.448 586.833 669.333C588.026 669.147 589.207 668.89 590.37 668.565C590.926 668.423 591.509 668.43 592.062 668.584C592.614 668.739 593.117 669.035 593.518 669.445C596.167 672.028 598.62 673.408 600.055 672.222C600.981 671.435 600.417 668.982 599.518 666.667C599.279 666.071 599.216 665.419 599.338 664.788C599.459 664.158 599.76 663.575 600.204 663.111C602.627 660.741 604.152 657.602 604.518 654.232Z" fill="#FF97C9"/>
<path d="M400.926 571C390.222 595.074 387.963 642.778 386.38 645.944C384.796 649.111 373.768 654.843 376.583 660.648C379.176 665.981 397.148 673.25 402.509 671.759C410.843 669.5 419.074 647.278 424.139 633.204C442.657 644.315 473.62 648.074 473.62 648.074C473.62 648.074 470.481 671.167 468.065 676.222C465.648 681.278 457.194 687.454 458.935 693.62C460.676 699.787 477.361 703.269 484.768 704.222C492.176 705.176 504.167 664.519 506.935 650.287C556.204 655.5 615.676 651.713 615.676 651.713C615.676 651.713 622.796 676.537 615.833 687.611C612.657 692.667 610.639 703.352 612.352 704.065C622.954 708.333 636.62 705.917 640.981 702.796C645.889 699.315 663.13 619.204 652.685 588.963C642.241 558.722 621.611 541.389 585.306 532.222C549 523.056 494.204 522.63 494.204 522.63L400.926 571Z" fill="white"/>
<path d="M577.176 522.676C577.176 522.676 568.843 554.306 585.722 571C602.602 587.695 637.157 585.565 655.917 563.732C637.963 531 577.176 522.676 577.176 522.676Z" fill="#1C3177"/>
<path d="M379.787 612.843C379.787 612.843 411.694 624.352 420.12 655.074C401.139 685.093 371.769 675.926 371.769 675.926" fill="#1C3177"/>
<path d="M615.296 582.028C625.102 582.028 632.222 585.324 636.491 591.611C639.741 596.398 649.296 608.019 659.972 601.621C673.945 593.287 652.463 564.287 652.463 564.287L625.732 562.232L615.296 582.028Z" fill="#1C3177"/>
<path d="M398.241 578.259C398.241 578.259 413.981 614.565 453.491 614.537C488.102 614.537 509.972 574.889 499.463 547.426C465.509 561.241 398.241 578.259 398.241 578.259Z" fill="#F0F4FF"/>
<path d="M389.991 470.259C389.991 470.259 380.38 447.843 386.426 438.463C392.472 429.084 412.037 462.195 412.037 462.195L389.991 470.259Z" fill="#FEC272"/>
<path d="M493.907 470.259C493.907 470.259 503.509 447.843 497.463 438.463C491.417 429.084 471.843 462.195 471.843 462.195L493.907 470.259Z" fill="#FEC272"/>
<path d="M506.639 526.991C503.574 562.685 491.611 593.426 434.204 588.491C376.796 583.556 369.278 551.139 372.342 515.454C375.407 479.769 407.963 453.417 445.046 456.593C482.129 459.769 509.704 491.296 506.639 526.991Z" fill="white"/>
<path d="M428.241 457.167C428.241 457.167 353.333 463.648 345.148 489.713C339.768 506.88 367.491 505.963 385.389 487.722C389 480.732 428.241 457.167 428.241 457.167Z" fill="white"/>
<path d="M450.231 457.167C450.231 457.167 525.13 463.648 533.315 489.713C538.704 506.88 510.981 505.963 493.074 487.722C489.463 480.732 450.231 457.167 450.231 457.167Z" fill="#1C3177"/>
<path d="M395.991 533.787C400.92 533.787 404.917 529.791 404.917 524.861C404.917 519.932 400.92 515.935 395.991 515.935C391.061 515.935 387.065 519.932 387.065 524.861C387.065 529.791 391.061 533.787 395.991 533.787Z" fill="#1C3177"/>
<path d="M482.222 541.195C487.152 541.195 491.148 537.198 491.148 532.269C491.148 527.339 487.152 523.343 482.222 523.343C477.293 523.343 473.296 527.339 473.296 532.269C473.296 537.198 477.293 541.195 482.222 541.195Z" fill="#1C3177"/>
<path d="M468.889 552.546C467.898 564.102 455.296 572.445 436.028 570.796C416.759 569.148 406.398 558.815 407.417 547.259C408.435 535.704 419.972 531.88 439.232 533.537C458.491 535.195 469.889 540.991 468.889 552.546Z" fill="#FF97C9"/>
<g style="mix-blend-mode:multiply">
<path d="M427.17 545.141C427.375 542.756 425.521 540.65 423.03 540.436C420.538 540.222 418.352 541.981 418.148 544.366C417.943 546.75 419.796 548.857 422.288 549.071C424.779 549.285 426.965 547.525 427.17 545.141Z" fill="#FF97C9"/>
</g>
<g style="mix-blend-mode:multiply">
<path d="M457.993 547.795C458.198 545.411 456.344 543.304 453.853 543.09C451.361 542.876 449.175 544.636 448.971 547.02C448.766 549.405 450.619 551.511 453.111 551.725C455.602 551.939 457.788 550.18 457.993 547.795Z" fill="#FF97C9"/>
</g>
<path d="M446.222 456.713C446.222 456.713 433.25 480.556 462.667 498.148C484.676 511.296 503.732 501.991 503.732 501.991C503.732 501.991 495.63 460.528 446.222 456.713Z" fill="#1C3177"/>
<path d="M576.852 589.009C585.944 589.935 591.241 608.639 583.491 614.537C575.741 620.435 562.778 610.315 561.982 601.778C561.185 593.241 565.315 587.796 576.852 589.009Z" fill="#1C3177"/>
<path d="M477.537 601.296C480.722 591.732 502.537 593.713 512.333 602.574C522.129 611.435 527.037 629.926 522.139 633.408C517.241 636.889 507.111 625.741 498.065 622.491C489.018 619.241 474.444 610.556 477.537 601.296Z" fill="#1C3177"/>
<g style="mix-blend-mode:soft-light" opacity="0.42">
<path d="M571.881 150.85C574.799 139.287 555.675 124.492 529.168 117.804C502.66 111.117 478.807 115.069 475.889 126.632C472.972 138.195 492.096 152.99 518.603 159.677C545.111 166.365 568.964 162.413 571.881 150.85Z" fill="white"/>
</g>
<path d="M727.117 338.378C724.675 332.31 717.776 329.372 711.709 331.815C705.642 334.258 702.703 341.156 705.146 347.223L756.063 473.692C758.506 479.759 765.404 482.697 771.471 480.255C777.539 477.812 780.477 470.913 778.034 464.846L727.117 338.378Z" fill="#FEC272"/>
<path d="M214.658 622.118C217.151 616.072 214.271 609.149 208.224 606.655C202.178 604.162 195.255 607.042 192.761 613.089L166.28 677.306C163.787 683.352 166.667 690.275 172.713 692.769C178.76 695.262 185.683 692.382 188.176 686.335L214.658 622.118Z" fill="#FEC272"/>
</g>
<defs>
<clipPath id="clip0_3_6895">
<rect width="1000" height="1000" rx="50" fill="white"/>
</clipPath>
</defs>
</svg>
