<svg width="1000" height="1000" viewBox="0 0 1000 1000" fill="none" xmlns="http://www.w3.org/2000/svg">
<g clip-path="url(#clip0_3_6966)">
<rect width="1000" height="1000" rx="50" fill="none"/>
<path opacity="0.53" d="M149.074 473.148C160.185 463.694 198.815 464.62 221.417 464.62C244.018 464.62 288.602 465.62 300.87 481.176C313.139 496.732 279.074 513.296 226.342 513.296C173.611 513.296 116.083 501.241 149.074 473.148Z" fill="#99ADF9"/>
<path d="M772.009 518.806C772.009 518.806 853.342 520.546 882.676 525.5C912.009 530.454 949.342 566.519 916.676 604.491C884.009 642.463 835.639 638.028 698.528 638.028C722.009 562.722 772.009 518.806 772.009 518.806Z" fill="#99ADF9"/>
<path d="M252.444 536.445C252.444 536.445 206.954 528.982 144.018 538.519C105.352 544.38 67.361 565.037 70.8703 594.602C75.9999 637.926 179.398 621.454 206.981 645.333C234.565 669.213 174.454 676.185 157.592 701.185C140.731 726.185 156.065 760.111 234.842 765.269C313.62 770.426 558.38 773.056 614.926 765.963C671.472 758.87 706.204 692.648 616.167 657.037C475.583 628.398 252.444 536.445 252.444 536.445Z" fill="#99ADF9"/>
<path d="M812.426 553.407C812.426 626.491 703.694 685.741 501.194 685.741C298.694 685.741 195.639 626.481 195.639 553.407C195.639 480.333 298.75 421.074 501.194 421.074C703.639 421.074 812.426 480.324 812.426 553.407Z" fill="#F0F6FF"/>
<path opacity="0.36" d="M363.241 490.546C363.241 490.546 252.009 501.75 244.009 650.408C288.009 729.065 461.343 710.408 461.343 710.408C461.343 710.408 454.778 559.713 514.306 477.593C638.009 481.593 726.009 480.37 759.343 647.037C827.343 612.37 832.574 536.917 832.574 536.917C832.574 536.917 799.241 430.25 750.574 418.25C701.907 406.25 623.241 420.917 623.241 420.917L363.241 490.546Z" fill="#FF97C9"/>
<g style="mix-blend-mode:multiply" opacity="0.64">
<path d="M716.009 499.639C716.009 535.408 641.269 564.408 502.12 564.408C362.972 564.408 292.056 535.408 292.056 499.639C292.056 463.87 362.935 434.88 502.12 434.88C641.306 434.88 716.009 463.889 716.009 499.639Z" fill="#E1ECFF"/>
</g>
<path d="M598.213 509.259C598.213 509.259 611.843 524.667 613.62 537.111C615.398 549.556 613.917 564.963 628.435 570C642.954 575.037 681.213 578 693.028 562.889C704.842 547.778 696.88 523.482 675.546 505.111C646.843 479.63 614.213 477.556 614.213 477.556L598.213 509.259Z" fill="#FEC272"/>
<g style="mix-blend-mode:multiply" opacity="0.45">
<path d="M593.954 539.019C593.954 539.019 655.065 534.296 653.676 469.667C606.916 471.982 582.907 504.658 582.907 504.658L593.954 539.019Z" fill="#FEC272"/>
</g>
<path d="M394.528 509.259C394.528 509.259 408.157 524.667 409.935 537.111C411.713 549.556 410.231 564.963 424.75 570C439.268 575.037 477.528 578 489.342 562.889C501.157 547.778 493.194 523.482 471.861 505.111C443.157 479.63 410.528 477.556 410.528 477.556L394.528 509.259Z" fill="#FEC272"/>
<g style="mix-blend-mode:multiply" opacity="0.45">
<path d="M408.63 492.5C408.63 492.5 440.287 544.991 497.417 514.722C474.352 473.982 434.37 467.195 434.37 467.195L408.63 492.5Z" fill="#FEC272"/>
</g>
<path d="M574.074 282.63C582.407 282.907 608.898 280.972 619.954 313.583C631.009 346.194 639.574 369.972 654.5 391.25C669.426 412.528 684.63 451.222 654.5 478.287C624.37 505.352 589.009 498.769 572.704 490.741C556.398 482.713 537.037 469.444 541.741 424.139C546.444 378.833 560.815 351.176 562.472 326.296C564.129 301.417 566.667 293.13 574.074 282.63Z" fill="#FF8D76"/>
<path d="M496.296 260.407C539.546 258.648 574.694 275.074 590.694 296.852C606.694 318.63 616.028 371.519 618.028 387.296C620.028 403.074 627.139 411.519 634.694 421.963C642.796 433.167 656.694 467.741 641.805 490.852C626.917 513.963 602.657 519.889 576.852 507.222C550.852 517.407 528.759 522.63 486.759 515.556C444.759 508.482 404.435 472.824 394.167 401.185C388.241 359.704 388.167 309.037 408.055 282.667C441.231 273.574 455.352 262.037 496.296 260.407Z" fill="#FEC272"/>
<path d="M408.157 282.63C399.268 282.926 370.824 280.852 358.972 315.815C347.12 350.778 337.963 376.259 321.935 399.074C305.907 421.889 289.639 463.37 321.935 492.407C354.231 521.444 392.157 514.333 409.639 505.741C427.12 497.148 447.861 482.926 442.824 434.333C437.787 385.741 422.379 356.111 420.602 329.444C418.824 302.778 416.157 293.889 408.157 282.63Z" fill="#FF8D76"/>
<path d="M498.787 408.556C505.414 408.556 510.787 403.183 510.787 396.556C510.787 389.928 505.414 384.556 498.787 384.556C492.159 384.556 486.787 389.928 486.787 396.556C486.787 403.183 492.159 408.556 498.787 408.556Z" fill="#1C3177"/>
<path d="M596.269 408.556C602.896 408.556 608.269 403.183 608.269 396.556C608.269 389.928 602.896 384.556 596.269 384.556C589.641 384.556 584.269 389.928 584.269 396.556C584.269 403.183 589.641 408.556 596.269 408.556Z" fill="#1C3177"/>
<path d="M480 366.083C479.074 361.732 489.87 356.38 495.37 352.361C500.87 348.343 509.157 346.806 513.518 354.139C517.879 361.472 502.935 368.37 497.426 369.546C491.916 370.722 480.981 370.852 480 366.083Z" fill="#FF8D76"/>
<path d="M608.259 364.454C608.62 360.445 599.204 356.204 594.287 352.87C589.37 349.537 582.352 348.611 579.37 355.537C576.389 362.463 589.407 367.861 594.083 368.62C598.759 369.38 607.861 368.852 608.259 364.454Z" fill="#FF8D76"/>
<path d="M557.12 435.963C557.972 430.963 593.231 429.296 596.268 435.963C599.305 442.63 589.787 459.741 580.009 459.741C570.231 459.741 554.898 449.074 557.12 435.963Z" fill="#1C3177"/>
<path d="M580.944 445.519C581.31 455.02 580.876 464.535 579.648 473.963" stroke="#1C3177" stroke-width="7" stroke-miterlimit="10" stroke-linecap="round"/>
<g style="mix-blend-mode:multiply">
<path d="M444.324 570.037C444.324 570.037 448.472 558.926 443.398 548.935" stroke="#FEC272" stroke-width="7" stroke-miterlimit="10" stroke-linecap="round"/>
</g>
<g style="mix-blend-mode:multiply">
<path d="M477.055 567.815C478.443 561.422 477.559 554.746 474.555 548.935" stroke="#FEC272" stroke-width="7" stroke-miterlimit="10" stroke-linecap="round"/>
</g>
<g style="mix-blend-mode:multiply">
<path d="M648.009 570.037C648.009 570.037 652.157 558.926 647.083 548.935" stroke="#FEC272" stroke-width="7" stroke-miterlimit="10" stroke-linecap="round"/>
</g>
<g style="mix-blend-mode:multiply">
<path d="M680.741 567.815C682.135 561.424 681.254 554.746 678.25 548.935" stroke="#FEC272" stroke-width="7" stroke-miterlimit="10" stroke-linecap="round"/>
</g>
<path opacity="0.53" d="M735.926 683.158C747.037 673.695 785.657 674.621 808.268 674.621C830.88 674.621 875.454 675.63 887.722 691.185C899.991 706.741 865.926 723.296 813.194 723.296C760.463 723.296 702.972 711.25 735.926 683.158Z" fill="#99ADF9"/>
</g>
<defs>
<clipPath id="clip0_3_6966">
<rect width="1000" height="1000" rx="50" fill="white"/>
</clipPath>
</defs>
</svg>
