<svg width="1008" height="1008" viewBox="0 0 1008 1008" fill="none" xmlns="http://www.w3.org/2000/svg">
<g filter="url(#filter0_d_3_6930)">
<g clip-path="url(#clip0_3_6930)">
<rect x="4" width="1000" height="1000" rx="50" fill="none"/>
<path d="M185.62 428.704C185.62 428.704 100.509 458.407 112.065 532.528C123.62 606.648 207.704 641.731 218.861 634.555C230.019 627.38 161.083 589.13 154.306 535.722C147.528 482.315 205.111 480.305 205.111 480.305L185.62 428.704Z" fill="#FF8D76"/>
<path d="M125.185 648.204C125.185 648.204 117.12 559.926 215.343 563.333C260.889 642.195 215.343 684.898 215.343 684.898L125.185 648.204Z" fill="#FFD3B3"/>
<path d="M726.37 256.426C726.37 256.426 743.685 213.722 757.685 200.435C771.685 187.148 783.074 181.222 789.482 206.13C795.889 231.037 807.75 274.695 802.287 297.713C753.417 278.491 726.37 256.426 726.37 256.426Z" fill="#FF8D76"/>
<path d="M725.093 521.546C725.093 521.546 759.972 558.954 786.204 561.806C812.435 564.657 840.935 564.491 851.018 552.944C861.102 541.398 863.055 520.833 858.296 511.509C853.537 502.185 824.602 494.111 809.574 487.148C763.259 490.157 725.093 521.546 725.093 521.546Z" fill="#FF8D76"/>
<path d="M644.287 252.87C644.287 252.87 630.759 213.963 623.444 201.852C616.13 189.741 611.102 170.296 594.028 177.176C576.954 184.056 559.148 236.491 557.917 259.741C556.685 282.991 546.287 321.185 537.991 321.426C529.694 321.667 410.342 283.704 327.315 291.056C244.287 298.407 205.611 334.722 187.102 385.259C168.593 435.796 171.213 498.898 209.167 525.231C247.12 551.565 248.315 554.861 244.287 560.815C240.259 566.768 229.574 572.444 239.065 584.546C248.555 596.648 274.417 595.935 307.861 590.713C341.305 585.491 390.167 580.278 410.111 581.222C430.055 582.167 448.315 581.222 454.963 572.685C461.611 564.148 462.194 556.074 460.889 551.806C490.518 553.935 541.787 550.731 568.13 541.13C598.38 571.731 620.796 583.833 644.287 587.426C667.778 591.018 699.083 588.852 708.342 581.018C717.602 573.185 712.25 535.306 678.444 519.731C723.287 541.167 777.62 533.62 805.852 515.537C839.046 494.343 849.759 461.167 842.167 433.806C836.731 414.185 831.055 402.324 829.648 367.657C828.241 332.991 820.796 289.046 790.426 271.648C760.055 254.25 719.093 240.296 644.287 252.87Z" fill="#FEA691"/>
<path d="M685.093 248.333C685.093 248.333 717.352 271.296 726.37 301.852C735.389 332.407 741.398 386.63 722.102 416.361C702.805 446.093 659.435 446.917 649.342 448C628.046 450.287 618.028 475.204 632.676 490.38C647.324 505.556 717.722 540.741 717.722 540.741L813.352 535.565L878.685 462.491L847.37 432.445C847.37 432.445 822.185 444.704 801.185 435.917C780.185 427.13 776.824 399.546 771.444 367.12C766.065 334.695 767.935 274.083 708.481 248.241C691.102 236.815 685.093 248.333 685.093 248.333Z" fill="#FFD3B3"/>
<path d="M550.787 511.324C550.787 511.324 557.898 529.842 564.676 539.157" stroke="#FF8D76" stroke-width="9" stroke-miterlimit="10" stroke-linecap="round"/>
<path d="M327.324 424.398C327.324 424.398 373.111 433.889 385.657 470.898C398.204 507.907 370.944 537.093 345.796 546.824" stroke="#FF8D76" stroke-width="9" stroke-miterlimit="10" stroke-linecap="round"/>
<path d="M371.778 529.37C371.778 529.37 399.676 530.898 421.982 529.37C444.287 527.842 455.435 538.759 460.87 551.805" stroke="#FF8D76" stroke-width="9" stroke-miterlimit="10" stroke-linecap="round"/>
<path d="M610.12 264.972C610.12 264.972 591.018 254.787 590.898 237.454C590.778 220.12 593.037 200.417 599.231 198.565C605.426 196.713 631.491 236.324 629.787 260.269C618.12 264.398 610.12 264.972 610.12 264.972Z" fill="#FFD3B3"/>
<path d="M644.287 252.87C644.287 252.87 623.917 258.324 612.491 264.972" stroke="#FF8D76" stroke-width="9" stroke-miterlimit="10" stroke-linecap="round"/>
<path d="M348.194 672.444C348.194 672.444 445.352 637.259 496.241 599.139C497.462 607.062 499.447 614.848 502.167 622.389L522.333 618.593L529.213 635.787L588.055 632.824L600.87 652.269L623.444 658.685C623.444 658.685 582.046 735.787 525.815 772.093C522.259 763.074 518.815 759.63 514.704 759.75C510.592 759.87 494.333 762.361 490.268 760.935C486.204 759.509 493.204 741.722 493.204 741.722C493.204 741.722 457.287 739.463 438.778 732.463C420.268 725.463 407.111 712.176 401.741 709.204C396.37 706.232 369.333 702.806 367.102 699.019C364.87 695.232 374.463 690.472 370.898 684.065C367.333 677.657 348.194 672.444 348.194 672.444Z" fill="#E1ECFF"/>
<path d="M267.694 658.528L281.926 675.611L310.241 667.065L302.491 661.056L306.917 654.093L267.694 658.528Z" fill="#E1ECFF"/>
<path d="M681.148 622.222C681.148 622.222 693.639 626.333 703.287 636.111C700.307 636.732 697.495 637.985 695.04 639.785C692.585 641.585 690.544 643.891 689.056 646.546C689.056 646.546 698.074 646.389 703.287 650.028C708.5 653.667 705.667 676.602 709.62 695.259C713.574 713.917 716.574 727.528 716.574 731.37C716.574 735.213 727.333 756.676 727.333 756.676C727.333 756.676 841.37 767.12 915.861 736.435C900.843 732.167 880.12 722.833 880.12 722.833L889.611 712.389C889.611 712.389 863.352 698.945 860.185 695.63C857.019 692.315 873.444 622.222 873.444 622.222C873.444 622.222 843.87 624.074 818.407 622.222C792.944 620.37 736.296 602.259 681.148 622.222Z" fill="#E1ECFF"/>
<path d="M616.759 747.898C616.759 747.898 634.435 725.592 659.231 709.935C666.111 728.324 671.806 767.111 671.806 767.111C671.806 767.111 657.093 770.315 644.287 767.111C631.481 763.907 643.333 749.796 616.759 747.898Z" fill="#E1ECFF"/>
<path d="M732.213 431.787C737.676 424.13 778.074 421.38 783.842 429.815C789.611 438.25 774.694 456.546 760.213 456.546C745.731 456.546 724.898 442.056 732.213 431.787Z" fill="#413F4C"/>
<path d="M685.093 424.639C691.249 424.639 696.241 419.648 696.241 413.491C696.241 407.334 691.249 402.343 685.093 402.343C678.936 402.343 673.944 407.334 673.944 413.491C673.944 419.648 678.936 424.639 685.093 424.639Z" fill="#413F4C"/>
<path d="M809.657 424.639C815.814 424.639 820.806 419.648 820.806 413.491C820.806 407.334 815.814 402.343 809.657 402.343C803.5 402.343 798.509 407.334 798.509 413.491C798.509 419.648 803.5 424.639 809.657 424.639Z" fill="#413F4C"/>
<path d="M717.63 374.074C718.963 366 705.991 361.25 695.278 360.555C684.565 359.861 674.509 362.778 674.759 367.509C675.009 372.241 715.037 389.741 717.63 374.074Z" fill="#FFD3B3"/>
<path d="M777.833 373.898C775.981 365.954 786.528 361.685 795.481 361.315C804.435 360.944 813.148 364.092 813.352 368.722C813.556 373.352 781.37 389.315 777.833 373.898Z" fill="#FFD3B3"/>
<path d="M735.713 480.87C735.713 480.87 751.805 479.13 759.648 466.63C768.907 479.444 782.361 476.435 782.361 476.435C782.361 476.435 785.139 501.741 762.194 503.639C738.13 505.639 735.713 480.87 735.713 480.87Z" fill="#FF6EA9"/>
<path d="M759.741 466.667C759.741 466.667 761.593 481.852 761.954 490.389" stroke="#EA4E95" stroke-width="7" stroke-miterlimit="10" stroke-linecap="round"/>
<path d="M717.194 477.074C717.194 477.074 742.38 489.63 759.787 466.63C771.611 483.833 795.537 474.852 795.537 474.852" stroke="#413F4C" stroke-width="8" stroke-linecap="round" stroke-linejoin="round"/>
<path d="M454.185 625.287L511.426 652.204L475.991 691.741L394.537 653.824L454.185 625.287Z" fill="#99ADF9"/>
<path d="M536.574 664.852L599.676 691.741" stroke="#99ADF9" stroke-width="7" stroke-miterlimit="10" stroke-linecap="round"/>
<path d="M757 649.157L769.454 716.62" stroke="#99ADF9" stroke-width="7" stroke-miterlimit="10" stroke-linecap="round"/>
<path d="M781.778 649.157L794.232 716.62" stroke="#99ADF9" stroke-width="7" stroke-miterlimit="10" stroke-linecap="round"/>
<path d="M806.565 649.157L819.019 716.62" stroke="#99ADF9" stroke-width="7" stroke-miterlimit="10" stroke-linecap="round"/>
<path d="M523.343 680.324L586.454 707.213" stroke="#99ADF9" stroke-width="7" stroke-miterlimit="10" stroke-linecap="round"/>
<path d="M511.426 696.491L574.528 723.38" stroke="#99ADF9" stroke-width="7" stroke-miterlimit="10" stroke-linecap="round"/>
<path d="M654.407 563.333C654.407 563.333 667.167 567.463 664.482 583.871" stroke="#FF8D76" stroke-width="9" stroke-miterlimit="10" stroke-linecap="round"/>
<path d="M687.88 560.519C687.88 560.519 696.454 565.241 693.769 581.648" stroke="#FF8D76" stroke-width="9" stroke-miterlimit="10" stroke-linecap="round"/>
</g>
</g>
<defs>
<filter id="filter0_d_3_6930" x="0" y="0" width="1008" height="1008" filterUnits="userSpaceOnUse" color-interpolation-filters="sRGB">
<feFlood flood-opacity="0" result="BackgroundImageFix"/>
<feColorMatrix in="SourceAlpha" type="matrix" values="0 0 0 0 0 0 0 0 0 0 0 0 0 0 0 0 0 0 127 0" result="hardAlpha"/>
<feOffset dy="4"/>
<feGaussianBlur stdDeviation="2"/>
<feComposite in2="hardAlpha" operator="out"/>
<feColorMatrix type="matrix" values="0 0 0 0 0 0 0 0 0 0 0 0 0 0 0 0 0 0 0.25 0"/>
<feBlend mode="normal" in2="BackgroundImageFix" result="effect1_dropShadow_3_6930"/>
<feBlend mode="normal" in="SourceGraphic" in2="effect1_dropShadow_3_6930" result="shape"/>
</filter>
<clipPath id="clip0_3_6930">
<rect x="4" width="1000" height="1000" rx="50" fill="white"/>
</clipPath>
</defs>
</svg>
