<svg width="1000" height="1000" viewBox="0 0 1000 1000" fill="none" xmlns="http://www.w3.org/2000/svg">
<g clip-path="url(#clip0_3_8019)">
<rect width="1000" height="1000" rx="50" fill="none"/>
<path d="M299.167 724.667C196.667 726.333 149.667 724.5 186.833 720.5C224.167 716.5 186.667 716 128.833 716.5C71 717 45.5 712 131 706.833C216.5 701.667 530 696.333 494 703C458 709.667 431.5 711.167 453.333 713.667C475.167 716.167 440.167 722.333 299.167 724.667Z" fill="#99ADF9"/>
<path d="M726 691.833C619.667 692.833 571 696 609.667 699.167C648.5 702.333 631 703.5 570.833 704.5C510.667 705.5 463.333 711.833 552 715.167C640.833 718.333 965.833 715.5 928.333 709.333C890.833 703.167 863.333 702.333 885.833 699C908.667 695.833 872.333 690.5 726 691.833Z" fill="#99ADF9"/>
<path d="M471.833 703.667H160.5C157.833 703.667 155.5 701.5 155.5 698.667V686C155.5 683.333 157.667 681 160.5 681H472C474.667 681 477 683.167 477 686V698.667C476.833 701.5 474.667 703.667 471.833 703.667Z" fill="#E1ECFF"/>
<path d="M478.167 703.667H284C281.333 703.667 279 701.5 279 698.667V686C279 683.333 281.167 681 284 681H478.167C480.833 681 483.167 683.167 483.167 686V698.667C483.167 701.5 481 703.667 478.167 703.667Z" fill="#CDE0FC"/>
<path d="M392.167 681.333H165.5C161.833 681.333 158.5 679 157.167 675.5L105.5 532.667C103.333 526.833 107.667 520.833 113.833 520.833H340.5C344.167 520.833 347.5 523.167 348.833 526.667L400.5 669.5C402.5 675.167 398.333 681.333 392.167 681.333Z" fill="#CDE0FC"/>
<path d="M378.333 673.167H171.167C167.5 673.167 164.167 670.833 162.833 667.333L117.167 540.833C115 535 119.333 529 125.5 529H332.833C336.5 529 339.833 531.333 341.167 534.833L386.833 661.333C388.833 667 384.5 673.167 378.333 673.167Z" fill="#FF8D76"/>
<path d="M191.5 695.667H169.833C169 695.667 168.333 695 168.333 694.167V690.5C168.333 689.667 169 689 169.833 689H191.5C192.333 689 193 689.667 193 690.5V694.167C193 695 192.333 695.667 191.5 695.667Z" fill="#CDE0FC"/>
<path d="M221.667 695.667H200C199.167 695.667 198.5 695 198.5 694.167V690.5C198.5 689.667 199.167 689 200 689H221.667C222.5 689 223.167 689.667 223.167 690.5V694.167C223.333 695 222.5 695.667 221.667 695.667Z" fill="#CDE0FC"/>
<path d="M208.667 660.333H327.833C333.833 660.333 337.167 653.333 333.5 648.667L255.5 549.5C252.167 545.167 245.333 546.167 243.167 551.167L202 650.333C200 655 203.5 660.333 208.667 660.333Z" fill="#FEC272"/>
<path d="M243.833 577L258 620C258.667 622.167 260.833 623.667 263.167 623.667H265.333C268.167 623.667 270.167 621.5 270 618.667L266.167 576C266 573.333 263.667 571.167 261 571.167L248.5 570.833C245 570.667 242.667 573.833 243.833 577Z" fill="white"/>
<path d="M275.167 637.167C275.5 641.5 272.167 645 267.833 645C263.5 645 259.667 641.5 259.333 637.167C259 632.833 262.333 629.333 266.667 629.333C271 629.333 274.833 632.833 275.167 637.167Z" fill="white"/>
<path d="M72.8334 499.167L93.3334 515.333C93.3334 515.333 98.8334 507.667 110.667 503.667C122.5 499.667 138.5 502.667 138.5 502.667L146.833 455.667C146.833 455.667 136.833 487 122.167 489.167C107.5 491.333 95.5 471.667 95.5 471.667C95.5 471.667 104.167 493.167 95.8334 499.667C87.1667 506.333 72.8334 499.167 72.8334 499.167Z" fill="#1C3177"/>
<path d="M407.667 636.333L424 661.167L466.5 611.833L424 676.5L407.667 636.333Z" fill="#E1EAF6"/>
<path d="M432 479.667L469.333 413L441 481.5L432 479.667Z" fill="#E1EAF6"/>
<path d="M621.333 510.167C618.833 513.333 615.5 517 612 521C593.667 541 564.333 568.5 549.167 576.667C531 586.333 515 588.667 507.5 578C500 567.333 499.5 559 511 546.167C522.5 533.333 565.667 476.167 588.5 457.5C604.667 444.333 624.833 450.333 632.333 463.333C640 476 636.833 491 621.333 510.167Z" fill="#F774B9"/>
<path d="M612 520.833C593.667 540.833 564.333 568.333 549.167 576.5C531 586.167 515 588.5 507.5 577.833C535.667 575.5 589 515.167 589 515.167L612 520.833Z" fill="#F261B4"/>
<path d="M544.167 570.167C528.667 599.833 501.333 581.333 480 560.5C458.667 539.667 434.833 506.5 431.333 496.667C430.167 493.5 429.833 490.167 430.167 486.833C430.667 480 434.167 474 439 474C446.167 474 502.333 511.667 521 527.167C534.833 538.667 545.167 548.5 546.5 558.833C546.833 562.667 546.167 566.333 544.167 570.167Z" fill="#F774B9"/>
<path d="M544.167 570.167C528.667 599.833 501.333 581.333 480 560.5C458.667 539.667 434.833 506.5 431.333 496.667C430.167 493.5 429.833 490.167 430.167 486.833C434 487.333 438 489.5 442 493.833C442 493.833 489.833 556.5 514 568.833C522.5 573.167 534.5 567.833 546.333 558.833C546.833 562.667 546.167 566.333 544.167 570.167Z" fill="#F261B4"/>
<path d="M444.667 495.833C443 504 439.333 523.667 432.333 526.833C425.167 530 412.5 526.5 409.333 518.333C406.167 510 414.333 499.167 422.333 488.833C430.333 478.5 435.333 474 439.833 474.333C444.333 474.667 446.333 487 444.667 495.833Z" fill="#F774B9"/>
<path d="M410.167 513.667C410.167 514.5 409.333 509.5 410.167 514.5C411 519.5 419 519 420.167 516.833C424 510 438.333 480.167 435.667 477.833C433 475.5 410.667 499.667 410.167 513.667Z" fill="#FF97C9"/>
<path d="M786.667 641.667C786.667 641.667 827.667 638.167 847.167 605.667C866.667 573.167 835.333 497 833.5 466.833C831.667 436.667 856.5 413 882.5 436.667C908.5 460.333 907.833 538.333 898.5 574.833C889 611.5 860.833 639.5 823.333 652.667C796.833 662 781.667 656.167 781.667 656.167L786.667 641.667Z" fill="#F774B9"/>
<path d="M668.667 658C659.667 687.167 635.833 702.333 610.5 705C585.167 707.667 540.167 709.667 535.833 706.833C533.833 705.5 532.833 702.667 533.167 699.5C533.5 695.667 535.667 691.167 539.833 687.667C547.5 681.167 575 681.167 575 681.167C575 681.167 570 680.5 562.833 675C555.667 669.333 538.833 658.167 552.167 616.833C565.5 575.5 604.667 566 643.667 579.667C652.667 582.833 659.333 590 663.833 599C672.833 616.167 674 640.833 668.667 658Z" fill="#F774B9"/>
<path d="M600 680.667C600 682.167 598.667 683.167 597.333 683.167C597 683.167 558.5 682.5 546.667 685.833C536.833 688.667 536.333 694.833 536.167 698.667V699.5C535.833 702.833 537.667 703.167 538 703.167C539.5 703.333 540.5 704.667 540.333 706.167C540.167 707.5 539 708.5 537.667 708.5C537.5 708.5 537.5 708.5 537.333 708.5C534.333 708.167 530.167 705.333 530.833 699V698.167C531.167 694 531.833 684.5 545.167 680.667C550 679.333 558.833 678.5 567.667 678.167C563.333 676.833 559.5 675.333 556.833 673.5C542.833 663.667 540.333 647.833 548.333 619C554.333 597.5 566.5 585.667 578.833 579C580.167 578.333 581.833 578.833 582.333 580.333C582.833 581.5 582.333 582.833 581.167 583.5C570 589.5 558.833 600.5 553.333 620.333C544.833 651.167 549.833 662 559.833 669.167C569.167 675.667 597.167 677.833 597.5 677.833C598.833 678 600 679.167 600 680.667Z" fill="#F774B9"/>
<path d="M668.667 658C659.667 687.167 635.833 702.333 610.5 705C585.167 707.667 540.167 709.667 535.833 706.833C533.833 705.5 532.833 702.667 533.167 699.5C542.5 700.5 577 702.667 619.333 682C659.5 662.5 663.833 616.167 664 598.833C672.833 616.167 674 640.833 668.667 658Z" fill="#F774B9"/>
<path d="M552 630.833C552 630.833 565 651 583.667 662.5C602.333 674 612.667 676.333 612.667 676.333C612.667 676.333 595.833 680.167 579.667 679.833C563.5 679.5 551.333 670.333 547.167 655.667C542.833 640.833 552 630.833 552 630.833Z" fill="#F774B9"/>
<path d="M673.167 700.167C670.667 700.167 668.333 700.167 666 700.167C660.167 700.167 654.333 700 648.833 699.667C639.667 699.167 631.167 698.167 623.167 696.833C574.333 688.167 548 662.167 550 606.333C551.667 561 565.5 506.667 575.667 472.333C576.667 469 577.5 466 578.5 463.167C581.833 452.167 584.667 444.167 585.833 440.333C586.333 438.833 586.667 438 586.667 438L727 413.5L728.333 413.167C728.333 413.167 733.333 424.667 740.667 442.833C742 446 743.333 449.333 744.667 452.833C746.167 456.667 747.833 460.667 749.5 465C761.333 494.667 776 533 787.833 568.167C791.333 578.5 794.5 588.5 797.333 597.833C800 606.667 802.333 615.167 804.167 622.833C816.5 672.667 753.833 699.333 673.167 700.167Z" fill="#FF97C9"/>
<path d="M729.667 682H699C689.333 682 673.333 682.5 668.5 691.667C667 694.333 666.333 697.333 666.167 700.167C660.333 700.167 654.5 700 649 699.667L647.667 692.667C647.667 692.667 647.667 692.667 654.333 684.167C660.833 676 682 632.333 683.167 630.167C682.667 631.667 674.833 653.667 688 667.667C700.833 681.667 726.833 682 729.667 682Z" fill="#F774B9"/>
<path d="M631.5 692.167C631.333 692.333 631.167 692.333 631 692.5C628.667 694 626 695.5 623.167 696.833C574.167 688.167 548 662.167 550 606.333C551.333 571 560 530.333 568.5 497.833C571 488.5 573.333 480 575.667 472.333C581.833 466.333 590.667 461 602.667 461C630.5 461 646.333 468.667 657.667 556.167C668.667 642.833 654.333 676.667 631.5 692.167Z" fill="#FFBDE0"/>
<path opacity="0.5" d="M631.5 692.167C631.333 692.333 631.167 692.333 631 692.5C628.667 694 626 695.5 623.167 696.833C574.167 688.167 548 662.167 550 606.333C551.333 571 560 530.333 568.5 497.833C566.833 521.833 565.167 584 589 634.667C603.333 665.167 619 682.5 631.5 692.167Z" fill="#F9BC93"/>
<path d="M740.833 442.833C730.5 450 709.667 462.167 681.833 469.333C671.167 472 659.5 474 647 474.667C606.5 476.833 587 468.667 578.5 462.833C581.833 451.833 584.667 443.833 585.833 440C594 442.667 614.833 447.5 649.5 443.833C655.667 443.167 661.833 442 667.833 440.5C692.833 434.167 714.833 421.167 727 413L728.333 412.833C728.5 413 733.333 424.667 740.833 442.833Z" fill="#738DE0"/>
<path d="M681.833 469.333C671.167 472 659.5 474 647 474.667C606.5 476.833 587 468.667 578.5 462.833C581.833 451.833 584.667 443.833 585.833 440C594 442.667 614.833 447.5 649.5 443.833C655.667 443.167 661.833 442 667.833 440.5L681.833 469.333Z" fill="#5A7FDB"/>
<path d="M618.333 482.333C618.333 483.333 618.333 484.333 618.167 485.333C616.833 495.667 608.667 503.667 598.667 503.667C587.833 503.667 579 494 579 482.167C579 476.667 580.833 471.667 584.167 467.833C587.833 463.5 593 460.833 598.667 460.833C609.5 461 618.333 470.5 618.333 482.333Z" fill="#FCBD92"/>
<path d="M618.333 482.333C618.333 483.333 618.333 484.333 618.167 485.333C614.667 489.667 609.333 492.333 603.667 492.333C592.833 492.333 584 482.667 584 471C584 470 584 469 584.167 468C587.833 463.667 593 461 598.667 461C609.5 461 618.333 470.5 618.333 482.333Z" fill="#FFD3B3"/>
<path d="M597.333 487C604.237 487 609.833 484.314 609.833 481C609.833 477.686 604.237 475 597.333 475C590.43 475 584.833 477.686 584.833 481C584.833 484.314 590.43 487 597.333 487Z" fill="#1C3177"/>
<path d="M594.333 501.167V485.333C594.333 484 595.5 482.833 597 482.833C598.5 482.833 599.667 484 599.667 485.333V501.167C599.667 502.5 598.5 503.667 597 503.667C595.5 503.667 594.333 502.5 594.333 501.167Z" fill="#1C3177"/>
<path d="M788 568.167C783.667 572.333 777.833 575.833 770.333 574.833C750.5 572.167 752.667 563.667 748.833 543.833C745 524 717.167 526.333 719.5 487.333C721 461.333 735.5 454.5 745 453C746.5 456.833 748.167 460.833 749.833 465.167C761.5 494.667 776.167 533 788 568.167Z" fill="#F774B9"/>
<path d="M802 658C793 687.167 769.167 702.333 743.833 705C718.5 707.667 673.5 709.667 669.167 706.833C667.167 705.5 666.167 702.667 666.5 699.5C666.834 695.667 669 691.167 673.167 687.667C680.834 681.167 708.334 681.167 708.334 681.167C708.334 681.167 703.334 680.5 696.167 675C689 669.333 672.167 658.167 685.5 616.833C698.833 575.5 738 566 777 579.667C786 582.833 792.667 590 797.167 599C806.167 616.167 807.334 640.833 802 658Z" fill="#FF97C9"/>
<path d="M733.333 680.667C733.333 682.167 732 683.167 730.667 683.167C730.333 683.167 691.833 682.5 680 685.833C670.167 688.667 669.667 694.833 669.5 698.667V699.5C669.167 702.833 671 703.167 671.333 703.167C672.833 703.333 673.833 704.667 673.667 706.167C673.5 707.5 672.333 708.5 671 708.5C670.833 708.5 670.833 708.5 670.667 708.5C667.667 708.167 663.5 705.333 664.167 699V698.167C664.5 694 665.167 684.5 678.5 680.667C683.333 679.333 692.167 678.5 701 678.167C696.667 676.833 692.833 675.333 690.167 673.5C676.167 663.667 673.667 647.833 681.667 619C687.667 597.5 699.833 585.667 712.167 579C713.5 578.333 715.167 578.833 715.667 580.333C716.167 581.5 715.667 582.833 714.5 583.5C703.333 589.5 692.167 600.5 686.667 620.333C678.167 651.167 683.167 662 693.167 669.167C702.5 675.667 730.5 677.833 730.833 677.833C732.167 678 733.333 679.167 733.333 680.667Z" fill="#F774B9"/>
<path d="M802 658C793 687.167 769.167 702.333 743.833 705C718.5 707.667 673.5 709.667 669.167 706.833C667.167 705.5 666.167 702.667 666.5 699.5C675.834 700.5 710.334 702.667 752.667 682C792.834 662.5 797.167 616.167 797.334 598.833C806.167 616.167 807.334 640.833 802 658Z" fill="#FF8AC7"/>
<path d="M685.333 630.833C685.333 630.833 698.333 651 717 662.5C735.667 674 746 676.333 746 676.333C746 676.333 729.167 680.167 713 679.833C696.833 679.5 684.667 670.333 680.5 655.667C676.167 640.833 685.333 630.833 685.333 630.833Z" fill="#FF8AC7"/>
<path d="M650.167 692.667C650.167 692.667 647.5 696.167 649.667 701.5C651.833 706.833 651.5 712.5 646.167 715.167C643.5 716.5 634.167 716.667 624.667 716.5C623.667 716.5 622.5 716.5 621.5 716.333C615.833 716.167 610.5 715.833 606.5 715.5C605 715.333 603.667 715.333 602.667 715.167C602.5 715.167 602.5 715.167 602.333 715.167C595.5 714.5 589.667 710 589.667 703.667C589.667 702.167 590 700.5 590.833 698.833C594.833 690 611.667 682.833 611.667 682.833C611.667 682.833 626.333 659.833 636.5 614.167C646.667 568.5 646.167 548.167 648 526C649.167 512.667 649.333 488.333 675.5 485.667C690.667 484.167 700 488.667 705.167 496.667C709 502.5 710.833 510.167 711.333 518.833C712.667 539.667 709.167 558.333 694.5 603C679.833 647.833 650.167 692.667 650.167 692.667Z" fill="#FF97C9"/>
<path d="M650.167 692.667C650.167 692.667 647.5 696.167 649.667 701.5C651.833 706.833 651.5 712.5 646.167 715.167C643.5 716.5 634.167 716.667 624.667 716.5C623.667 716.5 622.5 716.5 621.5 716.333C615.833 716.167 610.5 715.833 606.5 715.5C605 715.333 603.667 715.333 602.667 715.167C602.5 715.167 602.5 715.167 602.333 715.167C595.5 714.5 589.667 710 589.667 703.667C592.833 703.333 596.333 703.333 599.667 703.667C608.167 704.5 635.167 708.167 637.833 702.333C640.5 696.5 636.5 689.5 636.5 689.5C636.5 689.5 656 655 674.167 610.667C691.333 568.667 704 503.667 705.167 496.833C709 502.667 710.833 510.333 711.333 519C712.667 539.833 709.167 558.5 694.5 603.167C679.833 647.833 650.167 692.667 650.167 692.667Z" fill="#FF8AC7"/>
<path d="M641.333 718.833C633 718.833 602.833 718 597.833 717C594.5 716.333 591.5 714 589.5 710.833C587.333 707.5 586.833 703.5 587.833 699.5C589.833 691.833 606.333 683.5 609.667 681.833C611 681.167 612.5 681.667 613.167 683C613.833 684.333 613.333 685.833 612 686.5C604.667 690 594 696.833 593 700.667C592.333 703.167 592.833 705.667 594.167 707.833C595.333 709.833 597.167 711.167 599 711.667C603.833 712.667 640 713.667 643 713.333C644.667 713.167 647.833 711.833 648.333 707.5C648.833 703.667 646.333 697.833 645.333 696C644.833 695.167 645 694 645.5 693.167C645.5 693 652.667 683.333 664 664.5C676 644.667 690.833 606.333 702.667 564.167C714.667 522 704.333 499.833 704.167 499.667C703.5 498.333 704 496.833 705.333 496.167C706.667 495.5 708.167 496 708.833 497.333C709.333 498.333 720.167 521.333 707.667 565.667C695.667 608.167 680.667 647.167 668.333 667.333C659.167 682.333 652.833 691.667 650.5 695C651.667 697.667 654 703.333 653.333 708.167C652.5 715 647.5 718.333 643.167 718.667C643 718.833 642.333 718.833 641.333 718.833Z" fill="#F774B9"/>
<path d="M612.833 692.167C612.833 692.167 606.833 695.833 605.333 702.167C604.167 707.833 606 714.167 606.5 715.667C605 715.5 603.667 715.5 602.667 715.333C601.833 712.5 600.667 706.833 601.833 701.333C603.5 693.667 610.667 689.333 611 689.167C611.833 688.667 613 689 613.5 689.833C613.833 690.5 613.667 691.667 612.833 692.167Z" fill="#F774B9"/>
<path d="M630 693C629.833 693.167 625.333 696.333 624.333 703.667C623.333 711.333 624.833 714.833 624.833 714.833C625 715.333 625 716 624.667 716.5C623.667 716.5 622.5 716.5 621.5 716.333C621.333 715.833 619.5 711.833 620.667 703.167C621.833 694 627.667 690.167 627.833 690C628.667 689.5 629.667 689.667 630.333 690.5C631 691.333 630.667 692.5 630 693Z" fill="#F774B9"/>
<path d="M728.5 413C728.5 413 724.667 416.5 717.5 421.667C710.333 426.833 678 445.333 635.167 446.667C599.333 447.833 547.333 447.5 530.667 411.333C527.333 404.167 525.5 395.5 525.333 385.333C524.5 323.333 598.833 299.667 629 298.833C661.333 298 695.167 301.667 708.667 323.833C715.333 334.833 721.167 360.5 724.167 378.667C727.167 397.167 728.5 413 728.5 413Z" fill="#FF97C9"/>
<path d="M628 303C623.667 308 618 311 612.333 312.833C597.167 317.667 580.833 314.167 580.833 314.167C580.833 314.167 579.167 294.833 579.333 284.5C579.5 280.333 579.833 277.333 580.667 275.167C582 271.833 584 270.5 587.167 270.167C592.5 269.667 628 303 628 303Z" fill="#FF97C9"/>
<path d="M608.833 309.167C595.333 307.333 585.5 310.667 585.5 310.667C585.5 310.667 582.5 294.833 582.667 286.667C582.667 283.333 583.167 281 583.833 279.167C586.167 281 590.667 285 596.667 292.167C602.5 299.5 606.667 305.833 608.833 309.167Z" fill="#FFBDE0"/>
<path d="M714.5 339L696.667 332L656.333 316.167C656.333 316.167 661 283.5 668.5 272.833C668.5 272.667 668.667 272.667 668.667 272.5C676.333 262.167 683.5 263 686.667 268C689.833 273 702.833 302 708.167 317.833C713.667 334 714.5 339 714.5 339Z" fill="#FF97C9"/>
<path d="M692.833 310.167L663.667 308.333C663.667 308.333 667 286.167 672.5 277.667C674.667 277.167 676.833 277.5 678.833 279.5C683.667 284.5 690.333 301 692.333 308.167C692.5 308.667 692.667 309.5 692.833 310.167Z" fill="#FFBDE0"/>
<path d="M669.667 375.5C668.5 375.5 667.333 374.667 667.167 373.5C666.833 372 667.667 370.667 669.167 370.333L695.5 364C697 363.667 698.333 364.5 698.667 366C699 367.5 698.167 368.833 696.667 369.167L670.333 375.5C670.167 375.333 669.833 375.5 669.667 375.5Z" fill="#F774B9"/>
<path d="M695.333 398.5C695.167 398.5 695 398.5 694.833 398.5L670.5 393.667C669 393.333 668.167 392 668.333 390.5C668.667 389 670 388.167 671.5 388.333L695.833 393.167C697.333 393.5 698.167 394.833 698 396.333C697.667 397.667 696.667 398.5 695.333 398.5Z" fill="#F774B9"/>
<path d="M532 391.333C530.667 391.333 529.5 390.333 529.333 389C529.167 387.5 530.167 386.167 531.667 386L555.833 383.167C557.333 383 558.667 384 558.833 385.5C559 387 558 388.333 556.5 388.5L532.333 391.333C532.167 391.333 532.167 391.333 532 391.333Z" fill="#F774B9"/>
<path d="M556 371.667C555.667 371.667 555.5 371.667 555.167 371.5L531.333 363.333C530 362.833 529.167 361.333 529.667 360C530.167 358.667 531.667 357.833 533 358.333L556.833 366.5C558.167 367 559 368.5 558.5 369.833C558 371 557 371.667 556 371.667Z" fill="#F774B9"/>
<path d="M673.5 311.333H656.667C655.167 311.333 654 310.167 654 308.667C654 307.167 655.167 306 656.667 306H673.5C675 306 676.167 307.167 676.167 308.667C676.167 310.167 675 311.333 673.5 311.333Z" fill="#F774B9"/>
<path d="M614.167 311.333H597.333C595.833 311.333 594.667 310.167 594.667 308.667C594.667 307.167 595.833 306 597.333 306H614.167C615.667 306 616.833 307.167 616.833 308.667C616.667 310.167 615.5 311.333 614.167 311.333Z" fill="#F774B9"/>
<path d="M728.5 413C728.5 413 724.667 416.5 717.5 421.667C710.333 426.833 678 445.333 635.167 446.667C599.333 447.833 547.333 447.5 530.667 411.333C535.333 415.5 558.667 432.667 626 429.667C689.667 426.667 716.833 390.833 724.167 378.667C727.167 397.167 728.5 413 728.5 413Z" fill="#FF8AC7"/>
<path d="M601 403C600.5 403 600 402.833 599.667 402.667C598.333 401.833 598 400.333 598.833 399L603.833 390.667C605.333 388.167 608 386.667 610.833 386.5C613.667 386.333 616.5 387.667 618.167 390L624.5 398.667C625.333 399.833 625.167 401.5 623.833 402.333C622.667 403.167 621 403 620.167 401.667L613.833 393C613.167 392 612.167 391.667 611 391.667C609.833 391.667 608.833 392.333 608.333 393.333L603.333 401.667C602.833 402.5 602 403 601 403Z" fill="#1C3177"/>
<path d="M566.833 339.167C566.833 347 570.5 353.333 574.833 353.333C579.333 353.333 582.833 347 582.833 339.167C582.833 336.167 582.333 333.333 581.333 331L567.833 332.167C567.167 334.167 566.833 336.667 566.833 339.167Z" fill="#1C3177"/>
<path d="M585.5 335H568.667C567.167 335 566 333.833 566 332.333C566 330.833 567.167 329.667 568.667 329.667H585.5C587 329.667 588.167 330.833 588.167 332.333C588.167 333.833 586.833 335 585.5 335Z" fill="#1C3177"/>
<path d="M657.5 343C657.5 351.833 653.667 359 648.833 359C644 359 640.167 351.833 640.167 343C640.167 339.5 640.833 336.333 641.833 333.667L656.5 335C657 337.333 657.5 340.167 657.5 343Z" fill="#1C3177"/>
<path d="M658.667 337.833H641.833C640.333 337.833 639.167 336.667 639.167 335.167C639.167 333.667 640.333 332.5 641.833 332.5H658.667C660.167 332.5 661.333 333.667 661.333 335.167C661.333 336.667 660 337.833 658.667 337.833Z" fill="#1C3177"/>
</g>
<defs>
<clipPath id="clip0_3_8019">
<rect width="1000" height="1000" rx="50" fill="white"/>
</clipPath>
</defs>
</svg>
