<svg width="1000" height="1000" viewBox="0 0 1000 1000" fill="none" xmlns="http://www.w3.org/2000/svg">
<g clip-path="url(#clip0_3_8407)">
<rect width="1000" height="1000" rx="50" fill="none"/>
<path d="M671.333 795C663.833 813.333 613.5 811 607.667 826.667C601.833 842.333 653.167 840.833 651.5 860.5C649.833 880.167 618.833 883.167 563.167 886.333C507.5 889.5 495.167 904.167 439.5 922.333C383.833 940.5 359.333 917 328.167 900C297.167 883.167 237.667 914.167 219 888C200.333 861.667 251.167 852.333 296 842.167C341 831.833 320.667 827 319.5 805.167C319.333 800.667 320.667 797.167 323.167 794.333C333.333 783.333 362.833 783.167 398.167 783.833C442.667 784.833 453.833 770 515.833 771.333C573 772.5 662.667 776 670.833 790.833C671.833 792.167 672 793.5 671.333 795Z" fill="#99ADF9"/>
<path d="M758.333 827.5C757.833 828.5 757 829.5 756 830.667C748.833 838.5 725.333 843.333 706.5 843.667C683.167 843.833 658.833 842.333 658 828.167C657.333 814 717 813.167 737.833 815.5C755.833 817.167 761.5 821.333 758.333 827.5Z" fill="#99ADF9"/>
<path d="M297.167 825.167C296.833 826 296.167 826.833 295.333 827.667C289.667 833.833 271.167 837.833 256.333 838C238 838.167 218.667 837 218.167 825.5C217.667 814.167 264.667 813.5 281 815.333C295.167 816.833 299.833 820.167 297.167 825.167Z" fill="#99ADF9"/>
<path d="M595.667 914C579.333 920.5 518.333 920.833 518.5 912.833C518.5 911.833 518.833 910.833 519.5 910C524 903.667 542.667 900.167 559.5 899.5C579.333 898.833 592.833 901 598.833 904.167C604.333 907.167 603.5 910.833 595.667 914Z" fill="#99ADF9"/>
<path d="M440 894.167C425 899.667 377.333 898.333 377.667 888.5C377.667 887.333 378 886.167 378.5 885C382.5 877.333 395 874.5 409.333 874C426 873.333 439.667 876 445.167 879.167C452.167 883 452.333 889.5 440 894.167Z" fill="#7C99F2"/>
<path d="M624.833 800.667C616 805 583.833 804.667 584 799C584 798.333 584.167 797.667 584.5 797C587 792.667 596.833 790.333 605.833 790C616.333 789.667 623.5 791.333 626.5 793.667C629.5 795.833 629 798.5 624.833 800.667Z" fill="#7C99F2"/>
<path d="M616.167 860.333C609 863.833 582.667 863.5 582.833 859C582.833 858.5 583 857.833 583.333 857.333C585.333 853.833 593.5 851.833 600.833 851.667C609.5 851.333 615.333 852.833 617.833 854.667C620 856.5 619.667 858.667 616.167 860.333Z" fill="#7C99F2"/>
<path d="M536.5 857.5C460.833 878.333 347.333 843.667 348.333 823.833C348.5 821.333 349.5 819.167 351.333 817.167C364.333 802.833 417.333 798.833 465.5 801.667C522 805.167 560.167 814.167 576.833 823.833C592 832.333 575.167 846.833 536.5 857.5Z" fill="#7C99F2"/>
<path d="M344.333 863C337.167 867 310.5 866.667 310.833 861.5C310.833 860.833 311 860.333 311.333 859.667C313.333 855.667 321.5 853.5 328.833 853.167C337.5 852.833 343.333 854.333 345.833 856.5C348.167 858.667 347.833 861.167 344.333 863Z" fill="#7C99F2"/>
<path d="M587.333 277.333C587.333 277.333 583 263.833 598 263C613 262.333 598 240.167 613 227.333C628 214.5 645.833 220.167 646.5 237.333C647.167 254.5 644.333 265.167 646.5 269.5C648.667 273.833 655 261.667 662.833 270.167C670.667 278.667 622.167 442.833 622.167 442.833L595.833 436.333L587.333 277.333Z" fill="#D2E9FF"/>
<path d="M635 303.5C627.833 306.833 613.167 404.833 625.333 395.167C628.167 393 653.333 295 635 303.5Z" fill="#E3F0FF"/>
<path d="M759.167 200C758.5 204.667 757.333 209 756.167 212.833C744.5 248.167 712.667 249.5 712.167 254.333C711.667 259.667 735.167 277.333 713.167 298.833C691.167 320.333 646.333 293 634.5 292C617.833 290.667 583.167 320.333 559.333 289.5C544 269.667 568.667 258.5 563 253C557.333 247.5 513 246.5 513 196.667C513 195.667 513 194.667 513 193.667C514.667 143.833 559 147.333 561.167 137.5C563.333 127.667 562.833 70 632.833 67.5C703 65 700.833 136 707.167 139.333C713.833 142.833 766.667 152 759.167 200Z" fill="#E3F0FF"/>
<path d="M703.5 241.5C718.5 235.333 741 224.333 756 212.833C744.333 248.167 712.5 249.5 712 254.333C711.5 259.667 735 277.333 713 298.833C691 320.333 646.167 293 634.333 292C617.667 290.667 583 320.333 559.167 289.5C543.833 269.667 568.5 258.5 562.833 253C557.167 247.5 512.833 246.5 512.833 196.667C516.667 204.5 524.667 215.667 541.833 223.5C570.667 236.667 591 222 601.167 236.167C611.333 250.333 590 259.167 599.5 267.5C609.167 275.833 624.167 254.833 648.167 266C672.333 277.167 687.333 284.5 696.833 274.333C706.833 264 682.167 250.333 703.5 241.5Z" fill="#D2E9FF"/>
<path d="M589.667 170.667C589.667 170.667 589.5 170.5 589 170.167C588.5 169.833 588 169.333 587.167 168.5C585.667 167 583.667 164.667 582 161.5C581.167 160 580.333 158.167 579.667 156.167C579 154.167 578.667 152 578.333 149.667C578.167 147.333 578.167 145 578.5 142.667C578.667 141.5 578.833 140.333 579.167 139.167C579.333 138.5 579.333 138.167 579.667 137.167L580.167 135.5C580.667 133.5 582 131 583.333 128.833C584.667 126.833 586.5 124.833 588.333 123.333C590.333 121.833 592.333 120.667 594.333 119.833C596.333 119 598.5 118.5 600.333 118.167C602.167 117.833 604 117.833 605.5 117.833C607 117.833 608.333 117.833 609.5 118C610.667 118.167 611.5 118.167 612 118.333C612.667 118.5 613 118.5 613 118.5C615.167 119 616.5 121 616 123.167C615.5 125.333 613.5 126.667 611.333 126.167H611.167H610.833C610.833 126.167 610.667 126.167 610.333 126C609.833 125.833 609.333 125.667 608.333 125.667C607.5 125.5 606.5 125.333 605.167 125.333C604 125.333 602.667 125.167 601.167 125.333C599.667 125.5 598.167 125.667 596.667 126.333C595.167 126.833 593.5 127.5 592.167 128.5C590.667 129.5 589.333 130.833 588.167 132.333C587 133.833 586.167 135.167 585.333 137.5L584.667 139L584.333 140.333C584 141.333 583.667 142.333 583.667 143.333C583.333 145.333 583.167 147.333 583.167 149.167C583.167 151 583.5 153 583.833 154.667C584.167 156.333 584.833 158 585.5 159.333C586.833 162.167 588.5 164.333 589.667 165.667C590.333 166.333 590.833 166.833 591.167 167.167C591.5 167.5 591.667 167.667 591.667 167.667H591.833C592.5 168.333 592.667 169.5 592 170.167C591.5 171 590.5 171.167 589.667 170.667Z" fill="#D2E9FF"/>
<path d="M609.833 121.667C609.833 121.667 609.833 121.333 610 120.5C610.167 119.833 610.5 118.833 610.833 117.5C611.667 115 613 111.5 615.833 107.667C617.167 105.833 619 103.833 621.167 102.333C623.333 100.667 625.833 99.3333 628.5 98.1667C629.833 97.6667 631.333 97.3333 632.833 96.8333C634.333 96.5 635.833 96.3333 637.333 96.1667C638.833 96 640.333 96 641.833 96H643H643.167H643.667H643.833H644.333L646.333 96.1667C647 96.3333 647.5 96.3333 648.333 96.5L650.833 97.1667C651.667 97.5 652.5 97.6667 653.333 98L655.5 99C657 99.6667 658.333 100.5 659.5 101.5C660.833 102.333 661.833 103.5 663 104.5C667.167 108.833 669.5 114 670.833 118.167C672.167 122.5 672.833 126.167 673.167 128.667C673.333 130 673.333 131 673.5 131.667C673.5 132.5 673.5 132.833 673.5 132.833C673.667 135.833 671.333 138.333 668.333 138.333C665.333 138.5 662.833 136.167 662.833 133.167V133V132.667C662.833 132.667 662.833 132.5 662.833 132C662.833 131.5 662.833 130.667 662.667 129.667C662.5 127.667 662.167 124.5 661.167 121.167C660.167 117.833 658.5 114 655.833 111C655.167 110.333 654.5 109.5 653.667 108.833C652.833 108.167 652 107.5 651.167 107.167L649.833 106.333C649.333 106.167 649 106 648.5 105.833L647.167 105.333C646.667 105.167 645.833 105.167 645.333 105L643.333 104.667H642.833H642.667C642.333 104.667 643.167 104.667 643 104.667H642.833H642C640.833 104.667 639.667 104.5 638.5 104.667C637.333 104.833 636.167 104.833 635.167 105C634.167 105.333 633 105.5 632 105.833C630 106.5 628.167 107.333 626.667 108.5C625.167 109.5 623.833 110.833 622.833 112.167C620.667 114.833 619.5 117.5 618.833 119.5C618.5 120.5 618.333 121.167 618.167 121.667C618 122.167 618 122.333 618 122.333V122.667C617.5 124.833 615.5 126 613.333 125.667C610.667 125.667 609.5 123.667 609.833 121.667Z" fill="#D2E9FF"/>
<path d="M692.667 146.167C692.667 146.167 693.833 146.167 695.667 146.333C697.5 146.5 700 146.833 703 147.667C706 148.5 709.5 149.833 712.833 152.5C714.5 153.833 716 155.333 717.333 157.167C718 158.167 718.5 159 719 160.167L719.667 161.667L720 163.333C720.5 165 721 167.5 721 169.5C721.167 171.667 721 173.667 720.5 175.5C719.667 179.333 718.167 182.667 716.5 185.167C714.833 187.667 713 189.5 711.833 190.667C710.5 191.833 709.667 192.5 709.667 192.5C708.833 193.167 707.5 193 706.833 192.167C706.167 191.333 706.333 190 707.167 189.333C707 189.5 710 187.167 712.5 182.667C713.833 180.5 714.833 177.667 715.167 174.5C715.333 173 715.333 171.333 715.167 169.833C715 168.167 714.667 167 714 165L713.667 163.833L713.167 162.833C712.833 162.167 712.333 161.5 712 161C711.167 159.833 710 159 708.833 158.167C706.333 156.667 703.667 155.667 701.167 155.167C698.667 154.667 696.667 154.5 695.167 154.5C693.667 154.5 693 154.5 693 154.5C690.667 154.5 688.667 152.667 688.667 150.333C688.5 148.167 690.333 146.167 692.667 146.167Z" fill="#D2E9FF"/>
<path d="M582 166.5C582 166.5 581.833 166.5 581.667 166.5C581.333 166.5 581 166.667 580.5 166.833C579.333 167.167 577.833 167.667 576.167 168.833C575.333 169.333 574.5 170 573.833 170.833C573 171.667 572.333 172.667 571.833 173.833C571.333 175 570.833 176.167 570.5 177.667C570.167 179 570 180.667 570 182C570 183.833 570.167 185 570.5 186.333C570.833 187.667 571.333 189 572.167 190.167C573.667 192.5 575.667 194.167 577.667 195.333C579.667 196.5 581.5 197.167 582.833 197.5C584.167 197.833 585 198 584.833 198C585.667 198 586.333 198.833 586.167 199.667C586.167 200.5 585.333 201.167 584.5 201C584.5 201 583.5 201 582 200.667C580.5 200.333 578.333 199.833 575.667 198.833C573.167 197.667 570.333 195.833 568 193C566.833 191.5 566 189.833 565.333 188.167C565 187.333 564.833 186.167 564.5 185.333C564.167 184.333 564.167 183.667 564 182.667C564 182.167 563.833 182 563.833 181.167V179.833C563.833 178.833 563.833 178 564 177C564.167 175.167 564.5 173.167 565.167 171.5C565.833 169.667 566.667 168 567.833 166.667C568.833 165.167 570 164 571.333 163C573.667 161 576 160 577.667 159.333C578.5 159 579.167 158.833 579.667 158.667C580.167 158.5 580.5 158.5 580.5 158.5C582.833 158 585.167 159.333 585.667 161.667C586.167 164 584.833 166.333 582.5 166.833C582.333 166.5 582.167 166.5 582 166.5Z" fill="#D2E9FF"/>
<path d="M684.167 216.833C684.167 216.833 684.167 218 683.833 219.833C683.5 221.667 683 224.167 682 227.167C681 230.167 679.5 233.667 676.667 236.833C675.333 238.333 673.667 239.833 671.667 241C670.667 241.5 669.667 242.167 668.667 242.5L667 243L665.5 243.333C663.833 243.833 661.333 244 659.333 244C657.167 244 655.167 243.667 653.333 243.333C649.5 242.333 646.333 240.667 643.833 238.833C641.333 237 639.667 235.167 638.5 233.833C637.333 232.5 636.833 231.667 636.833 231.5C636.167 230.667 636.5 229.333 637.333 228.667C638.167 228 639.5 228.333 640.167 229.167C640.167 229 642.167 232 646.667 234.833C648.833 236.167 651.667 237.5 654.667 238C656.167 238.333 657.833 238.333 659.333 238.167C661 238 662.167 237.833 664.167 237.167L665.333 236.833L666.333 236.333C667 236 667.667 235.667 668.167 235.167C669.333 234.333 670.333 233.167 671.167 232.167C672.833 229.833 673.833 227.167 674.5 224.667C675.167 222.167 675.333 220.167 675.5 218.667C675.667 217.167 675.5 216.5 675.5 216.5C675.5 214.167 677.5 212.333 679.833 212.333C682.333 212.5 684.333 214.333 684.167 216.833Z" fill="#D2E9FF"/>
<path d="M551.833 354.667L544.833 335.167C544.833 335.167 561 332.667 552.5 311.5C547.667 299.667 534 309 534 309C534 309 531.667 291.833 513.833 295.667C499.833 298.667 499.5 321.167 505 328.333C510.333 335.5 515.833 334.833 515.833 334.833C515.833 334.833 504.167 334.5 506 345.167C507.833 355.833 517 356.333 524 352.833C527.333 351.167 529.833 347 529.833 347L545 359.5C546.333 360.667 548.333 360.833 550 360C551.833 359.167 552.667 356.833 551.833 354.667Z" fill="#D2E9FF"/>
<path d="M718.167 398.333C717.5 401.5 716.333 404.333 715 405.833C711 410.5 704.667 411 704.667 411C704.667 411 710.333 414.167 706.167 421C703 426 693.667 423 691.167 419.833C688.5 416.667 688.5 413 688.5 413L677.167 422.667C675.333 424.333 672.333 424.167 670.667 422.167C669.167 420.5 669.167 417.833 670.667 416.167L672.167 414.5L681.333 403.667C681.333 403.667 668.333 398.333 673 388.667C677.167 379.833 685.5 384 687.667 386.333C689.667 388.5 690 392.167 690 392.167C690 392.167 693.833 377.333 707.667 380.667C718 383 719.5 391.5 718.167 398.333Z" fill="#D2E9FF"/>
<path d="M363.833 602.167C366.5 605.833 366.667 610.833 364 614.667L363 616C362 617.333 360.5 618 359 618C357.833 618 356.833 617.667 355.833 616.833L339.833 602.833C339.833 602.833 332 621 310.667 616.833C295.833 613.833 292 601.167 293.667 590.667C294.333 585.5 296.333 580.833 299 578C303.667 573 309.667 572.333 314 572.5C309.667 571.167 303.5 567.667 301.167 559C299.667 553.5 300 548 302 543.667C305.167 536.833 312.333 532.5 322.5 533.667C339.333 535.833 339.667 559.667 339.667 559.667C339.667 559.667 345.5 543.5 361.5 550.5C375.5 556.667 371.5 575.333 362 582.667C357 586.5 352.667 587.333 352.667 587.333L363.833 602.167Z" fill="#E1ECFF"/>
<path d="M327.667 575.5C327.667 575.5 320.833 574.167 314.167 572.333C309.833 571 303.667 567.667 301.167 558.833C299.667 553.333 300 547.833 302 543.5C303 549.333 305.667 558.5 312.167 564.5C322.333 573.833 327.667 575.5 327.667 575.5Z" fill="#C5DFFF"/>
<path d="M363 615.833C362 617.167 360.5 617.833 359 617.833C357.833 617.833 356.833 617.5 355.833 616.667L339.833 602.667C339.833 602.667 332 620.833 310.667 616.667C295.833 613.667 292 601 293.667 590.5C296 595.5 301.167 601.167 313 603.167C336.667 607.333 337.333 592.5 337.333 592.5L363 615.833Z" fill="#C5DFFF"/>
<path d="M426.5 565.333C424.333 565.333 417.167 564.833 410.667 558.833C404.167 552.833 400.833 543.333 400.667 530.833C400.333 501.333 394.667 497.333 388.5 495.5C379.833 493 370.5 496.333 370.5 496.333C367.167 497.667 363.5 496 362.167 492.667C360.833 489.333 362.5 485.667 365.833 484.333C366.333 484.167 379 479.333 392 483C409.333 488 413.167 504.833 413.333 530.5C413.5 539.167 415.5 545.667 419 549.167C422.333 552.333 426.167 552.333 426.167 552.333C429.667 552 432.667 555 432.833 558.5C433 562 430.333 565 426.833 565.167C427 565.333 426.833 565.333 426.5 565.333Z" fill="#FF97C9"/>
<path d="M421.333 475.667C419.667 477.167 414.833 482.5 414.167 491.167C413.667 500 417.667 509.167 426.167 518.5C446 540.167 444.833 547 441.5 552.5C436.833 560.333 427.833 564.167 427.833 564.167C424.5 565.5 423 569.167 424.333 572.5C425.667 575.833 429.333 577.333 432.667 576C433.167 575.833 445.833 570.667 452.667 559C461.833 543.333 453 528.667 435.833 509.667C430 503.333 427 497.167 427.167 492.167C427.333 487.5 430.167 485 430.333 484.833C433 482.667 433.167 478.5 430.833 475.833C428.5 473.167 424.667 472.833 421.833 475.167C421.667 475.333 421.5 475.5 421.333 475.667Z" fill="#99ADF9"/>
<path d="M716.667 513.833C710.333 513.833 703.333 511.833 697 506.833C686.167 498.5 679 504.167 679 504.333C676.333 506.667 672.167 506.333 670 503.5C667.667 500.833 668 496.667 670.833 494.5C676 490.167 689.833 485 705 496.667C713.167 503 721.833 501.333 725.167 498.167C728.333 495.333 730.167 487.167 730.5 482.333C730.667 478.833 733.833 476 737.333 476.333C740.833 476.5 743.5 479.667 743.333 483.167C743.167 484.833 742 500.333 733.833 507.667C729.667 511.5 723.5 513.833 716.667 513.833Z" fill="#99ADF9"/>
<path d="M713.333 593.167L766.5 652.667C766.5 652.667 751 626 737.667 609.167C723.667 591.833 713.333 593.167 713.333 593.167Z" fill="#E1ECFF"/>
<path d="M755.167 620.5C755.167 620.5 741.5 604.167 739.5 601.667C734.167 595.167 730.333 593.167 730.333 593.167C730.333 593.167 735.167 592.5 741.5 600.5C747.833 608.333 755.167 620.5 755.167 620.5Z" fill="#E1ECFF"/>
<path d="M673.667 565L697.667 523.667L683.333 561.833L704.5 582.833L673.667 565Z" fill="#FEC272"/>
<path d="M711.167 544.333L676.667 562.833L685.167 566L711.167 544.333Z" fill="#FEC272"/>
<path d="M362.667 471.5L350.167 457C348.667 455.167 348.833 452.5 350.667 450.833C352.5 449.333 355.167 449.5 356.833 451.333C357.167 451.667 357.333 452 357.5 452.333L365.5 469.667C365.833 470.5 365.5 471.5 364.667 471.833C364 472.333 363.167 472.167 362.667 471.5Z" fill="#FEC272"/>
<path d="M351.167 487.333L327.667 489.667C325.333 489.833 323.167 488.167 323 485.833C322.833 483.5 324.5 481.333 326.833 481.167C327.167 481.167 327.5 481.167 327.833 481.167L351.167 484C352.167 484.167 352.667 485 352.667 485.833C352.5 486.667 352 487.333 351.167 487.333Z" fill="#FEC272"/>
<path d="M361.5 506.667L350 521C348.5 522.833 345.833 523.167 344 521.667C342.167 520.167 341.833 517.5 343.333 515.667C343.5 515.333 343.833 515 344.167 514.833L359.167 504.167C360 503.667 361 503.833 361.667 504.5C362.167 505.167 362 506 361.5 506.667Z" fill="#FEC272"/>
<path d="M431.167 463L440 451.333C441.167 449.833 443.167 449.667 444.667 450.667C446.167 451.833 446.333 453.833 445.333 455.333C445.167 455.5 445 455.833 444.667 456L433 464.833C432.5 465.333 431.667 465.167 431.167 464.667C430.833 464.167 430.833 463.5 431.167 463Z" fill="#FEC272"/>
<path d="M417.5 457L411.833 439.833C411.333 438.167 412.167 436.167 414 435.667C415.667 435.167 417.667 436 418.167 437.833C418.167 438 418.333 438.333 418.333 438.5L420 456.5C420 457.167 419.5 457.833 418.833 457.833C418.167 457.833 417.667 457.5 417.5 457Z" fill="#FEC272"/>
<path d="M404.667 467.833L392 461.5C390.333 460.667 389.667 458.667 390.5 457C391.333 455.333 393.333 454.667 395 455.5C395.333 455.667 395.5 455.833 395.833 456L406.333 465.5C406.833 466 407 466.833 406.5 467.5C405.833 468 405.167 468.167 404.667 467.833Z" fill="#FEC272"/>
<path d="M740.833 446.167L737.833 463.333C737.667 464.333 736.833 464.833 735.833 464.667C735 464.5 734.5 463.833 734.333 463.167L732.167 445.833C731.833 443.5 733.5 441.333 736 441C738.333 440.667 740.5 442.333 740.833 444.833C741 445.333 741 445.667 740.833 446.167Z" fill="#FEC272"/>
<path d="M771 462.333L753.5 473.833C752.333 474.5 750.833 474.333 750.167 473.167C749.5 472.167 749.667 470.833 750.5 470L765.833 455.667C767.5 454 770.333 454.167 771.833 455.833C773.5 457.5 773.333 460.333 771.667 461.833C771.333 462 771.167 462.167 771 462.333Z" fill="#FEC272"/>
<path d="M768.167 499L753.167 491.833C752.167 491.333 751.667 490.167 752.167 489C752.5 488.167 753.5 487.667 754.333 487.833L770.667 490.667C773 491 774.667 493.333 774.167 495.667C773.833 498 771.5 499.667 769.167 499.167C769 499.333 768.667 499.167 768.167 499Z" fill="#FEC272"/>
<path d="M533.333 417.333C533.333 417.333 463.167 501.333 460.5 499.167C459.833 498.667 458.667 494.833 457.167 488.667C453.167 471.167 447.667 434.5 447 395.5C446.167 343 447.5 327 461.5 320.5C471.833 315.667 500 362.167 518.5 393.333C525.167 404 530.333 412.833 533.333 417.333Z" fill="#FF97C9"/>
<path d="M533.333 417.333C533.333 417.333 463.167 501.333 460.5 499.167C459.833 498.667 458.667 494.833 457.167 488.667C464 471.167 472.333 452.667 481.5 438.667C496.333 416.333 509.667 401.833 518.5 393.333C525.167 404 530.333 412.833 533.333 417.333Z" fill="#FC75BC"/>
<path d="M776.333 706.167C772 715.167 731.833 702.667 699 691.333C692.667 689.167 686.5 687 680.833 685C667.833 680.5 659.167 668.167 659.167 654.333C659.333 622.167 656.333 571 662.5 568.333C669.833 565 706.167 600.833 739.333 639.333C773.667 679.167 782.833 692.333 776.333 706.167Z" fill="#FF97C9"/>
<path d="M699 691.333C692.667 689.167 686.5 687 680.833 685C667.833 680.5 659.167 668.167 659.167 654.333C659.333 622.167 656.333 571 662.5 568.333C662.667 568.333 676.333 610.667 685.667 644C691 663.333 695.5 679.167 699 691.333Z" fill="#FC75BC"/>
<path d="M675 485C673.833 530.5 667.167 606.167 640 681.167C616.5 746.167 596.167 789.333 582.667 814.833C571.5 835.833 565 845.167 565 845.167C565 845.167 547.333 854 513.333 856.667C494.333 858.167 470.333 857.833 441.5 853C360.833 839.5 352.333 814.167 352.333 814.167C352.333 814.167 351.167 799.667 355 771.167C359.833 734.5 373.167 674.833 408 593.333C447.167 502.167 491.833 448.5 519.5 421.333C535.833 405.333 546.333 398.5 546.333 398.5C546.333 398.5 568 389.667 612.833 403.667C630.667 409.167 644.167 416.333 653.667 423.167C668.333 433.333 674.333 442.333 674.333 442.333C674.333 442.333 675.833 458.667 675 485Z" fill="#E1ECFF"/>
<path d="M675 485C673.833 530.5 667.167 606.167 640 681.167C616.5 746.167 596.167 789.333 582.667 814.833C571.5 835.833 565 845.167 565 845.167C565 845.167 547.333 854 513.333 856.667C535 827 567.167 775.5 599.167 697.5C651.167 570.833 654.333 459.5 653.833 423.167C668.5 433.333 674.5 442.333 674.5 442.333C674.5 442.333 675.833 458.667 675 485Z" fill="#C5DFFF"/>
<path d="M374 764C373.5 764 373.167 764 372.667 763.833C368 763.167 364.833 758.667 365.5 754C366 751.167 376.667 682.5 406.167 613.333C435.667 544.333 459 510.5 460 509C462.667 505.167 468 504.167 472 506.833C475.833 509.5 476.833 514.833 474.167 518.833C474 519.167 450.667 552.833 422 620C393.333 687.167 382.5 755.833 382.5 756.5C381.667 761 378 764 374 764Z" fill="#F8FBFF"/>
<path d="M675 485C669.167 479.833 661.667 473.833 652.667 467.667C649 465.167 645 462.5 640.667 459.833C638.333 458.5 636 457 633.5 455.667C623.667 450 612.5 444.667 600.333 440C599.333 439.667 598.5 439.333 597.5 439C595.667 438.333 594 437.667 592.333 437.167C578.333 432.167 566 428.833 555.5 426.5C552.5 425.833 549.5 425.333 546.833 424.667C535.167 422.5 526.167 421.833 519.833 421.5C536.167 405.5 546.667 398.667 546.667 398.667C546.667 398.667 553.333 396 567 396C570 396 573.333 396.167 577 396.5C585.667 397.167 596.167 399 608.5 402.5C610 403 611.667 403.333 613.167 403.833C614.333 404.167 615.5 404.5 616.667 405C626.333 408.333 634.667 412 641.667 415.667C644.5 417.167 647 418.667 649.5 420.333C651.167 421.333 652.5 422.333 654 423.333C668.667 433.5 674.667 442.5 674.667 442.5C674.667 442.5 675.833 458.667 675 485Z" fill="#1C3177"/>
<path d="M675 485C669.167 479.833 661.667 473.833 652.667 467.667C654 448.167 654 433 654 423.333C668.667 433.5 674.667 442.5 674.667 442.5C674.667 442.5 675.833 458.667 675 485Z" fill="#142966"/>
<path d="M649.5 420.333L641.833 457.833C641.667 458.667 641.333 459.333 640.667 460C638.333 458.667 636 457.167 633.5 455.833L641.667 415.833C644.5 417.333 647.167 418.833 649.5 420.333Z" fill="#142966"/>
<path d="M616.667 405L600.333 440C599.333 439.667 598.5 439.333 597.5 439C595.667 438.333 594 437.667 592.333 437.167L608.333 402.5C609.833 403 611.5 403.333 613 403.833C614.333 404.333 615.5 404.667 616.667 405Z" fill="#142966"/>
<path d="M577 396.5C576.833 396.833 576.667 397.167 576.5 397.5L555.5 426.5C552.5 425.833 549.5 425.333 546.833 424.667C547 424 547.167 423.333 547.667 422.667L567 395.833C570 396 573.333 396.167 577 396.5Z" fill="#142966"/>
<path d="M456.408 793.371C495.588 806.812 542.46 773.665 561.098 719.335C579.737 665.004 563.084 610.065 523.904 596.624C484.723 583.182 437.852 616.329 419.213 670.66C400.575 724.99 417.227 779.929 456.408 793.371Z" fill="#C5DFFF"/>
<path d="M461.774 789.105C500.954 802.546 547.656 769.893 566.086 716.172C584.515 662.451 567.693 608.006 528.513 594.565C489.332 581.123 442.63 613.776 424.201 667.497C405.771 721.218 422.594 775.664 461.774 789.105Z" fill="#1C3177"/>
<path d="M465.656 770.501C496.739 781.165 534.02 754.588 548.924 711.142C563.829 667.695 550.714 623.83 519.631 613.167C488.548 602.503 451.267 629.079 436.362 672.526C421.458 715.973 434.573 759.838 465.656 770.501Z" fill="#99ADF9"/>
<path d="M481.416 666.568C490.297 669.614 500.959 661.991 505.231 649.54C509.502 637.09 505.765 624.526 496.884 621.48C488.003 618.433 477.341 626.057 473.07 638.507C468.799 650.958 472.535 663.521 481.416 666.568Z" fill="#C5DFFF"/>
<path d="M461.048 721.323C465.837 722.966 471.559 718.933 473.829 712.316C476.099 705.699 474.058 699.003 469.269 697.36C464.48 695.717 458.758 699.75 456.488 706.367C454.218 712.984 456.259 719.68 461.048 721.323Z" fill="#C5DFFF"/>
<path d="M549 711.167C534 754.667 496.833 781.167 465.667 770.5C449.333 764.833 437.833 750 433 730.833C437 733.5 441.333 735.833 446 737.333C484.667 750.667 531.167 717.5 549.667 663.333C550.833 660 551.833 656.667 552.667 653.333C556.833 670.5 556 691 549 711.167Z" fill="#7C99F2"/>
<path d="M582.833 815C571.667 836 565.167 845.333 565.167 845.333C565.167 845.333 547.5 854.167 513.5 856.833C494.5 858.333 470.5 858 441.667 853.167C411.833 848.167 392 841.5 378.667 835.167C356 824.333 352.5 814.333 352.5 814.333C352.5 814.333 351.333 799.833 355.167 771.333C362.167 777.833 371.5 785.167 383.833 792C402.833 802.5 428.667 812.333 463.833 817.5C490.167 821.333 515.333 821.833 537.833 820.333C554.5 819.5 569.667 817.333 582.833 815Z" fill="#FF97C9"/>
<path d="M582.833 815C571.667 836 565.167 845.333 565.167 845.333C565.167 845.333 547.5 854.167 513.5 856.833C520.667 847 528.833 835 537.833 820.333C554.5 819.5 569.667 817.333 582.833 815Z" fill="#FC75BC"/>
<path d="M383.833 792.167L378.667 835.333C356 824.5 352.5 814.5 352.5 814.5C352.5 814.5 351.333 800 355.167 771.5C362.167 778 371.5 785.167 383.833 792.167Z" fill="#FCB6DA"/>
</g>
<defs>
<clipPath id="clip0_3_8407">
<rect width="1000" height="1000" rx="50" fill="white"/>
</clipPath>
</defs>
</svg>
