<svg width="1000" height="1000" viewBox="0 0 1000 1000" fill="none" xmlns="http://www.w3.org/2000/svg">
<g clip-path="url(#clip0_3_8515)">
<rect width="1000" height="1000" rx="50" fill="none"/>
<path d="M675.333 890.5H288.167C285.333 890.5 283 888.167 283 885.333V884.333C283 881.5 285.333 879.167 288.167 879.167H675.167C678 879.167 680.333 881.5 680.333 884.333V885.333C680.5 888.167 678.167 890.5 675.333 890.5Z" fill="#99ADF9"/>
<path d="M268.833 301.333C268 301.333 267.333 300.667 267.333 299.833V292C267.333 291.167 268 290.5 268.833 290.5C269.667 290.5 270.333 291.167 270.333 292V299.833C270.167 300.667 269.5 301.333 268.833 301.333Z" fill="#C5DFFF"/>
<path d="M268.833 371.333C268 371.333 267.333 370.667 267.333 369.833V352.333C267.333 351.5 268 350.833 268.833 350.833C269.667 350.833 270.333 351.5 270.333 352.333V369.833C270.167 370.667 269.5 371.333 268.833 371.333ZM268.833 336.333C268 336.333 267.333 335.667 267.333 334.833V317.333C267.333 316.5 268 315.833 268.833 315.833C269.667 315.833 270.333 316.5 270.333 317.333V334.833C270.167 335.667 269.5 336.333 268.833 336.333Z" fill="#C5DFFF"/>
<path d="M288.333 301.333C287.5 301.333 286.833 300.667 286.833 299.833V292C286.833 291.167 287.5 290.5 288.333 290.5C289.167 290.5 289.833 291.167 289.833 292V299.833C289.833 300.667 289.167 301.333 288.333 301.333Z" fill="#C5DFFF"/>
<path d="M288.333 371.333C287.5 371.333 286.833 370.667 286.833 369.833V352.333C286.833 351.5 287.5 350.833 288.333 350.833C289.167 350.833 289.833 351.5 289.833 352.333V369.833C289.833 370.667 289.167 371.333 288.333 371.333ZM288.333 336.333C287.5 336.333 286.833 335.667 286.833 334.833V317.333C286.833 316.5 287.5 315.833 288.333 315.833C289.167 315.833 289.833 316.5 289.833 317.333V334.833C289.833 335.667 289.167 336.333 288.333 336.333Z" fill="#C5DFFF"/>
<path d="M307.833 301.333C307 301.333 306.333 300.667 306.333 299.833V292C306.333 291.167 307 290.5 307.833 290.5C308.667 290.5 309.333 291.167 309.333 292V299.833C309.333 300.667 308.667 301.333 307.833 301.333Z" fill="#C5DFFF"/>
<path d="M307.833 406.167C307 406.167 306.333 405.5 306.333 404.667V387.167C306.333 386.333 307 385.667 307.833 385.667C308.667 385.667 309.333 386.333 309.333 387.167V404.667C309.333 405.667 308.667 406.167 307.833 406.167ZM307.833 371.333C307 371.333 306.333 370.667 306.333 369.833V352.333C306.333 351.5 307 350.833 307.833 350.833C308.667 350.833 309.333 351.5 309.333 352.333V369.833C309.333 370.667 308.667 371.333 307.833 371.333ZM307.833 336.333C307 336.333 306.333 335.667 306.333 334.833V317.333C306.333 316.5 307 315.833 307.833 315.833C308.667 315.833 309.333 316.5 309.333 317.333V334.833C309.333 335.667 308.667 336.333 307.833 336.333Z" fill="#C5DFFF"/>
<path d="M327.5 301.333C326.667 301.333 326 300.667 326 299.833V292C326 291.167 326.667 290.5 327.5 290.5C328.333 290.5 329 291.167 329 292V299.833C328.833 300.667 328.167 301.333 327.5 301.333Z" fill="#C5DFFF"/>
<path d="M327.5 406.167C326.667 406.167 326 405.5 326 404.667V387.167C326 386.333 326.667 385.667 327.5 385.667C328.333 385.667 329 386.333 329 387.167V404.667C328.833 405.667 328.167 406.167 327.5 406.167ZM327.5 371.333C326.667 371.333 326 370.667 326 369.833V352.333C326 351.5 326.667 350.833 327.5 350.833C328.333 350.833 329 351.5 329 352.333V369.833C328.833 370.667 328.167 371.333 327.5 371.333ZM327.5 336.333C326.667 336.333 326 335.667 326 334.833V317.333C326 316.5 326.667 315.833 327.5 315.833C328.333 315.833 329 316.5 329 317.333V334.833C328.833 335.667 328.167 336.333 327.5 336.333Z" fill="#C5DFFF"/>
<path d="M347 301.333C346.167 301.333 345.5 300.667 345.5 299.833V292C345.5 291.167 346.167 290.5 347 290.5C347.833 290.5 348.5 291.167 348.5 292V299.833C348.5 300.667 347.833 301.333 347 301.333Z" fill="#C5DFFF"/>
<path d="M347 406.167C346.167 406.167 345.5 405.5 345.5 404.667V387.167C345.5 386.333 346.167 385.667 347 385.667C347.833 385.667 348.5 386.333 348.5 387.167V404.667C348.5 405.667 347.833 406.167 347 406.167ZM347 371.333C346.167 371.333 345.5 370.667 345.5 369.833V352.333C345.5 351.5 346.167 350.833 347 350.833C347.833 350.833 348.5 351.5 348.5 352.333V369.833C348.5 370.667 347.833 371.333 347 371.333ZM347 336.333C346.167 336.333 345.5 335.667 345.5 334.833V317.333C345.5 316.5 346.167 315.833 347 315.833C347.833 315.833 348.5 316.5 348.5 317.333V334.833C348.5 335.667 347.833 336.333 347 336.333Z" fill="#C5DFFF"/>
<path d="M347 431.667C346.167 431.667 345.5 431 345.5 430.167V422.333C345.5 421.5 346.167 420.833 347 420.833C347.833 420.833 348.5 421.5 348.5 422.333V430.167C348.5 431 347.833 431.667 347 431.667Z" fill="#C5DFFF"/>
<path d="M366.5 301.333C365.667 301.333 365 300.667 365 299.833V292C365 291.167 365.667 290.5 366.5 290.5C367.333 290.5 368 291.167 368 292V299.833C368 300.667 367.333 301.333 366.5 301.333Z" fill="#C5DFFF"/>
<path d="M366.5 406.167C365.667 406.167 365 405.5 365 404.667V387.167C365 386.333 365.667 385.667 366.5 385.667C367.333 385.667 368 386.333 368 387.167V404.667C368 405.667 367.333 406.167 366.5 406.167ZM366.5 371.333C365.667 371.333 365 370.667 365 369.833V352.333C365 351.5 365.667 350.833 366.5 350.833C367.333 350.833 368 351.5 368 352.333V369.833C368 370.667 367.333 371.333 366.5 371.333ZM366.5 336.333C365.667 336.333 365 335.667 365 334.833V317.333C365 316.5 365.667 315.833 366.5 315.833C367.333 315.833 368 316.5 368 317.333V334.833C368 335.667 367.333 336.333 366.5 336.333Z" fill="#C5DFFF"/>
<path d="M366.5 431.667C365.667 431.667 365 431 365 430.167V422.333C365 421.5 365.667 420.833 366.5 420.833C367.333 420.833 368 421.5 368 422.333V430.167C368 431 367.333 431.667 366.5 431.667Z" fill="#C5DFFF"/>
<path d="M415.333 255.333C414.5 255.333 413.833 254.667 413.833 253.833V246C413.833 245.167 414.5 244.5 415.333 244.5C416.167 244.5 416.833 245.167 416.833 246V253.833C416.833 254.667 416.167 255.333 415.333 255.333Z" fill="#C5DFFF"/>
<path d="M415.333 325.167C414.5 325.167 413.833 324.5 413.833 323.667V306.167C413.833 305.333 414.5 304.667 415.333 304.667C416.167 304.667 416.833 305.333 416.833 306.167V323.667C416.833 324.667 416.167 325.167 415.333 325.167ZM415.333 290.333C414.5 290.333 413.833 289.667 413.833 288.833V271.333C413.833 270.5 414.5 269.833 415.333 269.833C416.167 269.833 416.833 270.5 416.833 271.333V288.833C416.833 289.667 416.167 290.333 415.333 290.333Z" fill="#C5DFFF"/>
<path d="M434.833 255.333C434 255.333 433.333 254.667 433.333 253.833V246C433.333 245.167 434 244.5 434.833 244.5C435.667 244.5 436.333 245.167 436.333 246V253.833C436.333 254.667 435.667 255.333 434.833 255.333Z" fill="#C5DFFF"/>
<path d="M434.833 325.167C434 325.167 433.333 324.5 433.333 323.667V306.167C433.333 305.333 434 304.667 434.833 304.667C435.667 304.667 436.333 305.333 436.333 306.167V323.667C436.333 324.667 435.667 325.167 434.833 325.167ZM434.833 290.333C434 290.333 433.333 289.667 433.333 288.833V271.333C433.333 270.5 434 269.833 434.833 269.833C435.667 269.833 436.333 270.5 436.333 271.333V288.833C436.333 289.667 435.667 290.333 434.833 290.333Z" fill="#C5DFFF"/>
<path d="M454.5 255.333C453.667 255.333 453 254.667 453 253.833V246C453 245.167 453.667 244.5 454.5 244.5C455.333 244.5 456 245.167 456 246V253.833C455.833 254.667 455.167 255.333 454.5 255.333Z" fill="#C5DFFF"/>
<path d="M454.5 360.167C453.667 360.167 453 359.5 453 358.667V341.167C453 340.333 453.667 339.667 454.5 339.667C455.333 339.667 456 340.333 456 341.167V358.667C455.833 359.667 455.167 360.167 454.5 360.167ZM454.5 325.167C453.667 325.167 453 324.5 453 323.667V306.167C453 305.333 453.667 304.667 454.5 304.667C455.333 304.667 456 305.333 456 306.167V323.667C455.833 324.667 455.167 325.167 454.5 325.167ZM454.5 290.333C453.667 290.333 453 289.667 453 288.833V271.333C453 270.5 453.667 269.833 454.5 269.833C455.333 269.833 456 270.5 456 271.333V288.833C455.833 289.667 455.167 290.333 454.5 290.333Z" fill="#C5DFFF"/>
<path d="M513 255.333C512.167 255.333 511.5 254.667 511.5 253.833V246C511.5 245.167 512.167 244.5 513 244.5C513.833 244.5 514.5 245.167 514.5 246V253.833C514.5 254.667 513.833 255.333 513 255.333Z" fill="#C5DFFF"/>
<path d="M513 360.167C512.167 360.167 511.5 359.5 511.5 358.667V341.167C511.5 340.333 512.167 339.667 513 339.667C513.833 339.667 514.5 340.333 514.5 341.167V358.667C514.5 359.667 513.833 360.167 513 360.167ZM513 325.167C512.167 325.167 511.5 324.5 511.5 323.667V306.167C511.5 305.333 512.167 304.667 513 304.667C513.833 304.667 514.5 305.333 514.5 306.167V323.667C514.5 324.667 513.833 325.167 513 325.167ZM513 290.333C512.167 290.333 511.5 289.667 511.5 288.833V271.333C511.5 270.5 512.167 269.833 513 269.833C513.833 269.833 514.5 270.5 514.5 271.333V288.833C514.5 289.667 513.833 290.333 513 290.333Z" fill="#C5DFFF"/>
<path d="M532.167 255.333C531.333 255.333 530.667 254.667 530.667 253.833V246C530.667 245.167 531.333 244.5 532.167 244.5C533 244.5 533.667 245.167 533.667 246V253.833C533.5 254.667 532.833 255.333 532.167 255.333Z" fill="#C5DFFF"/>
<path d="M532.167 360.167C531.333 360.167 530.667 359.5 530.667 358.667V341.167C530.667 340.333 531.333 339.667 532.167 339.667C533 339.667 533.667 340.333 533.667 341.167V358.667C533.5 359.667 532.833 360.167 532.167 360.167ZM532.167 325.167C531.333 325.167 530.667 324.5 530.667 323.667V306.167C530.667 305.333 531.333 304.667 532.167 304.667C533 304.667 533.667 305.333 533.667 306.167V323.667C533.5 324.667 532.833 325.167 532.167 325.167ZM532.167 290.333C531.333 290.333 530.667 289.667 530.667 288.833V271.333C530.667 270.5 531.333 269.833 532.167 269.833C533 269.833 533.667 270.5 533.667 271.333V288.833C533.5 289.667 532.833 290.333 532.167 290.333Z" fill="#C5DFFF"/>
<path d="M551.667 255.333C550.833 255.333 550.167 254.667 550.167 253.833V246C550.167 245.167 550.833 244.5 551.667 244.5C552.5 244.5 553.167 245.167 553.167 246V253.833C553.167 254.667 552.5 255.333 551.667 255.333Z" fill="#C5DFFF"/>
<path d="M551.667 360.167C550.833 360.167 550.167 359.5 550.167 358.667V341.167C550.167 340.333 550.833 339.667 551.667 339.667C552.5 339.667 553.167 340.333 553.167 341.167V358.667C553.167 359.667 552.5 360.167 551.667 360.167ZM551.667 325.167C550.833 325.167 550.167 324.5 550.167 323.667V306.167C550.167 305.333 550.833 304.667 551.667 304.667C552.5 304.667 553.167 305.333 553.167 306.167V323.667C553.167 324.667 552.5 325.167 551.667 325.167ZM551.667 290.333C550.833 290.333 550.167 289.667 550.167 288.833V271.333C550.167 270.5 550.833 269.833 551.667 269.833C552.5 269.833 553.167 270.5 553.167 271.333V288.833C553.167 289.667 552.5 290.333 551.667 290.333Z" fill="#C5DFFF"/>
<path d="M571.167 255.333C570.333 255.333 569.667 254.667 569.667 253.833V246C569.667 245.167 570.333 244.5 571.167 244.5C572 244.5 572.667 245.167 572.667 246V253.833C572.667 254.667 572 255.333 571.167 255.333Z" fill="#C5DFFF"/>
<path d="M571.167 360.167C570.333 360.167 569.667 359.5 569.667 358.667V341.167C569.667 340.333 570.333 339.667 571.167 339.667C572 339.667 572.667 340.333 572.667 341.167V358.667C572.667 359.667 572 360.167 571.167 360.167ZM571.167 325.167C570.333 325.167 569.667 324.5 569.667 323.667V306.167C569.667 305.333 570.333 304.667 571.167 304.667C572 304.667 572.667 305.333 572.667 306.167V323.667C572.667 324.667 572 325.167 571.167 325.167ZM571.167 290.333C570.333 290.333 569.667 289.667 569.667 288.833V271.333C569.667 270.5 570.333 269.833 571.167 269.833C572 269.833 572.667 270.5 572.667 271.333V288.833C572.667 289.667 572 290.333 571.167 290.333Z" fill="#C5DFFF"/>
<path d="M493.5 391.5C492.667 391.5 492 390.833 492 390V372.5C492 371.667 492.667 371 493.5 371C494.333 371 495 371.667 495 372.5V390C495 390.833 494.333 391.5 493.5 391.5Z" fill="#C5DFFF"/>
<path d="M513 391.5C512.167 391.5 511.5 390.833 511.5 390V372.5C511.5 371.667 512.167 371 513 371C513.833 371 514.5 371.667 514.5 372.5V390C514.5 390.833 513.833 391.5 513 391.5Z" fill="#C5DFFF"/>
<path d="M532.167 391.5C531.333 391.5 530.667 390.833 530.667 390V372.5C530.667 371.667 531.333 371 532.167 371C533 371 533.667 371.667 533.667 372.5V390C533.5 390.833 532.833 391.5 532.167 391.5Z" fill="#C5DFFF"/>
<path d="M551.667 426.5C550.833 426.5 550.167 425.833 550.167 425V407.5C550.167 406.667 550.833 406 551.667 406C552.5 406 553.167 406.667 553.167 407.5V425C553.167 425.833 552.5 426.5 551.667 426.5ZM551.667 391.5C550.833 391.5 550.167 390.833 550.167 390V372.5C550.167 371.667 550.833 371 551.667 371C552.5 371 553.167 371.667 553.167 372.5V390C553.167 390.833 552.5 391.5 551.667 391.5Z" fill="#C5DFFF"/>
<path d="M571.167 461.5C570.333 461.5 569.667 460.833 569.667 460V442.5C569.667 441.667 570.333 441 571.167 441C572 441 572.667 441.667 572.667 442.5V460C572.667 460.833 572 461.5 571.167 461.5ZM571.167 426.5C570.333 426.5 569.667 425.833 569.667 425V407.5C569.667 406.667 570.333 406 571.167 406C572 406 572.667 406.667 572.667 407.5V425C572.667 425.833 572 426.5 571.167 426.5ZM571.167 391.5C570.333 391.5 569.667 390.833 569.667 390V372.5C569.667 371.667 570.333 371 571.167 371C572 371 572.667 371.667 572.667 372.5V390C572.667 390.833 572 391.5 571.167 391.5Z" fill="#C5DFFF"/>
<path d="M590.833 461.5C590 461.5 589.333 460.833 589.333 460V442.5C589.333 441.667 590 441 590.833 441C591.667 441 592.333 441.667 592.333 442.5V460C592.167 460.833 591.5 461.5 590.833 461.5ZM590.833 426.5C590 426.5 589.333 425.833 589.333 425V407.5C589.333 406.667 590 406 590.833 406C591.667 406 592.333 406.667 592.333 407.5V425C592.167 425.833 591.5 426.5 590.833 426.5ZM590.833 391.5C590 391.5 589.333 390.833 589.333 390V372.5C589.333 371.667 590 371 590.833 371C591.667 371 592.333 371.667 592.333 372.5V390C592.167 390.833 591.5 391.5 590.833 391.5Z" fill="#C5DFFF"/>
<path d="M610.333 461.5C609.5 461.5 608.833 460.833 608.833 460V442.5C608.833 441.667 609.5 441 610.333 441C611.167 441 611.833 441.667 611.833 442.5V460C611.667 460.833 611.167 461.5 610.333 461.5ZM610.333 426.5C609.5 426.5 608.833 425.833 608.833 425V407.5C608.833 406.667 609.5 406 610.333 406C611.167 406 611.833 406.667 611.833 407.5V425C611.667 425.833 611.167 426.5 610.333 426.5ZM610.333 391.5C609.5 391.5 608.833 390.833 608.833 390V372.5C608.833 371.667 609.5 371 610.333 371C611.167 371 611.833 371.667 611.833 372.5V390C611.667 390.833 611.167 391.5 610.333 391.5Z" fill="#C5DFFF"/>
<path d="M610.333 486.833C609.5 486.833 608.833 486.167 608.833 485.333V477.5C608.833 476.667 609.5 476 610.333 476C611.167 476 611.833 476.667 611.833 477.5V485.333C611.667 486.167 611.167 486.833 610.333 486.833Z" fill="#C5DFFF"/>
<path d="M629.833 461.5C629 461.5 628.333 460.833 628.333 460V442.5C628.333 441.667 629 441 629.833 441C630.667 441 631.333 441.667 631.333 442.5V460C631.333 460.833 630.667 461.5 629.833 461.5ZM629.833 426.5C629 426.5 628.333 425.833 628.333 425V407.5C628.333 406.667 629 406 629.833 406C630.667 406 631.333 406.667 631.333 407.5V425C631.333 425.833 630.667 426.5 629.833 426.5ZM629.833 391.5C629 391.5 628.333 390.833 628.333 390V372.5C628.333 371.667 629 371 629.833 371C630.667 371 631.333 371.667 631.333 372.5V390C631.333 390.833 630.667 391.5 629.833 391.5Z" fill="#C5DFFF"/>
<path d="M629.833 486.833C629 486.833 628.333 486.167 628.333 485.333V477.5C628.333 476.667 629 476 629.833 476C630.667 476 631.333 476.667 631.333 477.5V485.333C631.333 486.167 630.667 486.833 629.833 486.833Z" fill="#C5DFFF"/>
<path d="M590.833 255.333C590 255.333 589.333 254.667 589.333 253.833V246C589.333 245.167 590 244.5 590.833 244.5C591.667 244.5 592.333 245.167 592.333 246V253.833C592.167 254.667 591.5 255.333 590.833 255.333Z" fill="#C5DFFF"/>
<path d="M590.833 360.167C590 360.167 589.333 359.5 589.333 358.667V341.167C589.333 340.333 590 339.667 590.833 339.667C591.667 339.667 592.333 340.333 592.333 341.167V358.667C592.167 359.667 591.5 360.167 590.833 360.167ZM590.833 325.167C590 325.167 589.333 324.5 589.333 323.667V306.167C589.333 305.333 590 304.667 590.833 304.667C591.667 304.667 592.333 305.333 592.333 306.167V323.667C592.167 324.667 591.5 325.167 590.833 325.167ZM590.833 290.333C590 290.333 589.333 289.667 589.333 288.833V271.333C589.333 270.5 590 269.833 590.833 269.833C591.667 269.833 592.333 270.5 592.333 271.333V288.833C592.167 289.667 591.5 290.333 590.833 290.333Z" fill="#C5DFFF"/>
<path d="M610.333 255.333C609.5 255.333 608.833 254.667 608.833 253.833V246C608.833 245.167 609.5 244.5 610.333 244.5C611.167 244.5 611.833 245.167 611.833 246V253.833C611.667 254.667 611.167 255.333 610.333 255.333Z" fill="#C5DFFF"/>
<path d="M610.333 360.167C609.5 360.167 608.833 359.5 608.833 358.667V341.167C608.833 340.333 609.5 339.667 610.333 339.667C611.167 339.667 611.833 340.333 611.833 341.167V358.667C611.667 359.667 611.167 360.167 610.333 360.167ZM610.333 325.167C609.5 325.167 608.833 324.5 608.833 323.667V306.167C608.833 305.333 609.5 304.667 610.333 304.667C611.167 304.667 611.833 305.333 611.833 306.167V323.667C611.667 324.667 611.167 325.167 610.333 325.167ZM610.333 290.333C609.5 290.333 608.833 289.667 608.833 288.833V271.333C608.833 270.5 609.5 269.833 610.333 269.833C611.167 269.833 611.833 270.5 611.833 271.333V288.833C611.667 289.667 611.167 290.333 610.333 290.333Z" fill="#C5DFFF"/>
<path d="M629.833 255.333C629 255.333 628.333 254.667 628.333 253.833V246C628.333 245.167 629 244.5 629.833 244.5C630.667 244.5 631.333 245.167 631.333 246V253.833C631.333 254.667 630.667 255.333 629.833 255.333Z" fill="#C5DFFF"/>
<path d="M629.833 360.167C629 360.167 628.333 359.5 628.333 358.667V341.167C628.333 340.333 629 339.667 629.833 339.667C630.667 339.667 631.333 340.333 631.333 341.167V358.667C631.333 359.667 630.667 360.167 629.833 360.167ZM629.833 325.167C629 325.167 628.333 324.5 628.333 323.667V306.167C628.333 305.333 629 304.667 629.833 304.667C630.667 304.667 631.333 305.333 631.333 306.167V323.667C631.333 324.667 630.667 325.167 629.833 325.167ZM629.833 290.333C629 290.333 628.333 289.667 628.333 288.833V271.333C628.333 270.5 629 269.833 629.833 269.833C630.667 269.833 631.333 270.5 631.333 271.333V288.833C631.333 289.667 630.667 290.333 629.833 290.333Z" fill="#C5DFFF"/>
<path d="M474 255.333C473.167 255.333 472.5 254.667 472.5 253.833V246C472.5 245.167 473.167 244.5 474 244.5C474.833 244.5 475.5 245.167 475.5 246V253.833C475.333 254.667 474.833 255.333 474 255.333Z" fill="#C5DFFF"/>
<path d="M474 360.167C473.167 360.167 472.5 359.5 472.5 358.667V341.167C472.5 340.333 473.167 339.667 474 339.667C474.833 339.667 475.5 340.333 475.5 341.167V358.667C475.333 359.667 474.833 360.167 474 360.167ZM474 325.167C473.167 325.167 472.5 324.5 472.5 323.667V306.167C472.5 305.333 473.167 304.667 474 304.667C474.833 304.667 475.5 305.333 475.5 306.167V323.667C475.333 324.667 474.833 325.167 474 325.167ZM474 290.333C473.167 290.333 472.5 289.667 472.5 288.833V271.333C472.5 270.5 473.167 269.833 474 269.833C474.833 269.833 475.5 270.5 475.5 271.333V288.833C475.333 289.667 474.833 290.333 474 290.333Z" fill="#C5DFFF"/>
<path d="M493.5 255.333C492.667 255.333 492 254.667 492 253.833V246C492 245.167 492.667 244.5 493.5 244.5C494.333 244.5 495 245.167 495 246V253.833C495 254.667 494.333 255.333 493.5 255.333Z" fill="#C5DFFF"/>
<path d="M493.5 360.167C492.667 360.167 492 359.5 492 358.667V341.167C492 340.333 492.667 339.667 493.5 339.667C494.333 339.667 495 340.333 495 341.167V358.667C495 359.667 494.333 360.167 493.5 360.167ZM493.5 325.167C492.667 325.167 492 324.5 492 323.667V306.167C492 305.333 492.667 304.667 493.5 304.667C494.333 304.667 495 305.333 495 306.167V323.667C495 324.667 494.333 325.167 493.5 325.167ZM493.5 290.333C492.667 290.333 492 289.667 492 288.833V271.333C492 270.5 492.667 269.833 493.5 269.833C494.333 269.833 495 270.5 495 271.333V288.833C495 289.667 494.333 290.333 493.5 290.333Z" fill="#C5DFFF"/>
<path d="M672.667 391C671.833 391 671.167 390.333 671.167 389.5V381.667C671.167 380.833 671.833 380.167 672.667 380.167C673.5 380.167 674.167 380.833 674.167 381.667V389.5C674 390.333 673.333 391 672.667 391Z" fill="#C5DFFF"/>
<path d="M672.667 495.833C671.833 495.833 671.167 495.167 671.167 494.333V476.833C671.167 476 671.833 475.333 672.667 475.333C673.5 475.333 674.167 476 674.167 476.833V494.333C674 495.167 673.333 495.833 672.667 495.833ZM672.667 460.833C671.833 460.833 671.167 460.167 671.167 459.333V441.833C671.167 441 671.833 440.333 672.667 440.333C673.5 440.333 674.167 441 674.167 441.833V459.333C674 460.167 673.333 460.833 672.667 460.833ZM672.667 425.833C671.833 425.833 671.167 425.167 671.167 424.333V406.833C671.167 406 671.833 405.333 672.667 405.333C673.5 405.333 674.167 406 674.167 406.833V424.333C674 425.333 673.333 425.833 672.667 425.833Z" fill="#C5DFFF"/>
<path d="M672.667 521.167C671.833 521.167 671.167 520.5 671.167 519.667V511.833C671.167 511 671.833 510.333 672.667 510.333C673.5 510.333 674.167 511 674.167 511.833V519.667C674 520.667 673.333 521.167 672.667 521.167Z" fill="#C5DFFF"/>
<path d="M692.167 391C691.333 391 690.667 390.333 690.667 389.5V381.667C690.667 380.833 691.333 380.167 692.167 380.167C693 380.167 693.667 380.833 693.667 381.667V389.5C693.5 390.333 693 391 692.167 391Z" fill="#C5DFFF"/>
<path d="M692.167 495.833C691.333 495.833 690.667 495.167 690.667 494.333V476.833C690.667 476 691.333 475.333 692.167 475.333C693 475.333 693.667 476 693.667 476.833V494.333C693.5 495.167 693 495.833 692.167 495.833ZM692.167 460.833C691.333 460.833 690.667 460.167 690.667 459.333V441.833C690.667 441 691.333 440.333 692.167 440.333C693 440.333 693.667 441 693.667 441.833V459.333C693.5 460.167 693 460.833 692.167 460.833ZM692.167 425.833C691.333 425.833 690.667 425.167 690.667 424.333V406.833C690.667 406 691.333 405.333 692.167 405.333C693 405.333 693.667 406 693.667 406.833V424.333C693.5 425.333 693 425.833 692.167 425.833Z" fill="#C5DFFF"/>
<path d="M692.167 521.167C691.333 521.167 690.667 520.5 690.667 519.667V511.833C690.667 511 691.333 510.333 692.167 510.333C693 510.333 693.667 511 693.667 511.833V519.667C693.5 520.667 693 521.167 692.167 521.167Z" fill="#C5DFFF"/>
<path d="M711.667 391C710.833 391 710.167 390.333 710.167 389.5V381.667C710.167 380.833 710.833 380.167 711.667 380.167C712.5 380.167 713.167 380.833 713.167 381.667V389.5C713.167 390.333 712.5 391 711.667 391Z" fill="#C5DFFF"/>
<path d="M711.667 495.833C710.833 495.833 710.167 495.167 710.167 494.333V476.833C710.167 476 710.833 475.333 711.667 475.333C712.5 475.333 713.167 476 713.167 476.833V494.333C713.167 495.167 712.5 495.833 711.667 495.833ZM711.667 460.833C710.833 460.833 710.167 460.167 710.167 459.333V441.833C710.167 441 710.833 440.333 711.667 440.333C712.5 440.333 713.167 441 713.167 441.833V459.333C713.167 460.167 712.5 460.833 711.667 460.833ZM711.667 425.833C710.833 425.833 710.167 425.167 710.167 424.333V406.833C710.167 406 710.833 405.333 711.667 405.333C712.5 405.333 713.167 406 713.167 406.833V424.333C713.167 425.333 712.5 425.833 711.667 425.833Z" fill="#C5DFFF"/>
<path d="M731.333 391C730.5 391 729.833 390.333 729.833 389.5V381.667C729.833 380.833 730.5 380.167 731.333 380.167C732.167 380.167 732.833 380.833 732.833 381.667V389.5C732.667 390.333 732 391 731.333 391Z" fill="#C5DFFF"/>
<path d="M731.333 495.833C730.5 495.833 729.833 495.167 729.833 494.333V476.833C729.833 476 730.5 475.333 731.333 475.333C732.167 475.333 732.833 476 732.833 476.833V494.333C732.667 495.167 732 495.833 731.333 495.833ZM731.333 460.833C730.5 460.833 729.833 460.167 729.833 459.333V441.833C729.833 441 730.5 440.333 731.333 440.333C732.167 440.333 732.833 441 732.833 441.833V459.333C732.667 460.167 732 460.833 731.333 460.833ZM731.333 425.833C730.5 425.833 729.833 425.167 729.833 424.333V406.833C729.833 406 730.5 405.333 731.333 405.333C732.167 405.333 732.833 406 732.833 406.833V424.333C732.667 425.333 732 425.833 731.333 425.833Z" fill="#C5DFFF"/>
<path d="M750.833 391C750 391 749.333 390.333 749.333 389.5V381.667C749.333 380.833 750 380.167 750.833 380.167C751.667 380.167 752.333 380.833 752.333 381.667V389.5C752.167 390.333 751.667 391 750.833 391Z" fill="#C5DFFF"/>
<path d="M750.833 460.833C750 460.833 749.333 460.167 749.333 459.333V441.833C749.333 441 750 440.333 750.833 440.333C751.667 440.333 752.333 441 752.333 441.833V459.333C752.167 460.167 751.667 460.833 750.833 460.833ZM750.833 425.833C750 425.833 749.333 425.167 749.333 424.333V406.833C749.333 406 750 405.333 750.833 405.333C751.667 405.333 752.333 406 752.333 406.833V424.333C752.167 425.333 751.667 425.833 750.833 425.833Z" fill="#C5DFFF"/>
<path d="M770.333 391C769.5 391 768.833 390.333 768.833 389.5V381.667C768.833 380.833 769.5 380.167 770.333 380.167C771.167 380.167 771.833 380.833 771.833 381.667V389.5C771.833 390.333 771.167 391 770.333 391Z" fill="#C5DFFF"/>
<path d="M770.333 425.833C769.5 425.833 768.833 425.167 768.833 424.333V406.833C768.833 406 769.5 405.333 770.333 405.333C771.167 405.333 771.833 406 771.833 406.833V424.333C771.833 425.333 771.167 425.833 770.333 425.833Z" fill="#C5DFFF"/>
<path d="M651.333 228C651.333 234.333 588.667 241.167 520.833 241.167C453 241.167 401.667 245.833 394.5 236C393.5 234.667 393.5 233.333 394.5 232.167C399.5 226 428.667 224 433.667 223.667C434.167 223.667 434.333 223.667 434.333 223.667C434.333 223.667 414.333 201.667 429.667 183.833C445 166 461.5 181.667 461.5 181.667C461.5 181.667 455 147.5 473.5 139C474 138.833 474.5 138.5 475 138.333C494.833 131.333 502.5 156.833 503 158.167C503 158.167 503.5 123.833 534 120.833C539.167 120.333 543.833 121.333 547.833 123.5C567 133.667 572.167 167.833 572.167 167.833C573.5 166.5 588.5 152.333 604.667 161.5C621.333 171 612.167 195.5 611.833 196.167C612.333 196 624.167 193.333 628 200C631.833 206.833 628 217.333 628 217.333C628 217.333 636.833 218.833 643.5 221.333C647.333 222.833 650.667 224.667 651.167 226.833C651.333 227.5 651.333 227.667 651.333 228Z" fill="#273D7A"/>
<path d="M440.667 217.167C444.333 224 446.833 226.5 446.833 226.5C446.833 226.5 441.167 226.667 433.5 223.667C434 223.667 434.167 223.667 434.167 223.667C434.167 223.667 414.167 201.667 429.5 183.833C444.833 166 461.333 181.667 461.333 181.667C461.333 181.667 454.833 147.5 473.333 139C471.333 143 469.167 149.667 469.333 158C469.667 172.667 474.5 193.667 474.5 193.667C474.5 193.667 454.5 182.167 441.667 186.667C429.167 191.167 437 210.5 440.667 217.167Z" fill="#072359"/>
<path d="M651.333 228C651.333 234.333 588.667 241.167 520.833 241.167C453 241.167 401.667 245.833 394.5 236C393.5 234.667 393.5 233.333 394.5 232.167C402.833 234.833 419.833 238 453 236.833C508.5 234.667 620 234.333 647.167 228.333C648.667 228 650 227.667 651.333 227.333C651.333 227.5 651.333 227.667 651.333 228Z" fill="#072359"/>
<path d="M547.833 123.833C540.833 124.5 531.167 126.833 522.333 133.667C506.5 146 505 169.333 505 169.333L503.167 158.5C503.167 158.5 503.667 124.167 534.167 121.167C539.167 120.667 543.833 121.667 547.833 123.833Z" fill="#506893"/>
<path d="M622.333 220.333C622.333 220.333 624.667 212.667 619.833 206.333C615 200 602 205 602 205C602 205 612.333 179.167 599.833 168.167C587.667 157.5 572.833 167.667 572.167 168.167C573.5 166.833 588.5 152.667 604.667 161.833C621.333 171.333 612.167 195.833 611.833 196.5C612.333 196.333 624.167 193.667 628 200.333C631.833 207.167 628 217.667 628 217.667C628 217.667 636.833 219.167 643.5 221.667C636.667 221 622.333 220.333 622.333 220.333Z" fill="#506893"/>
<path d="M380.167 282.167C375.5 287.167 356.333 290 319.5 293.833C289.833 297 253 298.167 250.333 291.5C247.667 284.833 271.5 282.167 271.5 282.167C271.5 282.167 263.667 272.833 274.667 261.5C282.667 253.167 295.667 261.167 296.167 261.5C296 261 284.5 237.333 295.5 225C297.333 223 299.667 221.167 302.833 220C303 220 303.167 219.833 303.333 219.833C325.667 211.833 338 258.333 338 258.333C338 258.333 359.167 247.333 366.167 257.167C372.833 266.333 369 275.833 368.5 277V277.167C368.5 277.167 377.667 277.167 380.333 279.333C381.167 280 381.333 281 380.167 282.167Z" fill="#273D7A"/>
<path d="M380.167 282.167C375.5 287.167 356.333 290 319.5 293.833C289.833 297 253 298.167 250.333 291.5C247.667 284.833 271.5 282.167 271.5 282.167C271.5 282.167 263.667 272.833 274.667 261.5C282.667 253.167 295.667 261.167 296.167 261.5C296 261 284.5 237.333 295.5 225C294.667 228.833 294.5 234.333 296.333 241.5C301 260.333 308.833 271.167 308.833 271.167C308.833 271.167 288.833 259.5 279.167 265.5C269.5 271.5 280.167 284 280.167 284C280.167 284 260.333 285.5 260.167 290.333C259.833 295 316 288.5 343 285.833C366.167 283.667 375.833 281.667 380.5 279.167C381.167 280 381.333 281 380.167 282.167Z" fill="#072359"/>
<path d="M368.5 277L366.5 278C366.5 278 368.167 262.833 360.167 258.833C352 254.833 334.333 267 334.333 267C334.333 267 332.833 251 322.667 235.667C316.167 225.833 308.167 221.667 303.333 219.833C325.667 211.833 338 258.333 338 258.333C338 258.333 359.167 247.333 366.167 257.167C372.833 266.333 369 276 368.5 277Z" fill="#506893"/>
<path d="M338.167 311.5L312.667 343.5C311.833 344.667 310 343.667 310.5 342.333L310.667 342.167L318.333 322.667C318.333 322.5 318.5 322.333 318.333 322.167C318.333 321.5 317.833 321.167 317.167 321.167L307.167 322.333C304.833 322.667 303.167 320.333 304.167 318.167L304.333 317.667L312.667 299.833L312.833 299.5C313.333 298.333 312.5 297.167 311.333 297.167L301.333 297.333C298 297.333 296 293.833 297.667 291L298 290.333L321.333 251.333C321.833 250.667 322.5 250.333 323.167 250.5C324 250.667 324.667 251.5 324.5 252.5L320.167 277.167C320 278.5 321.167 279.667 322.333 279.333L333.333 277C334.167 276.833 335 277 335.667 277.333C336.833 278.167 337.5 279.833 336.833 281.333L325.833 303.833C325.333 304.833 326 306 327.167 306.167C327.167 306.167 327.167 306.167 327.333 306.167L336 306.333C336.5 306.333 337 306.5 337.333 306.667C338.833 307.667 339.5 309.833 338.167 311.5Z" fill="#FEC272"/>
<path d="M312.667 300V299.667C313.167 298.5 312.333 297.333 311.167 297.333L301.167 297.5C297.833 297.5 295.833 294 297.5 291.167L297.833 290.5C298.333 291.167 299.167 291.667 300.833 291.833C303.833 292 312 291.833 314.5 291.833C316.833 292.167 312.667 300 312.667 300Z" fill="#FF8D76"/>
<path d="M318.333 322C318.333 321.333 317.833 321 317.167 321L307.167 322.167C304.833 322.5 303.167 320.167 304.167 318L304.333 317.5C305.167 317.667 306.667 318 309 317.667C313.167 317.167 319.167 316 319.667 316.5C320 317.333 318.667 321.167 318.333 322Z" fill="#FF8D76"/>
<path d="M320 277.333C319.833 278.667 321 279.833 322.167 279.5C319 280.667 315.833 281 316.333 277.833C316.833 275 322 254.5 322.833 250.667C323.667 250.833 324.333 251.667 324.167 252.667L320 277.333Z" fill="#FF8D76"/>
<path d="M325.833 304.167C325.333 305.167 326 306.333 327.167 306.5C327 306.5 326.833 306.5 326.667 306.5C323.833 306.5 321.167 305.667 323.167 301.833C324.833 298.5 333.5 282.167 335.833 277.833C337 278.667 337.667 280.333 337 281.833L325.833 304.167Z" fill="#FF8D76"/>
<path d="M338.167 311.5L312.667 343.5C311.833 344.667 310 343.667 310.5 342.333L310.667 342.167C311.667 341.167 313.5 339.5 316 335.833C319 331.5 334.167 311.167 337.333 306.833C338.833 307.667 339.5 309.833 338.167 311.5Z" fill="#FF8D76"/>
<path d="M548.667 331L487.333 408C485.167 410.667 481 408.333 482.167 405L482.333 404.5L501 357.5C501.167 357.167 501.167 356.833 501.167 356.333C501.167 355 499.833 353.667 498.333 354L474.333 356.833C468.833 357.5 464.833 352 467.167 347L467.667 346L487.5 303.167L487.833 302.5C489 299.833 487 296.667 484.167 296.833L460.167 297.333C452.167 297.5 447.167 288.833 451.333 282L452.167 280.667L508.167 187C509.167 185.167 511 184.667 512.667 185C514.667 185.5 516.333 187.333 515.833 189.833L505.5 249C505 252.167 507.667 254.833 510.833 254.167L537.5 248.5C539.5 248 541.5 248.5 543 249.5C546 251.333 547.5 255.333 545.667 259L519.333 313.167C518.167 315.667 519.833 318.5 522.5 318.667H522.667L543.333 319C544.5 319 545.5 319.333 546.5 319.833C550.167 321.667 551.833 327.167 548.667 331Z" fill="#FEC272"/>
<path d="M487.5 303.167H487.333L487.667 302.5C488.833 299.833 486.833 296.667 484 296.833L460 297.333C452 297.5 447 288.833 451.167 282L452 280.667C453.167 282 455.333 283.667 459 283.833C466.167 284.167 485.833 283.667 491.667 284C497.5 284.333 487.5 303.167 487.5 303.167Z" fill="#FF8D76"/>
<path d="M501 356.333C501 355 499.667 353.667 498.167 354L474.167 356.833C468.667 357.5 464.667 352 467 347L467.5 346C469.667 346.5 473.333 347 478.667 346.333C488.5 345 503.167 342.167 504.333 343.667C505.167 345 501.833 354.333 501 356.333Z" fill="#FF8D76"/>
<path d="M505.167 249C504.667 252.167 507.333 254.833 510.5 254.167C502.667 257 495.167 257.667 496.5 250.333C497.667 243.667 510 194.167 512.167 185.167C514.167 185.667 515.833 187.5 515.333 190L505.167 249Z" fill="#FF8D76"/>
<path d="M519 313.167C517.833 315.667 519.5 318.5 522.167 318.667C521.667 318.667 521.333 318.667 520.833 318.667C513.833 318.667 507.667 316.667 512.333 307.333C516.333 299.167 537 260.167 542.667 249.5C545.667 251.333 547.167 255.333 545.333 259L519 313.167Z" fill="#FF8D76"/>
<path d="M548.667 331L487.333 408C485.167 410.667 481 408.333 482.167 405L482.333 404.5C484.833 402.167 489 398 495.167 389.333C502.5 378.833 538.833 330 546.333 319.833C550.167 321.667 551.833 327.167 548.667 331Z" fill="#FF8D76"/>
<path d="M728.5 376L707.333 402.5C706.667 403.5 705.167 402.667 705.5 401.5V401.333L711.833 385.167C711.833 385 711.833 384.833 711.833 384.833C711.833 384.333 711.333 384 710.833 384L702.5 385C700.667 385.167 699.167 383.333 700 381.667L700.167 381.333L707 366.667L707.167 366.5C707.667 365.5 706.833 364.5 705.833 364.5L697.5 364.667C694.833 364.667 693 361.667 694.5 359.333L694.833 358.833L714.167 326.5C714.5 325.833 715.167 325.667 715.667 325.833C716.333 326 717 326.667 716.833 327.5L713.333 347.833C713.167 348.833 714.167 349.833 715.167 349.667L724.333 347.667C725 347.5 725.667 347.667 726.167 348C727.167 348.667 727.667 350 727.167 351.333L718 370C717.667 370.833 718.167 371.833 719 371.833L726.167 372C726.5 372 727 372.167 727.167 372.333C729 372.833 729.5 374.667 728.5 376Z" fill="#FEC272"/>
<path d="M707.5 366.333V366.167C708 365.167 707.167 364.167 706.167 364.167L697.833 364.333C695.167 364.333 693.333 361.333 694.833 359L695.167 358.5C695.5 359 696.333 359.5 697.667 359.667C700.167 359.833 706.833 359.667 709 359.667C711.167 359.667 707.5 366.333 707.5 366.333Z" fill="#FF8D76"/>
<path d="M712.167 384.667C712.167 384.167 711.667 383.833 711.167 383.833L702.833 384.833C701 385 699.5 383.167 700.333 381.5L700.5 381.167C701.167 381.333 702.5 381.5 704.333 381.333C707.667 380.833 712.833 380 713.167 380.5C713.5 380.833 712.333 384 712.167 384.667Z" fill="#FF8D76"/>
<path d="M713.5 347.667C713.333 348.667 714.333 349.667 715.333 349.5C712.667 350.5 710 350.667 710.5 348.167C710.833 345.833 715.167 328.833 716 325.667C716.667 325.833 717.333 326.5 717.167 327.333L713.5 347.667Z" fill="#FF8D76"/>
<path d="M718.333 369.833C718 370.667 718.5 371.667 719.333 371.667C719.167 371.667 719 371.667 718.833 371.667C716.5 371.667 714.333 371 716 367.667C717.333 364.833 724.5 351.333 726.5 347.667C727.5 348.333 728 349.667 727.5 351L718.333 369.833Z" fill="#FF8D76"/>
<path d="M728.5 376L707.333 402.5C706.667 403.5 705.167 402.667 705.5 401.5V401.333C706.333 400.5 707.833 399.167 709.833 396.167C712.333 392.5 724.833 375.667 727.5 372.167C729 372.833 729.5 374.667 728.5 376Z" fill="#FF8D76"/>
<path d="M777.167 359.833C777 363.667 746.667 367.833 712.833 368.667C679 369.5 657.5 366.167 659.833 362.333C662.167 358.667 674.5 357.333 674.5 357.333C674.5 357.333 662.833 348.333 669 335.667C675.333 323 688.833 332 688.833 332C688.833 332 684.5 312.667 697.167 306.5C699.167 305.5 701.5 304.833 704.333 304.667C705.833 304.5 707.167 304.667 708.667 304.833C726.833 307.5 734.5 336.333 734.5 336.333C734.5 336.333 744.833 325.5 752.5 332C760.167 338.5 756.833 349.833 756.833 349.833C756.833 349.833 760.5 347.5 765.167 348.667C767.667 349.333 768.667 351 769.167 352.667C769.667 354.167 769.667 355.5 769.667 355.5C769.667 355.5 773.667 355.833 775.833 357.333C776.667 357.833 777.167 358.667 777.167 359.833Z" fill="#273D7A"/>
<path d="M777.167 359.833C777 363.667 746.667 367.833 712.833 368.667C679 369.5 657.5 366.167 659.833 362.333C662.167 358.667 674.5 357.333 674.5 357.333C674.5 357.333 662.833 348.333 669 335.667C675.333 323 688.833 332 688.833 332C688.833 332 684.5 312.667 697.167 306.5C695.833 309.833 694.167 315.167 694.5 320.667C695.333 331 699.5 339 699.833 339.5C699.167 339.167 684.5 331.833 676.667 336.333C668.667 341 680.333 359 680.333 359C680.333 359 669.667 361.333 674.833 363.667C680 366 730.167 365.667 749.333 363.5C762.167 362 771.167 359.167 775.833 357.333C776.667 357.833 777.167 358.667 777.167 359.833Z" fill="#072359"/>
<path d="M769.167 352.5C768.667 352.167 768 352 767.5 351.667C762.833 349.333 753.167 354 753.167 354C753.167 354 755.167 339.5 749.333 335.667C743.5 331.833 732.667 344.333 732.667 344.333C732.667 344.333 731.333 336.5 724.5 323C720.333 314.833 713.5 308.5 708.667 304.667C726.833 307.333 734.5 336.167 734.5 336.167C734.5 336.167 744.833 325.333 752.5 331.833C760.167 338.333 756.833 349.667 756.833 349.667C756.833 349.667 760.5 347.333 765.167 348.5C767.5 349 768.667 350.833 769.167 352.5Z" fill="#506893"/>
<path d="M518.667 777.333V852.333C518.667 858.333 513.833 863.333 507.667 863.333H313.833C307.833 863.333 302.833 858.5 302.833 852.333V777.333C302.833 771.333 307.667 766.333 313.833 766.333H507.833C513.833 766.333 518.667 771.333 518.667 777.333Z" fill="#E1ECFF"/>
<path d="M335 792.333C338.13 792.333 340.667 789.796 340.667 786.667C340.667 783.537 338.13 781 335 781C331.87 781 329.333 783.537 329.333 786.667C329.333 789.796 331.87 792.333 335 792.333Z" fill="#273D7A"/>
<path d="M355.167 792.333C358.296 792.333 360.833 789.796 360.833 786.667C360.833 783.537 358.296 781 355.167 781C352.037 781 349.5 783.537 349.5 786.667C349.5 789.796 352.037 792.333 355.167 792.333Z" fill="#FF8D76"/>
<path d="M375.167 792.333C378.296 792.333 380.833 789.796 380.833 786.667C380.833 783.537 378.296 781 375.167 781C372.037 781 369.5 783.537 369.5 786.667C369.5 789.796 372.037 792.333 375.167 792.333Z" fill="#FF8D76"/>
<path d="M488.333 816.667H438.833C436.667 816.667 434.833 814.833 434.833 812.667C434.833 810.5 436.667 808.667 438.833 808.667H488.333C490.5 808.667 492.333 810.5 492.333 812.667C492.333 814.833 490.667 816.667 488.333 816.667Z" fill="#273D7A"/>
<path d="M489.333 821C493.936 821 497.667 817.269 497.667 812.667C497.667 808.064 493.936 804.333 489.333 804.333C484.731 804.333 481 808.064 481 812.667C481 817.269 484.731 821 489.333 821Z" fill="#FF8D76"/>
<path d="M418.667 863.333H328.167L331.5 855.167C333.167 851 337.167 848.333 341.667 848.333H405.333C409.833 848.333 413.667 851 415.5 855.167L418.667 863.333Z" fill="#273D7A"/>
<path d="M495.333 863.333H329.333V879.833H495.333V863.333Z" fill="#273D7A"/>
<path d="M495.333 863.333H329.333V871.5H495.333V863.333Z" fill="#072359"/>
<path d="M320.167 766.333V863.333H313.833C307.833 863.333 302.833 858.5 302.833 852.333V777.333C302.833 771.333 307.667 766.333 313.833 766.333H320.167Z" fill="#CDE0FC"/>
<path d="M518.667 777.333V852.333C518.667 858.333 513.833 863.333 507.667 863.333H504.167V766.333H507.667C513.833 766.333 518.667 771.333 518.667 777.333Z" fill="#F0F5FC"/>
<path d="M518.667 689.833V742.5C518.667 748.5 513.833 753.5 507.667 753.5H313.833C307.833 753.5 302.833 748.667 302.833 742.5V689.833C302.833 683.833 307.667 678.833 313.833 678.833H507.833C513.833 678.833 518.667 683.833 518.667 689.833Z" fill="#E1ECFF"/>
<path d="M335 704.833C338.13 704.833 340.667 702.296 340.667 699.167C340.667 696.037 338.13 693.5 335 693.5C331.87 693.5 329.333 696.037 329.333 699.167C329.333 702.296 331.87 704.833 335 704.833Z" fill="#FF8D76"/>
<path d="M355.167 704.833C358.296 704.833 360.833 702.296 360.833 699.167C360.833 696.037 358.296 693.5 355.167 693.5C352.037 693.5 349.5 696.037 349.5 699.167C349.5 702.296 352.037 704.833 355.167 704.833Z" fill="#FF8D76"/>
<path d="M375.167 704.833C378.296 704.833 380.833 702.296 380.833 699.167C380.833 696.037 378.296 693.5 375.167 693.5C372.037 693.5 369.5 696.037 369.5 699.167C369.5 702.296 372.037 704.833 375.167 704.833Z" fill="#273D7A"/>
<path d="M488.333 712.833H438.833C436.667 712.833 434.833 711 434.833 708.833C434.833 706.667 436.667 704.833 438.833 704.833H488.333C490.5 704.833 492.333 706.667 492.333 708.833C492.333 711 490.667 712.833 488.333 712.833Z" fill="#273D7A"/>
<path d="M489.333 717C493.936 717 497.667 713.269 497.667 708.667C497.667 704.064 493.936 700.333 489.333 700.333C484.731 700.333 481 704.064 481 708.667C481 713.269 484.731 717 489.333 717Z" fill="#FF8D76"/>
<path d="M418.667 753.5H328.167L331.5 745.333C333.167 741.167 337.167 738.5 341.667 738.5H405.333C409.833 738.5 413.667 741.167 415.5 745.333L418.667 753.5Z" fill="#273D7A"/>
<path d="M495.333 753.5H329.333V766.333H495.333V753.5Z" fill="#273D7A"/>
<path d="M495.333 753.5H329.333V760H495.333V753.5Z" fill="#072359"/>
<path d="M320.167 678.833V753.333H313.833C307.833 753.333 302.833 748.5 302.833 742.333V689.667C302.833 683.667 307.667 678.667 313.833 678.667H320.167V678.833Z" fill="#CDE0FC"/>
<path d="M518.667 689.833V742.5C518.667 748.5 513.833 753.5 507.667 753.5H504.167V679H507.667C513.833 678.833 518.667 683.833 518.667 689.833Z" fill="#F0F5FC"/>
<path d="M518.667 613.167V655C518.667 661 513.833 666 507.667 666H313.833C307.833 666 302.833 661.167 302.833 655V613C302.833 607 307.667 602 313.833 602H507.833C513.833 602.167 518.667 607 518.667 613.167Z" fill="#E1ECFF"/>
<path d="M335 628.167C338.13 628.167 340.667 625.63 340.667 622.5C340.667 619.37 338.13 616.833 335 616.833C331.87 616.833 329.333 619.37 329.333 622.5C329.333 625.63 331.87 628.167 335 628.167Z" fill="#273D7A"/>
<path d="M355.167 628.167C358.296 628.167 360.833 625.63 360.833 622.5C360.833 619.37 358.296 616.833 355.167 616.833C352.037 616.833 349.5 619.37 349.5 622.5C349.5 625.63 352.037 628.167 355.167 628.167Z" fill="#FF8D76"/>
<path d="M375.167 628.167C378.296 628.167 380.833 625.63 380.833 622.5C380.833 619.37 378.296 616.833 375.167 616.833C372.037 616.833 369.5 619.37 369.5 622.5C369.5 625.63 372.037 628.167 375.167 628.167Z" fill="#FF8D76"/>
<path d="M488.333 636H438.833C436.667 636 434.833 634.167 434.833 632C434.833 629.833 436.667 628 438.833 628H488.333C490.5 628 492.333 629.833 492.333 632C492.333 634.167 490.667 636 488.333 636Z" fill="#273D7A"/>
<path d="M489.333 640.333C493.936 640.333 497.667 636.602 497.667 632C497.667 627.398 493.936 623.667 489.333 623.667C484.731 623.667 481 627.398 481 632C481 636.602 484.731 640.333 489.333 640.333Z" fill="#FF8D76"/>
<path d="M418.667 666H328.167L331.5 657.833C333.167 653.667 337.167 651 341.667 651H405.333C409.833 651 413.667 653.667 415.5 657.833L418.667 666Z" fill="#273D7A"/>
<path d="M495.333 666H329.333V678.833H495.333V666Z" fill="#273D7A"/>
<path d="M495.333 666H329.333V672.5H495.333V666Z" fill="#072359"/>
<path d="M320.167 602.167V666H313.833C307.833 666 302.833 661.167 302.833 655V613C302.833 607 307.667 602 313.833 602H320.167V602.167Z" fill="#CDE0FC"/>
<path d="M518.667 613.167V655C518.667 661 513.833 666 507.667 666H504.167V602.167H507.667C513.833 602.167 518.667 607 518.667 613.167Z" fill="#F0F5FC"/>
<path d="M518.667 536.333V578.333C518.667 584.333 513.833 589.333 507.667 589.333H313.833C307.833 589.333 302.833 584.5 302.833 578.333V536.333C302.833 530.333 307.667 525.333 313.833 525.333H507.833C513.833 525.5 518.667 530.333 518.667 536.333Z" fill="#E1ECFF"/>
<path d="M335 551.333C338.13 551.333 340.667 548.796 340.667 545.667C340.667 542.537 338.13 540 335 540C331.87 540 329.333 542.537 329.333 545.667C329.333 548.796 331.87 551.333 335 551.333Z" fill="#FF8D76"/>
<path d="M355.167 551.333C358.296 551.333 360.833 548.796 360.833 545.667C360.833 542.537 358.296 540 355.167 540C352.037 540 349.5 542.537 349.5 545.667C349.5 548.796 352.037 551.333 355.167 551.333Z" fill="#FF8D76"/>
<path d="M375.167 551.333C378.296 551.333 380.833 548.796 380.833 545.667C380.833 542.537 378.296 540 375.167 540C372.037 540 369.5 542.537 369.5 545.667C369.5 548.796 372.037 551.333 375.167 551.333Z" fill="#273D7A"/>
<path d="M488.333 559.333H438.833C436.667 559.333 434.833 557.5 434.833 555.333C434.833 553.167 436.667 551.333 438.833 551.333H488.333C490.5 551.333 492.333 553.167 492.333 555.333C492.333 557.5 490.667 559.333 488.333 559.333Z" fill="#273D7A"/>
<path d="M489.333 563.667C493.936 563.667 497.667 559.936 497.667 555.333C497.667 550.731 493.936 547 489.333 547C484.731 547 481 550.731 481 555.333C481 559.936 484.731 563.667 489.333 563.667Z" fill="#FF8D76"/>
<path d="M418.667 589.333H328.167L331.5 581.167C333.167 577 337.167 574.333 341.667 574.333H405.333C409.833 574.333 413.667 577 415.5 581.167L418.667 589.333Z" fill="#273D7A"/>
<path d="M495.333 589.333H329.333V602.167H495.333V589.333Z" fill="#273D7A"/>
<path d="M495.333 589.333H329.333V595.833H495.333V589.333Z" fill="#072359"/>
<path d="M320.167 525.5V589.333H313.833C307.833 589.333 302.833 584.5 302.833 578.333V536.333C302.833 530.333 307.667 525.333 313.833 525.333H320.167V525.5Z" fill="#CDE0FC"/>
<path d="M518.667 536.333V578.333C518.667 584.333 513.833 589.333 507.667 589.333H504.167V525.5H507.667C513.833 525.5 518.667 530.333 518.667 536.333Z" fill="#F0F5FC"/>
<path d="M639.167 675.5V870.167C639.167 875.333 634.833 879.667 629.667 879.667H532.5C527.167 879.667 523 875.333 523 870.167V675.5C523 670.167 527.333 666 532.5 666H629.667C634.833 666 639.167 670.333 639.167 675.5Z" fill="#FF97C9"/>
<path d="M553.833 666V879.667H532.5C527.167 879.667 523 875.333 523 870.167V675.5C523 670.167 527.333 666 532.5 666H553.833Z" fill="#F774B9"/>
<path d="M536 688.333H585.833C588.5 688.333 590.5 690.5 590.5 693V715.5C590.5 718.167 588.333 720.167 585.833 720.167H536C533.333 720.167 531.333 718 531.333 715.5V693C531.167 690.333 533.333 688.333 536 688.333Z" fill="#5A7FDB"/>
<path d="M630.833 693V715.5C630.833 718.167 628.667 720.167 626.167 720.167H603.167C600.5 720.167 598.5 718 598.5 715.5V693C598.5 690.333 600.667 688.333 603.167 688.333H626.167C628.667 688.333 630.833 690.333 630.833 693Z" fill="#273D7A"/>
<path d="M594.833 863.333H567.167C565.167 863.333 563.5 861.667 563.5 859.667V817.167C563.5 815.167 565.167 813.5 567.167 813.5H594.833C596.833 813.5 598.5 815.167 598.5 817.167V859.667C598.5 861.667 596.833 863.333 594.833 863.333Z" fill="#273D7A"/>
<path d="M592.667 841.667H569.333C567.833 841.667 566.667 840.5 566.667 839V820.667C566.667 819.167 567.833 818 569.333 818H592.667C594.167 818 595.333 819.167 595.333 820.667V839C595.5 840.5 594.167 841.667 592.667 841.667Z" fill="#142966"/>
<path d="M592.333 858.833H569.667C568 858.833 566.667 857.5 566.667 855.833V848C566.667 846.333 568 845 569.667 845H592.333C594 845 595.333 846.333 595.333 848V855.833C595.5 857.5 594 858.833 592.333 858.833Z" fill="#142966"/>
<path d="M581 856.333C583.393 856.333 585.333 854.393 585.333 852C585.333 849.607 583.393 847.667 581 847.667C578.607 847.667 576.667 849.607 576.667 852C576.667 854.393 578.607 856.333 581 856.333Z" fill="#FEC272"/>
<path d="M630.833 734.333V795C630.833 797.833 628.667 800.167 625.833 800.167H536C534.333 800.167 532.667 799.167 531.833 797.833C531.333 797 531 796 531 795V734.333C531 731.5 533.167 729.167 536 729.167H625.833C628.167 729.167 630.167 730.833 630.667 733.167C630.833 733.667 630.833 734 630.833 734.333Z" fill="#273D7A"/>
<path d="M627.167 737.667V791.833C627.167 794.333 625.167 796.333 622.667 796.333H539.5C537.833 796.333 536.5 795.5 535.667 794.167C535.167 793.5 535 792.667 535 791.667V737.5C535 735 537 733 539.5 733H622.667C624.833 733 626.667 734.5 627.167 736.667C627.167 737 627.167 737.333 627.167 737.667Z" fill="#94ADEA"/>
<path d="M627.167 736.667L562.333 796.5H539.5C537.833 796.5 536.5 795.667 535.667 794.333L602.167 733H622.667C624.833 733 626.667 734.5 627.167 736.667Z" fill="#738DE0"/>
<path d="M627.167 758.5V785.167L615 796.5H586L627.167 758.5Z" fill="#738DE0"/>
<path d="M574.167 733L534.833 769.333V742.5L545.167 733H574.167Z" fill="#738DE0"/>
<path d="M489.333 522.5H393.667L395.333 517.833L405.5 490.333L414.5 465.833L424.667 438.333L435 410C435.333 408.833 436 408 436.833 407.333C440.167 404.167 446.167 405.167 448 410L452.167 421.5L458.5 438.833L464.167 454.333L470.5 471.667L476.167 487.167L482.5 504.5L489.333 522.5Z" fill="#FF8D76"/>
<path d="M458.5 438.833L429.5 456.667L414.5 465.833L424.5 438.5L433 433.333L452.167 421.5L458.5 438.833Z" fill="#273D7A"/>
<path d="M470.5 471.5L422.833 500.833L395.333 517.833L405.5 490.333L426.333 477.5L464.167 454.167L470.5 471.5Z" fill="#273D7A"/>
<path d="M482.667 504.333L453 522.5H418.667L419.667 521.833L476.333 487L482.667 504.333Z" fill="#273D7A"/>
<path d="M436.833 407.333L419.667 522.5H393.667L395.333 517.833L405.5 490.333L414.5 465.833L424.667 438.333L435 410C435.5 409 436 408 436.833 407.333Z" fill="#FF8D76"/>
<path d="M418.667 522.5L419.667 521.833V522.5H418.667Z" fill="#FF8D76"/>
<path d="M426.333 477.5L422.833 500.833L395.333 517.833L405.5 490.333L426.333 477.5Z" fill="#072359"/>
<path d="M433 433.333L429.5 456.667L414.5 465.833L424.5 438.5L433 433.333Z" fill="#072359"/>
<path d="M490.667 525.5H389.833C386.833 525.5 384.5 523 384.5 520.167V519.833C384.5 516.833 387 514.5 389.833 514.5H490.667C493.667 514.5 496 517 496 519.833V520.167C496 523 493.667 525.5 490.667 525.5Z" fill="#FF8D76"/>
<path d="M304.167 508.167L282.167 452.167L268.167 459.667L302.5 509L304.167 508.167Z" fill="#FEC272"/>
<path d="M246.833 452.167L233.5 466.5L293.833 516.5L296.5 514L246.833 452.167Z" fill="#FEC272"/>
<path d="M245.333 489.5L237.667 502.167L287.833 524.333L289 522.333L245.333 489.5Z" fill="#FEC272"/>
<path d="M628.667 622.833L625.167 646.833C625.167 646.833 635.333 646.333 643 652.833C653 661.5 654.167 669.5 654.167 669.5L691.833 650.333C691.833 650.333 666.667 658.667 658.333 650.167C650 641.667 657 624.5 657 624.5C657 624.5 645.833 639 637.5 636.5C629.333 634.167 628.667 622.833 628.667 622.833Z" fill="#FEC272"/>
</g>
<defs>
<clipPath id="clip0_3_8515">
<rect width="1000" height="1000" rx="50" fill="white"/>
</clipPath>
</defs>
</svg>
