<svg width="1000" height="1000" viewBox="0 0 1000 1000" fill="none" xmlns="http://www.w3.org/2000/svg">
<g clip-path="url(#clip0_3_8136)">
<rect width="1000" height="1000" rx="50" fill="none"/>
<path d="M699.333 625C733 639.833 678.167 641.667 604.5 647.5C530.833 653.5 489.167 648.167 434.333 647.333C379.667 646.5 298.667 650.333 293.167 634C287.5 617.667 333.333 606.667 337.5 597.5C341.5 588.5 240.167 593.5 242.667 583C243.5 579.5 246.667 576.333 251.833 573.5C296.5 548.667 490 546.333 584.167 545.667C689.167 544.833 798 543.333 841.333 568.167C847.167 571.5 849.667 574.333 849.5 576.833C848.833 593.167 738.833 594 706 599.167C667.667 605 665.667 610.167 699.333 625Z" fill="#C7D4FF"/>
<path d="M650 597.667C674.833 607.333 634.333 608.333 580 612.167C525.5 615.833 494.667 612.5 454.333 611.833C413.833 611.167 354.167 613.667 350 603C345.833 592.333 379.667 585.333 382.667 579.5C385.667 573.667 310.667 576.833 312.5 569.833C313.167 567.5 315.5 565.5 319.167 563.667C352.167 547.667 495.167 546.5 564.667 546C642.167 545.5 739.833 540.333 754.667 556.167C761.833 563.833 679 577.667 654.667 580.833C626.5 584.667 625 588 650 597.667Z" fill="#99ADF9"/>
<path d="M699.333 625C733 639.833 678.167 641.667 604.5 647.5C530.833 653.5 489.167 648.167 434.333 647.333C379.667 646.5 298.667 650.333 293.167 634C287.5 617.667 333.333 606.667 337.5 597.5C341.5 588.5 240.167 593.5 242.667 583C243.5 579.5 246.667 576.333 251.833 573.5C253.167 576 258.5 578.5 273.333 579.667C307.167 582.167 355 584 357.833 591.167C360.667 598.333 310.833 618 317.167 628C323.5 637.833 457.667 633.833 537.833 636.667C618 639.5 689.333 634.333 680.167 628.833C671 623.333 648.667 611.167 665.5 600.167C682.333 589.167 775.167 587.333 814.333 583.5C830.333 582 841.667 579.333 849.333 576.833C848.667 593.167 738.667 594 705.833 599.167C667.667 605 665.667 610.167 699.333 625Z" fill="#99ADF9"/>
<path d="M790 564.833C779.833 565.667 780.667 575.667 798 573.333C815.167 571.167 809.833 563.167 790 564.833Z" fill="#99ADF9"/>
<path d="M729.833 572.333C719.667 573.167 720.5 583.167 737.833 580.833C755.167 578.833 749.667 570.667 729.833 572.333Z" fill="#99ADF9"/>
<path d="M292 568.167C281.833 569 282.667 579 300 576.667C317.333 574.667 311.833 566.667 292 568.167Z" fill="#99ADF9"/>
<path d="M346.333 602.667C336.167 603.5 337 613.5 354.333 611.167C371.5 609 366.167 601 346.333 602.667Z" fill="#99ADF9"/>
<path d="M883.833 616.667C872.333 624.5 854.667 626.167 828.5 626.5C809.667 626.833 799 620.833 800.333 615C801.333 610.667 809.167 606.5 825.167 604.833C855 601.833 882.333 605.5 886 611.333C887.167 613 886.5 614.833 883.833 616.667Z" fill="#C7D4FF"/>
<path d="M319.5 543.667C305.667 551.667 284 553.833 251.667 554.833C228.5 555.5 215.167 549.833 216.833 544C218 539.667 227.5 535.167 247.167 533.333C283.667 529.667 317.5 532.667 322.333 538.5C323.667 540 322.833 541.667 319.5 543.667Z" fill="#C7D4FF"/>
<path d="M849.667 296.833C849.667 296.833 872.333 294.5 897.5 327.167C917.5 353 913 383.833 913 383.833C913 383.833 928.333 352.167 907.666 322.667C885.5 291.167 849.667 296.833 849.667 296.833Z" fill="#C7D4FF"/>
<path d="M837.667 398.667C837.667 398.667 843.667 412.667 838 432.667C832.333 452.667 821.667 461 821.667 461C821.667 461 840.833 455.833 845.5 433.5C850.333 411 837.667 398.667 837.667 398.667Z" fill="#C7D4FF"/>
<path d="M356.5 414C356.5 414 354.167 401 372.5 376.5C390.833 352 417.5 342.667 417.5 342.667L385.167 275.833C385.167 275.833 397.333 322.667 379.5 336.667C361.5 350.667 331.833 332.667 331.833 332.667C331.833 332.667 349.5 363.667 343.833 377.333C338.333 391 308.333 393.333 308.333 393.333L356.5 414Z" fill="#99ADF9"/>
<path d="M459.667 678.333L439.667 702.333C437.667 704.833 433.833 705.167 431.333 703C428.833 701 428.5 697.167 430.667 694.667C430.833 694.5 431.167 694.167 431.333 694L455 673.5C456.333 672.333 458.5 672.5 459.667 673.833C460.833 675.333 460.667 677.167 459.667 678.333Z" fill="#99ADF9"/>
<path d="M487.5 681.167L483.5 729.833C483.333 732.5 480.833 734.5 478.167 734.333C475.5 734.167 473.5 731.667 473.667 729V728.833L480.167 680.333C480.5 678.333 482.333 677 484.333 677.167C486.333 677.5 487.667 679.333 487.5 681.167Z" fill="#99ADF9"/>
<path d="M516 679.333L529.167 713.833C530.333 716.833 528.833 720.333 525.833 721.5C522.833 722.667 519.333 721.167 518.167 718.167C518 718 518 717.667 518 717.333L509.667 681.333C509.333 679.5 510.333 677.833 512.167 677.333C513.833 677 515.5 677.833 516 679.333Z" fill="#99ADF9"/>
<path d="M542.833 673.833L562.667 687.167C565.333 689 566.167 692.667 564.333 695.333C562.5 698 558.833 698.833 556.167 697C555.833 696.833 555.5 696.5 555.333 696.333L538.167 679.667C536.667 678.167 536.667 675.833 538.167 674.5C539.333 673 541.333 672.833 542.833 673.833Z" fill="#99ADF9"/>
<path d="M892 424.333C882.167 455 839.167 470.667 839.167 470.667C839.167 470.667 839.667 470.167 840.5 469.333C846.667 462.333 872.167 430 850.334 388C825.667 340.333 744.167 356.667 744.167 356.667L742.333 344.833L740.333 332.5C740.333 332.5 784.667 293 844.5 315.5C901.5 337 901.834 393.833 892 424.333Z" fill="#FEC272"/>
<path d="M860.333 451C855.667 458.333 848.333 464.5 840.667 469.333C846.833 462.333 872.333 430 850.5 388C825.833 340.333 744.333 356.667 744.333 356.667L742.5 344.833C760.167 342.333 806.833 338.333 838.5 356.667C876.167 378.5 876 426.5 860.333 451Z" fill="#FCAA51"/>
<path d="M758.5 394.167C757.667 420.667 753.333 443.667 747.333 457C734.5 486 725.5 502.5 706.667 517.167C699.667 522.667 691.334 527.833 680.834 533.333C642.334 553.5 537.5 554.833 537.5 554.833C533.334 555.167 529.167 555.5 525 555.667C486.834 557.667 450.834 553.5 428.667 541.5C418.334 536 411 528.667 407.834 519.667C397.333 489 393.5 442.167 463.167 323.5C508 247.167 564 217 617 217.333C645.167 217.5 672.334 226.333 696.667 241.333C697.667 242 698.833 242.667 699.833 243.333C746.833 273.667 760.167 341 758.5 394.167Z" fill="#FEC272"/>
<path d="M617 217.167C585.667 229.833 537.5 261.333 493.833 339.667C438.333 439.167 429.667 512.667 428.5 541.333C418.167 535.833 410.833 528.5 407.667 519.5C397.167 488.833 393.333 442 463 323.333C508.167 247 564.167 216.833 617 217.167Z" fill="#FFCB8D"/>
<path d="M758.5 394.167C757.667 420.667 753.333 443.667 747.333 457C729.667 496.667 719.333 513 680.833 533.167C642.333 553.333 537.5 554.667 537.5 554.667C533.333 555 529.167 555.333 525 555.5C523.833 539.667 527.833 518.333 537.167 490.5C565.5 405.5 610.5 374.167 661.333 364.333C705.167 356 739.333 377.333 758.5 394.167Z" fill="#FCAA51"/>
<path d="M758.5 394.167C757.667 420.667 753.333 443.667 747.333 457C734.5 486 725.5 502.5 706.667 517.167C718.333 484.833 729.5 440.333 730.5 386.667C731.667 315.667 712 267.5 696.667 241.333C697.667 242 698.833 242.667 699.833 243.333C746.833 273.667 760.167 341 758.5 394.167Z" fill="#FCAA51"/>
<path d="M759.333 406.5C756.667 437.667 743.667 487.667 731.5 520.833C726.667 534 722 544.667 718 550.167C711.333 559.667 698.334 563.833 685.333 564.667C671.667 565.667 657.833 563.333 651.5 559.833C639.833 553.667 610.833 500.5 617.333 442.5C617.667 439 618.167 435.5 618.833 432C630.5 370.167 659.5 352.833 703.5 357.667C712.167 358.667 721.333 360.167 729.833 363.167C747.5 369.5 761.667 381.5 759.333 406.5Z" fill="#FEC272"/>
<path d="M731.5 520.833C726.667 534 722 544.667 718 550.167C704.333 569.667 664 566.5 651.5 560C639.833 553.833 610.833 500.667 617.333 442.667C621 469.5 634.333 507.167 678.833 516.833C700.333 521.667 717.667 522.333 731.5 520.833Z" fill="#FCAA51"/>
<path d="M759.333 406.5C756.667 437.667 743.667 487.667 731.5 520.833C726.667 534 722 544.667 718 550.167C711.333 559.667 698.333 563.833 685.333 564.667C698.5 541 728.833 476.5 730.333 386.5C730.5 378.5 730.333 370.667 730 363.167C747.5 369.5 761.667 381.5 759.333 406.5Z" fill="#FCAA51"/>
<path d="M716.833 572.167C715.333 572.5 713 572.833 710.167 573C708 573.167 705.667 573.5 703 573.667C698 574 692.333 574.333 686.5 574.5C684.167 574.5 681.667 574.667 679.333 574.667C674.333 574.833 669.5 574.667 665 574.667C664.333 574.667 663.667 574.667 663.167 574.667C661.333 574.667 659.5 574.5 658 574.5C657.333 574.5 656.667 574.333 656.167 574.333C653.5 574.167 651.5 573.667 650 573.333C639.833 570.167 633.667 560.167 641.5 548C649.333 535.833 666.333 526.167 688.833 526.167C711.333 526.167 730.167 539.333 731.167 553.5C732.167 567.5 727.333 570.167 716.833 572.167Z" fill="#FEC272"/>
<path d="M686.667 552.333V574.5C684.333 574.5 681.833 574.667 679.5 574.667V552.333C679.5 550.333 681.167 548.667 683 548.667C684.833 548.667 686.667 550.333 686.667 552.333Z" fill="#FFA245"/>
<path d="M665.333 552.667V574.667C664.667 574.667 664 574.667 663.5 574.667C661.667 574.667 659.833 574.5 658.333 574.5V552.833C658.333 550.667 660 548.833 661.833 548.833C663.667 548.667 665.333 550.5 665.333 552.667Z" fill="#FFA245"/>
<path d="M710.333 552.333V573C708.167 573.167 705.833 573.5 703.167 573.667V552.333C703.167 550.333 704.833 548.667 706.667 548.667C708.5 548.667 710.333 550.333 710.333 552.333Z" fill="#FFA245"/>
<path d="M436.5 442C422.833 470.667 432.667 540.333 422.833 561.833C413 583.333 386.333 594.333 359 593.833C356 593.833 353.167 593.333 350.333 592.667C327.333 587 311 561.5 323.833 531.333C338.167 497.5 372.167 480.5 386.333 430.333C399.167 385.333 417.167 377.333 435.5 375.333C441.667 374.667 445.5 377.333 447.667 382.167C453.167 394.333 446.5 421.333 436.5 442Z" fill="#FF8D76"/>
<path d="M436.5 442C422.833 470.667 432.667 540.333 422.833 561.833C413 583.333 386.333 594.333 359 593.833C356 593.833 353.167 593.333 350.333 592.667C346.667 584.167 345.167 571.5 350 553.167C362.167 507.167 385.667 498.5 390 466.167C394.5 433.833 395 413.833 406.667 396.333C417.167 380.667 442.167 381.667 447.667 382.167C453.167 394.333 446.5 421.333 436.5 442Z" fill="#FC7059"/>
<path d="M655 536.5C653.167 542.167 650.167 547 646.333 551.167C631.333 567.5 604 572.833 588 570.167C568 566.833 548.333 526.667 550.333 496.833C552.333 467 530.833 427.833 525.5 408.333C521.5 393.833 522.167 382.833 526.5 376.167C528 373.833 530 372 532.333 370.667C537.833 367.833 558.167 359 579.333 390.667C600.333 422.5 598.833 439.5 622.333 463C645.833 486.667 663.833 508.667 655 536.5Z" fill="#FF8D76"/>
<path d="M646.5 551.167C631.5 567.5 604.167 572.833 588.167 570.167C568.167 566.833 548.5 526.667 550.5 496.833C552.5 467 531 427.833 525.667 408.333C521.667 393.833 522.333 382.833 526.667 376.167C539.333 374.333 559.333 376.333 568.667 402.5C583 442.333 581 462.833 603.167 482.333C625.333 501.833 643.667 523 646.5 550.833C646.5 551 646.5 551 646.5 551.167Z" fill="#FC7059"/>
<path d="M618.667 564C616.5 582.333 606.833 594.667 584.667 602.5C551.5 614.167 520.667 598.667 508.5 596.667C496 594.5 477.167 606.5 458.167 613.167C439.167 620 403.5 622.5 384.5 603.667C374.5 593.667 368 579.5 366.833 564.667C365.667 551.667 368.667 538 376.667 526C393.667 500.667 402.667 475.833 405.333 427C408 378.167 446 358.5 482.5 355.333C494 354.333 526 352.667 550.333 374.167C574.833 395.667 572.833 439.667 581.167 461.167C589.5 482.667 612 495.833 617.333 532.5C619.167 544.667 619.833 555 618.667 564Z" fill="#FEC272"/>
<path d="M523.5 535.333C518.667 548.5 506.833 558 498.833 558C490.833 558 475.333 550.333 467.833 543.333C459.833 535.833 459.333 528.667 461.167 523.833C461.167 523.667 461.333 523.333 461.5 523.167C463.667 518.5 476.667 514.333 493 512.167C505.5 510.5 519.667 510.167 523 512.333C523.833 513 524.667 513.833 525.333 515.167C527 519 527.167 525.667 523.5 535.333Z" fill="#FCAA51"/>
<path d="M618.667 564C616.5 582.333 606.833 594.667 584.667 602.5C551.5 614.167 520.667 598.667 508.5 596.667C496 594.5 477.167 606.5 458.167 613.167C439.167 620 403.5 622.5 384.5 603.667C374.5 593.667 368 579.5 366.833 564.667C374.667 577.5 391 599.333 412.5 603C443.167 608.167 461.333 580.833 503.833 580.833C558.5 580.833 562.5 601.667 596.667 583.833C606.167 578.667 613.333 571.5 618.667 564Z" fill="#FCAA51"/>
<path d="M522.5 583C522.167 586.667 521.667 590.833 520.5 595C517.333 606.667 504.333 613.833 493.667 606.667C486.833 602.167 483.5 591.833 482 584.833C481.167 580.667 480.833 577.833 480.833 577.833L501.167 556.167L522.833 571.167C522.667 571.167 523 576.333 522.5 583Z" fill="#FC7059"/>
<path d="M522.5 583C512 584 502.333 577.167 502.333 577.167C502.333 577.167 498.5 581.167 490.333 584.167C487.667 585.167 484.667 585.333 482 585C481.167 580.833 480.833 578 480.833 578L501.167 556.333L522.833 571.333C522.667 571.167 523 576.333 522.5 583Z" fill="#F45145"/>
<path d="M436.833 563.167C432 568.667 443.5 581.167 462.167 583.667C481 586.167 498.833 576.167 500.833 568.333C502.833 560.5 501 548 501 548H494.667C494.667 548 496.667 565.833 480.5 573C455.5 584 440.167 559.167 436.833 563.167Z" fill="#1C3177"/>
<path d="M504 544.5C504 544.5 505.167 561.333 520.667 567.5C536 573.667 543 569.667 548.833 567C555.167 564 555.167 557.667 559.667 559.5C562 560.5 561.167 568.833 553.167 574.167C543.667 580.5 534.333 581.333 521.333 578.167C508.333 575 501.333 569.167 499.667 562C498 554.833 497 546.667 497 546.667L504 544.5Z" fill="#1C3177"/>
<path d="M523.5 527.833C518.667 541 506.833 550.5 498.833 550.5C490.833 550.5 475.333 542.833 467.833 535.833C459.833 528.333 459.333 521.167 461.167 516.333C461.167 516.167 461.333 515.833 461.5 515.667C463.667 511 476.667 506.833 493 504.667C505.5 503 519.667 502.667 523 504.833C523.833 505.5 524.667 506.333 525.333 507.667C527 511.667 527.167 518.167 523.5 527.833Z" fill="#1C3177"/>
<path d="M523.5 527.833C518.667 541 506.833 550.5 498.833 550.5C490.833 550.5 475.333 542.833 467.833 535.833C459.833 528.333 459.333 521.167 461.167 516.333C462 516.333 462.833 516.667 463.667 517.667C467.667 522 471.167 531.333 485.667 539.5C500.333 547.667 507 541.667 513.5 533.167C520 524.667 521.167 510 524.333 508C524.667 507.833 524.833 507.667 525.167 507.667C527 511.667 527.167 518.167 523.5 527.833Z" fill="#0B2359"/>
<path d="M437.333 506C444.053 506 449.5 497.941 449.5 488C449.5 478.059 444.053 470 437.333 470C430.614 470 425.167 478.059 425.167 488C425.167 497.941 430.614 506 437.333 506Z" fill="#1C3177"/>
<path d="M546.405 497.257C553.088 496.556 557.666 487.974 556.63 478.086C555.594 468.199 549.337 460.751 542.654 461.451C535.971 462.151 531.392 470.734 532.428 480.622C533.464 490.509 539.722 497.957 546.405 497.257Z" fill="#1C3177"/>
<path d="M429 431.333C422.167 437.167 418.333 443.833 416.5 448.833C414.5 453.667 416.833 455.5 422.667 455.667C428.5 455.833 438.333 448.667 443.667 440.333C449 431.833 439.5 422.167 429 431.333Z" fill="#FF8D76"/>
<path d="M545.667 420.667C553.333 425.333 558 431.5 560.834 436C563.667 440.5 561.5 442.667 555.833 443.667C550 444.667 539.334 439.167 532.667 431.833C526 424.5 533.833 413.333 545.667 420.667Z" fill="#FF8D76"/>
<path d="M121.5 785.5C113.833 785.333 108.833 785 108 785C103.667 784.667 100.5 781 100.667 776.667C101 772.333 104.5 769 109 769.333C109.833 769.333 167.833 775.333 215.667 755.667C233.333 748.5 243.167 742 245 736.833C246.333 733 243.333 727.333 238.333 718.333C236.667 715.333 234.833 712.167 233 708.667C229 700.833 228.667 692.167 232 683.833C242.833 657.167 288.667 639.5 302.5 634.833C379.333 608.5 437.167 618.667 439.5 619.167C443.667 620 446.5 624 445.833 628.333C445 632.667 441 635.333 436.667 634.667C436.167 634.5 380.167 624.833 307.5 649.833C275.833 660.667 251.833 676.5 246.333 689.833C244.667 694 244.833 697.833 246.833 701.667C248.5 704.833 250.167 708 251.833 710.833C257.833 721.333 263.333 731.333 259.667 742.167C256.167 752.5 244.667 760.833 221.5 770.333C182.333 786.333 147.5 786.167 121.5 785.5Z" fill="#1C3177"/>
<path d="M423.5 639.333C426.333 646 433.167 650.167 444.5 652.167C461.667 655.167 472.667 650.833 472.667 650.833L472.333 644.5L470 607.5C470 607.5 455.333 605.5 440 610.5C426.5 615 420.667 622.333 421.833 633.5C422.167 635.5 422.667 637.5 423.5 639.333Z" fill="#F0F6FF"/>
<path d="M469.757 607.146C466.358 607.361 464.226 617.366 464.996 629.492C465.765 641.618 469.143 651.273 472.542 651.058C475.941 650.842 478.073 640.837 477.304 628.711C476.535 616.585 473.156 606.93 469.757 607.146Z" fill="#C2D7EF"/>
<path d="M423.5 639.333C426.333 646 433.167 650.167 444.5 652.167C461.667 655.167 472.667 650.833 472.667 650.833L472.333 644.5C465.667 644.167 457.167 643.667 449 642.833C437.333 641.333 428.667 640.167 423.5 639.333Z" fill="#C2D7EF"/>
<path d="M489.5 622.833L474.333 624.333C472.333 624.5 470.5 623 470.333 621L470.167 620C470 618 471.5 616.167 473.5 616L488.667 614.5C491 614.333 493 616 493.167 618.167C493.5 620.667 491.833 622.667 489.5 622.833Z" fill="#87AACC"/>
<path d="M491 641.5L475.833 643C473.833 643.167 472 641.667 471.833 639.667L471.667 638.667C471.5 636.667 473 634.833 475 634.667L490.167 633.167C492.5 633 494.5 634.667 494.667 636.833C495 639.333 493.333 641.333 491 641.5Z" fill="#87AACC"/>
<path d="M894.833 782C883.5 781.667 783.833 778 755 742.333C735.5 718.167 747 701.833 757 687.333C759.333 684 761.667 680.5 763.833 677C767.333 671 767.5 664.5 764.167 658.333C760.667 651.833 747.667 636.5 703.333 634.667C639.833 631.833 557.5 635.333 556.667 635.5C552.333 635.667 548.667 632.333 548.5 628C548.333 623.667 551.667 620 556 619.833C556.833 619.833 640 616.167 704.167 619C754.5 621.333 772 640 778 651C784 662 783.667 674.333 777.5 685C775.167 689.167 772.5 692.833 770 696.333C760.167 710.5 755.167 717.667 767.333 732.667C788.5 758.833 867.667 766 896.333 766.5C900.667 766.667 904 770.167 904 774.5C903.833 778.833 900.333 782.167 896 782.167C895.5 782 895.167 782 894.833 782Z" fill="#1C3177"/>
<path d="M566.833 633C564.5 639.833 558.167 644.667 547 647.5C530.167 651.833 518.833 648.333 518.833 648.333L518.667 642L518 605C518 605 532.5 601.667 548 605.5C561.833 608.833 568.167 615.667 568 627C567.833 629.167 567.5 631.167 566.833 633Z" fill="#F0F6FF"/>
<path d="M566.833 633C564.5 639.833 558.167 644.667 547 647.5C530.167 651.833 518.833 648.333 518.833 648.333L518.667 642C525.333 641.167 533.667 640 541.833 638.333C553.333 636.167 561.667 634.333 566.833 633Z" fill="#C2D7EF"/>
<path d="M518.89 648.644C522.295 648.581 524.874 638.682 524.65 626.535C524.426 614.387 521.484 604.59 518.079 604.653C514.674 604.715 512.095 614.614 512.319 626.762C512.543 638.91 515.485 648.707 518.89 648.644Z" fill="#C2D7EF"/>
<path d="M518.452 625.145C519.28 625.13 519.891 621.835 519.816 617.786C519.742 613.736 519.01 610.466 518.181 610.481C517.353 610.497 516.742 613.792 516.817 617.841C516.891 621.89 517.623 625.16 518.452 625.145Z" fill="#87AACC"/>
<path d="M518.454 644.147C519.282 644.132 519.893 640.837 519.818 636.788C519.743 632.739 519.012 629.468 518.183 629.484C517.355 629.499 516.744 632.794 516.819 636.843C516.893 640.892 517.625 644.163 518.454 644.147Z" fill="#87AACC"/>
<path d="M412.667 630.833C412.667 632.167 412.667 633.5 412.5 634.667C411.667 643.167 407.5 649.333 398.5 653.5C396 654.667 393 655.667 389.5 656.333C383.5 657.833 376 658.667 367 659.167C365 659.333 362.833 659.333 360.5 659.333C358.833 659.333 357.333 659.333 355.667 659.333C350 659.333 344.667 659.167 339.667 658.833C336.333 658.5 333 658 330.167 657.5C317.833 654.833 309.833 649 308.333 637.5C309.333 646 291.333 590.667 360.167 584.167C392 581 412.667 611.833 412.667 630.833Z" fill="#FCAA51"/>
<path d="M412.667 630.833C412.667 632.167 412.667 633.5 412.5 634.667C405.833 643.667 390.167 648 360.167 648.5C336.333 649 317.167 647.333 308.333 637.333C309.333 645.833 291.333 590.5 360.167 584C392 581 412.667 611.833 412.667 630.833Z" fill="#FEC272"/>
<path d="M339.667 658.833C336.333 658.5 333 658 330.167 657.5C329.667 653 328.667 642.167 329.5 633.167C330.667 621.333 335.167 620.667 336.5 622.833C337.833 625 337 637.667 338.5 649.333C338.833 652.667 339.333 656 339.667 658.833Z" fill="#FFA245"/>
<path d="M398.5 653.5C396 654.667 393 655.667 389.5 656.333C389.167 653.167 388.833 649.333 388.333 645.333C387 633.667 383.167 621.5 383.833 619.167C384.5 616.833 389.167 616.333 393 627.667C396.833 638.167 398.333 651.667 398.5 653.5Z" fill="#FFA245"/>
<path d="M367 659.167C365 659.333 362.834 659.333 360.5 659.333C358.834 659.333 357.334 659.333 355.667 659.333C355.667 654.833 355.5 648.833 355.167 643.333C354.667 632.5 354.334 625.5 357.667 624.833C361 624.167 364.5 636.167 366 648.833C366.5 653.167 366.834 656.5 367 659.167Z" fill="#FFA245"/>
<path d="M577.5 622.167C577.5 623.5 577.667 624.833 577.833 626C578.833 634.5 583 640.667 592 644.5C594.667 645.667 597.667 646.5 601 647.333C607 648.667 614.5 649.5 623.5 649.833C625.5 649.833 627.667 650 630 650C631.667 650 633.167 650 634.833 650C640.5 650 645.833 649.833 650.833 649.167C654.167 648.833 657.333 648.333 660.333 647.667C672.5 644.833 680.5 639 681.833 627.333C684 607.667 661.167 577.333 629.333 574.667C597.5 572 577.167 603 577.5 622.167Z" fill="#FCAA51"/>
<path d="M577.5 622.167C577.5 623.5 577.667 624.833 577.833 626C584.667 635 600.333 639 630.333 639.167C654.167 639.333 673.333 637.333 682 627.333C684.167 607.667 661.333 577.333 629.5 574.667C597.5 572 577.167 603 577.5 622.167Z" fill="#FEC272"/>
<path d="M650.833 649.167C654.167 648.833 657.334 648.333 660.334 647.667C660.834 643.167 661.667 632.333 660.667 623.333C659.333 611.5 654.834 610.833 653.5 613C652.334 615.167 653.334 627.833 652 639.5C651.667 643 651.167 646.167 650.833 649.167Z" fill="#FFA245"/>
<path d="M592 644.5C594.667 645.667 597.667 646.5 601 647.333C601.167 644.167 601.5 640.333 602 636.333C603.167 624.667 606.834 612.5 606 610.167C605.334 607.833 600.667 607.333 596.834 618.667C593.5 629.167 592.167 642.667 592 644.5Z" fill="#FFA245"/>
<path d="M623.5 649.667C625.5 649.667 627.667 649.833 630 649.833C631.667 649.833 633.167 649.833 634.834 649.833C634.834 645.333 634.834 639.333 635 633.833C635.334 623 635.5 616 632.334 615.333C629 614.667 625.667 626.833 624.334 639.5C623.834 643.833 623.667 647.167 623.5 649.667Z" fill="#FFA245"/>
</g>
<defs>
<clipPath id="clip0_3_8136">
<rect width="1000" height="1000" rx="50" fill="white"/>
</clipPath>
</defs>
</svg>
