<svg width="1000" height="1000" viewBox="0 0 1000 1000" fill="none" xmlns="http://www.w3.org/2000/svg">
<g clip-path="url(#clip0_3_9172)">
<rect width="1000" height="1000" rx="50" fill="none"/>
<path d="M545.315 578.426C543.63 578.935 541.991 579.509 540.398 580.167C539.543 580.513 538.624 580.676 537.702 580.646C536.779 580.615 535.874 580.391 535.043 579.989C534.213 579.587 533.475 579.015 532.88 578.31C532.284 577.606 531.842 576.784 531.583 575.898L505.268 487.481L205.556 576.676L277.009 816.787C279.51 825.18 285.243 832.236 292.945 836.403C300.648 840.57 309.69 841.508 318.083 839.009L554.509 768.639C562.902 766.138 569.958 760.406 574.125 752.703C578.292 745.001 579.23 735.958 576.731 727.565L559.843 670.796C559.576 669.913 559.497 668.983 559.61 668.067C559.724 667.152 560.029 666.27 560.504 665.479C560.98 664.688 561.615 664.005 562.37 663.474C563.126 662.944 563.983 662.577 564.889 662.398C566.597 662.08 568.288 661.672 569.954 661.176C594.768 653.769 609.361 629.278 602.565 606.417C595.769 583.556 570.13 571.046 545.315 578.426Z" fill="#99ADF9"/>
<g style="mix-blend-mode:multiply" opacity="0.25">
<path d="M465.157 803.935C465.157 803.935 334.028 840.741 305.148 819.371C280.815 801.408 279.694 782.889 245.157 709.824C244.769 772.787 279.13 876.121 279.13 876.121L465.157 803.935Z" fill="#99ADF9"/>
</g>
<g style="mix-blend-mode:multiply" opacity="0.25">
<path d="M317.269 555.315C317.269 555.315 330.065 616.574 376.444 602.778C422.824 588.982 400 530.676 400 530.676L317.269 555.315Z" fill="#99ADF9"/>
</g>
<path d="M424.398 215.741L156.315 295.5C147.923 297.999 140.867 303.729 136.7 311.43C132.532 319.131 131.595 328.172 134.093 336.565L205.556 576.676L308.407 546.12C309.22 545.875 310.074 545.803 310.916 545.907C311.758 546.012 312.569 546.291 313.296 546.726C314.024 547.162 314.653 547.745 315.142 548.438C315.632 549.131 315.971 549.918 316.139 550.75C316.441 552.293 316.824 553.836 317.287 555.38C324.694 580.185 349.185 594.787 372.037 587.982C394.889 581.176 407.444 555.574 400.056 530.741C399.593 529.204 399.074 527.694 398.481 526.232C398.172 525.444 398.03 524.602 398.064 523.757C398.099 522.912 398.308 522.083 398.68 521.324C399.052 520.564 399.578 519.891 400.224 519.345C400.871 518.8 401.624 518.396 402.435 518.157L505.287 487.546L424.398 215.741Z" fill="#FEC272"/>
<g style="mix-blend-mode:multiply" opacity="0.52">
<path d="M171.389 479.38C171.389 479.38 134.62 348.25 155.944 319.37C173.917 295.037 205.722 280.796 243.287 269.611C180.324 269.222 99.1945 293.352 99.1945 293.352L171.389 479.38Z" fill="#FEC272"/>
</g>
<path d="M424.398 215.741L447.426 293.111C447.799 294.343 447.904 295.641 447.733 296.918C447.563 298.194 447.121 299.419 446.438 300.51C445.754 301.601 444.845 302.533 443.772 303.244C442.698 303.955 441.485 304.427 440.213 304.63C437.812 304.987 435.439 305.513 433.111 306.204C408.306 313.611 393.704 338.102 400.509 360.963C407.315 383.824 432.917 396.361 457.741 388.981C460.07 388.292 462.344 387.432 464.546 386.407C465.721 385.89 466.992 385.63 468.275 385.642C469.558 385.654 470.824 385.94 471.988 386.479C473.152 387.019 474.188 387.8 475.026 388.771C475.865 389.742 476.487 390.881 476.852 392.111L505.232 487.481L603.13 458.333C605.936 457.477 608.289 455.546 609.677 452.962C611.064 450.377 611.374 447.349 610.537 444.537L610.454 444.259C603.046 419.444 615.62 393.815 638.472 387.019C661.324 380.222 685.843 394.815 693.222 419.63L693.306 419.898C694.146 422.718 696.071 425.089 698.657 426.491C701.243 427.894 704.28 428.213 707.102 427.38L773.306 407.676C781.698 405.177 788.753 399.446 792.921 391.745C797.088 384.044 798.026 375.004 795.528 366.611L733.491 158.148C730.992 149.756 725.261 142.7 717.56 138.533C709.859 134.366 700.818 133.428 692.426 135.926L424.398 215.741Z" fill="#FF97C9"/>
<g style="mix-blend-mode:multiply" opacity="0.19">
<path d="M433.111 306.195C433.111 306.195 407.407 319.787 416.778 351.324C426.148 382.861 448.065 386.963 462.481 389.537C436.555 412.111 359.944 381.037 359.944 381.037L388.889 303.176L433.111 306.195Z" fill="#FF97C9"/>
</g>
<g style="mix-blend-mode:multiply" opacity="0.19">
<path d="M776.602 302.778C776.602 302.778 735.685 172.88 702.046 160.352C673.694 149.806 633.111 145.926 595.565 157.102C648.092 122.333 735.38 107.546 735.38 107.546L776.602 302.778Z" fill="#FF97C9"/>
</g>
<path d="M241.148 415.694C249.903 415.694 257 408.597 257 399.843C257 391.088 249.903 383.991 241.148 383.991C232.393 383.991 225.296 391.088 225.296 399.843C225.296 408.597 232.393 415.694 241.148 415.694Z" fill="#1C3177"/>
<path d="M358.731 380.713C367.486 380.713 374.583 373.616 374.583 364.861C374.583 356.106 367.486 349.009 358.731 349.009C349.977 349.009 342.88 356.106 342.88 364.861C342.88 373.616 349.977 380.713 358.731 380.713Z" fill="#1C3177"/>
<path d="M291.269 419.445C291.269 419.445 291.713 407.102 306.269 402.778C320.824 398.454 327.5 408.676 327.5 408.676" stroke="#1C3177" stroke-width="9" stroke-miterlimit="10" stroke-linecap="round"/>
<path d="M339.769 691.509C348.523 691.509 355.62 684.412 355.62 675.658C355.62 666.903 348.523 659.806 339.769 659.806C331.014 659.806 323.917 666.903 323.917 675.658C323.917 684.412 331.014 691.509 339.769 691.509Z" fill="#1C3177"/>
<path d="M457.352 656.519C466.107 656.519 473.204 649.422 473.204 640.667C473.204 631.912 466.107 624.815 457.352 624.815C448.597 624.815 441.5 631.912 441.5 640.667C441.5 649.422 448.597 656.519 457.352 656.519Z" fill="#1C3177"/>
<path d="M560.713 304.75C563.204 313.139 557.009 317.185 548.611 319.685C540.213 322.185 532.815 322.185 530.315 313.796C529.672 311.787 529.437 309.669 529.622 307.567C529.808 305.465 530.412 303.421 531.397 301.556C532.383 299.69 533.731 298.039 535.362 296.701C536.993 295.363 538.875 294.364 540.898 293.762C542.92 293.16 545.042 292.968 547.14 293.196C549.238 293.425 551.269 294.07 553.114 295.093C554.959 296.116 556.582 297.497 557.887 299.156C559.192 300.814 560.152 302.716 560.713 304.75Z" fill="#1C3177"/>
<path d="M678.287 269.759C680.787 278.157 674.583 282.194 666.185 284.694C657.787 287.194 650.389 287.194 647.889 278.806C647.246 276.796 647.011 274.678 647.196 272.576C647.382 270.474 647.986 268.431 648.971 266.565C649.957 264.699 651.305 263.049 652.936 261.71C654.567 260.372 656.449 259.373 658.472 258.771C660.494 258.169 662.616 257.977 664.714 258.205C666.812 258.434 668.843 259.079 670.688 260.102C672.533 261.125 674.156 262.507 675.461 264.165C676.766 265.823 677.726 267.725 678.287 269.759Z" fill="#1C3177"/>
<path d="M639.695 317.435C639.111 325.426 629.407 324.574 615.343 328.759C601.278 332.945 594.556 339.871 588.759 332.593C581.352 323.334 594.065 308.704 608.13 304.519C622.195 300.333 640.556 305.658 639.695 317.435Z" fill="#F774B9"/>
<path d="M433.421 672.965L376.578 689.878C371.177 691.485 368.101 697.167 369.708 702.568C371.315 707.969 376.997 711.045 382.398 709.438L439.241 692.525C444.642 690.918 447.718 685.236 446.111 679.835C444.504 674.434 438.822 671.358 433.421 672.965Z" fill="white"/>
<path d="M688.954 631.259L704.759 659.87" stroke="#1C3177" stroke-width="12" stroke-miterlimit="10" stroke-linecap="round"/>
<path d="M722.537 533.13L752.157 519.306" stroke="#1C3177" stroke-width="12" stroke-miterlimit="10" stroke-linecap="round"/>
<path d="M720.694 586.065L758.889 598.62" stroke="#1C3177" stroke-width="12" stroke-miterlimit="10" stroke-linecap="round"/>
</g>
<defs>
<clipPath id="clip0_3_9172">
<rect width="1000" height="1000" rx="50" fill="white"/>
</clipPath>
</defs>
</svg>
