<?xml version="1.0" standalone="no"?>
<!DOCTYPE svg PUBLIC "-//W3C//DTD SVG 20010904//EN"
 "http://www.w3.org/TR/2001/REC-SVG-20010904/DTD/svg10.dtd">
<svg version="1.0" xmlns="http://www.w3.org/2000/svg"
 width="89.822pt" height="60pt" viewBox="0 0 253.000000 169.000000"
 preserveAspectRatio="xMidYMid meet">
<metadata>
Created by potrace 1.16, written by Peter Selinger 2001-2019
</metadata>
<g transform="translate(0.000000,169.000000) scale(0.100000,-0.100000)"
fill="#000000" stroke="none">
<path d="M1133 1656 c-220 -54 -374 -234 -406 -477 -5 -35 -4 -37 36 -49 23
-6 69 -26 102 -44 l60 -33 0 81 c0 68 5 90 28 138 59 120 161 189 292 196 110
6 176 -20 254 -97 73 -71 101 -139 101 -246 l0 -75 44 28 c24 15 69 36 100 47
64 22 66 27 41 134 -68 285 -365 466 -652 397z"/>
<path d="M470 1081 c-166 -23 -333 -138 -405 -280 -89 -177 -78 -393 29 -554
150 -225 449 -302 695 -178 72 37 116 80 125 122 3 17 6 77 6 133 l0 102 -90
132 c-50 72 -95 134 -100 137 -6 4 -10 -71 -10 -205 0 -120 -4 -219 -10 -230
-14 -26 -100 -52 -170 -52 -249 0 -413 264 -304 487 34 68 97 128 172 163 49
23 70 27 145 26 l87 0 0 98 0 98 -29 0 c-16 0 -41 2 -57 4 -16 2 -54 1 -84 -3z"/>
<path d="M1923 1083 l-43 -4 0 -97 0 -98 93 1 c82 0 99 -3 151 -29 221 -108
267 -393 90 -556 -55 -51 -109 -77 -178 -88 -87 -14 -197 11 -223 50 -4 7 -10
109 -13 227 l-5 213 -92 -133 -93 -134 0 -126 c0 -115 2 -129 23 -160 48 -72
180 -128 322 -136 165 -10 288 38 405 156 110 111 160 229 160 376 -1 324
-271 567 -597 538z"/>
<path d="M720 952 l0 -98 268 -387 c147 -212 271 -385 275 -384 5 1 128 173
273 382 l264 380 0 103 c0 69 -4 102 -11 102 -16 0 -75 -36 -125 -76 -24 -19
-112 -135 -218 -288 -99 -141 -182 -256 -185 -256 -3 1 -82 111 -176 246 -93
135 -190 265 -216 289 -44 41 -116 85 -139 85 -6 0 -10 -37 -10 -98z"/>
</g>
</svg>
