<svg width="350" height="183" viewBox="0 0 350 183" fill="none" xmlns="http://www.w3.org/2000/svg">
<g filter="url(#filter0_d_442_246)">
<path d="M133.233 31.4829C133.233 32.2114 132.643 32.8013 131.915 32.8013C131.187 32.8013 130.597 32.2114 130.597 31.4829C130.597 30.7554 131.187 30.165 131.915 30.165C132.643 30.165 133.233 30.7554 133.233 31.4829Z" fill="#A1A6DB"/>
<path d="M140.594 76.7383C140.406 76.8199 140.188 76.7336 140.107 76.5452L138.814 73.5582L135.827 74.8506C135.639 74.9322 135.421 74.8454 135.34 74.6575L134.047 71.671L131.061 72.9634C130.872 73.045 130.654 72.9588 130.573 72.7703L129.28 69.7834L126.294 71.0757C126.105 71.1568 125.887 71.0706 125.806 70.8826C125.725 70.6942 125.811 70.4763 125.999 70.3947L129.326 68.9552C129.514 68.8736 129.733 68.9603 129.814 69.1483L131.106 72.1352L134.093 70.8429C134.281 70.7613 134.5 70.848 134.581 71.036L135.873 74.0224L138.86 72.73C139.048 72.6485 139.266 72.7352 139.348 72.9231L140.787 76.2509C140.869 76.4388 140.783 76.6567 140.594 76.7383Z" fill="#9DCEFF"/>
<path d="M144.311 70.7697L147.28 72.1317L146.975 68.8804L144.311 70.7697ZM148.046 72.8918C148.019 72.9501 147.977 73.0012 147.924 73.0394C147.816 73.1164 147.675 73.1293 147.554 73.074L143.417 71.176C143.297 71.1208 143.215 71.0056 143.203 70.874C143.19 70.7418 143.249 70.6127 143.358 70.5363L147.07 67.9035C147.177 67.8266 147.318 67.8132 147.439 67.8684C147.56 67.9237 147.641 68.0393 147.653 68.171L148.078 72.7023C148.084 72.7679 148.073 72.8334 148.046 72.8918Z" fill="#F46B76"/>
<path d="M199.436 148.527L198.047 147.801L198.775 146.412C198.868 146.231 198.801 146.007 198.62 145.912C198.434 145.817 198.212 145.887 198.119 146.068L197.391 147.457L196.002 146.731C195.822 146.635 195.595 146.706 195.502 146.887C195.409 147.069 195.476 147.292 195.657 147.388L197.045 148.114L196.323 149.503C196.225 149.684 196.297 149.909 196.478 150.004C196.658 150.099 196.885 150.028 196.978 149.847L197.706 148.458L199.095 149.185C199.276 149.28 199.498 149.21 199.596 149.028C199.689 148.846 199.617 148.623 199.436 148.527Z" fill="#9DCEFF"/>
<path d="M239.115 174.269H10.6808C7.43773 174.269 4.80859 171.64 4.80859 168.396V165.46H244.986V168.396C244.986 171.64 242.358 174.269 239.115 174.269Z" fill="#92A3FD"/>
<path d="M227.957 27.4591H21.838C18.595 27.4591 15.9658 30.0883 15.9658 33.3318V165.46H233.833V33.3318C233.833 30.0883 231.2 27.4591 227.957 27.4591Z" fill="#263238"/>
<path d="M24.1875 157.238V35.6805H225.608V157.238H24.1875Z" fill="#E0E0E0"/>
<g filter="url(#filter1_d_442_246)">
<rect x="39.5088" y="15.8926" width="171.027" height="114.778" rx="3.64042" fill="white"/>
</g>
<rect x="123.809" y="33.8926" width="20" height="20.3745" rx="1.30032" fill="#FF1D1D"/>
<path d="M130.623 38.6289H132.73V47.804H137.458V49.8013H130.623V38.6289Z" fill="white"/>
<path d="M52.6628 117.697H72.1093C72.9639 117.697 73.657 117.004 73.657 116.149V102.778C73.657 101.923 72.964 101.231 72.1093 101.231H52.6628C51.8081 101.231 51.1151 101.923 51.1151 102.778V116.149C51.1151 117.004 51.8081 117.697 52.6628 117.697Z" fill="white" stroke="black" stroke-width="0.409853"/>
<path d="M64.3907 111.653L64.3907 111.653C63.8164 112.332 62.8168 112.456 62.0944 111.937C62.0944 111.937 62.0943 111.937 62.0943 111.937L59.5495 110.11L59.5494 110.11C59.0206 109.73 58.2922 109.802 57.8478 110.278L51.3217 117.264C51.5126 117.527 51.818 117.697 52.1646 117.697H72.6067C73.1865 117.697 73.6566 117.227 73.6566 116.647V108.515L71.0347 105.951L71.0347 105.951C70.4971 105.425 69.6263 105.466 69.1401 106.04L64.3907 111.653Z" fill="#BDBDBD" stroke="black" stroke-width="0.409853"/>
<path d="M55.0666 105.936L55.0666 105.936C54.8271 104.674 55.9083 103.593 57.1702 103.832C57.8683 103.964 58.435 104.531 58.5674 105.229L55.0666 105.936ZM55.0666 105.936C55.1989 106.634 55.7659 107.201 56.4638 107.333L55.0666 105.936ZM56.4638 107.333C57.7256 107.572 58.8065 106.491 58.5674 105.229L56.4638 107.333Z" fill="#92A3FD" stroke="black" stroke-width="0.819706"/>
<rect opacity="0.5" x="46.3496" y="34.8955" width="22.8036" height="2.28036" rx="1.14018" fill="#C4C4C4"/>
<rect x="46.3496" y="46.2974" width="64.6102" height="3.04048" rx="1.52024" fill="#E0E0E0"/>
<rect x="124.257" y="66.1304" width="75.4294" height="2.44636" rx="1.22318" fill="#E0E0E0"/>
<rect x="46.3496" y="85.8237" width="64.6102" height="2.28036" rx="1.14018" fill="#E0E0E0"/>
<rect x="124.257" y="115.232" width="75.4294" height="2.44636" rx="1.22318" fill="#E0E0E0"/>
<rect x="46.3496" y="66.0605" width="64.6102" height="2.28036" rx="1.14018" fill="#E0E0E0"/>
<rect x="124.257" y="90.6812" width="75.4294" height="2.44636" rx="1.22318" fill="#E0E0E0"/>
<rect x="77.7461" y="103.516" width="29.3257" height="1.9366" rx="0.9683" fill="#E0E0E0"/>
<rect x="149.809" y="37.8926" width="46" height="2" rx="1" fill="#E0E0E0"/>
<rect x="46.3496" y="56.1792" width="64.6102" height="2.28036" rx="1.14018" fill="#E0E0E0"/>
<rect x="124.257" y="78.4058" width="75.4294" height="2.44636" rx="1.22318" fill="#E0E0E0"/>
<rect x="46.3496" y="75.9419" width="64.6102" height="2.28036" rx="1.14018" fill="#E0E0E0"/>
<rect x="124.257" y="102.957" width="75.4294" height="2.44636" rx="1.22318" fill="#E0E0E0"/>
<rect x="77.7461" y="110.985" width="29.3257" height="1.65994" rx="0.829971" fill="#E0E0E0"/>
<rect x="149.809" y="46.8926" width="46" height="3" rx="1.5" fill="#E0E0E0"/>
<rect width="14.0983" height="59.5332" transform="matrix(-0.888766 0.458361 0.458361 0.888766 318.521 112.875)" fill="#ADA4A5"/>
<path d="M305.991 172.489V97.7496H278.409V172.489H305.991Z" fill="#9DCEFF"/>
<path d="M288.196 118.719V152.409C288.196 155.145 289.989 157.363 292.2 157.363C294.411 157.363 296.204 155.145 296.204 152.409V118.719C296.204 115.983 294.411 113.765 292.2 113.765C289.989 113.765 288.196 115.983 288.196 118.719Z" fill="#FFF5F5"/>
<rect width="20.6022" height="97.5893" transform="matrix(-1 0 0 1 270.982 75.5059)" fill="#98BFFD"/>
<rect width="20.6022" height="56.0858" transform="matrix(-1 0 0 1 270.982 95.6963)" fill="#92A3FD"/>
</g>
<defs>
<filter id="filter0_d_442_246" x="0.808594" y="15.8926" width="349" height="166.376" filterUnits="userSpaceOnUse" color-interpolation-filters="sRGB">
<feFlood flood-opacity="0" result="BackgroundImageFix"/>
<feColorMatrix in="SourceAlpha" type="matrix" values="0 0 0 0 0 0 0 0 0 0 0 0 0 0 0 0 0 0 127 0" result="hardAlpha"/>
<feOffset dy="4"/>
<feGaussianBlur stdDeviation="2"/>
<feComposite in2="hardAlpha" operator="out"/>
<feColorMatrix type="matrix" values="0 0 0 0 0 0 0 0 0 0 0 0 0 0 0 0 0 0 0.25 0"/>
<feBlend mode="normal" in2="BackgroundImageFix" result="effect1_dropShadow_442_246"/>
<feBlend mode="normal" in="SourceGraphic" in2="effect1_dropShadow_442_246" result="shape"/>
</filter>
<filter id="filter1_d_442_246" x="21.6861" y="0.921525" width="206.673" height="150.423" filterUnits="userSpaceOnUse" color-interpolation-filters="sRGB">
<feFlood flood-opacity="0" result="BackgroundImageFix"/>
<feColorMatrix in="SourceAlpha" type="matrix" values="0 0 0 0 0 0 0 0 0 0 0 0 0 0 0 0 0 0 127 0" result="hardAlpha"/>
<feOffset dy="2.85163"/>
<feGaussianBlur stdDeviation="8.91134"/>
<feColorMatrix type="matrix" values="0 0 0 0 0 0 0 0 0 0 0 0 0 0 0 0 0 0 0.08 0"/>
<feBlend mode="normal" in2="BackgroundImageFix" result="effect1_dropShadow_442_246"/>
<feBlend mode="normal" in="SourceGraphic" in2="effect1_dropShadow_442_246" result="shape"/>
</filter>
</defs>
</svg>
