<svg width="240" height="226" viewBox="0 0 240 226" fill="none" xmlns="http://www.w3.org/2000/svg">
<path d="M202.056 94.5322C202.056 146.41 160 188.466 108.122 188.466C56.2433 188.466 14.1875 146.41 14.1875 94.5322C14.1875 42.6536 56.2433 0.597595 108.122 0.597595C160 0.597595 202.056 42.6536 202.056 94.5322Z" fill="#AB8DA8" fill-opacity="0.1"/>
<path d="M121.684 129.273C121.684 129.273 95.4994 161.049 86.2382 160.221C76.977 159.393 70.6309 143.904 70.6309 143.904C70.6309 143.904 70.9484 143.735 71.4872 143.411C74.1981 141.812 82.5349 136.515 84.4858 130.86C86.3743 127.792 100.11 105.522 104.29 99.8391C108.787 93.7311 114.079 93.4929 114.079 93.4929C117.062 98.3986 120.827 102.13 125.495 102.834C126.136 102.929 126.76 102.992 127.355 103.021C127.639 105.017 129.516 115.202 138.664 120.415C138.664 120.415 139.015 113.32 143.705 112.69C143.705 112.69 148.674 109.968 152.774 113.949C152.774 113.949 159.273 106.973 152.774 87.385L148.135 83.1877L148.13 83.1825L146.003 78.1238C146.003 78.1238 169.737 76.9379 175.226 82.0256C180.717 87.1071 215.833 133.577 215.833 133.577L164.752 173.236C164.752 173.236 133.781 142.521 121.684 129.273Z" fill="white"/>
<path d="M152.773 87.385C159.273 106.973 152.773 113.949 152.773 113.949C148.674 109.968 143.705 112.69 143.705 112.69L150.329 88.4058L148.134 83.1877L152.773 87.385Z" fill="#543753"/>
<path d="M136.837 108.159L143.705 112.69C139.015 113.32 138.663 120.415 138.663 120.415C129.515 115.203 127.638 105.017 127.354 103.021C127.933 103.049 128.494 103.044 129.028 103.01L136.837 108.159Z" fill="#543753"/>
<path d="M121.525 129.017C118.667 125.492 115.81 121.965 112.952 118.438C112.723 118.155 112.323 118.558 112.551 118.839C115.409 122.366 118.266 125.893 121.124 129.418C121.353 129.702 121.753 129.299 121.525 129.017Z" fill="#3B2645"/>
<path d="M119.021 129.712C116.999 128.844 114.976 127.976 112.953 127.108C112.621 126.965 112.332 127.454 112.666 127.598C114.689 128.466 116.712 129.334 118.735 130.202C119.067 130.344 119.356 129.856 119.021 129.712Z" fill="#3B2645"/>
<path d="M164.174 145.888C161.602 141.633 159.03 137.379 156.458 133.125C153.898 128.891 151.338 124.656 148.778 120.422C147.328 118.023 145.877 115.623 144.427 113.224C144.238 112.912 143.748 113.196 143.937 113.51C146.509 117.765 149.081 122.019 151.653 126.273C154.213 130.507 156.773 134.741 159.333 138.976C160.783 141.375 162.233 143.774 163.684 146.173C163.872 146.486 164.364 146.201 164.174 145.888Z" fill="#3B2645"/>
<path d="M84.8997 128.768C84.8713 129.465 84.7295 130.164 84.4857 130.861C82.5347 136.515 74.1979 141.812 71.4871 143.411L70.6307 140.275C70.6307 140.275 66.2355 141.262 63.0198 138.477C62.9348 138.642 62.7987 138.79 62.6399 138.892C62.1862 139.17 61.6134 139.17 61.0803 139.124C58.67 138.909 56.3221 137.984 54.4108 136.492C53.2822 135.613 52.2671 134.474 51.9552 133.079C51.6546 131.757 52.1593 130.186 53.3333 129.539C53.2879 129.329 53.2596 129.114 53.2482 128.898C53.1972 127.668 53.8437 126.488 54.7228 125.627C55.5337 124.821 56.5376 124.248 57.5414 123.703C57.5527 123.652 57.5641 123.607 57.5754 123.562C57.8193 122.688 58.4431 121.963 59.169 121.424C59.8269 120.936 60.5755 120.584 61.3241 120.244C57.6888 118.373 54.201 116.297 54.5526 115.367C55.2615 113.479 62.7079 114.148 70.2394 116.784C77.7652 119.427 80.2265 123.364 80.2265 123.364C82.5688 122.326 85.1322 122.53 84.8997 128.768Z" fill="#FFEDE5"/>
<path d="M82.1395 129.83C80.3848 130.583 78.6296 131.336 76.8749 132.089C75.9867 132.47 75.098 132.851 74.2099 133.232C73.48 133.546 72.5908 134.056 71.7713 133.803C70.8888 133.53 70.8792 132.541 71.2172 131.833C71.5558 131.126 72.0838 130.48 72.5726 129.871C73.5373 128.668 74.6279 127.567 75.8172 126.586C77.1976 125.449 78.718 124.489 80.3287 123.713C80.6576 123.555 80.3701 123.066 80.0423 123.224C76.9293 124.723 74.164 126.933 72.0276 129.651C71.1939 130.711 69.6235 132.58 70.8746 133.908C71.4457 134.513 72.3633 134.515 73.1051 134.286C74.0256 134.001 74.9115 133.544 75.7962 133.165C78.0063 132.216 80.2158 131.268 82.4259 130.32C82.7599 130.176 82.4718 129.688 82.1395 129.83Z" fill="#3B2645"/>
<path d="M68.306 124.169C66.1056 122.855 63.9051 121.541 61.7052 120.227C61.391 120.039 61.1058 120.53 61.4188 120.717L68.0196 124.658C68.3338 124.846 68.6191 124.356 68.306 124.169Z" fill="#3B2645"/>
<path d="M69.3327 134.792C69.2725 134.256 69.0298 133.76 68.8239 133.268C68.5977 132.726 68.3708 132.184 68.1445 131.642C67.1033 129.151 66.062 126.658 65.0202 124.167C64.8818 123.835 64.3328 123.981 64.4735 124.317C65.3157 126.333 66.1579 128.348 67.0001 130.363C67.4254 131.381 67.8513 132.4 68.2767 133.418C68.5353 134.036 69.3304 135.663 68.1831 135.926C67.3789 136.11 66.4403 135.306 65.8301 134.877C65.1251 134.381 64.4548 133.838 63.8196 133.256C62.5583 132.098 61.4405 130.787 60.5002 129.357C59.4374 127.74 58.606 125.983 58.0349 124.134C57.9271 123.786 57.3799 123.935 57.4876 124.285C58.5929 127.862 60.659 131.125 63.4186 133.656C64.089 134.271 64.8002 134.843 65.5442 135.367C66.2497 135.864 67.0953 136.526 68.0044 136.512C68.9317 136.497 69.4291 135.647 69.3327 134.792Z" fill="#3B2645"/>
<path d="M64.5667 135.089C64.3494 134.802 63.8566 135.084 64.0772 135.375C64.4612 135.884 64.4992 136.576 64.0489 137.06C63.6025 137.541 62.939 137.546 62.3679 137.293C61.7866 137.037 61.2784 136.604 60.7822 136.215C60.2656 135.809 59.758 135.391 59.2606 134.962C57.2859 133.259 55.4705 131.377 53.832 129.348C53.6024 129.064 53.2037 129.468 53.4311 129.749C54.9362 131.613 56.5906 133.353 58.3815 134.945C59.2538 135.72 60.1567 136.464 61.0913 137.163C61.9125 137.778 62.9855 138.363 63.995 137.811C64.9761 137.275 65.2364 135.975 64.5667 135.089Z" fill="#3B2645"/>
<path d="M150.329 88.4061L143.705 112.69L136.837 108.159C143.903 98.1204 142.525 86.1994 142.525 86.1994C142.525 86.1994 141.425 102.255 129.028 103.01C128.495 103.044 127.933 103.049 127.355 103.021C126.759 102.992 126.135 102.93 125.494 102.834C120.827 102.131 117.061 98.3989 114.078 93.4926C108.152 83.7499 105.288 69.401 104.511 64.9944C111.492 64.0813 118.275 61.1499 124.899 58.5065C126.946 57.6898 129.108 56.8794 131.302 57.1227C133.548 57.3671 135.561 58.705 137.07 60.3899C138.391 61.8701 139.378 63.6055 140.308 65.3574C140.569 63.7586 141.652 58.9607 145.282 60.3445C145.701 60.5028 146.076 60.7585 146.399 61.0812C149.41 64.1216 148.304 73.5581 144.89 75.4812L146.002 78.124L148.129 83.1828L148.134 83.1879L150.329 88.4061Z" fill="#FFEDE5"/>
<path d="M142.525 86.1994C142.525 86.1994 143.903 98.1204 136.837 108.159L129.027 103.01C141.425 102.255 142.525 86.1994 142.525 86.1994Z" fill="#3B2645"/>
<path d="M133.746 38.5952C131.035 37.6192 127.996 38.2544 125.353 39.4C122.71 40.5404 120.294 42.1624 117.64 43.2683C112.791 45.2754 107.21 45.4512 102.253 43.7447C100.416 43.109 98.4083 42.2242 96.6219 42.9848C95.2369 43.574 94.4668 45.0264 94.3193 46.5509C94.3188 46.2083 94.3358 45.8669 94.3931 45.5295C94.5467 44.6215 94.946 43.7555 95.6702 43.1646C96.4546 42.5248 97.506 42.3054 98.4968 42.3116C99.6662 42.319 100.802 42.649 101.921 42.9564C103.009 43.2559 104.104 43.5054 105.225 43.6551C109.573 44.2359 114.074 43.4958 117.999 41.5341C122.024 39.5225 125.705 36.1537 130.42 36.0034C132.53 35.9365 134.561 36.6715 136.033 38.2033C137.52 39.7482 138.21 41.9225 137.922 44.0453C137.912 44.1185 137.891 44.1899 137.879 44.2625C137.984 41.8443 136.098 39.4476 133.746 38.5952ZM145.786 52.5063C145.452 50.3745 144.93 48.1564 143.506 46.535C142.231 45.0871 140.026 44.317 138.297 45.0298C138.793 43.126 138.553 41.0441 137.575 39.3245C136.566 37.5511 134.834 36.2116 132.859 35.6972C128.05 34.4449 123.658 37.6095 119.753 39.9194C117.666 41.1541 115.488 42.1432 113.121 42.7029C110.814 43.2479 108.421 43.4095 106.062 43.1844C104.863 43.0698 103.68 42.843 102.517 42.5311C101.356 42.2203 100.198 41.8602 98.9936 41.7654C96.9928 41.6078 94.9534 42.3655 94.1481 44.3215C93.3977 46.1437 93.7834 48.2704 94.5138 50.033C95.0265 51.2717 95.7536 52.4138 96.6468 53.408C94.4668 53.1812 92.162 54.2962 91.0697 56.2102C89.8333 58.3761 90.27 61.3597 92.0735 63.0838C93.6331 64.5754 95.8903 65.0512 98.0397 65.2105C100.217 65.375 102.373 65.278 104.511 64.9945C111.492 64.0814 118.275 61.1499 124.899 58.5065C126.946 57.6899 129.108 56.8794 131.302 57.1227C133.548 57.3672 135.561 58.705 137.07 60.39C138.391 61.8702 139.378 63.6056 140.308 65.3574C140.569 63.7587 141.652 58.9608 145.282 60.3446C145.701 60.5028 146.075 60.7586 146.399 61.0813C146.438 58.2178 146.234 55.3419 145.786 52.5063Z" fill="#3B2645"/>
<path d="M133.854 86.3927C133.854 86.3927 137.007 92.1542 132.198 95.5002C127.388 98.8525 123.997 94.0937 123.997 94.0937L133.854 86.3927Z" fill="white" fill-opacity="0.5"/>
<path d="M117.459 75.9519L123.998 88.9619C123.998 88.9619 118.678 91.9558 117.459 90.2209C116.234 88.4855 117.459 75.9519 117.459 75.9519Z" fill="#F36254" fill-opacity="0.3"/>
<path d="M115.051 78.8889C115.553 80.5869 115.003 82.2458 113.823 82.5946C112.644 82.9428 111.281 81.8488 110.78 80.1508C110.278 78.4528 110.828 76.794 112.007 76.4457C113.186 76.097 114.549 77.191 115.051 78.8889Z" fill="#3B2645"/>
<path d="M128.85 74.2337C129.352 75.9317 128.803 77.5905 127.623 77.9393C126.444 78.2875 125.081 77.1935 124.579 75.4955C124.077 73.7975 124.628 72.1387 125.807 71.7905C126.986 71.4417 128.35 72.5357 128.85 74.2337Z" fill="#3B2645"/>
<path d="M112.183 72.0187C111.109 72.275 110.071 72.6941 109.106 73.23C108.586 73.5181 108.407 74.3042 108.741 74.7925C109.103 75.3205 109.747 75.4657 110.303 75.1571C110.543 75.0244 110.789 74.9053 111.037 74.7902C111.616 74.5429 112.213 74.3405 112.826 74.1942C113.404 74.0563 113.785 73.3435 113.593 72.7848C113.383 72.178 112.803 71.8706 112.183 72.0187Z" fill="#3B2645"/>
<path d="M128.347 68.2041C128.109 67.9993 127.859 67.9262 127.55 67.8961C126.176 67.7634 124.742 67.9767 123.466 68.499C123.179 68.6164 122.944 68.7633 122.791 69.0446C122.658 69.2896 122.607 69.6406 122.699 69.9083C122.883 70.4414 123.52 70.9149 124.108 70.6745C124.637 70.4584 125.185 70.3075 125.746 70.2066C126.358 70.1255 126.975 70.1056 127.59 70.1652C127.864 70.1913 128.217 69.999 128.396 69.8079C128.583 69.6089 128.722 69.2867 128.704 69.01C128.685 68.7128 128.579 68.4043 128.347 68.2041Z" fill="#3B2645"/>
<path d="M138.144 35.4905C138 35.1565 137.512 35.4446 137.655 35.7769C138.709 38.2184 139.231 40.8629 139.204 43.5205C139.2 43.8857 139.768 43.8857 139.771 43.5205C139.799 40.7569 139.24 38.0273 138.144 35.4905Z" fill="#3B2645"/>
<path d="M140.742 40.3808C140.5 41.3784 140.258 42.3754 140.016 43.3724C139.93 43.7268 140.476 43.8783 140.563 43.5232C140.805 42.5262 141.046 41.5286 141.289 40.5316C141.374 40.1772 140.828 40.0258 140.742 40.3808Z" fill="#3B2645"/>
<path d="M136.887 208.346V211.97H86.2882L47.7178 191.003V187.742L87.0255 208.346H136.887Z" fill="#C6C6C6"/>
<path d="M136.887 208.346H87.0255L47.7178 187.742H97.5797L136.887 208.346Z" fill="#E1E1E1"/>
<path d="M92.303 206.762H86.1627L81.3223 204.224H87.462L92.303 206.762Z" fill="#C6C6C6"/>
<path d="M85.8138 203.372H79.6734L74.833 200.834H80.9733L85.8138 203.372Z" fill="#C6C6C6"/>
<path d="M80.3235 200.114H74.1832L69.3428 197.577H75.4831L80.3235 200.114Z" fill="#C6C6C6"/>
<path d="M73.8343 196.724H67.6945L62.8535 194.187H68.9938L73.8343 196.724Z" fill="#C6C6C6"/>
<path d="M99.7137 206.269H93.5729L88.7324 203.732H94.8727L99.7137 206.269Z" fill="#C6C6C6"/>
<path d="M94.2229 203.012H88.0832L83.2422 200.474H89.3825L94.2229 203.012Z" fill="#C6C6C6"/>
<path d="M87.7346 199.622H81.5943L76.7539 197.084H82.8936L87.7346 199.622Z" fill="#C6C6C6"/>
<path d="M101.053 202.407H94.9133L90.0723 199.87H96.2126L101.053 202.407Z" fill="#C6C6C6"/>
<path d="M95.5628 199.15H89.4225L84.582 196.612H90.7223L95.5628 199.15Z" fill="#C6C6C6"/>
<path d="M89.0741 195.76H82.9338L78.0928 193.222H84.2336L89.0741 195.76Z" fill="#C6C6C6"/>
<path d="M123.672 207.068H117.532L112.691 204.531H118.832L123.672 207.068Z" fill="#7E8182"/>
<path d="M117.183 203.678H111.043L106.202 201.141H112.342L117.183 203.678Z" fill="#7E8182"/>
<path d="M111.693 200.421H105.552L100.712 197.883H106.852L111.693 200.421Z" fill="#7E8182"/>
<path d="M105.204 197.03H99.0637L94.2227 194.494H100.364L105.204 197.03Z" fill="#7E8182"/>
<path d="M131.082 206.575H124.942L120.102 204.038H126.242L131.082 206.575Z" fill="#7E8182"/>
<path d="M125.591 203.318H119.452L114.611 200.781H120.752L125.591 203.318Z" fill="#7E8182"/>
<path d="M119.103 199.928H112.963L108.122 197.39H114.262L119.103 199.928Z" fill="#7E8182"/>
<path d="M168.743 225.759H118.881L93.4219 212.387H143.284L168.743 225.759Z" fill="#E1E1E1"/>
<path d="M134.162 224.154H119.651L112.241 220.262H126.753L134.162 224.154Z" fill="#79A7FF"/>
<path d="M138.693 223.909C138.605 223.909 138.514 223.888 138.43 223.844L121.223 214.806C120.945 214.661 120.839 214.318 120.984 214.04C121.13 213.763 121.473 213.658 121.75 213.801L138.957 222.839C139.235 222.985 139.341 223.327 139.196 223.605C139.094 223.798 138.897 223.909 138.693 223.909Z" fill="#C6C6C6"/>
<path d="M144.481 223.576C144.393 223.576 144.302 223.555 144.218 223.511L127.011 214.474C126.733 214.328 126.627 213.986 126.772 213.707C126.918 213.43 127.261 213.325 127.538 213.469L144.745 222.507C145.023 222.652 145.13 222.995 144.984 223.273C144.882 223.466 144.685 223.576 144.481 223.576Z" fill="#C6C6C6"/>
<path d="M152.351 224.076C152.263 224.076 152.172 224.055 152.088 224.011L134.881 214.973C134.604 214.827 134.497 214.485 134.642 214.207C134.789 213.93 135.131 213.825 135.408 213.968L152.616 223.006C152.893 223.152 153 223.494 152.854 223.772C152.752 223.965 152.555 224.076 152.351 224.076Z" fill="#C6C6C6"/>
<path d="M158.141 223.743C158.053 223.743 157.963 223.722 157.878 223.678L140.671 214.64C140.393 214.495 140.287 214.152 140.432 213.874C140.578 213.597 140.921 213.492 141.198 213.636L158.405 222.673C158.683 222.819 158.789 223.161 158.644 223.439C158.542 223.632 158.345 223.743 158.141 223.743Z" fill="#C6C6C6"/>
<path d="M221.043 44.5498C220.996 44.2492 220.54 44.3768 220.586 44.6751C221.29 49.1832 221.993 53.6919 222.695 58.2C222.742 58.5005 223.199 58.3729 223.152 58.0741C222.449 53.566 221.746 49.0579 221.043 44.5498Z" fill="white"/>
<path d="M88.7648 76.4539L78.6693 78.0197C76.3186 80.9229 73.1257 83.2039 69.306 84.4476C58.7626 87.8804 47.433 82.1167 43.9996 71.5732C40.5668 61.0303 46.3311 49.7002 56.874 46.2668C67.4118 42.8362 78.7419 48.5999 82.1748 59.1429C83.1678 62.1929 83.3901 65.3138 82.95 68.2861L88.7648 76.4539Z" fill="white"/>
<path d="M79.0433 58.9157L60.2446 77.7144L50.0244 67.4879L54.9794 62.5329L60.2446 67.7981L74.082 53.9602L79.0433 58.9157Z" fill="#FFC655" fill-opacity="0.4"/>
<path d="M196.578 121.142L183.773 135.513L180.501 144.343L179.831 136.063L178.487 125.973L178.623 124.108L179.389 113.565C177.262 113.764 175.192 113.706 173.247 113.355C165.591 111.994 159.749 106.147 159.017 93.4945C158.57 85.7867 159.522 79.9798 160.809 75.7944C162.698 69.6462 165.324 67.0096 165.324 67.0096C165.324 67.0096 174.903 83.0537 187.595 84.8282C187.595 84.8282 189.92 79.3447 193.545 80.961C197.174 82.5773 197.174 93.4888 191.423 94.918C190.669 102.466 191.769 110.202 194.605 117.24C195.15 118.584 195.779 119.934 196.578 121.142Z" fill="#FFEDE5"/>
<path d="M184.056 89.3995C186.892 89.3995 189.189 91.6964 189.189 94.532C189.189 97.3677 186.892 99.6646 184.056 99.6646C181.221 99.6646 178.924 97.3677 178.924 94.532C178.924 91.6964 181.221 89.3995 184.056 89.3995Z" fill="#F36254" fill-opacity="0.3"/>
<path d="M185.781 112.3L178.986 119.083L179.39 113.564C181.476 113.377 183.625 112.941 185.781 112.3Z" fill="#3B2645"/>
<path d="M178.987 119.083L178.624 124.107C178.624 124.107 171.263 127.409 167.888 135.207C167.157 132.836 167.236 130.244 167.764 127.811C168.359 125.089 169.482 122.519 170.616 119.985C171.586 117.813 172.573 115.629 173.248 113.355C175.193 113.706 177.263 113.763 179.39 113.564L178.987 119.083Z" fill="#3B2645"/>
<path d="M166.822 87.2672L169.742 99.5682C169.742 99.5682 164.655 101.105 163.986 99.8801C163.317 98.6608 166.822 87.2672 166.822 87.2672Z" fill="#F36254" fill-opacity="0.3"/>
<path d="M238.375 135.402C237.823 127.186 233.848 119.519 229.262 112.641C226.138 107.96 222.684 103.475 219.611 98.7698C221.796 100.933 224.017 103.064 226.149 105.275C230.652 109.947 234.916 115.164 237.084 121.367C238.652 125.854 239.039 130.705 238.375 135.402ZM176.112 80.2071C174.517 79.0451 173.063 77.6976 171.688 76.2854C170.341 74.9028 169.018 73.4702 167.911 71.884C167.078 70.689 166.375 69.3886 165.955 67.9986C167.912 70.9612 174.279 79.8011 182.687 83.4165C180.322 82.8103 178.091 81.6493 176.112 80.2071ZM238.401 123.82C236.881 117.601 233.189 112.219 228.984 107.495C225.58 103.671 221.797 100.212 218.209 96.5654C217.085 94.7353 216.034 92.8626 215.096 90.9247C211.579 83.6712 209.736 75.6922 206.118 68.4954C202.494 61.2923 196.42 54.5894 188.457 53.3474C176.763 51.5212 165.602 61.8883 153.97 59.7049C153.511 65.62 155.95 71.6996 160.373 75.6582L160.81 75.7943C162.43 70.52 164.588 67.8358 165.17 67.1779C165.87 70.6607 168.288 73.5252 170.681 76.0552C173.479 79.0139 176.63 81.7639 180.455 83.2906C182.106 83.9496 183.861 84.3568 185.634 84.4294C186.279 84.5956 186.932 84.7357 187.595 84.8281C187.595 84.8281 189.92 79.3445 193.545 80.9609C197.174 82.5772 197.174 93.4887 191.423 94.9179C190.669 102.466 191.769 110.202 194.605 117.24C195.15 118.584 195.779 119.934 196.578 121.142C197.072 121.896 197.634 122.593 198.286 123.206V123.211C198.518 123.427 198.762 123.637 199.023 123.836C204.008 127.641 211.352 125.361 217.223 127.567C222.656 129.609 226.024 135.326 226.909 141.065C227.799 146.804 226.642 152.64 225.497 158.334L225.598 158.368C225.712 158.028 225.82 157.681 225.927 157.342C233.547 154.644 238.061 146.384 238.423 138.256C239.519 133.527 239.555 128.541 238.401 123.82Z" fill="#3B2645"/>
<path d="M164.682 87.3741C164.682 89.1447 163.685 90.5801 162.455 90.5801C161.225 90.5801 160.229 89.1447 160.229 87.3741C160.229 85.6035 161.225 84.1681 162.455 84.1681C163.685 84.1681 164.682 85.6035 164.682 87.3741Z" fill="#3B2645"/>
<path d="M176.223 86.9146C176.223 88.6852 175.226 90.1206 173.997 90.1206C172.767 90.1206 171.77 88.6852 171.77 86.9146C171.77 85.1446 172.767 83.7092 173.997 83.7092C175.226 83.7092 176.223 85.1446 176.223 86.9146Z" fill="#3B2645"/>
<path d="M163.878 79.9728C162.775 79.9144 161.661 80.0227 160.583 80.2632C160.003 80.3919 159.609 81.0952 159.791 81.6583C159.988 82.2669 160.565 82.589 161.186 82.4506C161.453 82.3911 161.723 82.3468 161.994 82.3066C162.619 82.2334 163.249 82.2085 163.878 82.2414C164.471 82.2731 165.039 81.6975 165.012 81.1071C164.984 80.4662 164.514 80.0074 163.878 79.9728Z" fill="#3B2645"/>
<path d="M177.449 80.9893C177.279 80.7256 177.06 80.5849 176.771 80.4681C175.492 79.9515 174.056 79.7501 172.684 79.8891C172.376 79.9203 172.109 79.9951 171.882 80.2214C171.685 80.4182 171.537 80.7409 171.55 81.0233C171.575 81.5865 172.051 82.2217 172.684 82.1576C173.252 82.1003 173.82 82.1105 174.387 82.1729C174.998 82.2682 175.594 82.4241 176.168 82.6555C176.422 82.7582 176.816 82.6737 177.042 82.541C177.277 82.4037 177.502 82.1338 177.563 81.8632C177.629 81.5729 177.615 81.2474 177.449 80.9893Z" fill="#3B2645"/>
<path d="M178.309 103.731C179.131 105.763 178.357 107.992 176.582 108.711C174.806 109.43 172.7 108.365 171.878 106.333C171.055 104.301 171.829 102.072 173.605 101.353C175.38 100.635 177.486 101.699 178.309 103.731Z" fill="#E85B41"/>
<path d="M178.924 100.907C178.924 100.907 180.62 105.756 175.732 107.371C171.75 108.688 170.077 106.073 169.629 105.177L178.924 100.907Z" fill="white" fill-opacity="0.5"/>
<path d="M225.497 158.334L225.598 158.368C224.022 163.262 222.23 168.173 220.42 172.807V172.813C214.829 187.127 209.067 198.804 208.891 199.15C203.367 191.522 193.079 186.458 189.739 184.955C189.053 184.648 188.661 184.49 188.661 184.49L186.557 190.797C186.733 190.961 186.914 191.125 187.085 191.284L168.012 193.825V185.965C168.012 185.965 167.541 184.944 166.844 183.321C165.891 181.11 164.513 177.775 163.362 174.417C162.097 170.731 161.104 167.016 161.224 164.731C161.541 158.844 174.438 136.142 174.438 136.142C174.455 139.414 175.181 142.058 175.181 142.058C175.237 141.706 175.368 141.331 175.561 140.951C175.617 141.196 177.443 148.726 180.852 154.432L188.112 142.058C188.412 142.835 188.707 143.702 188.973 144.655C188.973 144.655 197.026 131.634 198.285 123.211C198.518 123.427 198.762 123.637 199.023 123.836C204.008 127.641 211.352 125.361 217.222 127.567C222.656 129.609 226.024 135.326 226.909 141.065C227.799 146.804 226.642 152.64 225.497 158.334Z" fill="#AB8DA8"/>
<path d="M220.421 172.813L223.818 202.671H208.517L209.787 200.466C209.509 200.018 209.208 199.581 208.891 199.15C209.067 198.804 214.829 187.126 220.421 172.813Z" fill="#543753"/>
<path d="M208.891 199.15C209.209 199.581 209.509 200.018 209.787 200.466L208.517 202.672L202.114 213.816C202.114 213.816 199.862 203.228 187.085 191.284C186.915 191.126 186.733 190.961 186.558 190.797L188.662 184.49C188.662 184.49 189.053 184.648 189.74 184.955C193.08 186.458 203.367 191.522 208.891 199.15Z" fill="#543753"/>
<path d="M202.114 213.816C202.114 213.816 187.465 214.077 146.512 211.712C146.512 211.712 136.945 218.336 133.06 217.916C129.17 217.496 121.496 210.294 119.602 207.3C117.714 204.305 122.653 199.836 122.653 199.836C122.653 199.836 122.704 197.579 125.807 196.263C127.191 195.679 130.984 195.759 134.773 196.025C139.491 196.365 144.199 197 144.199 197L155.593 195.481L168.012 193.825L187.085 191.284C199.862 203.228 202.114 213.816 202.114 213.816Z" fill="#FFEDE5"/>
<path d="M198.285 123.205V123.212C197.026 131.634 188.973 144.655 188.973 144.655C188.706 143.702 188.412 142.834 188.112 142.057C186.166 137.021 183.772 135.513 183.772 135.513L196.578 121.142C197.072 121.896 197.634 122.593 198.285 123.205Z" fill="white"/>
<path d="M188.112 142.057L180.852 154.432C177.444 148.726 175.618 141.195 175.562 140.951C175.562 140.946 175.562 140.946 175.562 140.946C176.701 138.643 179.831 136.062 179.831 136.062L180.501 144.343L183.773 135.513C183.773 135.513 186.166 137.021 188.112 142.057Z" fill="#543753"/>
<path d="M180.495 182.187V173.675H173.383V182.187H180.495ZM174.415 171.933H183.262L183.614 190.059H170.531L170.264 171.933H174.415Z" fill="white"/>
<path d="M180.495 173.675V182.187H173.383V173.675H180.495Z" fill="#79A7FF"/>
<path d="M178.487 125.973L179.831 136.063C179.831 136.063 176.701 138.644 175.561 140.946C175.561 140.946 175.561 140.946 175.561 140.951C175.368 141.331 175.237 141.706 175.181 142.058C175.181 142.058 174.455 139.414 174.438 136.142C174.421 132.666 175.198 128.469 178.487 125.973Z" fill="white"/>
<path d="M176.695 169.171L178.878 171.933H174.415L176.695 169.171Z" fill="#AAACAB"/>
<path d="M167.888 135.206C171.263 127.408 178.624 124.107 178.624 124.107L178.487 125.973C175.198 128.469 174.421 132.666 174.438 136.142C174.438 136.142 161.542 158.844 161.224 164.731C161.105 167.016 162.097 170.731 163.362 174.417L162.591 174.61L157.056 171.922L157.231 171.565C157.231 171.565 164.275 146.599 167.111 137.299C167.332 136.567 167.593 135.869 167.888 135.206Z" fill="#543753"/>
<path d="M168.012 185.964V193.825L155.593 195.481L117.792 195.402C111.395 198.153 108.087 198.3 105.615 197.07C104.605 197.138 100.819 197.556 99.8095 197.618C99.7131 198.707 99.3785 199.677 98.4768 199.677C96.4295 199.677 94.1439 195.106 94.1439 195.106C94.1439 195.106 93.5144 199.677 91.4614 198.577C89.4141 197.471 89.9642 191.215 89.9642 191.215C89.9642 191.215 85.3137 195.775 84.6842 194.057C84.0547 192.333 87.1285 184.149 94.7734 183.44C102.418 182.731 119.682 185.805 119.682 185.805L153.92 180.077L166.845 183.321C167.542 184.943 168.012 185.964 168.012 185.964Z" fill="#FFEDE5"/>
<path d="M166.844 183.321L153.919 180.078C153.125 173.72 155.234 171.037 155.234 171.037L157.055 171.923L163.361 174.417C164.513 177.775 165.891 181.11 166.844 183.321Z" fill="#543753"/>
<path d="M140.828 183.255C141.638 183.811 141.859 184.923 141.366 185.773C137.368 185.257 136.415 183.437 136.415 183.437C136.744 182.881 137.396 182.223 138.038 182.189C138.82 182.155 139.84 182.581 140.828 183.255Z" fill="#F2564A"/>
<path d="M141.366 185.773L138.95 189.942C135.769 189.483 134.067 187.378 134.067 187.378L136.415 183.437C136.415 183.437 137.368 185.257 141.366 185.773Z" fill="#F5776B"/>
<path d="M138.949 189.942L135.184 196.441L128.753 196.305L134.067 187.378C134.067 187.378 135.768 189.482 138.949 189.942Z" fill="#A3ABFE"/>
<path d="M200.914 145.18C199.358 150.081 197.801 154.983 196.244 159.884C194.695 164.763 193.146 169.641 191.596 174.521C190.718 177.286 189.84 180.052 188.962 182.817C188.851 183.166 189.398 183.315 189.509 182.968C191.066 178.067 192.622 173.165 194.178 168.264C195.727 163.385 197.277 158.506 198.826 153.627C199.704 150.861 200.583 148.096 201.461 145.331C201.572 144.982 201.024 144.833 200.914 145.18Z" fill="#3B2645"/>
<path d="M220.14 173.618C216.879 180.103 213.883 186.719 211.162 193.448C210.395 195.346 209.65 197.252 208.926 199.167C208.797 199.508 209.344 199.656 209.473 199.317C212.022 192.575 214.843 185.935 217.933 179.422C218.81 177.573 219.709 175.733 220.63 173.905C220.793 173.58 220.304 173.292 220.14 173.618Z" fill="#3B2645"/>
<path d="M173.665 136.799C170.968 141.8 168.206 146.771 165.588 151.812C163.225 156.36 161.139 161.241 161.157 166.456C161.168 169.168 161.757 171.88 163.103 174.249C163.283 174.567 163.774 174.281 163.593 173.963C161.145 169.653 161.365 164.399 162.776 159.789C163.538 157.302 164.625 154.932 165.808 152.621C167.044 150.206 168.359 147.831 169.647 145.444C171.149 142.658 172.652 139.872 174.155 137.086C174.328 136.765 173.839 136.478 173.665 136.799Z" fill="#3B2645"/>
<path d="M188.085 142.72C185.02 149.651 181.956 156.582 178.892 163.513C178.146 165.202 177.399 166.891 176.653 168.579C175.505 161.671 175.014 154.657 175.205 147.657C175.261 145.58 175.378 143.503 175.552 141.432C175.583 141.069 175.016 141.07 174.985 141.432C174.367 148.797 174.489 156.221 175.361 163.561C175.599 165.57 175.895 167.572 176.241 169.565C176.239 169.616 176.252 169.664 176.274 169.707C176.304 169.8 176.369 169.85 176.446 169.865C176.56 169.909 176.69 169.887 176.756 169.74C176.757 169.736 176.76 169.731 176.762 169.727C176.779 169.699 176.795 169.669 176.801 169.635C179.85 162.739 182.899 155.843 185.948 148.947C186.823 146.967 187.699 144.986 188.574 143.006C188.72 142.675 188.232 142.387 188.085 142.72Z" fill="#3B2645"/>
<path d="M167.612 193.96C163.591 194.354 159.571 194.748 155.552 195.142C155.192 195.178 155.188 195.745 155.552 195.709C159.571 195.315 163.591 194.921 167.612 194.527C167.972 194.492 167.976 193.925 167.612 193.96Z" fill="#3B2645"/>
<path d="M111.532 195.013C108.15 196.084 104.657 196.796 101.123 197.11C100.718 197.146 100.312 197.177 99.9062 197.203C99.5659 197.224 99.2126 197.264 98.8746 197.194C98.6165 197.141 98.3279 197.017 98.3455 196.706C98.367 196.318 98.8598 195.957 99.1145 195.715C100.278 194.613 101.525 193.602 102.845 192.693C104.338 191.665 105.919 190.772 107.565 190.015C107.896 189.863 107.609 189.374 107.279 189.525C104.076 190.998 101.124 193.001 98.5791 195.441C98.1027 195.899 97.4783 196.577 97.936 197.266C98.2638 197.76 98.9642 197.816 99.5001 197.794C101.418 197.714 103.342 197.466 105.232 197.138C107.416 196.759 109.57 196.229 111.682 195.56C112.029 195.45 111.881 194.903 111.532 195.013Z" fill="#3B2645"/>
<path d="M94.432 195.035C93.6863 192.531 93.6761 189.865 94.4048 187.356C94.5069 187.005 93.9596 186.855 93.8581 187.206C93.1021 189.808 93.1112 192.589 93.8853 195.186C93.9891 195.535 94.5364 195.386 94.432 195.035Z" fill="#3B2645"/>
<path d="M92.2969 186.439C92.1523 186.352 92.002 186.42 91.909 186.541C90.853 187.92 90.1327 189.543 89.8151 191.251C89.7488 191.608 90.2955 191.761 90.3619 191.402C90.6721 189.734 91.3679 188.174 92.399 186.827C92.4926 186.705 92.4171 186.511 92.2969 186.439Z" fill="#3B2645"/>
<path d="M179.601 136.045C177.962 137.667 176.424 139.387 174.995 141.195C174.771 141.478 175.169 141.883 175.396 141.596C176.825 139.788 178.363 138.068 180.002 136.446C180.261 136.189 179.861 135.788 179.601 136.045Z" fill="#3B2645"/>
<path d="M189.062 144.071C188.1 140.834 186.428 137.842 184.179 135.324C183.935 135.05 183.535 135.453 183.778 135.725C185.961 138.17 187.581 141.08 188.515 144.223C188.618 144.571 189.166 144.423 189.062 144.071Z" fill="#3B2645"/>
<path d="M180.953 144.816C180.937 144.452 180.37 144.45 180.386 144.816C180.493 147.33 180.6 149.844 180.709 152.358C180.724 152.721 181.291 152.723 181.276 152.358C181.168 149.844 181.06 147.33 180.953 144.816Z" fill="#3B2645"/>
<path d="M183.005 146.262C182.848 145.939 182.426 145.763 182.09 145.894C181.989 145.934 181.898 145.995 181.818 146.069C181.808 146.077 181.796 146.08 181.787 146.09C181.771 146.109 181.763 146.133 181.749 146.152C181.722 146.186 181.687 146.212 181.668 146.25C181.657 146.27 181.657 146.294 181.648 146.315C181.64 146.334 181.638 146.354 181.631 146.372C181.608 146.442 181.592 146.511 181.59 146.585C181.59 146.593 181.586 146.6 181.586 146.608C181.586 146.628 181.595 146.646 181.597 146.667C181.601 146.713 181.595 146.76 181.608 146.806C181.613 146.823 181.626 146.837 181.632 146.855C181.644 146.888 181.662 146.918 181.678 146.95C181.704 147 181.731 147.048 181.767 147.092C181.775 147.101 181.779 147.114 181.787 147.123C181.807 147.144 181.834 147.156 181.856 147.174C181.885 147.199 181.906 147.23 181.938 147.25C181.951 147.258 181.968 147.258 181.98 147.265C182.017 147.284 182.056 147.293 182.095 147.306C182.142 147.322 182.186 147.342 182.235 147.348C182.415 147.374 182.602 147.342 182.749 147.236C182.898 147.128 183.009 146.981 183.059 146.802C183.11 146.619 183.088 146.431 183.005 146.262Z" fill="#3B2645"/>
<path d="M38.3612 196.461L36.6767 210.345L65.6854 208.558V214.343L23.4343 219.073L11.9785 210.345L25.0453 179.419L29.741 168.304L41.4066 171.355L39.9435 183.44L38.3612 196.461Z" fill="#C6C6C6"/>
<path d="M53.8603 91.5264L73.4659 193.689H65.0554L45.3477 91.5264H53.8603Z" fill="#C6C6C6"/>
<path d="M65.6854 208.558L36.6768 210.345L38.3612 196.461L65.6854 208.558Z" fill="#E1E1E1"/>
<path d="M45.348 91.5264L65.0557 193.689L39.9433 183.44L41.4065 171.355L29.7408 168.304L25.0452 179.419L22.9636 178.535L0.255859 91.5264H45.348Z" fill="#E1E1E1"/>
<path d="M60.902 171.85C59.812 165.376 58.6929 158.905 57.5454 152.442C56.3922 145.944 55.21 139.453 53.9994 132.966C52.7945 126.513 51.5605 120.064 50.2987 113.621C49.0369 107.178 47.7462 100.742 46.4275 94.3104C46.2626 93.5066 46.0971 92.7029 45.9316 91.8992C45.8566 91.5375 45.3084 91.6902 45.3829 92.0513C46.709 98.4817 48.0066 104.917 49.2758 111.358C50.545 117.8 51.7857 124.247 52.9975 130.699C54.216 137.184 55.4051 143.674 56.5656 150.17C57.7205 156.633 58.8464 163.102 59.9439 169.575C61.0413 176.049 62.1098 182.527 63.1498 189.01C63.28 189.82 63.4097 190.63 63.5388 191.441C63.5968 191.805 64.1449 191.651 64.0869 191.289C63.0537 184.804 61.9927 178.325 60.902 171.85Z" fill="#828282"/>
<path d="M37.9045 171.113C36.1792 177.263 34.3845 183.393 32.5194 189.502C30.6612 195.589 28.7336 201.656 26.7369 207.698C25.6075 211.116 24.4555 214.528 23.2825 217.932C23.1631 218.277 23.711 218.426 23.829 218.082C25.9108 212.043 27.9241 205.98 29.8674 199.896C31.8037 193.834 33.6705 187.749 35.4678 181.643C36.4847 178.191 37.4787 174.73 38.4515 171.264C38.5496 170.911 38.0028 170.761 37.9045 171.113Z" fill="#3B2645"/>
</svg>
