<svg width="286" height="258" viewBox="0 0 286 258" fill="none" xmlns="http://www.w3.org/2000/svg">
<path d="M145.295 32.3569H143.221V71.9617H145.295V32.3569Z" fill="#9DCEFF"/>
<path d="M146.446 34.3341C149.008 33.3963 150.325 30.5588 149.388 27.9964C148.45 25.4339 145.612 24.1168 143.05 25.0545C140.487 25.9923 139.17 28.8297 140.108 31.3922C141.046 33.9547 143.883 35.2718 146.446 34.3341Z" fill="#92A3FD"/>
<path d="M196.653 49.6177H194.579V89.2224H196.653V49.6177Z" fill="#9DCEFF"/>
<path d="M215.501 70.1743H213.427V109.779H215.501V70.1743Z" fill="#9DCEFF"/>
<path d="M213.427 90.9738V88.8999L59.6495 88.8999V90.9738L213.427 90.9738Z" fill="#9DCEFF"/>
<path d="M97.9007 170.147H99.9746L99.9746 43.2629H97.9007L97.9007 170.147Z" fill="#9DCEFF"/>
<path d="M201.103 49.4652C201.955 45.859 199.723 42.2445 196.117 41.392C192.51 40.5396 188.896 42.7719 188.044 46.3781C187.191 49.9843 189.423 53.5988 193.03 54.4512C196.636 55.3037 200.25 53.0714 201.103 49.4652Z" fill="#92A3FD"/>
<path d="M214.89 70.2351C216.474 70.2351 217.757 68.9516 217.757 67.3683C217.757 65.785 216.474 64.5015 214.89 64.5015C213.307 64.5015 212.023 65.785 212.023 67.3683C212.023 68.9516 213.307 70.2351 214.89 70.2351Z" fill="#92A3FD"/>
<path d="M214.22 114.03C217.185 114.03 219.588 111.627 219.588 108.662C219.588 105.698 217.185 103.294 214.22 103.294C211.256 103.294 208.853 105.698 208.853 108.662C208.853 111.627 211.256 114.03 214.22 114.03Z" fill="#92A3FD"/>
<path d="M116.565 227.483H118.639V187.878H116.565V227.483Z" fill="#9DCEFF"/>
<path d="M117.115 235.29C119.843 235.29 122.055 233.078 122.055 230.349C122.055 227.621 119.843 225.409 117.115 225.409C114.386 225.409 112.174 227.621 112.174 230.349C112.174 233.078 114.386 235.29 117.115 235.29Z" fill="#92A3FD"/>
<path d="M65.1449 210.282H67.2188V170.677H65.1449V210.282Z" fill="#9DCEFF"/>
<path d="M46.3587 189.666H48.4326L48.4326 150.061H46.3587L46.3587 189.666Z" fill="#9DCEFF"/>
<path d="M48.4326 168.865V170.939H228.243V168.865H48.4326Z" fill="#9DCEFF"/>
<path d="M200.983 209.549V207.475H117.077V209.549H200.983Z" fill="#9DCEFF"/>
<path d="M73.6145 213.355C74.4418 209.742 72.1843 206.144 68.5722 205.316C64.9601 204.489 61.3613 206.747 60.534 210.359C59.7068 213.971 61.9643 217.57 65.5764 218.397C69.1884 219.224 72.7872 216.967 73.6145 213.355Z" fill="#92A3FD"/>
<path d="M46.9684 195.399C48.5517 195.399 49.8352 194.116 49.8352 192.532C49.8352 190.949 48.5517 189.666 46.9684 189.666C45.3851 189.666 44.1016 190.949 44.1016 192.532C44.1016 194.116 45.3851 195.399 46.9684 195.399Z" fill="#92A3FD"/>
<path d="M47.5172 152.946C49.1005 152.946 50.384 151.663 50.384 150.079C50.384 148.496 49.1005 147.212 47.5172 147.212C45.9339 147.212 44.6504 148.496 44.6504 150.079C44.6504 151.663 45.9339 152.946 47.5172 152.946Z" fill="#92A3FD"/>
<path d="M201.533 183.138H199.459V222.743H201.533V183.138Z" fill="#9DCEFF"/>
<path d="M220.32 162.583H218.246V202.188H220.32V162.583Z" fill="#9DCEFF"/>
<path d="M200.986 230.918C204.609 230.141 206.917 226.574 206.14 222.951C205.363 219.328 201.796 217.02 198.173 217.797C194.55 218.574 192.242 222.141 193.019 225.764C193.796 229.387 197.362 231.695 200.986 230.918Z" fill="#92A3FD"/>
<path d="M219.77 207.903C221.353 207.903 222.637 206.62 222.637 205.036C222.637 203.453 221.353 202.169 219.77 202.169C218.187 202.169 216.903 203.453 216.903 205.036C216.903 206.62 218.187 207.903 219.77 207.903Z" fill="#92A3FD"/>
<path d="M61.6686 66.6362H59.5947V90.7419H61.6686V66.6362Z" fill="#9DCEFF"/>
<path d="M63.7419 64.0745C63.7419 64.9481 63.3948 65.7859 62.7771 66.4036C62.1594 67.0213 61.3217 67.3683 60.4481 67.3683C59.5745 67.3683 58.7367 67.0213 58.119 66.4036C57.5013 65.7859 57.1543 64.9481 57.1543 64.0745C57.1543 63.201 57.5013 62.3632 58.119 61.7455C58.7367 61.1278 59.5745 60.7808 60.4481 60.7808C61.3217 60.7808 62.1594 61.1278 62.7771 61.7455C63.3948 62.3632 63.7419 63.201 63.7419 64.0745Z" fill="#92A3FD"/>
<path d="M102.964 42.7256C102.964 43.4736 102.742 44.2047 102.327 44.8266C101.911 45.4485 101.32 45.9333 100.629 46.2195C99.9383 46.5057 99.178 46.5806 98.4444 46.4347C97.7108 46.2888 97.0369 45.9286 96.508 45.3997C95.9792 44.8708 95.619 44.197 95.4731 43.4634C95.3271 42.7298 95.402 41.9694 95.6883 41.2784C95.9745 40.5874 96.4592 39.9967 97.0811 39.5812C97.703 39.1656 98.4342 38.9438 99.1822 38.9438C100.185 38.9438 101.147 39.3423 101.856 40.0515C102.565 40.7607 102.964 41.7226 102.964 42.7256Z" fill="#92A3FD"/>
<path d="M184.709 176.117C210.268 150.557 210.268 109.117 184.709 83.5581C159.15 57.9988 117.71 57.9988 92.1504 83.5581C66.591 109.117 66.591 150.557 92.1504 176.117C117.71 201.676 159.15 201.676 184.709 176.117Z" fill="#92A3FD"/>
<path d="M125.227 193.63L157.616 197.961L225.322 185.762L144.014 179.479L124.068 190.153L125.227 193.63Z" fill="#E1E1E1"/>
<path d="M129.863 181.614C129.991 184.192 129.786 186.775 129.253 189.3C126.63 202.292 113.211 197.961 106.684 199.12C101.438 200.035 88.6293 197.595 80.0288 196.01C78.0769 195.583 76.2471 195.278 74.9051 195.095L74.0512 194.912C73.0387 194.74 72.0398 194.495 71.0624 194.18C65.6947 192.228 62.5229 187.531 66.9756 173.685C67.256 172.777 67.6237 171.899 68.0736 171.062C69.9645 162.157 76.613 131.11 78.8699 126.291C81.1267 121.472 85.8844 106.528 102.475 102.076C107.965 100.612 112.235 99.2697 115.59 98.1108C122.299 95.793 124.983 94.2681 124.983 94.2681L165.667 107.565L166.826 108.175C170.12 110.127 179.574 116.044 183.234 122.448C185.064 125.62 186.223 137.575 187.016 150.506C188.053 168.927 188.236 189.3 188.236 189.3L129.863 181.614Z" fill="#3B2645"/>
<path d="M98.5709 116.043C98.5709 116.043 104.365 120.435 104.548 131.048C104.731 141.662 100.157 153.983 101.682 156.301C103.207 158.619 99.7298 165.572 99.7298 165.572L100.706 169.598C100.706 169.598 91.0683 170.391 89.1775 174.417C88.0095 176.84 87.3455 179.476 87.2256 182.163C87.2256 182.163 90.2754 176.552 94.7281 175.027C99.1808 173.502 95.704 178.137 97.2289 178.686C98.7539 179.235 101.316 175.698 104.792 175.393C117.114 174.417 122.664 180.638 122.664 180.638L129.618 176.735C129.618 176.735 111.624 170.94 107.537 171.794C103.451 172.648 103.024 171.672 103.024 171.672C103.024 171.672 104.365 170.574 104.182 169.171C104 167.768 102.475 164.718 102.475 164.718C103.722 162.793 104.629 160.668 105.158 158.436C106.012 154.776 103.207 153.251 104.061 151.238C104.914 149.225 109.184 137.636 108.513 129.158C107.842 120.679 103.146 116.531 98.5709 116.043Z" fill="#AB8DA8"/>
<path d="M171.523 98.1712C170.059 101.465 168.534 104.21 167.436 106.406C162.983 115.311 154.078 117.751 142.915 116.226C131.753 114.701 112.356 101.526 112.356 86.033C112.356 70.54 124.495 60.4146 124.983 55.352C125.288 51.9362 127.849 47.7275 134.193 45.5926C138.07 44.457 142.119 44.0232 146.148 44.3117C161.458 45.0436 167.131 49.4964 169.571 53.9491C179.879 72.9188 175.975 88.1069 171.523 98.1712Z" fill="#3B2645"/>
<path d="M174.633 136.415C174.633 136.415 175.548 135.012 173.23 149.712C171.449 161.52 171.449 173.527 173.23 185.334C174.389 192.654 184.453 171.976 184.026 168.804C183.599 165.632 178.293 152.701 179.208 148.126C180.123 143.552 177.134 129.035 175.304 124.216C173.474 119.397 174.816 130.865 174.633 136.415Z" fill="#17282F"/>
<path d="M157.371 107.198C157.371 107.198 166.399 103.599 169.875 89.3261C173.352 75.053 167.618 69.3804 167.618 69.3804L157.371 107.198Z" fill="#001D36"/>
<path d="M168.656 72.8574V73.5284C168.534 75.0533 168.168 76.5782 168.107 77.9811C167.957 81.0298 167.611 84.0656 167.07 87.0695C166.854 88.3901 166.548 89.6944 166.155 90.9733C164.591 96.4624 161.912 101.57 158.286 105.978C155.786 109.15 150.845 108.967 146.026 106.283C144.66 105.447 143.374 104.487 142.183 103.416C139.522 100.795 137.675 97.46 136.864 93.8135C136.052 90.167 136.311 86.3638 137.609 82.8608C138.654 79.8644 140.437 77.1795 142.793 75.0533L143.525 74.3823L145.477 72.9794C147.917 71.3935 148.771 72.9184 155.42 69.1367C164.752 63.769 165.423 65.8429 167.802 69.7466C168.372 70.6832 168.668 71.761 168.656 72.8574Z" fill="#FFEDE5"/>
<path d="M168.656 72.8574V73.5284C168.107 72.7354 165.789 69.5636 162.8 69.5636C159.811 69.5636 156.334 74.7483 151.394 75.5413C146.453 76.3342 140.963 80.055 139.927 89.3264C139.359 94.1415 140.14 99.0196 142.183 103.416C139.522 100.795 137.675 97.46 136.864 93.8135C136.052 90.167 136.311 86.3638 137.609 82.8608C138.654 79.8644 140.437 77.1795 142.793 75.0533L143.525 74.3823L145.477 72.9794C147.917 71.3935 148.771 72.9184 155.42 69.1367C164.752 63.769 165.423 65.8429 167.802 69.7466C168.372 70.6832 168.668 71.761 168.656 72.8574Z" fill="#E0855C"/>
<path d="M183.904 153.982C183.904 153.982 184.941 129.828 180.489 122.813C176.036 115.799 166.521 108.357 166.521 108.357L166.825 108.174C170.119 110.126 179.574 116.043 183.233 122.447C185.063 125.619 186.222 137.574 187.015 150.506L183.904 153.982Z" fill="#AB8DA8"/>
<path d="M134.071 188.14C134.071 188.14 129.74 195.155 128.093 195.46C126.446 195.765 124.616 195.277 121.506 195.643C118.395 196.009 113.942 191.495 112.356 187.469C110.77 183.444 114.613 179.052 117.663 178.015C120.713 176.978 126.934 176.978 129.13 176.49C131.326 176.002 133.278 177.649 133.278 178.686C133.278 179.723 134.071 188.14 134.071 188.14Z" fill="#17282F"/>
<path d="M165.85 188.079C165.606 188.567 164.081 189.543 162.19 188.811L161.641 188.567C159.567 187.408 157.371 183.87 156.457 183.139C155.542 182.407 149.808 178.198 149.808 178.442C149.808 178.686 149.808 178.503 149.93 178.564C151.089 179.723 154.81 183.931 156.579 185.517C158.347 187.103 159.018 188.384 158.713 189.482C158.654 189.718 158.532 189.933 158.36 190.105C158.189 190.277 157.973 190.399 157.737 190.458C155.542 191.19 152.37 189.299 150.784 187.53C149.198 185.761 147.063 183.626 145.904 182.956C144.745 182.285 142.427 182.468 142.427 182.468H142.488L142.61 182.59C143.378 183.045 144.111 183.555 144.806 184.114H144.867C145.876 184.839 146.797 185.678 147.612 186.615C149.076 188.506 151.638 189.787 151.394 191.251C151.333 191.312 151.333 191.434 151.272 191.495C150.723 192.715 148.1 192.959 146.575 192.105C144.778 190.964 143.047 189.722 141.39 188.384C141.39 188.384 138.646 189.238 135.169 190.702C131.692 192.166 128.093 191.129 125.044 190.092C124.132 189.836 123.336 189.277 122.787 188.506C121.689 186.981 121.933 184.724 124.617 182.59C128.52 179.418 137.365 178.076 138.768 177.222C140.171 176.368 144.562 175.514 145.721 174.172C146.88 172.83 149.93 170.573 153.834 174.172C155.91 176.165 158.133 178 160.482 179.662C161.031 180.455 166.033 187.469 165.85 188.079Z" fill="#FFEDE5"/>
<path d="M168.961 185.518C168.961 186.616 167.802 186.555 166.46 185.945C165.492 185.432 164.625 184.751 163.898 183.932C162.19 181.98 160.482 180.394 160.482 180.394L157.188 178.198L151.089 174.111C151.089 174.111 154.627 172.465 157.066 173.074C159.506 173.684 163.349 178.198 164.691 179.052C164.967 179.214 165.214 179.42 165.423 179.662C165.657 179.855 165.863 180.081 166.033 180.333C167.375 181.858 168.9 184.176 168.961 185.518Z" fill="#FFEDE5"/>
<path d="M118.09 95.9142C118.09 95.9142 115.101 94.0233 114.918 88.3507C114.735 82.678 119.432 85.4839 122.604 91.4005C125.776 97.3171 128.52 94.4503 131.265 97.1951C134.01 99.9399 135.596 105.979 142.549 110.492C149.503 115.006 131.875 108.601 125.898 105.125C122.34 103.011 119.592 99.7694 118.09 95.9142Z" fill="#17282F"/>
<path d="M255.148 136.782L227.639 188.506L158.652 199.974L189.394 136.782H255.148Z" fill="#E1E1E1"/>
<path d="M255.148 136.782L227.639 188.506C221.234 153.19 190.736 138.002 190.736 138.002L201.716 136.782H255.148Z" fill="#E1E1E1"/>
<path d="M174.268 80.4214C174.756 74.5657 171.706 58.5848 162.923 51.5092C155.481 45.5316 139.195 45.4706 134.193 45.5926C138.07 44.457 142.119 44.0232 146.149 44.3117C161.459 45.0436 167.131 49.4964 169.571 53.9491C179.879 72.9188 175.976 88.1069 171.523 98.1712C172.377 93.1695 173.902 84.4471 174.268 80.4214Z" fill="#AB8DA8"/>
<path d="M119.493 101.038C119.493 101.038 99.3036 102.197 90.8251 112.078C82.3467 121.959 75.6371 165.084 72.6483 168.987C69.6595 172.891 68.7445 178.442 68.7445 183.26C68.7445 188.079 73.2582 192.715 80.1508 195.46L81.7977 195.948C85.8234 197.229 80.2118 196.497 74.0512 194.911L71.0624 194.179C65.6947 192.227 62.5229 187.53 66.9756 173.684C67.256 172.776 67.6237 171.898 68.0736 171.061C69.9645 162.156 76.613 131.109 78.8699 126.29C81.1267 121.471 85.8844 106.527 102.475 102.075C107.965 100.611 112.235 99.2688 115.59 98.1099L116.504 98.2929L119.493 101.038Z" fill="#17282F"/>
<path d="M162.922 132.025L149.015 126.23V126.352L133.034 127.633C132.912 135.928 125.593 142.516 125.593 142.516C127.667 163.255 143.892 167.89 143.892 167.89L144.075 167.036C144.075 167.341 144.014 167.585 144.014 167.829C144.014 168.073 159.69 164.658 165.728 146.603C165.728 146.603 161.275 139.405 162.922 132.025Z" fill="#17282F"/>
<path d="M138.158 132.694C136.48 133.516 135.075 134.805 134.112 136.407C133.149 138.008 132.669 139.854 132.73 141.722C132.791 148.431 139.256 150.627 139.256 150.627C139.256 150.627 138.829 158.191 139.683 158.923C140.537 159.655 141.757 159.96 142.367 159.594C142.977 159.228 144.075 152.701 144.075 152.701L144.807 152.823C144.807 152.823 143.648 159.899 144.746 160.814C145.844 161.728 147.003 162.094 147.552 161.424C148.101 160.753 149.626 153.25 149.626 153.25H150.48C150.48 153.25 149.443 159.899 149.626 160.692C149.809 161.484 151.761 161.606 152.188 161.119C152.615 160.631 154.383 153.128 154.383 153.128C156.154 152.327 157.706 151.11 158.906 149.581C160.106 148.051 160.919 146.255 161.276 144.345C162.374 137.879 160.117 133.914 152.919 132.145C147.491 130.803 142.672 130.62 138.158 132.694Z" fill="#FFFFFF"/>
<path d="M139.012 138.855L147.185 146.784C147.185 146.784 136.572 148.309 139.012 138.855Z" fill="#3B2645"/>
<path d="M158.409 141.112L150.662 147.272C150.662 147.272 159.568 149.651 158.409 141.112Z" fill="#3B2645"/>
<path d="M148.466 147.944C148.466 147.944 145.416 149.713 146.514 151.177C147.612 152.641 148.466 147.944 148.466 147.944Z" fill="#3B2645"/>
<path d="M148.954 147.882C148.954 147.882 151.272 150.017 150.235 151.298C149.198 152.579 148.954 147.882 148.954 147.882Z" fill="#3B2645"/>
<path d="M223.857 158.009L218.307 154.898L210.743 155.691C210.377 160.144 207.022 163.498 207.022 163.498C207.632 172.099 213.549 173.502 213.549 173.502C213.549 173.502 213.61 173.258 213.671 173.197C213.623 173.268 213.601 173.355 213.61 173.441C213.61 173.441 219.466 172.038 223.369 164.84C222.791 162.57 222.962 160.174 223.857 158.009Z" fill="#82C5E0"/>
<path d="M212.939 159.045C212.175 159.449 211.527 160.043 211.057 160.769C210.587 161.495 210.311 162.33 210.256 163.193C210.158 163.953 210.315 164.723 210.701 165.385C211.087 166.047 211.681 166.563 212.39 166.852C212.39 166.852 211.842 169.658 212.146 169.963C212.265 170.079 212.414 170.158 212.577 170.191C212.739 170.223 212.908 170.208 213.061 170.146C213.305 170.024 214.037 167.645 214.037 167.645H214.342C214.342 167.645 213.488 170.268 213.793 170.573C214.098 170.878 214.525 171 214.769 170.756C215.254 169.806 215.682 168.829 216.05 167.828H216.355C216.03 168.704 215.765 169.6 215.562 170.512C215.562 170.817 216.233 170.817 216.416 170.634C216.915 169.703 217.363 168.746 217.758 167.767C219.268 167.083 220.45 165.835 221.052 164.291C222.15 161.546 221.723 159.716 219.039 158.862C216.355 158.008 214.952 158.008 212.939 159.045Z" fill="#FFFFFF"/>
<path d="M212.939 161.913L215.562 165.267C215.562 165.267 211.475 165.938 212.939 161.913Z" fill="#B9AEC1"/>
<path d="M220.32 162.888L216.843 165.45C216.843 165.45 219.893 166.365 220.32 162.888Z" fill="#B9AEC1"/>
<path d="M215.989 165.755C215.989 165.755 214.708 166.487 215.013 167.036C215.318 167.585 215.989 165.755 215.989 165.755Z" fill="#B9AEC1"/>
<path d="M216.172 165.693C216.172 165.693 216.843 166.547 216.355 167.035C215.867 167.523 216.172 165.693 216.172 165.693Z" fill="#B9AEC1"/>
<path d="M128.094 195.461L157.372 199.608L158.592 196.315L129.131 192.899L128.094 195.461Z" fill="#B9CBD7"/>
<path d="M156.457 199.364L188.48 136.538L191.408 137.88L158.531 200.401L156.457 199.364Z" fill="#B9CBD7"/>
<path d="M191.407 137.879L255.148 136.781L252.22 136.049L188.479 136.537L191.407 137.879Z" fill="#B9CBD7"/>
<path d="M157.127 63.4026C157.127 63.4026 150.052 68.6482 145.172 70.1121C140.292 71.5761 135.169 76.4557 134.803 83.1653C134.803 83.1653 132.851 77.1877 136.572 73.284C140.292 69.3802 143.891 69.1362 146.514 67.9773C149.137 66.8184 154.016 62.9756 157.127 63.4026Z" fill="#AB8DA8"/>
<path d="M99.8524 156.728C99.8524 156.728 90.215 159.046 84.3594 157.277C84.3594 157.277 92.8378 164.048 99.8524 156.728Z" fill="#AB8DA8"/>
<path d="M98.5105 165.999C98.5105 165.999 82.5295 162.827 75.21 168.56C75.21 168.56 95.2777 167.767 98.5105 165.999Z" fill="#AB8DA8"/>
<path d="M227.5 56.1665C227.5 57.4667 227.278 58.4328 226.834 59.0649C226.39 59.697 225.696 60.0131 224.751 60.0131C223.819 60.0131 223.129 59.705 222.681 59.0889C222.233 58.4688 222.001 57.5447 221.985 56.3165V54.8342C221.985 53.55 222.207 52.5959 222.651 51.9718C223.095 51.3477 223.791 51.0356 224.739 51.0356C225.68 51.0356 226.372 51.3377 226.816 51.9418C227.26 52.5419 227.488 53.47 227.5 54.7262V56.1665ZM226.39 54.6482C226.39 53.7081 226.258 53.0239 225.994 52.5959C225.73 52.1638 225.312 51.9478 224.739 51.9478C224.171 51.9478 223.757 52.1618 223.497 52.5899C223.237 53.0179 223.103 53.6761 223.095 54.5642V56.3405C223.095 57.2846 223.231 57.9828 223.503 58.4348C223.779 58.8829 224.195 59.1069 224.751 59.1069C225.3 59.1069 225.706 58.8949 225.97 58.4708C226.238 58.0468 226.378 57.3787 226.39 56.4665V54.6482ZM232.571 59.8931H231.455V52.4939L229.216 53.316V52.3078L232.397 51.1136H232.571V59.8931ZM241.302 56.1665C241.302 57.4667 241.08 58.4328 240.636 59.0649C240.192 59.697 239.498 60.0131 238.554 60.0131C237.622 60.0131 236.931 59.705 236.483 59.0889C236.035 58.4688 235.803 57.5447 235.787 56.3165V54.8342C235.787 53.55 236.009 52.5959 236.453 51.9718C236.897 51.3477 237.594 51.0356 238.542 51.0356C239.482 51.0356 240.174 51.3377 240.618 51.9418C241.062 52.5419 241.29 53.47 241.302 54.7262V56.1665ZM240.192 54.6482C240.192 53.7081 240.06 53.0239 239.796 52.5959C239.532 52.1638 239.114 51.9478 238.542 51.9478C237.974 51.9478 237.56 52.1618 237.3 52.5899C237.039 53.0179 236.905 53.6761 236.897 54.5642V56.3405C236.897 57.2846 237.033 57.9828 237.306 58.4348C237.582 58.8829 237.998 59.1069 238.554 59.1069C239.102 59.1069 239.508 58.8949 239.772 58.4708C240.04 58.0468 240.18 57.3787 240.192 56.4665V54.6482ZM246.373 59.8931H245.257V52.4939L243.018 53.316V52.3078L246.199 51.1136H246.373V59.8931ZM255.104 56.1665C255.104 57.4667 254.882 58.4328 254.438 59.0649C253.994 59.697 253.3 60.0131 252.356 60.0131C251.424 60.0131 250.734 59.705 250.286 59.0889C249.838 58.4688 249.606 57.5447 249.59 56.3165V54.8342C249.59 53.55 249.812 52.5959 250.256 51.9718C250.7 51.3477 251.396 51.0356 252.344 51.0356C253.284 51.0356 253.976 51.3377 254.42 51.9418C254.864 52.5419 255.092 53.47 255.104 54.7262V56.1665ZM253.994 54.6482C253.994 53.7081 253.862 53.0239 253.598 52.5959C253.334 52.1638 252.916 51.9478 252.344 51.9478C251.776 51.9478 251.362 52.1618 251.102 52.5899C250.842 53.0179 250.708 53.6761 250.7 54.5642V56.3405C250.7 57.2846 250.836 57.9828 251.108 58.4348C251.384 58.8829 251.8 59.1069 252.356 59.1069C252.904 59.1069 253.31 58.8949 253.574 58.4708C253.842 58.0468 253.982 57.3787 253.994 56.4665V54.6482ZM260.175 59.8931H259.059V52.4939L256.821 53.316V52.3078L260.001 51.1136H260.175V59.8931Z" fill="#92A3FD"/>
<path d="M237.193 68.3256C237.193 69.6259 236.971 70.592 236.527 71.2241C236.083 71.8562 235.389 72.1723 234.445 72.1723C233.513 72.1723 232.823 71.8642 232.375 71.2481C231.926 70.628 231.694 69.7039 231.678 68.4757V66.9934C231.678 65.7092 231.9 64.7551 232.345 64.131C232.789 63.5069 233.485 63.1948 234.433 63.1948C235.373 63.1948 236.065 63.4969 236.509 64.101C236.953 64.701 237.181 65.6292 237.193 66.8854V68.3256ZM236.083 66.8074C236.083 65.8672 235.951 65.1831 235.687 64.7551C235.423 64.323 235.005 64.107 234.433 64.107C233.865 64.107 233.451 64.321 233.191 64.7491C232.931 65.1771 232.797 65.8352 232.789 66.7234V68.4997C232.789 69.4438 232.925 70.1419 233.197 70.594C233.473 71.0421 233.889 71.2661 234.445 71.2661C234.993 71.2661 235.399 71.0541 235.663 70.63C235.931 70.2059 236.071 69.5378 236.083 68.6257V66.8074ZM242.264 72.0522H241.148V64.653L238.91 65.4752V64.467L242.09 63.2728H242.264V72.0522ZM250.996 68.3256C250.996 69.6259 250.774 70.592 250.329 71.2241C249.885 71.8562 249.191 72.1723 248.247 72.1723C247.315 72.1723 246.625 71.8642 246.177 71.2481C245.729 70.628 245.497 69.7039 245.481 68.4757V66.9934C245.481 65.7092 245.703 64.7551 246.147 64.131C246.591 63.5069 247.287 63.1948 248.235 63.1948C249.175 63.1948 249.867 63.4969 250.311 64.101C250.755 64.701 250.984 65.6292 250.996 66.8854V68.3256ZM249.885 66.8074C249.885 65.8672 249.753 65.1831 249.489 64.7551C249.225 64.323 248.807 64.107 248.235 64.107C247.667 64.107 247.253 64.321 246.993 64.7491C246.733 65.1771 246.599 65.8352 246.591 66.7234V68.4997C246.591 69.4438 246.727 70.1419 246.999 70.594C247.275 71.0421 247.691 71.2661 248.247 71.2661C248.795 71.2661 249.201 71.0541 249.465 70.63C249.733 70.2059 249.873 69.5378 249.885 68.6257V66.8074ZM256.066 72.0522H254.95V64.653L252.712 65.4752V64.467L255.892 63.2728H256.066V72.0522ZM264.798 68.3256C264.798 69.6259 264.576 70.592 264.132 71.2241C263.688 71.8562 262.993 72.1723 262.049 72.1723C261.117 72.1723 260.427 71.8642 259.979 71.2481C259.531 70.628 259.299 69.7039 259.283 68.4757V66.9934C259.283 65.7092 259.505 64.7551 259.949 64.131C260.393 63.5069 261.089 63.1948 262.037 63.1948C262.977 63.1948 263.67 63.4969 264.114 64.101C264.558 64.701 264.786 65.6292 264.798 66.8854V68.3256ZM263.688 66.8074C263.688 65.8672 263.556 65.1831 263.292 64.7551C263.027 64.323 262.609 64.107 262.037 64.107C261.469 64.107 261.055 64.321 260.795 64.7491C260.535 65.1771 260.401 65.8352 260.393 66.7234V68.4997C260.393 69.4438 260.529 70.1419 260.801 70.594C261.077 71.0421 261.493 71.2661 262.049 71.2661C262.597 71.2661 263.003 71.0541 263.268 70.63C263.536 70.2059 263.676 69.5378 263.688 68.6257V66.8074ZM269.869 72.0522H268.752V64.653L266.514 65.4752V64.467L269.695 63.2728H269.869V72.0522Z" fill="#92A3FD"/>
<path d="M7.2011 165.47C7.2011 166.77 6.97907 167.737 6.535 168.369C6.09092 169.001 5.39681 169.317 4.45266 169.317C3.5205 169.317 2.83039 169.009 2.38232 168.393C1.93425 167.773 1.70221 166.848 1.68621 165.62V164.138C1.68621 162.854 1.90824 161.9 2.35231 161.275C2.79639 160.651 3.4925 160.339 4.44065 160.339C5.38081 160.339 6.07292 160.641 6.51699 161.245C6.96106 161.846 7.1891 162.774 7.2011 164.03V165.47ZM6.09092 163.952C6.09092 163.012 5.9589 162.328 5.69486 161.9C5.43082 161.468 5.01275 161.251 4.44065 161.251C3.87256 161.251 3.45849 161.466 3.19845 161.894C2.93841 162.322 2.80439 162.98 2.79639 163.868V165.644C2.79639 166.588 2.93241 167.286 3.20445 167.739C3.4805 168.187 3.89657 168.411 4.45266 168.411C5.00075 168.411 5.40681 168.199 5.67085 167.775C5.9389 167.35 6.07892 166.682 6.09092 165.77V163.952ZM12.2719 169.197H11.1557V161.798L8.91738 162.62V161.612L12.0979 160.417H12.2719V169.197ZM21.0033 165.47C21.0033 166.77 20.7813 167.737 20.3372 168.369C19.8932 169.001 19.1991 169.317 18.2549 169.317C17.3228 169.317 16.6326 169.009 16.1846 168.393C15.7365 167.773 15.5045 166.848 15.4885 165.62V164.138C15.4885 162.854 15.7105 161.9 16.1546 161.275C16.5986 160.651 17.2947 160.339 18.2429 160.339C19.1831 160.339 19.8752 160.641 20.3192 161.245C20.7633 161.846 20.9913 162.774 21.0033 164.03V165.47ZM19.8932 163.952C19.8932 163.012 19.7611 162.328 19.4971 161.9C19.2331 161.468 18.815 161.251 18.2429 161.251C17.6748 161.251 17.2607 161.466 17.0007 161.894C16.7407 162.322 16.6066 162.98 16.5986 163.868V165.644C16.5986 166.588 16.7347 167.286 17.0067 167.739C17.2827 168.187 17.6988 168.411 18.2549 168.411C18.803 168.411 19.2091 168.199 19.4731 167.775C19.7411 167.35 19.8812 166.682 19.8932 165.77V163.952ZM26.0742 169.197H24.958V161.798L22.7196 162.62V161.612L25.9001 160.417H26.0742V169.197ZM34.8056 165.47C34.8056 166.77 34.5836 167.737 34.1395 168.369C33.6954 169.001 33.0013 169.317 32.0571 169.317C31.125 169.317 30.4349 169.009 29.9868 168.393C29.5387 167.773 29.3067 166.848 29.2907 165.62V164.138C29.2907 162.854 29.5127 161.9 29.9568 161.275C30.4009 160.651 31.097 160.339 32.0451 160.339C32.9853 160.339 33.6774 160.641 34.1215 161.245C34.5656 161.846 34.7936 162.774 34.8056 164.03V165.47ZM33.6954 163.952C33.6954 163.012 33.5634 162.328 33.2994 161.9C33.0353 161.468 32.6172 161.251 32.0451 161.251C31.4771 161.251 31.063 161.466 30.8029 161.894C30.5429 162.322 30.4089 162.98 30.4009 163.868V165.644C30.4009 166.588 30.5369 167.286 30.8089 167.739C31.085 168.187 31.5011 168.411 32.0571 168.411C32.6052 168.411 33.0113 168.199 33.2753 167.775C33.5434 167.35 33.6834 166.682 33.6954 165.77V163.952ZM39.8764 169.197H38.7602V161.798L36.5219 162.62V161.612L39.7024 160.417H39.8764V169.197Z" fill="#92A3FD"/>
<path d="M71.0683 235.963C71.0683 237.264 70.8463 238.23 70.4022 238.862C69.9581 239.494 69.264 239.81 68.3198 239.81C67.3877 239.81 66.6976 239.502 66.2495 238.886C65.8014 238.266 65.5694 237.342 65.5534 236.113V234.631C65.5534 233.347 65.7754 232.393 66.2195 231.769C66.6636 231.145 67.3597 230.833 68.3078 230.833C69.248 230.833 69.9401 231.135 70.3842 231.739C70.8283 232.339 71.0563 233.267 71.0683 234.523V235.963ZM69.9581 234.445C69.9581 233.505 69.8261 232.821 69.562 232.393C69.298 231.961 68.8799 231.745 68.3078 231.745C67.7397 231.745 67.3257 231.959 67.0656 232.387C66.8056 232.815 66.6716 233.473 66.6636 234.361V236.137C66.6636 237.082 66.7996 237.78 67.0716 238.232C67.3477 238.68 67.7638 238.904 68.3198 238.904C68.8679 238.904 69.274 238.692 69.538 238.268C69.8061 237.844 69.9461 237.176 69.9581 236.263V234.445ZM76.1391 239.69H75.0229V232.291L72.7846 233.113V232.105L75.9651 230.911H76.1391V239.69ZM84.8705 235.963C84.8705 237.264 84.6485 238.23 84.2044 238.862C83.7604 239.494 83.0662 239.81 82.1221 239.81C81.1899 239.81 80.4998 239.502 80.0518 238.886C79.6037 238.266 79.3716 237.342 79.3556 236.113V234.631C79.3556 233.347 79.5777 232.393 80.0217 231.769C80.4658 231.145 81.1619 230.833 82.1101 230.833C83.0502 230.833 83.7424 231.135 84.1864 231.739C84.6305 232.339 84.8585 233.267 84.8705 234.523V235.963ZM83.7604 234.445C83.7604 233.505 83.6283 232.821 83.3643 232.393C83.1002 231.961 82.6822 231.745 82.1101 231.745C81.542 231.745 81.1279 231.959 80.8679 232.387C80.6078 232.815 80.4738 233.473 80.4658 234.361V236.137C80.4658 237.082 80.6018 237.78 80.8739 238.232C81.1499 238.68 81.566 238.904 82.1221 238.904C82.6702 238.904 83.0762 238.692 83.3403 238.268C83.6083 237.844 83.7484 237.176 83.7604 236.263V234.445ZM89.9414 239.69H88.8252V232.291L86.5868 233.113V232.105L89.7673 230.911H89.9414V239.69ZM98.6728 235.963C98.6728 237.264 98.4507 238.23 98.0067 238.862C97.5626 239.494 96.8685 239.81 95.9243 239.81C94.9922 239.81 94.3021 239.502 93.854 238.886C93.4059 238.266 93.1739 237.342 93.1579 236.113V234.631C93.1579 233.347 93.3799 232.393 93.824 231.769C94.2681 231.145 94.9642 230.833 95.9123 230.833C96.8525 230.833 97.5446 231.135 97.9887 231.739C98.4327 232.339 98.6608 233.267 98.6728 234.523V235.963ZM97.5626 234.445C97.5626 233.505 97.4306 232.821 97.1665 232.393C96.9025 231.961 96.4844 231.745 95.9123 231.745C95.3442 231.745 94.9302 231.959 94.6701 232.387C94.4101 232.815 94.2761 233.473 94.2681 234.361V236.137C94.2681 237.082 94.4041 237.78 94.6761 238.232C94.9522 238.68 95.3682 238.904 95.9243 238.904C96.4724 238.904 96.8785 238.692 97.1425 238.268C97.4106 237.844 97.5506 237.176 97.5626 236.263V234.445ZM103.744 239.69H102.627V232.291L100.389 233.113V232.105L103.57 230.911H103.744V239.69Z" fill="#92A3FD"/>
<path d="M78.496 222.549C78.496 223.849 78.274 224.816 77.8299 225.448C77.3858 226.08 76.6917 226.396 75.7476 226.396C74.8154 226.396 74.1253 226.088 73.6772 225.472C73.2292 224.852 72.9971 223.927 72.9811 222.699V221.217C72.9811 219.933 73.2032 218.979 73.6472 218.355C74.0913 217.73 74.7874 217.418 75.7356 217.418C76.6757 217.418 77.3678 217.72 77.8119 218.325C78.256 218.925 78.484 219.853 78.496 221.109V222.549ZM77.3858 221.031C77.3858 220.091 77.2538 219.407 76.9898 218.979C76.7257 218.547 76.3077 218.331 75.7356 218.331C75.1675 218.331 74.7534 218.545 74.4934 218.973C74.2333 219.401 74.0993 220.059 74.0913 220.947V222.723C74.0913 223.667 74.2273 224.366 74.4994 224.818C74.7754 225.266 75.1915 225.49 75.7476 225.49C76.2957 225.49 76.7017 225.278 76.9658 224.854C77.2338 224.43 77.3738 223.761 77.3858 222.849V221.031ZM83.5669 226.276H82.4507V218.877L80.2123 219.699V218.691L83.3928 217.496H83.5669V226.276ZM92.2983 222.549C92.2983 223.849 92.0762 224.816 91.6322 225.448C91.1881 226.08 90.494 226.396 89.5498 226.396C88.6177 226.396 87.9276 226.088 87.4795 225.472C87.0314 224.852 86.7994 223.927 86.7834 222.699V221.217C86.7834 219.933 87.0054 218.979 87.4495 218.355C87.8936 217.73 88.5897 217.418 89.5378 217.418C90.478 217.418 91.1701 217.72 91.6142 218.325C92.0582 218.925 92.2863 219.853 92.2983 221.109V222.549ZM91.1881 221.031C91.1881 220.091 91.0561 219.407 90.792 218.979C90.528 218.547 90.1099 218.331 89.5378 218.331C88.9697 218.331 88.5557 218.545 88.2956 218.973C88.0356 219.401 87.9016 220.059 87.8936 220.947V222.723C87.8936 223.667 88.0296 224.366 88.3016 224.818C88.5777 225.266 88.9937 225.49 89.5498 225.49C90.0979 225.49 90.504 225.278 90.768 224.854C91.0361 224.43 91.1761 223.761 91.1881 222.849V221.031ZM97.3691 226.276H96.2529V218.877L94.0146 219.699V218.691L97.1951 217.496H97.3691V226.276ZM106.101 222.549C106.101 223.849 105.878 224.816 105.434 225.448C104.99 226.08 104.296 226.396 103.352 226.396C102.42 226.396 101.73 226.088 101.282 225.472C100.834 224.852 100.602 223.927 100.586 222.699V221.217C100.586 219.933 100.808 218.979 101.252 218.355C101.696 217.73 102.392 217.418 103.34 217.418C104.28 217.418 104.972 217.72 105.416 218.325C105.86 218.925 106.089 219.853 106.101 221.109V222.549ZM104.99 221.031C104.99 220.091 104.858 219.407 104.594 218.979C104.33 218.547 103.912 218.331 103.34 218.331C102.772 218.331 102.358 218.545 102.098 218.973C101.838 219.401 101.704 220.059 101.696 220.947V222.723C101.696 223.667 101.832 224.366 102.104 224.818C102.38 225.266 102.796 225.49 103.352 225.49C103.9 225.49 104.306 225.278 104.57 224.854C104.838 224.43 104.978 223.761 104.99 222.849V221.031ZM111.171 226.276H110.055V218.877L107.817 219.699V218.691L110.997 217.496H111.171V226.276Z" fill="#92A3FD"/>
<path d="M14.9628 78.8559C14.9628 80.1561 14.7408 81.1223 14.2967 81.7544C13.8526 82.3865 13.1585 82.7025 12.2144 82.7025C11.2822 82.7025 10.5921 82.3945 10.144 81.7784C9.69597 81.1583 9.46393 80.2341 9.44792 79.0059V77.5237C9.44792 76.2395 9.66996 75.2853 10.114 74.6612C10.5581 74.0371 11.2542 73.7251 12.2024 73.7251C13.1425 73.7251 13.8346 74.0271 14.2787 74.6312C14.7228 75.2313 14.9508 76.1595 14.9628 77.4157V78.8559ZM13.8526 77.3377C13.8526 76.3975 13.7206 75.7134 13.4566 75.2853C13.1925 74.8533 12.7745 74.6372 12.2024 74.6372C11.6343 74.6372 11.2202 74.8513 10.9602 75.2793C10.7001 75.7074 10.5661 76.3655 10.5581 77.2537V79.0299C10.5581 79.9741 10.6941 80.6722 10.9662 81.1243C11.2422 81.5724 11.6583 81.7964 12.2144 81.7964C12.7625 81.7964 13.1685 81.5844 13.4326 81.1603C13.7006 80.7362 13.8406 80.0681 13.8526 79.156V77.3377ZM20.0336 82.5825H18.9175V75.1833L16.6791 76.0054V74.9973L19.8596 73.8031H20.0336V82.5825ZM28.7651 78.8559C28.7651 80.1561 28.543 81.1223 28.099 81.7544C27.6549 82.3865 26.9608 82.7025 26.0166 82.7025C25.0845 82.7025 24.3944 82.3945 23.9463 81.7784C23.4982 81.1583 23.2662 80.2341 23.2502 79.0059V77.5237C23.2502 76.2395 23.4722 75.2853 23.9163 74.6612C24.3604 74.0371 25.0565 73.7251 26.0046 73.7251C26.9448 73.7251 27.6369 74.0271 28.081 74.6312C28.525 75.2313 28.7531 76.1595 28.7651 77.4157V78.8559ZM27.6549 77.3377C27.6549 76.3975 27.5229 75.7134 27.2588 75.2853C26.9948 74.8533 26.5767 74.6372 26.0046 74.6372C25.4365 74.6372 25.0225 74.8513 24.7624 75.2793C24.5024 75.7074 24.3684 76.3655 24.3604 77.2537V79.0299C24.3604 79.9741 24.4964 80.6722 24.7684 81.1243C25.0445 81.5724 25.4605 81.7964 26.0166 81.7964C26.5647 81.7964 26.9708 81.5844 27.2348 81.1603C27.5029 80.7362 27.6429 80.0681 27.6549 79.156V77.3377ZM33.8359 82.5825H32.7197V75.1833L30.4813 76.0054V74.9973L33.6619 73.8031H33.8359V82.5825ZM42.5673 78.8559C42.5673 80.1561 42.3453 81.1223 41.9012 81.7544C41.4571 82.3865 40.763 82.7025 39.8189 82.7025C38.8867 82.7025 38.1966 82.3945 37.7485 81.7784C37.3005 81.1583 37.0684 80.2341 37.0524 79.0059V77.5237C37.0524 76.2395 37.2745 75.2853 37.7185 74.6612C38.1626 74.0371 38.8587 73.7251 39.8069 73.7251C40.747 73.7251 41.4391 74.0271 41.8832 74.6312C42.3273 75.2313 42.5553 76.1595 42.5673 77.4157V78.8559ZM41.4571 77.3377C41.4571 76.3975 41.3251 75.7134 41.0611 75.2853C40.797 74.8533 40.379 74.6372 39.8069 74.6372C39.2388 74.6372 38.8247 74.8513 38.5647 75.2793C38.3046 75.7074 38.1706 76.3655 38.1626 77.2537V79.0299C38.1626 79.9741 38.2986 80.6722 38.5707 81.1243C38.8467 81.5724 39.2628 81.7964 39.8189 81.7964C40.367 81.7964 40.773 81.5844 41.0371 81.1603C41.3051 80.7362 41.4451 80.0681 41.4571 79.156V77.3377ZM47.6381 82.5825H46.522V75.1833L44.2836 76.0054V74.9973L47.4641 73.8031H47.6381V82.5825Z" fill="#92A3FD"/>
<path d="M19.1601 92.392C19.1601 93.6923 18.9381 94.6584 18.494 95.2905C18.0499 95.9226 17.3558 96.2387 16.4116 96.2387C15.4795 96.2387 14.7894 95.9306 14.3413 95.3145C13.8932 94.6944 13.6612 93.7703 13.6452 92.5421V91.0598C13.6452 89.7756 13.8672 88.8215 14.3113 88.1974C14.7554 87.5733 15.4515 87.2612 16.3996 87.2612C17.3398 87.2612 18.0319 87.5633 18.476 88.1674C18.92 88.7675 19.1481 89.6956 19.1601 90.9518V92.392ZM18.0499 90.8738C18.0499 89.9336 17.9179 89.2495 17.6538 88.8215C17.3898 88.3894 16.9717 88.1734 16.3996 88.1734C15.8315 88.1734 15.4175 88.3874 15.1574 88.8155C14.8974 89.2435 14.7634 89.9016 14.7554 90.7898V92.5661C14.7554 93.5102 14.8914 94.2083 15.1634 94.6604C15.4395 95.1085 15.8556 95.3325 16.4116 95.3325C16.9597 95.3325 17.3658 95.1205 17.6298 94.6964C17.8979 94.2724 18.0379 93.6042 18.0499 92.6921V90.8738ZM24.2309 96.1187H23.1147V88.7194L20.8764 89.5416V88.5334L24.0569 87.3392H24.2309V96.1187ZM32.9623 92.392C32.9623 93.6923 32.7403 94.6584 32.2962 95.2905C31.8522 95.9226 31.158 96.2387 30.2139 96.2387C29.2817 96.2387 28.5916 95.9306 28.1435 95.3145C27.6955 94.6944 27.4634 93.7703 27.4474 92.5421V91.0598C27.4474 89.7756 27.6695 88.8215 28.1135 88.1974C28.5576 87.5733 29.2537 87.2612 30.2019 87.2612C31.142 87.2612 31.8342 87.5633 32.2782 88.1674C32.7223 88.7675 32.9503 89.6956 32.9623 90.9518V92.392ZM31.8522 90.8738C31.8522 89.9336 31.7201 89.2495 31.4561 88.8215C31.192 88.3894 30.774 88.1734 30.2019 88.1734C29.6338 88.1734 29.2197 88.3874 28.9597 88.8155C28.6996 89.2435 28.5656 89.9016 28.5576 90.7898V92.5661C28.5576 93.5102 28.6936 94.2083 28.9657 94.6604C29.2417 95.1085 29.6578 95.3325 30.2139 95.3325C30.762 95.3325 31.168 95.1205 31.4321 94.6964C31.7001 94.2724 31.8402 93.6042 31.8522 92.6921V90.8738ZM38.0332 96.1187H36.917V88.7194L34.6786 89.5416V88.5334L37.8591 87.3392H38.0332V96.1187ZM46.7646 92.392C46.7646 93.6923 46.5425 94.6584 46.0985 95.2905C45.6544 95.9226 44.9603 96.2387 44.0161 96.2387C43.084 96.2387 42.3939 95.9306 41.9458 95.3145C41.4977 94.6944 41.2657 93.7703 41.2497 92.5421V91.0598C41.2497 89.7756 41.4717 88.8215 41.9158 88.1974C42.3599 87.5733 43.056 87.2612 44.0041 87.2612C44.9443 87.2612 45.6364 87.5633 46.0805 88.1674C46.5245 88.7675 46.7526 89.6956 46.7646 90.9518V92.392ZM45.6544 90.8738C45.6544 89.9336 45.5224 89.2495 45.2583 88.8215C44.9943 88.3894 44.5762 88.1734 44.0041 88.1734C43.436 88.1734 43.022 88.3874 42.7619 88.8155C42.5019 89.2435 42.3679 89.9016 42.3599 90.7898V92.5661C42.3599 93.5102 42.4959 94.2083 42.7679 94.6604C43.044 95.1085 43.46 95.3325 44.0161 95.3325C44.5642 95.3325 44.9703 95.1205 45.2343 94.6964C45.5024 94.2724 45.6424 93.6042 45.6544 92.6921V90.8738ZM51.8354 96.1187H50.7192V88.7194L48.4809 89.5416V88.5334L51.6614 87.3392H51.8354V96.1187Z" fill="#92A3FD"/>
<path d="M235.683 213.286C235.683 214.586 235.461 215.552 235.016 216.184C234.572 216.816 233.878 217.132 232.934 217.132C232.002 217.132 231.312 216.824 230.864 216.208C230.416 215.588 230.184 214.664 230.168 213.436V211.953C230.168 210.669 230.39 209.715 230.834 209.091C231.278 208.467 231.974 208.155 232.922 208.155C233.862 208.155 234.554 208.457 234.998 209.061C235.443 209.661 235.671 210.589 235.683 211.845V213.286ZM234.572 211.767C234.572 210.827 234.44 210.143 234.176 209.715C233.912 209.283 233.494 209.067 232.922 209.067C232.354 209.067 231.94 209.281 231.68 209.709C231.42 210.137 231.286 210.795 231.278 211.683V213.46C231.278 214.404 231.414 215.102 231.686 215.554C231.962 216.002 232.378 216.226 232.934 216.226C233.482 216.226 233.888 216.014 234.152 215.59C234.42 215.166 234.56 214.498 234.572 213.586V211.767ZM240.753 217.012H239.637V209.613L237.399 210.435V209.427L240.579 208.233H240.753V217.012ZM249.485 213.286C249.485 214.586 249.263 215.552 248.819 216.184C248.375 216.816 247.681 217.132 246.736 217.132C245.804 217.132 245.114 216.824 244.666 216.208C244.218 215.588 243.986 214.664 243.97 213.436V211.953C243.97 210.669 244.192 209.715 244.636 209.091C245.08 208.467 245.776 208.155 246.724 208.155C247.664 208.155 248.357 208.457 248.801 209.061C249.245 209.661 249.473 210.589 249.485 211.845V213.286ZM248.375 211.767C248.375 210.827 248.243 210.143 247.979 209.715C247.715 209.283 247.296 209.067 246.724 209.067C246.156 209.067 245.742 209.281 245.482 209.709C245.222 210.137 245.088 210.795 245.08 211.683V213.46C245.08 214.404 245.216 215.102 245.488 215.554C245.764 216.002 246.18 216.226 246.736 216.226C247.284 216.226 247.691 216.014 247.955 215.59C248.223 215.166 248.363 214.498 248.375 213.586V211.767ZM254.556 217.012H253.439V209.613L251.201 210.435V209.427L254.382 208.233H254.556V217.012ZM263.287 213.286C263.287 214.586 263.065 215.552 262.621 216.184C262.177 216.816 261.483 217.132 260.539 217.132C259.606 217.132 258.916 216.824 258.468 216.208C258.02 215.588 257.788 214.664 257.772 213.436V211.953C257.772 210.669 257.994 209.715 258.438 209.091C258.882 208.467 259.578 208.155 260.527 208.155C261.467 208.155 262.159 208.457 262.603 209.061C263.047 209.661 263.275 210.589 263.287 211.845V213.286ZM262.177 211.767C262.177 210.827 262.045 210.143 261.781 209.715C261.517 209.283 261.099 209.067 260.527 209.067C259.958 209.067 259.544 209.281 259.284 209.709C259.024 210.137 258.89 210.795 258.882 211.683V213.46C258.882 214.404 259.018 215.102 259.29 215.554C259.566 216.002 259.983 216.226 260.539 216.226C261.087 216.226 261.493 216.014 261.757 215.59C262.025 215.166 262.165 214.498 262.177 213.586V211.767ZM268.358 217.012H267.242V209.613L265.003 210.435V209.427L268.184 208.233H268.358V217.012Z" fill="#92A3FD"/>
<path d="M243.476 201.656C243.476 202.957 243.254 203.923 242.81 204.555C242.366 205.187 241.672 205.503 240.728 205.503C239.796 205.503 239.106 205.195 238.658 204.579C238.21 203.959 237.978 203.035 237.962 201.806V200.324C237.962 199.04 238.184 198.086 238.628 197.462C239.072 196.838 239.768 196.526 240.716 196.526C241.656 196.526 242.348 196.828 242.792 197.432C243.236 198.032 243.464 198.96 243.476 200.216V201.656ZM242.366 200.138C242.366 199.198 242.234 198.514 241.97 198.086C241.706 197.654 241.288 197.438 240.716 197.438C240.148 197.438 239.734 197.652 239.474 198.08C239.214 198.508 239.08 199.166 239.072 200.054V201.83C239.072 202.775 239.208 203.473 239.48 203.925C239.756 204.373 240.172 204.597 240.728 204.597C241.276 204.597 241.682 204.385 241.946 203.961C242.214 203.537 242.354 202.869 242.366 201.956V200.138ZM248.547 205.383H247.431V197.984L245.193 198.806V197.798L248.373 196.604H248.547V205.383ZM257.279 201.656C257.279 202.957 257.057 203.923 256.613 204.555C256.169 205.187 255.474 205.503 254.53 205.503C253.598 205.503 252.908 205.195 252.46 204.579C252.012 203.959 251.78 203.035 251.764 201.806V200.324C251.764 199.04 251.986 198.086 252.43 197.462C252.874 196.838 253.57 196.526 254.518 196.526C255.458 196.526 256.151 196.828 256.595 197.432C257.039 198.032 257.267 198.96 257.279 200.216V201.656ZM256.169 200.138C256.169 199.198 256.037 198.514 255.772 198.086C255.508 197.654 255.09 197.438 254.518 197.438C253.95 197.438 253.536 197.652 253.276 198.08C253.016 198.508 252.882 199.166 252.874 200.054V201.83C252.874 202.775 253.01 203.473 253.282 203.925C253.558 204.373 253.974 204.597 254.53 204.597C255.078 204.597 255.484 204.385 255.748 203.961C256.017 203.537 256.157 202.869 256.169 201.956V200.138ZM262.35 205.383H261.233V197.984L258.995 198.806V197.798L262.176 196.604H262.35V205.383ZM271.081 201.656C271.081 202.957 270.859 203.923 270.415 204.555C269.971 205.187 269.277 205.503 268.333 205.503C267.4 205.503 266.71 205.195 266.262 204.579C265.814 203.959 265.582 203.035 265.566 201.806V200.324C265.566 199.04 265.788 198.086 266.232 197.462C266.676 196.838 267.372 196.526 268.321 196.526C269.261 196.526 269.953 196.828 270.397 197.432C270.841 198.032 271.069 198.96 271.081 200.216V201.656ZM269.971 200.138C269.971 199.198 269.839 198.514 269.575 198.086C269.311 197.654 268.893 197.438 268.321 197.438C267.752 197.438 267.338 197.652 267.078 198.08C266.818 198.508 266.684 199.166 266.676 200.054V201.83C266.676 202.775 266.812 203.473 267.084 203.925C267.36 204.373 267.776 204.597 268.333 204.597C268.881 204.597 269.287 204.385 269.551 203.961C269.819 203.537 269.959 202.869 269.971 201.956V200.138ZM276.152 205.383H275.036V197.984L272.797 198.806V197.798L275.978 196.604H276.152V205.383Z" fill="#92A3FD"/>
<path d="M95.0341 8.00191C95.0341 9.30212 94.8121 10.2683 94.368 10.9004C93.9239 11.5325 93.2298 11.8485 92.2857 11.8485C91.3535 11.8485 90.6634 11.5405 90.2153 10.9244C89.7673 10.3043 89.5352 9.38013 89.5192 8.15193V6.66969C89.5192 5.38548 89.7412 4.43133 90.1853 3.80723C90.6294 3.18313 91.3255 2.87107 92.2737 2.87107C93.2138 2.87107 93.9059 3.17312 94.35 3.77722C94.7941 4.37732 95.0221 5.30547 95.0341 6.56167V8.00191ZM93.9239 6.48366C93.9239 5.54351 93.7919 4.8594 93.5279 4.43133C93.2638 3.99926 92.8458 3.78322 92.2737 3.78322C91.7056 3.78322 91.2915 3.99726 91.0315 4.42533C90.7714 4.8534 90.6374 5.5115 90.6294 6.39965V8.17594C90.6294 9.12009 90.7654 9.8182 91.0375 10.2703C91.3135 10.7184 91.7296 10.9424 92.2857 10.9424C92.8338 10.9424 93.2398 10.7304 93.5039 10.3063C93.7719 9.88222 93.9119 9.21411 93.9239 8.30196V6.48366ZM100.105 11.7285H98.9888V4.32931L96.7504 5.15145V4.14328L99.9309 2.94909H100.105V11.7285ZM108.836 8.00191C108.836 9.30212 108.614 10.2683 108.17 10.9004C107.726 11.5325 107.032 11.8485 106.088 11.8485C105.156 11.8485 104.466 11.5405 104.018 10.9244C103.57 10.3043 103.337 9.38013 103.321 8.15193V6.66969C103.321 5.38548 103.543 4.43133 103.988 3.80723C104.432 3.18313 105.128 2.87107 106.076 2.87107C107.016 2.87107 107.708 3.17312 108.152 3.77722C108.596 4.37732 108.824 5.30547 108.836 6.56167V8.00191ZM107.726 6.48366C107.726 5.54351 107.594 4.8594 107.33 4.43133C107.066 3.99926 106.648 3.78322 106.076 3.78322C105.508 3.78322 105.094 3.99726 104.834 4.42533C104.574 4.8534 104.44 5.5115 104.432 6.39965V8.17594C104.432 9.12009 104.568 9.8182 104.84 10.2703C105.116 10.7184 105.532 10.9424 106.088 10.9424C106.636 10.9424 107.042 10.7304 107.306 10.3063C107.574 9.88222 107.714 9.21411 107.726 8.30196V6.48366ZM113.907 11.7285H112.791V4.32931L110.553 5.15145V4.14328L113.733 2.94909H113.907V11.7285ZM122.639 8.00191C122.639 9.30212 122.417 10.2683 121.972 10.9004C121.528 11.5325 120.834 11.8485 119.89 11.8485C118.958 11.8485 118.268 11.5405 117.82 10.9244C117.372 10.3043 117.14 9.38013 117.124 8.15193V6.66969C117.124 5.38548 117.346 4.43133 117.79 3.80723C118.234 3.18313 118.93 2.87107 119.878 2.87107C120.818 2.87107 121.51 3.17312 121.954 3.77722C122.399 4.37732 122.627 5.30547 122.639 6.56167V8.00191ZM121.528 6.48366C121.528 5.54351 121.396 4.8594 121.132 4.43133C120.868 3.99926 120.45 3.78322 119.878 3.78322C119.31 3.78322 118.896 3.99726 118.636 4.42533C118.376 4.8534 118.242 5.5115 118.234 6.39965V8.17594C118.234 9.12009 118.37 9.8182 118.642 10.2703C118.918 10.7184 119.334 10.9424 119.89 10.9424C120.438 10.9424 120.844 10.7304 121.108 10.3063C121.376 9.88222 121.516 9.21411 121.528 8.30196V6.48366ZM127.709 11.7285H126.593V4.32931L124.355 5.15145V4.14328L127.535 2.94909H127.709V11.7285Z" fill="#92A3FD"/>
<path d="M103.178 23.957C103.178 25.2572 102.956 26.2234 102.512 26.8555C102.067 27.4876 101.373 27.8036 100.429 27.8036C99.4971 27.8036 98.807 27.4956 98.3589 26.8795C97.9108 26.2594 97.6788 25.3352 97.6628 24.107V22.6248C97.6628 21.3406 97.8848 20.3864 98.3289 19.7623C98.7729 19.1382 99.4691 18.8262 100.417 18.8262C101.357 18.8262 102.049 19.1282 102.494 19.7323C102.938 20.3324 103.166 21.2605 103.178 22.5168V23.957ZM102.067 22.4387C102.067 21.4986 101.935 20.8145 101.671 20.3864C101.407 19.9543 100.989 19.7383 100.417 19.7383C99.8491 19.7383 99.4351 19.9523 99.175 20.3804C98.915 20.8085 98.781 21.4666 98.7729 22.3547V24.131C98.7729 25.0752 98.909 25.7733 99.181 26.2254C99.4571 26.6734 99.8731 26.8975 100.429 26.8975C100.977 26.8975 101.383 26.6854 101.647 26.2614C101.915 25.8373 102.055 25.1692 102.067 24.257V22.4387ZM108.248 27.6836H107.132V20.2844L104.894 21.1065V20.0984L108.074 18.9042H108.248V27.6836ZM116.98 23.957C116.98 25.2572 116.758 26.2234 116.314 26.8555C115.87 27.4876 115.176 27.8036 114.231 27.8036C113.299 27.8036 112.609 27.4956 112.161 26.8795C111.713 26.2594 111.481 25.3352 111.465 24.107V22.6248C111.465 21.3406 111.687 20.3864 112.131 19.7623C112.575 19.1382 113.271 18.8262 114.219 18.8262C115.16 18.8262 115.852 19.1282 116.296 19.7323C116.74 20.3324 116.968 21.2605 116.98 22.5168V23.957ZM115.87 22.4387C115.87 21.4986 115.738 20.8145 115.474 20.3864C115.21 19.9543 114.792 19.7383 114.219 19.7383C113.651 19.7383 113.237 19.9523 112.977 20.3804C112.717 20.8085 112.583 21.4666 112.575 22.3547V24.131C112.575 25.0752 112.711 25.7733 112.983 26.2254C113.259 26.6734 113.675 26.8975 114.231 26.8975C114.78 26.8975 115.186 26.6854 115.45 26.2614C115.718 25.8373 115.858 25.1692 115.87 24.257V22.4387ZM122.051 27.6836H120.935V20.2844L118.696 21.1065V20.0984L121.877 18.9042H122.051V27.6836ZM130.782 23.957C130.782 25.2572 130.56 26.2234 130.116 26.8555C129.672 27.4876 128.978 27.8036 128.034 27.8036C127.102 27.8036 126.411 27.4956 125.963 26.8795C125.515 26.2594 125.283 25.3352 125.267 24.107V22.6248C125.267 21.3406 125.489 20.3864 125.933 19.7623C126.377 19.1382 127.074 18.8262 128.022 18.8262C128.962 18.8262 129.654 19.1282 130.098 19.7323C130.542 20.3324 130.77 21.2605 130.782 22.5168V23.957ZM129.672 22.4387C129.672 21.4986 129.54 20.8145 129.276 20.3864C129.012 19.9543 128.594 19.7383 128.022 19.7383C127.454 19.7383 127.04 19.9523 126.78 20.3804C126.519 20.8085 126.385 21.4666 126.377 22.3547V24.131C126.377 25.0752 126.513 25.7733 126.786 26.2254C127.062 26.6734 127.478 26.8975 128.034 26.8975C128.582 26.8975 128.988 26.6854 129.252 26.2614C129.52 25.8373 129.66 25.1692 129.672 24.257V22.4387ZM135.853 27.6836H134.737V20.2844L132.498 21.1065V20.0984L135.679 18.9042H135.853V27.6836Z" fill="#92A3FD"/>
<path d="M200.557 12.4106H176.22C175.173 12.4264 174.174 12.8491 173.434 13.5893C172.693 14.3294 172.271 15.3288 172.255 16.3754V30.1605C172.271 31.2071 172.693 32.2064 173.434 32.9466C174.174 33.6867 175.173 34.1095 176.22 34.1252H200.557C201.609 34.1252 202.617 33.7075 203.361 32.964C204.104 32.2205 204.522 31.212 204.522 30.1605V16.3754C204.522 15.3239 204.104 14.3154 203.361 13.5719C202.617 12.8284 201.609 12.4106 200.557 12.4106ZM203.302 30.1605C203.302 30.8885 203.013 31.5866 202.498 32.1014C201.983 32.6161 201.285 32.9053 200.557 32.9053H176.22C175.502 32.8894 174.82 32.5932 174.318 32.0801C173.816 31.5671 173.536 30.878 173.536 30.1605V16.3754C173.536 15.6579 173.816 14.9688 174.318 14.4558C174.82 13.9427 175.502 13.6465 176.22 13.6306H200.557C201.285 13.6306 201.983 13.9198 202.498 14.4345C203.013 14.9493 203.302 15.6474 203.302 16.3754V30.1605Z" fill="#92A3FD"/>
<path d="M200.679 19.4868H175.609V20.2371H200.679V19.4868Z" fill="#92A3FD"/>
<path d="M182.684 22.4136H175.67V22.9259H182.684V22.4136Z" fill="#92A3FD"/>
<path d="M191.225 22.4136H186.589V22.9259H191.225V22.4136Z" fill="#92A3FD"/>
<path d="M200.252 22.4136H191.529V22.9259H200.252V22.4136Z" fill="#92A3FD"/>
<path d="M186.162 22.4136H183.112V22.9259H186.162V22.4136Z" fill="#92A3FD"/>
<path d="M182.684 24.6099H175.67V25.1222H182.684V24.6099Z" fill="#92A3FD"/>
<path d="M191.225 24.6099H186.589V25.1222H191.225V24.6099Z" fill="#92A3FD"/>
<path d="M186.162 24.6099H183.112V25.1222H186.162V24.6099Z" fill="#92A3FD"/>
<path d="M184.332 29.4888H179.696V30.0011H184.332V29.4888Z" fill="#92A3FD"/>
<path d="M179.269 29.4888H176.219V30.0011H179.269V29.4888Z" fill="#92A3FD"/>
<path d="M200.434 15.6431H186.527V18.5831H200.434V15.6431Z" fill="#92A3FD"/>
<path d="M174.958 18.3726V15.5288H175.888C176.196 15.5288 176.428 15.5926 176.583 15.7202C176.739 15.8478 176.817 16.0366 176.817 16.2866C176.817 16.4194 176.78 16.5373 176.704 16.6401C176.629 16.7417 176.526 16.8205 176.396 16.8765C176.549 16.9194 176.67 17.0015 176.759 17.1226C176.849 17.2424 176.894 17.3856 176.894 17.5522C176.894 17.8075 176.811 18.008 176.646 18.1538C176.48 18.2996 176.246 18.3726 175.944 18.3726H174.958ZM175.333 17.0425V18.0659H175.952C176.127 18.0659 176.264 18.021 176.364 17.9312C176.466 17.84 176.517 17.715 176.517 17.5562C176.517 17.2137 176.33 17.0425 175.958 17.0425H175.333ZM175.333 16.7417H175.899C176.063 16.7417 176.194 16.7007 176.292 16.6187C176.391 16.5366 176.44 16.4253 176.44 16.2847C176.44 16.1284 176.395 16.0151 176.304 15.9448C176.213 15.8732 176.074 15.8374 175.888 15.8374H175.333V16.7417ZM179.021 17.6304H177.829L177.562 18.3726H177.175L178.261 15.5288H178.589L179.677 18.3726H179.292L179.021 17.6304ZM177.942 17.3218H178.909L178.425 15.9917L177.942 17.3218ZM182.245 18.3726H181.868L180.437 16.1812V18.3726H180.06V15.5288H180.437L181.872 17.73V15.5288H182.245V18.3726ZM183.634 17.0503L183.286 17.4116V18.3726H182.911V15.5288H183.286V16.9351L184.55 15.5288H185.003L183.884 16.7847L185.091 18.3726H184.642L183.634 17.0503Z" fill="#92A3FD"/>
<path d="M199.398 26.3794H195.738V30.1734H199.398V26.3794Z" fill="#92A3FD"/>
<path d="M67.3403 36.9917V30.0991H63.4366V27.0493H49.7734V52.6677H70.8171V36.9917H67.3403Z" stroke="#92A3FD" stroke-width="2" stroke-miterlimit="10"/>
<path d="M76.6836 28.8384H70.8174V34.5049H76.6836V28.8384Z" stroke="#92A3FD" stroke-width="2" stroke-miterlimit="10"/>
<path d="M71.977 20.2183H65.8164V26.4765H71.977V20.2183Z" stroke="#92A3FD" stroke-width="2" stroke-miterlimit="10"/>
<path d="M81.0195 21.7427H76.6836V25.9514H81.0195V21.7427Z" stroke="#92A3FD" stroke-width="2" stroke-miterlimit="10"/>
<path d="M49.2259 115.922C42.1503 114.153 39.1005 107.504 39.1005 107.504H30.6221C30.6221 107.504 27.5113 114.153 20.4357 115.922C20.4357 115.922 19.6428 128.121 24.7055 132.94C24.7055 132.94 30.8051 134.465 32.086 138.307C32.086 138.368 34.7698 139.161 34.8308 139.161C34.8918 139.161 37.5756 138.368 37.5756 138.307C38.8566 134.465 44.9562 132.94 44.9562 132.94C50.0188 128.121 49.2259 115.922 49.2259 115.922Z" stroke="#92A3FD" stroke-width="3" stroke-miterlimit="10"/>
<path d="M33.3669 112.383L29.1582 121.655L35.3798 122.326L31.72 132.695L42.8213 119.703L36.4167 119.032L39.1006 112.444L33.3669 112.383Z" fill="#92A3FD"/>
<path d="M266.31 182.529C268.837 182.529 270.885 180.481 270.885 177.954C270.885 175.428 268.837 173.379 266.31 173.379C263.784 173.379 261.735 175.428 261.735 177.954C261.735 180.481 263.784 182.529 266.31 182.529Z" fill="#92A3FD"/>
<path d="M258.869 173.928L257.344 172.464C260.333 169.354 263.504 167.829 266.859 167.951C272.166 168.134 275.826 172.342 275.948 172.525L274.362 173.867C274.301 173.867 271.129 170.207 266.798 170.085C264.053 170.024 261.43 171.305 258.869 173.928Z" fill="#92A3FD"/>
<path d="M256.612 170.635L255.148 169.11C267.409 157.642 278.388 168.988 278.51 169.11L276.924 170.635C276.558 170.208 267.287 160.692 256.612 170.635Z" fill="#92A3FD"/>
<path d="M254.538 166.608L253.196 164.9C267.713 153.677 280.767 164.839 280.889 164.961L279.486 166.547C278.998 166.12 267.652 156.422 254.538 166.608Z" fill="#92A3FD"/>
<path d="M28.2425 218.882C27.1589 218.89 26.0845 218.683 25.0817 218.272C24.079 217.861 23.168 217.255 22.4018 216.488C21.6355 215.722 21.0293 214.811 20.6183 213.808C20.2074 212.806 19.9999 211.731 20.008 210.648V201.803H36.477V210.648C36.477 212.832 35.6094 214.926 34.0652 216.47C32.5209 218.015 30.4264 218.882 28.2425 218.882V218.882Z" stroke="#92A3FD" stroke-width="3" stroke-miterlimit="10"/>
<path d="M34.3427 201.438H22.0215V194.484C22.0215 192.85 22.6705 191.283 23.8259 190.128C24.9812 188.973 26.5482 188.324 28.1821 188.324V188.324C29.816 188.324 31.383 188.973 32.5383 190.128C33.6936 191.283 34.3427 192.85 34.3427 194.484V201.438Z" stroke="#92A3FD" stroke-width="3" stroke-miterlimit="10"/>
<path d="M28.182 209.55C29.1589 209.55 29.9509 208.758 29.9509 207.781C29.9509 206.804 29.1589 206.012 28.182 206.012C27.205 206.012 26.4131 206.804 26.4131 207.781C26.4131 208.758 27.205 209.55 28.182 209.55Z" fill="#92A3FD"/>
<path d="M27.7546 207.964L26.4736 213.332H29.9504L28.3035 208.086L27.7546 207.964Z" fill="#92A3FD"/>
<path d="M194.925 244.663H191.844V247.182H195.423V247.949H190.906V240.839H195.374V241.611H191.844V243.896H194.925V244.663ZM199.197 245.073H197.527V247.949H196.585V240.839H198.938C199.739 240.839 200.354 241.022 200.784 241.386C201.217 241.751 201.434 242.281 201.434 242.978C201.434 243.421 201.313 243.806 201.072 244.135C200.835 244.464 200.503 244.71 200.076 244.873L201.746 247.89V247.949H200.74L199.197 245.073ZM197.527 244.306H198.968C199.433 244.306 199.803 244.186 200.076 243.945C200.353 243.704 200.491 243.382 200.491 242.978C200.491 242.539 200.359 242.202 200.096 241.967C199.835 241.733 199.458 241.614 198.963 241.611H197.527V244.306ZM205.359 245.073H203.689V247.949H202.747V240.839H205.101C205.901 240.839 206.517 241.022 206.946 241.386C207.379 241.751 207.596 242.281 207.596 242.978C207.596 243.421 207.475 243.806 207.234 244.135C206.997 244.464 206.665 244.71 206.238 244.873L207.908 247.89V247.949H206.902L205.359 245.073ZM203.689 244.306H205.13C205.595 244.306 205.965 244.186 206.238 243.945C206.515 243.704 206.653 243.382 206.653 242.978C206.653 242.539 206.521 242.202 206.258 241.967C205.997 241.733 205.62 241.614 205.125 241.611H203.689V244.306ZM214.383 244.624C214.383 245.32 214.266 245.929 214.031 246.45C213.797 246.967 213.465 247.363 213.035 247.636C212.605 247.91 212.104 248.046 211.531 248.046C210.971 248.046 210.475 247.91 210.042 247.636C209.609 247.36 209.272 246.967 209.031 246.459C208.794 245.948 208.672 245.358 208.665 244.687V244.174C208.665 243.491 208.784 242.887 209.021 242.363C209.259 241.839 209.594 241.438 210.027 241.162C210.464 240.882 210.962 240.742 211.521 240.742C212.091 240.742 212.592 240.88 213.025 241.157C213.462 241.43 213.797 241.829 214.031 242.353C214.266 242.874 214.383 243.481 214.383 244.174V244.624ZM213.45 244.165C213.45 243.321 213.281 242.675 212.942 242.226C212.604 241.774 212.13 241.547 211.521 241.547C210.929 241.547 210.462 241.774 210.12 242.226C209.782 242.675 209.607 243.3 209.598 244.101V244.624C209.598 245.441 209.769 246.083 210.11 246.552C210.455 247.018 210.929 247.25 211.531 247.25C212.137 247.25 212.605 247.031 212.938 246.591C213.27 246.149 213.44 245.515 213.45 244.692V244.165ZM218.396 245.073H216.727V247.949H215.784V240.839H218.138C218.938 240.839 219.554 241.022 219.983 241.386C220.416 241.751 220.633 242.281 220.633 242.978C220.633 243.421 220.512 243.806 220.271 244.135C220.034 244.464 219.702 244.71 219.275 244.873L220.945 247.89V247.949H219.939L218.396 245.073ZM216.727 244.306H218.167C218.632 244.306 219.002 244.186 219.275 243.945C219.552 243.704 219.69 243.382 219.69 242.978C219.69 242.539 219.559 242.202 219.295 241.967C219.035 241.733 218.657 241.614 218.162 241.611H216.727V244.306Z" fill="#92A3FD"/>
<path d="M229.478 236.876H184.575V250.338H229.478V236.876Z" stroke="#92A3FD" stroke-width="3" stroke-miterlimit="10"/>
<path d="M253.726 116.335C253.217 116.322 252.73 116.122 252.359 115.773C251.988 115.424 251.758 114.951 251.713 114.444L250.981 98.7676C250.955 98.4883 250.989 98.2068 251.078 97.9411C251.168 97.6753 251.312 97.4312 251.502 97.2245C251.691 97.0178 251.922 96.8529 252.179 96.7405C252.436 96.6281 252.713 96.5706 252.994 96.5718H254.58C254.86 96.5797 255.136 96.6428 255.392 96.7574C255.648 96.8721 255.879 97.036 256.072 97.24C256.264 97.4439 256.415 97.6838 256.515 97.9459C256.615 98.208 256.662 98.4873 256.654 98.7676L255.8 114.444C255.768 114.967 255.534 115.457 255.147 115.81C254.759 116.163 254.25 116.351 253.726 116.335Z" fill="#92A3FD"/>
<path d="M255.8 119.994C255.776 120.425 255.626 120.839 255.368 121.185C255.109 121.531 254.755 121.793 254.349 121.938C253.943 122.084 253.503 122.107 253.084 122.003C252.665 121.9 252.285 121.676 251.993 121.359C251.7 121.041 251.508 120.645 251.44 120.219C251.371 119.793 251.43 119.356 251.609 118.963C251.787 118.57 252.077 118.239 252.443 118.01C252.809 117.781 253.234 117.665 253.666 117.676C254.253 117.708 254.806 117.968 255.204 118.401C255.603 118.834 255.817 119.405 255.8 119.994Z" fill="#92A3FD"/>
<path d="M234.635 120.481L251.165 91.8133C251.435 91.3582 251.819 90.9812 252.279 90.7194C252.739 90.4575 253.259 90.3198 253.788 90.3198C254.317 90.3198 254.837 90.4575 255.297 90.7194C255.757 90.9812 256.141 91.3582 256.411 91.8133L273.002 120.481C273.271 120.948 273.412 121.478 273.41 122.017C273.409 122.556 273.264 123.085 272.991 123.55C272.718 124.015 272.327 124.399 271.858 124.664C271.388 124.928 270.857 125.064 270.318 125.056H237.258C236.724 125.053 236.201 124.91 235.74 124.641C235.278 124.372 234.896 123.986 234.631 123.523C234.365 123.06 234.226 122.536 234.227 122.002C234.227 121.468 234.368 120.944 234.635 120.481V120.481Z" stroke="#92A3FD" stroke-width="3" stroke-miterlimit="10"/>
</svg>
