<svg width="54" height="83" viewBox="0 0 54 83" fill="none" xmlns="http://www.w3.org/2000/svg">
<g id="head_1_">
<g id="Group">
<path id="Vector" d="M51.1991 58.9214C52.5131 55.2834 51.9974 51.7647 50.0472 51.0623C48.0971 50.3599 45.451 52.7396 44.137 56.3776C42.823 60.0157 43.3387 63.5343 45.2889 64.2367C47.239 64.9392 49.8851 62.5594 51.1991 58.9214Z" fill="#FFEDE5"/>
</g>
<g id="Group_2">
<path id="Vector_2" d="M8.41566 64.2453C10.3658 63.5429 10.8815 60.0242 9.56754 56.3862C8.25355 52.7482 5.60744 50.3685 3.65729 51.0709C1.70713 51.7733 1.19142 55.292 2.50541 58.93C3.81939 62.568 6.4655 64.9477 8.41566 64.2453Z" fill="#FFEDE5"/>
</g>
<g id="Group_3">
<path id="Vector_3" d="M7.22923 60.107C7.15103 60.107 7.07283 60.0809 7.02069 60.0028L4.46612 56.3845C4.38792 56.2803 4.41399 56.0981 4.51826 56.02C4.62253 55.9419 4.77893 55.968 4.88319 56.0721L7.43776 59.6905C7.51597 59.7946 7.4899 59.9768 7.38563 60.0549C7.3335 60.107 7.28136 60.107 7.22923 60.107Z" fill="#472938"/>
</g>
<g id="Group_4">
<path id="Vector_4" d="M46.7209 59.6125C46.6687 59.6125 46.5905 59.5865 46.5645 59.5605C46.4602 59.4564 46.4602 59.3002 46.5384 59.196L49.2494 56.0983C49.3537 55.9942 49.5101 55.9942 49.6143 56.0723C49.7186 56.1764 49.7186 56.3326 49.6404 56.4367L46.9294 59.5344C46.8512 59.5865 46.773 59.6125 46.7209 59.6125Z" fill="#472938"/>
</g>
<g id="Group_5">
<path id="Vector_5" d="M46.7207 49.5901C46.7207 67.3956 38.6139 82.598 26.9358 82.598C15.2578 82.598 5.79541 66.1721 5.79541 48.3667C5.79541 30.5612 15.2317 18.1182 26.9358 18.1182C38.6399 18.1182 46.7207 31.7847 46.7207 49.5901Z" fill="#FFEDE5"/>
</g>
<g id="Group_6">
<path id="Vector_6" d="M27.9065 26.4838C37.1 25.5331 43.9434 18.8849 43.1916 11.6345C42.4398 4.38411 34.3775 -0.722812 25.184 0.227865C15.9904 1.17854 9.14705 7.82681 9.89885 15.0772C10.6506 22.3276 18.7129 27.4345 27.9065 26.4838Z" fill="#3B2645"/>
</g>
<g id="Group_7" opacity="0.5">
<g id="Group_8" opacity="0.5">
<path id="Vector_7" opacity="0.5" d="M27.9004 26.4737C36.7372 25.5626 43.3843 19.3931 43.2279 12.4948C40.543 7.41869 33.8437 4.21683 26.4146 4.99777C17.5779 5.90887 10.9308 12.0783 11.0872 18.9766C13.7982 24.0528 20.4713 27.2546 27.9004 26.4737Z" fill="#3B2645"/>
</g>
</g>
<g id="Group_9">
<path id="Vector_8" d="M46.6426 52.2716C46.6426 52.2716 38.7443 43.2647 39.7609 32.9823C39.7609 32.9823 32.8792 45.3472 5.79552 51.6208L3.44949 51.1522C3.44949 51.1522 -5.15264 11.168 26.9359 11.0638C46.2516 10.9858 47.6592 23.2986 47.6592 23.2986C47.6592 23.2986 58.3207 26.4744 50.0313 51.0741L46.6426 52.2716Z" fill="#3B2645"/>
</g>
<g id="Group_10">
<path id="Vector_9" d="M26.3364 65.3913C25.007 65.3913 23.3126 64.324 23.078 63.8815C22.8174 63.3609 23.5472 60.4193 24.7724 57.1914C26.0757 53.7553 25.3459 51.7509 25.3459 51.7248C25.2937 51.5947 25.3719 51.4385 25.5023 51.3864C25.6326 51.3344 25.789 51.4125 25.8411 51.5426C25.8672 51.6207 26.6492 53.7032 25.2677 57.3476C23.834 61.1482 23.469 63.3609 23.5472 63.6212C23.6776 63.8815 25.3198 64.9488 26.4928 64.8447C27.6919 64.7405 29.4905 63.7253 29.4905 63.6993C29.6208 63.6212 29.7772 63.6733 29.8294 63.8034C29.9076 63.9336 29.8554 64.0898 29.7251 64.1418C29.6469 64.1939 27.8222 65.2351 26.5189 65.3393C26.4667 65.3913 26.3885 65.3913 26.3364 65.3913Z" fill="#472938"/>
</g>
<g id="Group_11">
<path id="Vector_10" d="M26.6491 71.3523C23.0779 71.3523 20.6537 68.9314 20.5494 68.8273C20.4451 68.7232 20.4451 68.567 20.5494 68.4629C20.6537 68.3587 20.8101 68.3587 20.9143 68.4629C20.9404 68.4889 23.3125 70.8317 26.6491 70.8317C29.9857 70.8317 32.3578 68.4889 32.3838 68.4629C32.4881 68.3587 32.6445 68.3587 32.7488 68.4629C32.853 68.567 32.853 68.7232 32.7488 68.8273C32.6445 68.9314 30.2203 71.3523 26.6491 71.3523Z" fill="#472938"/>
</g>
<g id="Group_12">
<path id="Vector_11" d="M36.2941 55.1351C35.4078 55.1091 34.73 54.3541 34.7561 53.4691L34.8082 52.3237C34.8343 51.4386 35.5902 50.7618 36.4765 50.7878C37.3628 50.8139 38.0406 51.5688 38.0145 52.4538L37.9624 53.5992C37.9363 54.4843 37.1803 55.1872 36.2941 55.1351Z" fill="#472938"/>
</g>
<g id="Group_13">
<path id="Vector_12" d="M17.7341 55.1351C16.8478 55.1872 16.0919 54.4843 16.0658 53.5993L16.0137 52.4539C15.9616 51.5688 16.6654 50.8139 17.5517 50.7879C18.4379 50.7358 19.1939 51.4387 19.2199 52.3237L19.2721 53.4691C19.2981 54.3542 18.6204 55.1091 17.7341 55.1351Z" fill="#472938"/>
</g>
<g id="Group_14">
<path id="Vector_13" d="M41.2467 46.7782C41.2467 46.7782 39.2395 44.9821 36.1897 45.5287C33.1398 46.0754 32.4621 46.2316 32.2535 45.9973C32.045 45.789 31.7843 44.071 35.3034 43.5243C38.8224 42.9776 41.0642 45.3986 41.2467 46.7782Z" fill="#472938"/>
</g>
</g>
</svg>
