<svg width="422" height="156" viewBox="0 0 422 156" fill="none" xmlns="http://www.w3.org/2000/svg">
<path d="M229.372 43.3901H190.332V71.8783H229.372V43.3901Z" fill="white" stroke="#263238" stroke-width="1.41279" stroke-linecap="round" stroke-linejoin="round"/>
<path d="M229.372 81.7874H190.332V110.276H229.372V81.7874Z" fill="white" stroke="#263238" stroke-width="1.41279" stroke-linecap="round" stroke-linejoin="round"/>
<path d="M229.372 68.9883H190.332V71.8784H229.372V68.9883Z" fill="white" stroke="#263238" stroke-width="1.41279" stroke-linecap="round" stroke-linejoin="round"/>
<path d="M229.372 107.385H190.332V110.275H229.372V107.385Z" fill="white" stroke="#263238" stroke-width="1.41279" stroke-linecap="round" stroke-linejoin="round"/>
<path d="M229.372 69.814H190.332V71.0526H229.372V69.814Z" fill="white" stroke="#263238" stroke-width="1.41279" stroke-linecap="round" stroke-linejoin="round"/>
<path d="M229.372 108.211H190.332V109.45H229.372V108.211Z" fill="white" stroke="#263238" stroke-width="1.41279" stroke-linecap="round" stroke-linejoin="round"/>
<path d="M209.129 64.0337C212.324 64.0337 214.913 61.1685 214.913 57.6341C214.913 54.0998 212.324 51.2346 209.129 51.2346C205.935 51.2346 203.346 54.0998 203.346 57.6341C203.346 61.1685 205.935 64.0337 209.129 64.0337Z" fill="#9DCEFF"/>
<path d="M209.129 102.431C212.324 102.431 214.913 99.5657 214.913 96.0314C214.913 92.497 212.324 89.6318 209.129 89.6318C205.935 89.6318 203.346 92.497 203.346 96.0314C203.346 99.5657 205.935 102.431 209.129 102.431Z" fill="#9DCEFF"/>
<path d="M212.383 57.8408L207.322 54.5378V61.1438L212.383 57.8408Z" fill="white"/>
<path d="M212.383 96.2378L207.322 92.9348V99.5408L212.383 96.2378Z" fill="white"/>
<path d="M125.988 92.5217H156.353" stroke="#444E59" stroke-width="1.53992" stroke-miterlimit="10" stroke-linecap="round" stroke-linejoin="round"/>
<path d="M125.988 97.8892H143.339" stroke="#444E59" stroke-width="1.53992" stroke-miterlimit="10" stroke-linecap="round" stroke-linejoin="round"/>
<path d="M168.824 97.8891C170.322 97.8891 171.536 96.5951 171.536 94.999C171.536 93.4028 170.322 92.1089 168.824 92.1089C167.327 92.1089 166.113 93.4028 166.113 94.999C166.113 96.5951 167.327 97.8891 168.824 97.8891Z" stroke="#444E59" stroke-width="1.53992" stroke-miterlimit="10" stroke-linecap="round" stroke-linejoin="round"/>
<path d="M172.619 49.583H124.542V86.3286H172.619V49.583Z" fill="#9DCEFF"/>
<path d="M172.619 49.583H124.542V86.3286H172.619V49.583Z" stroke="#444E59" stroke-width="1.53992" stroke-miterlimit="10" stroke-linecap="round" stroke-linejoin="round"/>
<path d="M129.603 78.4845L139.901 66.9241L149.484 77.7971" stroke="#F6F9FD" stroke-width="1.53992" stroke-miterlimit="10" stroke-linecap="round" stroke-linejoin="round"/>
<path d="M167.445 78.5089L154.8 59.9297L144.672 72.6517" stroke="#F6F9FD" stroke-width="1.53992" stroke-miterlimit="10" stroke-linecap="round" stroke-linejoin="round"/>
<path d="M142.617 64.0335C144.413 64.0335 145.87 62.2775 145.87 60.1113C145.87 57.945 144.413 56.189 142.617 56.189C140.82 56.189 139.363 57.945 139.363 60.1113C139.363 62.2775 140.82 64.0335 142.617 64.0335Z" fill="#F6F9FD"/>
<rect x="119.167" y="44.1601" width="58.1046" height="60.3909" stroke="#444E59" stroke-width="1.53992"/>
<path d="M72.9128 87.5881C72.8608 91.6659 72.1816 95.7016 70.9062 99.5108" stroke="#92A3FD" stroke-width="2.30988" stroke-linecap="round" stroke-linejoin="round"/>
<path d="M73.1201 91.7239L92.6019 95.8309" stroke="#92A3FD" stroke-width="2.30988" stroke-linecap="round" stroke-linejoin="round"/>
<path d="M94.0998 100.751L72.3994 96.1748" stroke="#92A3FD" stroke-width="2.30988" stroke-linecap="round" stroke-linejoin="round"/>
<path d="M93.482 98.3181L72.7598 93.9507" stroke="#92A3FD" stroke-width="2.30988" stroke-linecap="round" stroke-linejoin="round"/>
<path d="M91.8376 91.578L69.72 86.9137C68.1512 86.5829 67.0978 84.9708 67.3645 83.3145C67.6313 81.6581 69.1203 80.5825 70.689 80.9133L90.1138 85.0073" stroke="#92A3FD" stroke-width="2.30988" stroke-linecap="round" stroke-linejoin="round"/>
<path d="M96.6127 111.441L66.7561 105.147C65.1873 104.819 64.1339 103.206 64.4007 101.55C64.6675 99.8938 66.1564 98.8156 67.7252 99.1463L94.9413 104.876" stroke="#92A3FD" stroke-width="2.30988" stroke-linecap="round" stroke-linejoin="round"/>
<path d="M41.3757 130.831C37.1528 132.336 27.1383 136.886 31.9677 144.894" stroke="#92A3FD" stroke-width="5.77471" stroke-linecap="round" stroke-linejoin="round"/>
<path d="M62 125.911L101.965 132.674" stroke="#2F80ED" stroke-width="2.30988" stroke-linecap="round" stroke-linejoin="round"/>
<path d="M60.1074 121.569L101.164 128.515" stroke="#2F80ED" stroke-width="2.30988" stroke-linecap="round" stroke-linejoin="round"/>
<path d="M61.9502 130.198L103.214 137.18" stroke="#2F80ED" stroke-width="2.30988" stroke-linecap="round" stroke-linejoin="round"/>
<path d="M60.8965 134.547L105.111 142.029" stroke="#2F80ED" stroke-width="2.30988" stroke-linecap="round" stroke-linejoin="round"/>
<path d="M58.5869 137.943L90.2585 143.305" stroke="#2F80ED" stroke-width="2.30988" stroke-linecap="round" stroke-linejoin="round"/>
<path d="M49.8828 116.191C54.2721 116.824 62.0316 119.153 62.0088 128.898C61.9882 138.391 54.5321 141.44 49.8828 141.769" stroke="#9DCEFF" stroke-width="2.30988" stroke-linecap="round" stroke-linejoin="round"/>
<path d="M81.1101 143.313L49.874 143.659V112.663L99.5499 123.752" stroke="#9DCEFF" stroke-width="2.30988" stroke-linecap="round" stroke-linejoin="round"/>
<path d="M96.8659 112.832L47.2767 102.467C46.6856 102.344 46.0781 102.372 45.4973 102.547C44.9164 102.722 44.3763 103.041 43.915 103.48C43.4538 103.92 43.0827 104.47 42.8279 105.091C42.5731 105.713 42.4408 106.39 42.4404 107.076V150.118" stroke="#9DCEFF" stroke-width="2.30988" stroke-linecap="round" stroke-linejoin="round"/>
<path d="M84.5422 21.0424L235.113 19.459C236.204 19.4477 237.27 19.8341 238.156 20.5618C239.042 21.2896 239.701 22.321 240.039 23.5061L271.81 135.245L385.552 136.263C385.552 136.263 385.096 153.632 375.209 153.632H107.554L76.833 32.8739C76.4829 31.5019 76.4161 30.0558 76.6379 28.6493C76.8596 27.2428 77.3637 25.9142 78.1107 24.7678C78.8577 23.6213 79.8273 22.6883 80.9432 22.0419C82.0591 21.3955 83.291 21.0534 84.5422 21.0424Z" stroke="#92A3FD" stroke-width="2.30988" stroke-linecap="round" stroke-linejoin="round"/>
<path d="M234.044 28.2696L262.035 124.07C262.151 124.467 262.182 124.889 262.127 125.302C262.071 125.715 261.931 126.108 261.717 126.447C261.502 126.785 261.22 127.061 260.894 127.251C260.568 127.441 260.207 127.54 259.841 127.539L119.28 127.213C118.784 127.211 118.301 127.027 117.904 126.687C117.506 126.348 117.215 125.871 117.073 125.328L92.3423 30.1786C92.2397 29.7858 92.2188 29.371 92.2813 28.9673C92.3438 28.5637 92.488 28.1822 92.7024 27.8535C92.9167 27.5247 93.1953 27.2576 93.516 27.0735C93.8367 26.8893 94.1906 26.7933 94.5495 26.793L231.841 26.47C232.327 26.4662 232.802 26.6382 233.198 26.9615C233.594 27.2847 233.89 27.7426 234.044 28.2696V28.2696Z" stroke="#92A3FD" stroke-width="2.30988" stroke-linecap="round" stroke-linejoin="round"/>
<path d="M85.7502 21.0166C85.7502 21.0166 81.7326 21.4854 84.2613 31.3324C86.79 41.1794 114.736 153.111 114.736 153.111" stroke="#92A3FD" stroke-width="2.30988" stroke-linecap="round" stroke-linejoin="round"/>
<path d="M270.499 134.401H110.273" stroke="#92A3FD" stroke-width="2.30988" stroke-linecap="round" stroke-linejoin="round"/>
<path d="M384.191 142.441H263.854" stroke="#92A3FD" stroke-width="2.30988" stroke-linecap="round" stroke-linejoin="round"/>
<path d="M264.721 134.401C264.721 134.401 263.957 155.067 254.378 153.955" stroke="#92A3FD" stroke-width="2.30988" stroke-linecap="round" stroke-linejoin="round"/>
<path d="M148.038 138.54H138.76C137.853 138.54 136.983 138.951 136.342 139.684C135.7 140.417 135.34 141.41 135.34 142.446V146.212C135.34 147.248 135.7 148.242 136.342 148.974C136.983 149.707 137.853 150.119 138.76 150.119H148.038C148.945 150.119 149.815 149.707 150.457 148.974C151.098 148.242 151.458 147.248 151.458 146.212V142.446C151.458 141.41 151.098 140.417 150.457 139.684C149.815 138.951 148.945 138.54 148.038 138.54ZM150.09 146.212C150.09 146.834 149.874 147.43 149.489 147.87C149.104 148.309 148.582 148.556 148.038 148.556H138.76C138.216 148.556 137.694 148.309 137.309 147.87C136.924 147.43 136.708 146.834 136.708 146.212V142.446C136.708 142.41 136.708 142.376 136.708 142.34H150.081C150.081 142.376 150.081 142.41 150.081 142.446L150.09 146.212Z" fill="#9DCEFF"/>
<path d="M168.68 138.54H159.4C158.493 138.54 157.623 138.951 156.981 139.684C156.34 140.417 155.979 141.41 155.979 142.446V146.212C155.979 147.248 156.34 148.242 156.981 148.974C157.623 149.707 158.493 150.119 159.4 150.119H168.68C169.587 150.119 170.457 149.707 171.099 148.974C171.74 148.242 172.1 147.248 172.1 146.212V142.446C172.1 141.41 171.74 140.417 171.099 139.684C170.457 138.951 169.587 138.54 168.68 138.54ZM170.732 146.212C170.732 146.834 170.516 147.43 170.131 147.87C169.746 148.309 169.224 148.556 168.68 148.556H159.4C158.855 148.556 158.334 148.309 157.949 147.87C157.564 147.43 157.348 146.834 157.348 146.212V142.446C157.348 142.41 157.348 142.376 157.348 142.34H170.732C170.732 142.376 170.732 142.41 170.732 142.446V146.212Z" fill="#9DCEFF"/>
<path d="M123.163 139.496H117.973C116.594 139.496 115.477 140.772 115.477 142.347V146.03C115.477 147.605 116.594 148.882 117.973 148.882H123.163C124.542 148.882 125.66 147.605 125.66 146.03V142.347C125.66 140.772 124.542 139.496 123.163 139.496Z" fill="#9DCEFF"/>
<path d="M31.9678 144.902C37.3285 153.804 58.4178 152.338 78.3442 145.546C98.2706 138.753 117.148 144.319 117.148 144.319" stroke="#92A3FD" stroke-width="5.77471" stroke-linecap="round" stroke-linejoin="round"/>
<path d="M175.629 17.7871H151.318C150.235 17.7849 149.185 18.2183 148.354 19.0112L146.908 20.3862L153.341 20.3185C153.309 20.5774 153.293 20.8384 153.293 21.0998V22.6963C153.293 22.9425 153.335 23.1864 153.418 23.4139C153.5 23.6414 153.621 23.8481 153.774 24.0222C153.926 24.1963 154.107 24.3344 154.306 24.4287C154.505 24.5229 154.719 24.5714 154.934 24.5714H175.622C176.534 24.5714 177.276 23.0921 177.276 21.2691V21.0946C177.282 19.2638 176.544 17.7871 175.629 17.7871Z" fill="#92A3FD"/>
<path d="M168.453 15.2712H158.09V18.3548H168.453V15.2712Z" fill="#92A3FD"/>
<path d="M176.243 0.0385742H150.598C149.872 0.0385742 149.176 0.367835 148.663 0.953924C148.15 1.54001 147.861 2.33492 147.861 3.16377V12.1461C147.861 12.975 148.15 13.7699 148.663 14.356C149.176 14.9421 149.872 15.2713 150.598 15.2713H176.243C176.968 15.2713 177.664 14.9421 178.177 14.356C178.691 13.7699 178.979 12.975 178.979 12.1461V3.16377C178.979 2.33492 178.691 1.54001 178.177 0.953924C177.664 0.367835 176.968 0.0385742 176.243 0.0385742V0.0385742ZM155.493 13.6202C155.674 13.6202 155.848 13.7025 155.977 13.849C156.105 13.9955 156.177 14.1943 156.177 14.4015C156.177 14.6087 156.105 14.8074 155.977 14.9539C155.848 15.1005 155.674 15.1828 155.493 15.1828C154.863 15.1821 154.258 14.8956 153.813 14.3863C153.367 13.8769 153.117 13.1864 153.117 12.4665V2.84344C153.117 2.12393 153.367 1.43381 153.812 0.924553C154.257 0.415293 154.861 0.128501 155.491 0.127122C155.672 0.127122 155.846 0.209437 155.974 0.355959C156.103 0.502481 156.175 0.701208 156.175 0.908422C156.175 1.11564 156.103 1.31436 155.974 1.46088C155.846 1.60741 155.672 1.68972 155.491 1.68972C155.223 1.69041 154.967 1.81227 154.778 2.02856C154.589 2.24485 154.483 2.53791 154.483 2.84344V12.4795C154.486 12.7827 154.593 13.0725 154.782 13.286C154.971 13.4994 155.225 13.6195 155.491 13.6202H155.493ZM168.451 13.2139C166.283 13.2139 164.518 10.844 164.518 7.92971C164.518 5.01546 166.285 2.64291 168.451 2.64291C170.617 2.64291 172.385 5.01285 172.385 7.9245C172.385 10.8361 170.624 13.2139 168.451 13.2139Z" fill="#92A3FD"/>
<path d="M168.451 4.20557C167.037 4.20557 165.886 5.87494 165.886 7.92456C165.886 9.97417 167.026 11.6461 168.451 11.6461C169.876 11.6461 171.016 9.97677 171.016 7.92456C171.016 5.87234 169.869 4.20557 168.451 4.20557Z" fill="#92A3FD"/>
<path d="M161.107 9.83846C161.867 9.83846 162.484 8.98378 162.484 7.92948C162.484 6.87519 161.867 6.02051 161.107 6.02051C160.346 6.02051 159.729 6.87519 159.729 7.92948C159.729 8.98378 160.346 9.83846 161.107 9.83846Z" fill="white"/>
<path d="M2 153.958H420.343" stroke="#92A3FD" stroke-width="2.30988" stroke-linecap="round" stroke-linejoin="round"/>
</svg>
