<?xml version="1.0" standalone="no"?>
<!DOCTYPE svg PUBLIC "-//W3C//DTD SVG 20010904//EN"
 "http://www.w3.org/TR/2001/REC-SVG-20010904/DTD/svg10.dtd">
<svg version="1.0" xmlns="http://www.w3.org/2000/svg"
 width="425.000000pt" height="445.000000pt" viewBox="0 0 425.000000 445.000000"
 preserveAspectRatio="xMidYMid meet">
<metadata>
Created by potrace 1.16, written by Peter Selinger 2001-2019
</metadata>
<g transform="translate(0.000000,445.000000) scale(0.100000,-0.100000)"
fill="#3B2645" stroke="none">
<path d="M1238 4419 c-66 -23 -131 -88 -142 -140 -3 -17 -6 -108 -6 -201 0
-158 -1 -170 -17 -163 -135 52 -168 59 -298 59 -117 0 -136 -3 -192 -26 -56
-24 -159 -96 -285 -201 -34 -27 -48 -34 -48 -23 0 9 -9 25 -20 36 -17 17 -33
20 -100 20 -127 0 -120 21 -120 -345 0 -365 -7 -345 119 -345 83 0 103 9 116
50 15 46 153 40 265 -12 100 -47 113 -51 189 -49 49 1 79 8 114 26 51 26 67
25 67 -3 0 -9 11 -30 24 -47 22 -28 29 -30 105 -33 l81 -4 0 -159 c0 -180 10
-215 74 -264 53 -40 88 -47 286 -50 102 -2 188 -3 192 -4 4 -1 9 -522 10
-1158 3 -982 6 -1164 18 -1198 21 -57 104 -136 165 -158 47 -16 104 -17 795
-15 l745 3 41 22 c59 31 121 106 139 166 13 44 15 208 15 1194 0 908 3 1143
13 1143 6 0 118 2 247 3 202 2 241 5 275 20 53 24 93 63 116 112 18 38 19 82
19 811 0 750 -1 773 -20 817 -24 53 -75 101 -127 119 -30 10 -319 13 -1418 15
-1358 2 -1381 1 -1437 -18z m2827 -40 c54 -14 109 -69 124 -126 7 -25 11 -285
11 -773 0 -689 -2 -737 -19 -775 -23 -51 -81 -102 -123 -110 -18 -3 -134 -5
-258 -3 l-225 3 -3 323 -2 322 96 0 c93 0 95 1 92 23 -3 21 -8 22 -95 25 l-93
3 0 159 0 160 96 0 c93 0 95 1 92 23 -3 21 -9 22 -105 27 l-102 5 -29 41 c-36
49 -95 97 -141 112 -24 9 -233 12 -742 12 l-709 0 -15 37 c-33 78 -90 113
-183 113 -99 0 -154 -50 -192 -172 l-11 -38 -327 -2 c-283 -3 -327 -5 -327
-18 0 -13 48 -16 355 -20 383 -5 386 -6 419 -61 14 -23 16 -39 10 -72 -4 -23
-8 -63 -9 -88 0 -38 -6 -53 -29 -78 l-29 -31 -221 0 c-148 0 -227 4 -239 11
-16 10 -31 -1 -113 -86 -216 -225 -306 -255 -489 -167 -68 33 -84 37 -177 40
l-103 4 0 233 0 232 68 51 c37 29 96 75 132 103 187 146 378 164 609 56 74
-35 75 -32 81 206 l5 206 39 40 c21 22 55 44 75 49 54 15 2749 15 2806 1z
m-2251 -454 c57 -27 85 -105 38 -105 -28 0 -106 -54 -137 -94 l-28 -37 -31 30
c-17 16 -43 34 -58 40 -27 10 -27 11 -14 49 26 72 47 103 79 117 43 19 111 19
151 0z m334 -252 c2 -23 10 -47 19 -55 13 -10 105 -13 453 -13 349 0 440 3
453 13 9 8 17 32 19 55 l3 42 105 0 c92 0 110 -3 147 -24 46 -27 74 -60 91
-110 9 -25 12 -443 12 -1665 0 -1566 -1 -1633 -19 -1671 -22 -47 -64 -89 -105
-105 -20 -7 -246 -10 -723 -10 -618 0 -698 2 -726 16 -46 23 -66 43 -91 89
l-21 40 -3 1615 c-2 1168 1 1630 9 1670 9 44 20 63 54 96 53 52 93 63 220 61
l100 -2 3 -42z m-498 -368 l0 -95 -135 0 c-128 0 -135 1 -135 20 0 11 4 20 9
20 4 0 47 23 95 50 48 28 90 50 94 50 4 1 21 12 37 25 17 14 31 25 33 25 1 0
2 -43 2 -95z m-155 49 c-11 -8 -50 -32 -87 -52 l-68 -36 0 -48 0 -47 153 -3
152 -3 0 -285 0 -285 -180 -3 c-207 -3 -245 5 -295 66 l-30 37 0 337 0 338
188 0 c170 -1 185 -2 167 -16z m-405 -159 l0 -135 -68 0 c-81 0 -100 11 -109
64 -6 38 -5 39 82 122 49 46 90 84 92 84 2 0 3 -61 3 -135z"/>
<path d="M2457 3946 c-3 -8 0 -19 7 -25 9 -8 206 -10 652 -9 l639 3 3 23 3 22
-649 0 c-554 0 -651 -2 -655 -14z"/>
</g>
</svg>
