<svg width="160" height="115" viewBox="0 0 160 115" fill="none" xmlns="http://www.w3.org/2000/svg">
<g id="Illustrations/reading" clip-path="url(#clip0_2310_72)">
<path id="Vector" d="M78.7451 115C101.183 115 119.373 112.721 119.373 109.909C119.373 107.098 101.183 104.819 78.7451 104.819C56.3072 104.819 38.1176 107.098 38.1176 109.909C38.1176 112.721 56.3072 115 78.7451 115Z" fill="#3F3D56"/>
<path id="Vector_2" d="M147.471 66.3828L131.765 73.8053L145.665 63.4264C143.406 59.9052 140.868 56.5704 138.076 53.4538L69.9608 70.3594L131.488 46.9232C128.676 44.4462 125.69 42.1736 122.553 40.1231L18.7622 56.8167C7.74228 70.577 1.73497 87.6697 1.72649 105.289H157.96C157.953 91.6243 154.335 78.2036 147.471 66.3828Z" fill="#F2F2F2"/>
<path id="Vector_3" d="M114.059 35.304C103.402 30.1141 91.6992 27.4249 79.8431 27.4417C55.713 27.4417 34.1394 38.3673 19.8101 55.5337C44.3476 50.1652 87.0693 40.8719 114.059 35.304Z" fill="#F2F2F2"/>
<path id="Vector_4" opacity="0.4" d="M129.424 42.805C130.717 42.805 131.765 41.7586 131.765 40.4679C131.765 39.1772 130.717 38.1309 129.424 38.1309C128.132 38.1309 127.084 39.1772 127.084 40.4679C127.084 41.7586 128.132 42.805 129.424 42.805Z" fill="#92A3FD"/>
<path id="Vector_5" opacity="0.4" d="M125.093 43.2235C125.999 43.2235 126.735 42.4895 126.735 41.5841C126.735 40.6787 125.999 39.9447 125.093 39.9447C124.186 39.9447 123.451 40.6787 123.451 41.5841C123.451 42.4895 124.186 43.2235 125.093 43.2235Z" fill="#92A3FD"/>
<path id="Vector_6" opacity="0.4" d="M18.6278 51.5554C21.3349 51.5554 23.5294 49.364 23.5294 46.6609C23.5294 43.9578 21.3349 41.7664 18.6278 41.7664C15.9207 41.7664 13.7261 43.9578 13.7261 46.6609C13.7261 49.364 15.9207 51.5554 18.6278 51.5554Z" fill="#92A3FD"/>
<path id="Vector_7" opacity="0.4" d="M9.5561 52.432C11.4551 52.432 12.9946 50.8948 12.9946 48.9986C12.9946 47.1023 11.4551 45.5651 9.5561 45.5651C7.6571 45.5651 6.11765 47.1023 6.11765 48.9986C6.11765 50.8948 7.6571 52.432 9.5561 52.432Z" fill="#92A3FD"/>
<path id="Vector_8" d="M160 105.132H0V105.445H160V105.132Z" fill="#2F2E41"/>
<path id="Vector_9" d="M141.873 105.132L129.412 86.6492C129.412 86.6492 148.283 93.2279 146.142 105.132H141.873Z" fill="#3F3D56"/>
<path id="Vector_10" d="M142.362 105.132L154.824 86.6492C154.824 86.6492 135.952 93.2279 138.094 105.132H142.362Z" fill="#92A3FD"/>
<path id="Vector_11" d="M32.6274 20.7964C32.6274 19.7788 31.1743 18.9539 29.3818 18.9539C29.3463 18.9539 29.3112 18.9547 29.276 18.9554C28.7352 17.3002 26.179 16.0467 23.1067 16.0467C20.4928 16.0467 18.2525 16.9541 17.3091 18.2443C16.6121 18.0601 15.8938 17.9683 15.1728 17.9712C12.4242 17.9712 10.1961 19.2361 10.1961 20.7964C10.1961 22.2138 12.0348 23.3872 14.4319 23.5904C16.1738 23.9084 18.8947 24.1131 21.9527 24.1131C27.1444 24.1131 30.9431 23.1242 31.0384 22.3809C31.9897 22.0596 32.6274 21.4704 32.6274 20.7964Z" fill="#F2F2F2"/>
<path id="Vector_12" d="M111.059 21.5796C111.059 20.562 109.606 19.737 107.813 19.737C107.778 19.737 107.743 19.7379 107.707 19.7385C107.167 18.0833 104.61 16.8298 101.538 16.8298C98.9242 16.8298 96.6839 17.7373 95.7405 19.0274C95.0434 18.8432 94.3252 18.7514 93.6042 18.7543C90.8556 18.7543 88.6274 20.0192 88.6274 21.5796C88.6274 22.997 90.4662 24.1704 92.8633 24.3735C94.6052 24.6916 97.3261 24.8962 100.384 24.8962C105.576 24.8962 109.375 23.9073 109.47 23.164C110.421 22.8428 111.059 22.2536 111.059 21.5796Z" fill="#F2F2F2"/>
<path id="Vector_13" d="M154.824 8.33698C154.824 6.5508 152.273 5.10281 149.127 5.10281C149.064 5.10281 149.003 5.10434 148.941 5.10547C147.992 2.20018 143.505 0 138.112 0C133.524 0 129.592 1.59278 127.936 3.85732C126.713 3.53401 125.452 3.37283 124.186 3.37792C119.362 3.37792 115.451 5.59816 115.451 8.33698C115.451 10.8249 118.678 12.8845 122.886 13.2411C125.943 13.7993 130.719 14.1585 136.087 14.1585C145.199 14.1585 151.867 12.4227 152.034 11.118C153.704 10.5542 154.824 9.51999 154.824 8.33698Z" fill="#F2F2F2"/>
<path id="Vector_14" d="M89.4384 45.4093C86.1938 39.9348 79.7745 39.6797 79.7745 39.6797C79.7745 39.6797 73.5193 38.881 69.5066 47.2186C65.7665 54.99 60.6047 62.4934 68.6756 64.3126L70.1335 59.7817L71.0363 64.6499C72.1855 64.7324 73.3383 64.7521 74.4896 64.7088C83.1329 64.4302 91.3644 64.7904 91.0994 61.6933C90.7471 57.5762 92.5604 50.6768 89.4384 45.4093Z" fill="#2F2E41"/>
<path id="Vector_15" d="M68.2148 93.3516C68.1195 93.9538 67.9811 94.5483 67.8009 95.1308C67.5978 95.7009 67.2844 96.2281 67.0987 96.8041C66.507 98.64 67.3273 100.687 68.6375 102.104C69.7737 103.328 71.2404 104.198 72.8605 104.608C74.0425 104.905 75.2714 104.948 76.4895 104.989C79.8625 105.103 83.3223 105.205 86.5184 104.123C87.5281 103.773 88.5035 103.33 89.432 102.801C89.7252 102.662 89.9835 102.459 90.1881 102.207C90.4318 101.86 90.463 101.411 90.4609 100.987C90.4537 99.5595 90.1638 98.139 90.2327 96.7128C90.2708 95.9229 90.4188 95.1335 90.346 94.346C90.2451 93.4516 89.8699 92.6102 89.2717 91.9369C88.6734 91.2637 87.8815 90.7914 87.0042 90.5849C86.0975 90.3905 85.1571 90.4964 84.234 90.5851C81.838 90.8149 79.4317 90.9224 77.0247 90.9069C74.5653 90.8913 72.1211 90.5164 69.674 90.4772C68.9503 90.4657 68.9649 90.6884 68.7345 91.3878C68.5223 92.0315 68.3487 92.6873 68.2148 93.3516Z" fill="#2F2E41"/>
<path id="Vector_16" d="M75.1943 58.0956C75.0761 58.7135 74.9483 59.3541 74.5764 59.8619C74.1486 60.4461 73.451 60.78 72.9907 61.3391C72.2978 62.1807 72.2581 63.365 72.2552 64.4545C72.2526 65.4582 72.273 66.5286 72.8335 67.3617C73.1973 67.9024 73.7508 68.2815 74.2917 68.6455C76.3937 70.06 78.6652 71.4999 81.1995 71.5466C82.2496 71.5659 83.3755 71.2951 84.0664 70.5053C84.3647 70.1343 84.5993 69.7164 84.7606 69.2687C85.4086 67.6736 85.8014 65.9867 85.9246 64.2698C85.9823 63.4621 85.9768 62.6307 85.703 61.8685C85.3951 61.0113 84.7726 60.306 84.3612 59.4934C83.8748 58.527 83.6969 57.435 83.8515 56.3645C83.872 56.2891 83.8657 56.209 83.8336 56.1378C83.7998 56.0996 83.7576 56.0698 83.7103 56.0507C83.663 56.0316 83.6119 56.0236 83.561 56.0275L78.5358 55.6662C78.0678 55.643 77.6018 55.5898 77.1406 55.5069C76.8697 55.4519 76.1542 55.0677 75.8959 55.1698C75.4178 55.3589 75.2923 57.5832 75.1943 58.0956Z" fill="#FFEDE5"/>
<path id="Vector_17" opacity="0.1" d="M75.1943 58.0956C75.0761 58.7135 74.9483 59.3541 74.5764 59.8619C74.1486 60.4461 73.451 60.78 72.9907 61.3391C72.2978 62.1807 72.2581 63.365 72.2552 64.4545C72.2526 65.4582 72.273 66.5286 72.8335 67.3617C73.1973 67.9024 73.7508 68.2815 74.2917 68.6455C76.3937 70.06 78.6652 71.4999 81.1995 71.5466C82.2496 71.5659 83.3755 71.2951 84.0664 70.5053C84.3647 70.1343 84.5993 69.7164 84.7606 69.2687C85.4086 67.6736 85.8014 65.9867 85.9246 64.2698C85.9823 63.4621 85.9768 62.6307 85.703 61.8685C85.3951 61.0113 84.7726 60.306 84.3612 59.4934C83.8748 58.527 83.6969 57.435 83.8515 56.3645C83.872 56.2891 83.8657 56.209 83.8336 56.1378C83.7998 56.0996 83.7576 56.0698 83.7103 56.0507C83.663 56.0316 83.6119 56.0236 83.561 56.0275L78.5358 55.6662C78.0678 55.643 77.6018 55.5898 77.1406 55.5069C76.8697 55.4519 76.1542 55.0677 75.8959 55.1698C75.4178 55.3589 75.2923 57.5832 75.1943 58.0956Z" fill="black"/>
<path id="Vector_18" d="M80 58.7684C84.0717 58.7684 87.3725 55.4724 87.3725 51.4066C87.3725 47.3408 84.0717 44.0448 80 44.0448C75.9282 44.0448 72.6274 47.3408 72.6274 51.4066C72.6274 55.4724 75.9282 58.7684 80 58.7684Z" fill="#FFEDE5"/>
<path id="Vector_19" d="M76.2283 67.8953C76.6126 68.2963 77.0198 68.6934 77.5233 68.9285C78.0359 69.1401 78.5864 69.2447 79.141 69.2361C80.47 69.2734 81.9107 69.0303 82.8352 68.0762C84.0269 66.8464 83.9877 64.8628 84.9218 63.4281C84.9971 63.298 85.0998 63.1858 85.2228 63.0994C85.3795 63.0142 85.5566 62.9735 85.7348 62.9818C86.9145 62.9708 87.9422 63.7349 88.8697 64.463C89.2851 64.7892 89.711 65.1271 89.9731 65.5854C90.1565 65.9427 90.2821 66.3267 90.3452 66.7232C90.8054 68.9667 90.9545 71.2606 91.1024 73.5459C91.1841 74.8082 91.2659 76.0717 91.2598 77.3366C91.2398 81.5039 90.2698 85.6015 89.3051 89.656C89.1809 90.1784 89.0108 90.7624 88.535 91.0126C88.3229 91.1078 88.0951 91.1633 87.8629 91.1764C85.1 91.5004 82.3314 91.8248 79.5499 91.8676C78.4644 91.8842 77.3794 91.858 76.2948 91.7888C76.1081 91.7864 75.923 91.7542 75.7465 91.6934C75.5069 91.5785 75.301 91.4039 75.1487 91.1865C73.6441 89.2933 73.5553 86.6759 73.565 84.2591C73.5885 78.35 73.7999 72.4457 74.1992 66.5461C74.2322 66.0592 74.2394 65.4678 73.888 65.0848C74.5207 66.0962 75.4007 67.0315 76.2283 67.8953Z" fill="#D0CDE1"/>
<path id="Vector_20" d="M74.6667 59.3949C74.4177 59.845 72.5819 60.9627 72.2274 61.3357C70.2472 63.4199 66.6331 63.3417 64.8221 65.574C64.1849 66.3594 63.8538 67.3463 63.6104 68.3274C63.266 69.715 63.0821 71.2283 63.659 72.5367C64.2141 73.7957 65.3825 74.6661 66.1758 75.7907C67.0469 77.0255 67.4385 78.5247 67.8138 79.9879C68.091 81.0682 68.3704 82.1753 68.2625 83.2852C68.1398 84.5473 67.5282 85.7028 67.1671 86.9184C66.806 88.134 66.7436 89.5818 67.5786 90.5371C68.1919 91.239 69.1541 91.5172 70.0737 91.6737C71.2516 91.8505 72.4393 91.9537 73.63 91.9829C74.6813 92.0293 75.8401 92.0383 76.6482 91.3653C77.2859 90.8344 77.563 89.9727 77.5989 89.1444C77.6348 88.3161 77.4622 87.4951 77.3541 86.673C77.242 85.8209 77.199 84.9613 77.1629 84.1026C77.0012 80.2496 76.9792 76.3941 77.0967 72.5362C77.1212 71.7334 77.1509 70.9208 76.9795 70.1361C76.754 69.1041 76.1955 68.1818 75.7294 67.2335C74.8043 65.3514 74.3668 63.5231 74.5098 61.4312C74.6509 59.3664 75.5527 57.7933 74.6667 59.3949Z" fill="#92A3FD"/>
<path id="Vector_21" d="M85.0196 59.5516C85.3989 59.9409 86.6877 60.0692 87.1701 60.3199C87.6239 60.5292 88.0975 60.6929 88.5838 60.8086C90.3437 61.3156 92.0176 62.0827 93.55 63.0846C93.8684 63.2706 94.1499 63.5134 94.3805 63.8009C94.6504 64.1759 94.7484 64.6437 94.8399 65.0963C95.0762 66.2648 95.3136 67.4474 95.2605 68.6383C95.2041 69.9025 94.8228 71.1268 94.4445 72.3345L93.031 76.847C91.9759 80.2152 90.9141 83.6167 90.6172 87.1334C90.4529 89.0825 90.5259 91.0442 90.8347 92.9757C90.8657 93.1699 90.8918 93.3925 90.7634 93.5416C90.6702 93.6335 90.5477 93.6898 90.4172 93.7006C89.735 93.8071 89.0747 93.4598 88.4566 93.1524C86.5673 92.2136 84.5511 91.5548 82.4715 91.1969C83.2841 90.0242 83.9111 88.7336 84.3304 87.3704C84.5686 86.5048 84.7561 85.626 84.8921 84.7387L85.5497 80.9411C85.8172 79.5531 86.0055 78.1509 86.1138 76.7416C86.1635 76.2127 86.1326 75.6793 86.0222 75.1596C85.8707 74.6651 85.6695 74.1871 85.4217 73.733C84.338 71.482 83.8295 68.9133 84.2559 66.4524C84.4425 65.3754 84.8051 64.297 84.6539 63.2145C84.5085 62.1737 84.6596 61.3648 84.3922 60.3348C83.2941 56.1057 84.3061 58.8193 85.0196 59.5516Z" fill="#92A3FD"/>
<path id="Vector_22" d="M64.8033 69.133C64.3092 70.1567 63.4833 71.0288 63.2021 72.13C63.0928 72.6446 63.0459 73.1705 63.0625 73.6964C63.0559 74.4889 63.0516 75.2975 63.2953 76.0517C63.4522 76.5373 63.7074 76.9852 63.8913 77.4612C64.1476 78.1263 64.2618 78.8376 64.2266 79.5494C64.177 80.5355 63.8415 81.4927 63.8153 82.4797C63.774 84.0318 64.493 85.491 65.1945 86.8766C65.3711 86.44 65.6411 86.0472 65.9855 85.7256C66.33 85.4041 66.7407 85.1615 67.1889 85.015C67.6371 84.8685 68.1119 84.8216 68.5801 84.8774C69.0484 84.9333 69.4987 85.0906 69.8997 85.3385C70.0848 85.1678 70.1045 84.8876 70.1118 84.6361C70.1636 82.8354 70.2136 81.0346 70.2618 79.2338C70.3377 76.4487 70.4101 73.6264 69.7685 70.915C69.4788 69.6907 69.028 68.4712 68.2017 67.5217C67.7666 67.0217 66.2896 65.7048 65.5753 66.2649C65.2541 66.5168 65.3292 67.2024 65.2783 67.5496C65.2015 68.0984 65.0413 68.6324 64.8033 69.133Z" fill="#92A3FD"/>
<path id="Vector_23" d="M95.4049 66.1828C95.6386 66.9094 95.6526 67.6858 95.6572 68.4489C95.6667 70.0056 95.6461 71.562 95.5953 73.1183C95.5692 73.915 95.5334 74.7226 95.2915 75.4823C95.1319 75.9833 94.8857 76.453 94.721 76.9523C94.2272 78.4486 94.497 80.0716 94.5393 81.6465C94.5692 82.1562 94.5256 82.6676 94.4099 83.165C94.1493 84.1413 93.449 84.9302 92.9602 85.8149C92.496 86.6551 92.2159 87.5969 91.6614 88.3807C91.107 89.1645 90.1472 89.7855 89.2169 89.5449C88.512 89.3626 88.0111 88.7396 87.6647 88.1001C86.9087 86.694 86.6501 85.0743 86.9309 83.5032C87.2787 81.5917 88.4031 79.8959 88.8087 77.9958C89.3655 75.3865 88.5192 72.694 88.5444 70.0262C88.5329 69.608 88.5897 69.1908 88.7126 68.7908C88.9253 68.1814 89.3821 67.6948 89.8041 67.2061C90.3315 66.5954 90.8214 65.9533 91.2712 65.2835C91.5734 64.8336 91.9837 63.6764 92.5194 63.5801C93.7153 63.3653 95.1082 65.2602 95.4049 66.1828Z" fill="#92A3FD"/>
<path id="Vector_24" d="M58.5977 92.1912C57.9364 92.0252 57.2549 91.9529 56.5734 91.9763C55.8574 92.0158 55.158 92.2071 54.5217 92.5374C53.8854 92.8678 53.3268 93.3296 52.8831 93.8921C52.4394 94.4547 52.1208 95.1052 51.9483 95.8003C51.7758 96.4953 51.7535 97.2191 51.8829 97.9235C52.048 98.6864 52.318 99.423 52.685 100.112C53.2218 101.2 53.8657 102.285 54.8595 102.983C55.4409 103.39 56.1138 103.645 56.7786 103.895L62.0129 105.864C62.783 106.153 63.5531 106.443 64.3308 106.712C68.2376 108.06 72.3107 108.869 76.437 109.115C77.6938 109.19 78.9697 109.21 80.1959 108.925C80.4868 108.857 80.7972 108.756 80.9657 108.509C81.0654 108.336 81.1243 108.142 81.1377 107.942L81.4598 105.691C81.5051 105.373 81.5487 105.04 81.4324 104.741C81.2848 104.363 80.915 104.125 80.5623 103.923C77.1212 101.949 73.1032 100.86 70.2067 98.1516C69.5248 97.514 68.9541 96.5032 68.1257 96.07C67.1862 95.5788 66.0798 95.2985 65.1087 94.8459C62.9858 93.8564 60.8985 92.7193 58.5977 92.1912Z" fill="#2F2E41"/>
<path id="Vector_25" opacity="0.1" d="M63.8234 95.2266C65.6735 95.8055 73.4846 99.816 74.8235 101.216C74.644 101.281 68.5551 97.8734 68.3724 97.8187C66.7116 97.321 65.0416 96.82 63.4644 96.0916C63.1471 95.9451 61.4032 95.2563 61.4821 94.8566C61.5713 94.4055 63.4949 95.1238 63.8234 95.2266Z" fill="black"/>
<path id="Vector_26" d="M86.9046 110.282C87.0096 110.29 87.1138 110.26 87.1979 110.196C87.2348 110.149 87.2619 110.095 87.2776 110.037C87.2934 109.979 87.2974 109.919 87.2896 109.859C87.2867 108.837 87.2838 107.814 87.281 106.792C86.3976 106.372 85.4095 106.237 84.4396 106.107L79.9144 105.503C80.0184 105.517 79.2068 107.45 79.3313 107.708C79.5506 108.162 81.2266 108.565 81.6996 108.78C83.344 109.526 85.0526 110.347 86.9046 110.282Z" fill="#FFEDE5"/>
<path id="Vector_27" d="M72.7067 106.781C71.8523 106.917 70.8986 107.037 70.3453 107.701C69.6436 108.544 69.9423 109.799 70.277 110.842C70.3268 111.054 70.4266 111.25 70.5681 111.414C70.7966 111.639 71.1466 111.672 71.4669 111.692C72.2461 111.742 73.0753 111.78 73.7561 111.399C74.0645 111.195 74.3614 110.975 74.6454 110.738C75.1475 110.405 75.6994 110.153 76.2805 109.992C77.3488 109.657 78.4484 109.43 79.5625 109.317C80.0015 109.297 80.4361 109.22 80.8555 109.089C81.2663 108.935 81.6467 108.628 81.766 108.206C81.9237 107.649 81.5993 107.081 81.2881 106.592C80.9004 105.983 80.4898 105.342 79.9118 104.893C79.0686 104.239 78.6515 104.741 77.8021 105.16C76.1945 105.952 74.4769 106.499 72.7067 106.781Z" fill="#FFEDE5"/>
<path id="Vector_28" d="M70.4739 107.55L65.0486 105.949C64.3888 105.754 63.7178 105.557 63.0297 105.558C62.3417 105.558 61.6219 105.784 61.1756 106.307C60.755 106.8 60.6346 107.474 60.5297 108.113L60.3053 109.48C60.1913 110.175 60.0771 110.883 60.1797 111.58C60.2823 112.276 60.6385 112.972 61.2575 113.31C62.0082 113.719 62.9284 113.519 63.7662 113.348C65.4587 113.002 67.1801 112.818 68.9074 112.797C69.5568 112.789 70.2379 112.798 70.8117 112.494C71.4938 112.133 71.9019 111.37 71.972 110.602C72.0788 109.434 71.6889 107.908 70.4739 107.55Z" fill="#2F2E41"/>
<path id="Vector_29" d="M89.0372 106.154C89.7405 106.031 90.3612 105.632 91.0351 105.397C91.9837 105.065 93.0116 105.065 94.0166 105.069C94.3856 105.07 94.7784 105.078 95.0855 105.282C95.5282 105.577 95.6417 106.166 95.717 106.691L96.1711 109.863C96.2565 110.46 96.3415 111.072 96.2082 111.66C96.075 112.248 95.6737 112.815 95.0896 112.966C94.3802 113.15 93.6848 112.698 93.0149 112.401C91.3408 111.658 89.3946 111.847 87.649 111.292C87.3251 111.189 86.9781 111.032 86.846 110.719C86.7863 110.543 86.7649 110.356 86.7835 110.171C86.8134 109.151 86.598 107.759 86.9054 106.785C87.1819 105.908 88.2522 106.154 89.0372 106.154Z" fill="#2F2E41"/>
<path id="Vector_30" d="M100.518 90.9145C101.602 90.6431 102.726 90.5664 103.837 90.6881C104.724 90.7857 105.638 91.0322 106.286 91.6454C107.074 92.3918 107.328 93.546 107.349 94.6307C107.384 96.791 106.666 98.8963 105.319 100.587C104.99 101.015 104.599 101.391 104.158 101.703C103.683 101.999 103.177 102.243 102.648 102.429L90.9261 107.046C87.8423 108.261 84.7476 109.479 81.531 110.279C81.4431 110.322 81.3475 110.346 81.25 110.351C81.1525 110.356 81.0549 110.342 80.9631 110.308C80.8713 110.275 80.7871 110.224 80.7154 110.158C80.6437 110.091 80.5861 110.012 80.5458 109.923C79.5187 108.458 78.6571 106.884 77.9766 105.23C77.9444 105.191 77.9221 105.144 77.9117 105.094C77.9013 105.045 77.903 104.993 77.9167 104.944C77.9305 104.895 77.9558 104.851 77.9906 104.813C78.0254 104.776 78.0686 104.748 78.1166 104.731L86.4077 99.9745C87.0015 99.6338 87.6021 99.2882 88.0952 98.8135C88.4535 98.4667 88.7469 98.0589 88.9616 97.6091C89.1334 97.2506 89.1495 96.4048 89.369 96.1398C89.5839 95.8804 90.3192 95.8597 90.6587 95.7577C91.1376 95.6112 91.6066 95.4342 92.0628 95.2277C93.9175 94.3992 95.569 93.1954 97.347 92.2253C98.3442 91.656 99.4098 91.2156 100.518 90.9145Z" fill="#2F2E41"/>
<path id="Vector_31" opacity="0.1" d="M95.8179 94.4669C94.3934 95.5352 92.549 96.5172 91.1373 97.6136C90.6554 97.9878 82.6234 102.497 82.5098 103.096C83.8269 103.317 92.2169 97.4565 93.4173 96.8717C94.6177 96.2869 95.6819 95.4621 96.7363 94.6435C97.005 94.4349 98.1439 93.8077 97.3725 93.5746C96.9379 93.4433 96.1387 94.2533 95.8179 94.4669Z" fill="black"/>
<path id="Vector_32" d="M88.0039 44.8815L81.6619 41.5645L72.9041 42.9214L71.0921 50.9127L75.6026 50.7395L76.8627 47.8036V50.6911L78.944 50.6111L80.152 45.9371L80.9069 50.9127L88.3058 50.7619L88.0039 44.8815Z" fill="#2F2E41"/>
<path id="Vector_33" d="M86.5882 61.2745H72.9412V77.7211H86.5882V61.2745Z" fill="#3F3D56"/>
<path id="Vector_34" d="M66.4625 89.8795C66.7759 90.3466 67.143 90.8034 67.6463 91.0554C67.9672 91.2018 68.3174 91.273 68.6701 91.2635C69.0228 91.2541 69.3687 91.1643 69.6813 91.001C70.3056 90.6667 70.8167 90.155 71.1498 89.5307C71.8391 88.3154 71.9818 86.8611 71.8958 85.4671C71.8098 84.0731 71.5117 82.7004 71.3798 81.31C71.2839 80.2992 71.2761 79.2824 71.2684 78.2672C71.2446 78.0537 71.2894 77.8382 71.3964 77.6518C71.5491 77.4437 71.8286 77.3863 72.0763 77.3128C73.4673 76.9001 74.3907 75.5982 75.0526 74.3087C75.4946 73.4477 75.879 72.5065 75.7938 71.5427C75.7085 70.5789 75.0147 69.6079 74.0508 69.5096C73.2561 69.4285 72.5223 69.9326 71.949 70.4881C70.5029 71.8983 69.5735 73.753 69.3102 75.7542C69.1843 76.7341 69.2204 77.7408 68.9535 78.6921C68.3835 80.7235 66.6002 81.9689 65.7115 83.7968C64.7323 85.8108 65.2727 88.0974 66.4625 89.8795Z" fill="#FFEDE5"/>
<path id="Vector_35" d="M92.7046 82.1189C92.5018 82.59 92.2065 83.0157 91.8362 83.371C91.4659 83.7263 91.0281 84.0039 90.5486 84.1875C89.9526 84.4265 89.2951 84.4667 88.6744 84.3021C88.3665 84.2168 88.0825 84.0618 87.8444 83.8491C87.6062 83.6365 87.4204 83.3718 87.3014 83.0758C87.2064 82.7776 87.1543 82.4675 87.1467 82.1547C87.0575 80.7848 87.092 79.3732 87.5903 78.0938C87.7825 77.6004 88.0416 77.1324 88.1933 76.6251C88.3424 76.0391 88.4186 75.4371 88.4204 74.8325L88.5842 71.0949C88.6113 70.8235 88.5925 70.5496 88.5286 70.2844C88.3652 69.7436 87.859 69.3922 87.3946 69.0696C86.2729 68.2907 85.1645 67.3818 84.6209 66.1302C84.4342 65.7534 84.3673 65.3285 84.4293 64.9126C84.5825 64.1705 85.3326 63.69 86.074 63.5281C86.5591 63.4222 87.0607 63.4154 87.5484 63.5082C88.0362 63.601 88.5001 63.7914 88.9123 64.068C89.3244 64.3447 89.6761 64.7017 89.9464 65.1177C90.2166 65.5336 90.3997 65.9999 90.4847 66.4885C90.558 66.9103 90.557 67.3411 90.6 67.7671C90.691 68.6706 90.9783 69.5416 91.158 70.4319C91.6007 72.6247 91.3713 74.8914 91.809 77.0838C92.175 78.917 93.5551 80.1131 92.7046 82.1189Z" fill="#FFEDE5"/>
<path id="Vector_36" d="M8.25582 104.979L7.94209 104.972C8.06343 101.489 8.43561 98.0194 9.05576 94.5896C10.4124 87.2464 12.6682 82.4238 15.7606 80.2557L15.9407 80.5121C8.71691 85.5767 8.2595 104.785 8.25582 104.979Z" fill="#2F2E41"/>
<path id="Vector_37" d="M12.1774 104.904L11.8637 104.897C11.8704 104.55 12.0665 96.3743 15.29 94.1144L15.4701 94.3708C12.3767 96.5395 12.1789 104.82 12.1774 104.904Z" fill="#2F2E41"/>
<path id="Vector_38" d="M17.7255 80.5405C18.5918 80.5405 19.2941 79.8392 19.2941 78.9742C19.2941 78.1091 18.5918 77.4078 17.7255 77.4078C16.8592 77.4078 16.1569 78.1091 16.1569 78.9742C16.1569 79.8392 16.8592 80.5405 17.7255 80.5405Z" fill="#92A3FD"/>
<path id="Vector_39" d="M16.9487 94.011C17.815 94.011 18.5173 93.3098 18.5173 92.4447C18.5173 91.5796 17.815 90.8784 16.9487 90.8784C16.0823 90.8784 15.3801 91.5796 15.3801 92.4447C15.3801 93.3098 16.0823 94.011 16.9487 94.011Z" fill="#92A3FD"/>
<path id="Vector_40" d="M11.4462 81.4795C11.741 83.3597 10.9727 85.0415 10.9727 85.0415C10.9727 85.0415 9.72636 83.6747 9.43155 81.7945C9.13675 79.9142 9.90511 78.2325 9.90511 78.2325C9.90511 78.2325 11.1514 79.5993 11.4462 81.4795Z" fill="#2F2E41"/>
<path id="Vector_41" d="M16.5736 86.046C14.7708 86.6635 12.9785 86.201 12.9785 86.201C12.9785 86.201 14.1092 84.7374 15.912 84.1199C17.7148 83.5024 19.5071 83.9649 19.5071 83.9649C19.5071 83.9649 18.3764 85.4285 16.5736 86.046Z" fill="#2F2E41"/>
<path id="Vector_42" d="M16.6315 97.9754C15.8156 98.2313 14.9466 98.2688 14.1116 98.0841C14.6418 97.41 15.3559 96.9035 16.1678 96.6254C16.9797 96.3473 17.8548 96.3096 18.6876 96.5167C18.142 97.1743 17.433 97.6773 16.6315 97.9754Z" fill="#2F2E41"/>
</g>
<defs>
<clipPath id="clip0_2310_72">
<rect width="160" height="115" fill="white"/>
</clipPath>
</defs>
</svg>
