<svg width="344" height="242" viewBox="0 0 344 242" fill="none" xmlns="http://www.w3.org/2000/svg">
<g filter="url(#filter0_d_1040_1655)">
<path d="M330.831 2.55707H14.001V211.583H330.831V2.55707Z" fill="#FAFAFA"/>
<path d="M319.536 197.725C319.536 196.968 319.467 171.621 319.398 126.576L319.536 126.714H27.0191L27.1569 126.508V197.725L27.0191 197.588L319.536 197.725L27.0191 197.932H26.8125V126.439H319.605C319.536 171.621 319.536 196.968 319.536 197.725Z" fill="#E0E0E0"/>
<path d="M169.042 120.653V113.559C169.042 108.944 169.042 102.194 168.973 93.516C168.973 76.1592 168.973 51.295 168.904 21.0584L169.042 21.1961H27.6392L27.8459 21.0584C27.8459 56.6673 27.777 90.4854 27.777 120.653L27.6392 120.446L129.645 120.584H27.5015V120.446C27.5015 90.2788 27.4326 56.4607 27.4326 20.8517V20.6451H169.248V20.7829C169.18 51.0195 169.18 75.9526 169.111 93.3093V118.587C169.111 120.033 169.042 120.653 169.042 120.653Z" fill="#E0E0E0"/>
<path d="M42.9297 101.781L53.1233 87.0415C53.6182 86.3328 54.2485 85.7291 54.978 85.2654C55.7075 84.8016 56.5216 84.487 57.3734 84.3397C58.2251 84.1924 59.0976 84.2154 59.9404 84.4072C60.7833 84.599 61.5798 84.956 62.2839 85.4574L63.7303 86.4905C64.5515 87.0829 65.5002 87.4745 66.5002 87.6337C67.5002 87.7929 68.5236 87.7153 69.4882 87.4072C70.4528 87.099 71.3316 86.5689 72.0542 85.8595C72.7767 85.15 73.3227 84.281 73.6484 83.3222L78.6075 68.8582C79.0266 67.5528 79.8494 66.4141 80.9572 65.6062C82.0651 64.7984 83.4008 64.3631 84.7719 64.3631C86.143 64.3631 87.4787 64.7984 88.5865 65.6062C89.6944 66.4141 90.5172 67.5528 90.9363 68.8582L93.347 75.8147C95.2755 81.4626 103.127 81.8069 105.469 76.3657L107.604 71.6822C108.068 70.6204 108.809 69.7027 109.749 69.0248C110.688 68.3469 111.793 67.9336 112.947 67.828C114.101 67.7225 115.262 67.9286 116.309 68.4248C117.356 68.921 118.251 69.6891 118.9 70.649C119.587 71.6451 120.538 72.431 121.645 72.9193C122.752 73.4077 123.974 73.5793 125.173 73.4151C126.372 73.251 127.502 72.7575 128.437 71.9895C129.373 71.2215 130.077 70.2091 130.471 69.0649L132.813 62.315C134.948 56.0473 143.902 56.5294 145.348 62.9349L154.165 101.781C154.165 101.781 43.2741 101.505 42.9297 101.781Z" fill="#5C50E8"/>
<g opacity="0.3">
<path opacity="0.3" d="M42.6904 101.542L52.8841 86.803C53.3789 86.0942 54.0093 85.4905 54.7387 85.0268C55.4682 84.5631 56.2823 84.2485 57.1341 84.1012C57.9858 83.9539 58.8583 83.9768 59.7012 84.1686C60.544 84.3605 61.3405 84.7174 62.0446 85.2188L63.491 86.252C64.3122 86.8444 65.2609 87.2359 66.2609 87.3951C67.2609 87.5543 68.2844 87.4767 69.2489 87.1686C70.2135 86.8605 71.0924 86.3304 71.8149 85.6209C72.5374 84.9115 73.0835 84.0425 73.4092 83.0837L78.3682 68.6197C78.7874 67.3142 79.6101 66.1755 80.718 65.3677C81.8258 64.5598 83.1615 64.1246 84.5326 64.1246C85.9037 64.1246 87.2394 64.5598 88.3473 65.3677C89.4551 66.1755 90.2779 67.3142 90.697 68.6197L93.1077 75.5762C95.0362 81.224 102.888 81.5684 105.23 76.1272L107.365 71.4436C107.829 70.3819 108.57 69.4642 109.509 68.7862C110.449 68.1083 111.554 67.695 112.708 67.5895C113.862 67.4839 115.023 67.69 116.07 68.1862C117.117 68.6824 118.012 69.4506 118.661 70.4105C119.348 71.4065 120.298 72.1925 121.406 72.6808C122.513 73.1691 123.734 73.3407 124.933 73.1766C126.133 73.0124 127.263 72.5189 128.198 71.7509C129.133 70.9829 129.837 69.9705 130.232 68.8263L132.574 62.0765C134.709 55.8087 143.663 56.2909 145.109 62.6963L153.925 101.542C153.925 101.542 43.0348 101.267 42.6904 101.542Z" fill="black"/>
</g>
<path d="M42.6543 102.194L50.9194 77.9499C51.334 76.6968 52.1296 75.6044 53.195 74.8253C54.2605 74.0462 55.5426 73.6193 56.8625 73.6041C58.1823 73.5889 59.4739 73.9863 60.557 74.7407C61.6401 75.4951 62.4606 76.5689 62.9038 77.8122L66.8987 88.5568C67.2961 89.609 67.9636 90.538 68.8341 91.2503C69.7045 91.9627 70.7471 92.4333 71.8572 92.6148C72.9672 92.7963 74.1054 92.6823 75.1574 92.2843C76.2094 91.8864 77.138 91.2184 77.8499 90.3476L81.0182 86.3528C82.0481 85.0734 83.5301 84.2385 85.1581 84.0206C86.786 83.8027 88.4354 84.2184 89.7655 85.1819L97.273 90.692C98.3669 91.4473 99.663 91.8553 100.992 91.8629H110.566C111.902 91.8949 113.197 92.3267 114.285 93.1026L121.38 98.2683C122.069 98.7696 122.851 99.1284 123.68 99.3238C124.509 99.5191 125.369 99.547 126.209 99.4059C127.049 99.2648 127.853 98.9575 128.573 98.502C129.293 98.0465 129.915 97.4519 130.402 96.7531L137.014 87.0415L137.29 86.6972C137.928 85.9277 138.748 85.3299 139.675 84.9582C140.603 84.5865 141.609 84.4528 142.602 84.5691C143.594 84.6855 144.542 85.0483 145.358 85.6245C146.175 86.2007 146.835 86.9719 147.277 87.8681L154.371 101.919C154.371 101.919 42.6543 101.712 42.6543 102.194Z" fill="#92A3FD"/>
<path d="M154.371 101.919L145.693 94.894C133.846 86.2157 128.198 102.815 118.9 90.3482L115.663 86.3534C114.633 85.074 113.151 84.2391 111.523 84.0212C109.895 83.8033 108.245 84.219 106.915 85.1825L103.196 87.9376C99.6485 90.5001 95.3811 91.8744 91.0049 91.8635H86.1836C84.8249 91.886 83.5046 92.3181 82.3954 93.1033L75.3012 98.269C72.4084 100.404 70.411 100.68 65.7274 96.8226L60.5617 92.5523C58.0822 89.5217 52.9165 89.5217 50.7124 92.5523C50.1762 93.2716 49.6014 93.9614 48.9905 94.6185L42.3096 101.919C42.3096 101.919 154.371 101.506 154.371 101.919Z" fill="#6888F9"/>
<g opacity="0.3">
<path opacity="0.3" d="M154.227 101.872L145.549 94.8468C133.702 86.1684 128.054 102.768 118.756 90.301L115.519 86.3061C114.489 85.0267 113.007 84.1918 111.379 83.9739C109.751 83.756 108.102 84.1718 106.772 85.1353L103.052 87.8903C99.505 90.4528 95.2376 91.8271 90.8614 91.8162H86.04C84.6813 91.8387 83.361 92.2708 82.2519 93.056L75.1576 98.2217C72.2648 100.357 70.2674 100.632 65.5839 96.7753L60.4182 92.505C57.9386 89.4744 52.7729 89.4744 50.5689 92.505C50.0326 93.2243 49.4578 93.9141 48.847 94.5713L42.166 101.872C42.166 101.872 154.227 101.459 154.227 101.872Z" fill="white"/>
</g>
<path d="M73.373 46.0609C73.373 46.1298 69.3782 46.1986 64.5569 46.1986C59.7356 46.1986 55.6719 46.1298 55.6719 46.0609C55.6719 45.992 59.6667 45.8543 64.5569 45.8543C69.4471 45.8543 73.373 45.9231 73.373 46.0609Z" fill="#263238"/>
<path d="M53.7434 44.5444H50.7129V47.568H53.7434V44.5444Z" fill="#5449D3"/>
<path d="M106.709 46.0609C106.709 46.1298 102.783 46.1986 97.8928 46.1986C93.0026 46.1986 89.0078 46.1298 89.0078 46.0609C89.0078 45.992 93.0026 45.8543 97.8928 45.8543C102.783 45.8543 106.709 45.9231 106.709 46.0609Z" fill="#263238"/>
<path d="M87.0794 44.5444H84.0488V47.568H87.0794V44.5444Z" fill="#92A3FD"/>
<path d="M140.045 46.0609C140.045 46.1298 136.119 46.1986 131.229 46.1986C126.339 46.1986 122.413 46.1298 122.413 46.0609C122.413 45.992 126.339 45.8543 131.229 45.8543C136.119 45.8543 140.045 45.9231 140.045 46.0609Z" fill="#263238"/>
<path d="M120.415 44.5444H117.385V47.568H120.415V44.5444Z" fill="#7693FA"/>
<path d="M140.313 185.726L147.545 175.326C147.75 175.041 148.01 174.8 148.309 174.617C148.608 174.435 148.941 174.314 149.288 174.263C149.635 174.211 149.989 174.23 150.329 174.318C150.668 174.406 150.986 174.561 151.265 174.775L155.122 177.668C155.419 177.88 155.758 178.027 156.115 178.1C156.473 178.174 156.842 178.171 157.199 178.093C157.556 178.016 157.892 177.864 158.187 177.648C158.482 177.433 158.728 177.158 158.91 176.841L169.999 157.762C170.2 157.387 170.493 157.068 170.849 156.834C171.206 156.601 171.615 156.46 172.04 156.426C172.465 156.392 172.892 156.465 173.281 156.638C173.671 156.811 174.01 157.079 174.269 157.418L181.157 166.165C181.415 166.495 181.748 166.759 182.129 166.933C182.51 167.108 182.927 167.188 183.346 167.168C183.764 167.148 184.171 167.027 184.534 166.817C184.896 166.606 185.202 166.312 185.427 165.959L190.455 158.038C190.694 157.656 191.028 157.343 191.423 157.128C191.819 156.913 192.263 156.804 192.713 156.811C193.163 156.818 193.604 156.941 193.993 157.168C194.381 157.395 194.705 157.718 194.932 158.107L199.065 165.339C199.292 165.727 199.616 166.051 200.004 166.278C200.393 166.505 200.834 166.628 201.284 166.635C201.734 166.641 202.178 166.532 202.574 166.317C202.969 166.102 203.303 165.789 203.542 165.408L217.799 143.161C218.021 142.787 218.336 142.476 218.712 142.258C219.088 142.039 219.514 141.921 219.949 141.914C220.384 141.907 220.814 142.012 221.197 142.218C221.58 142.424 221.904 142.725 222.138 143.092L245.625 178.219C245.842 178.555 246.134 178.837 246.477 179.043C246.821 179.25 247.207 179.374 247.606 179.407C248.006 179.441 248.407 179.382 248.78 179.235C249.153 179.089 249.488 178.859 249.758 178.563L264.015 162.859C264.25 162.594 264.536 162.379 264.857 162.228C265.177 162.076 265.525 161.991 265.879 161.979C266.234 161.966 266.587 162.025 266.917 162.153C267.248 162.28 267.549 162.474 267.803 162.721L279.168 174.155C279.452 174.441 279.799 174.658 280.181 174.788C280.563 174.918 280.97 174.958 281.371 174.905C281.771 174.852 282.153 174.706 282.488 174.481C282.823 174.255 283.101 173.955 283.3 173.604L303.619 138.408C303.905 137.906 304.35 137.513 304.884 137.29C305.417 137.068 306.01 137.028 306.568 137.178C307.127 137.327 307.62 137.657 307.971 138.117C308.322 138.576 308.511 139.139 308.509 139.717V185.726H140.313Z" fill="#2344F0"/>
<path d="M308.241 191.32V187.945L224.625 188.083L141.01 187.945V191.114C140.944 190.914 140.92 190.703 140.941 190.494V187.945H308.309V191.32H308.241Z" fill="#263238"/>
<path d="M159.606 191.044C159.468 191.044 159.399 190.769 159.399 190.356C159.399 189.942 159.468 189.667 159.606 189.667C159.744 189.667 159.744 189.942 159.744 190.356C159.744 190.769 159.675 191.044 159.606 191.044Z" fill="#263238"/>
<path d="M178.133 191.044C178.064 191.044 177.995 190.769 177.995 190.356C177.995 189.942 178.064 189.667 178.133 189.667C178.202 189.667 178.339 189.942 178.339 190.356C178.339 190.769 178.271 191.044 178.133 191.044Z" fill="#263238"/>
<path d="M196.73 191.044C196.661 191.044 196.592 190.769 196.592 190.356C196.592 189.942 196.661 189.667 196.73 189.667C196.798 189.667 196.936 189.942 196.936 190.356C196.936 190.769 196.867 191.044 196.73 191.044Z" fill="#263238"/>
<path d="M215.327 191.044C215.258 191.044 215.12 190.769 215.12 190.356C215.12 189.942 215.258 189.667 215.327 189.667C215.396 189.667 215.533 189.942 215.533 190.356C215.533 190.769 215.464 191.044 215.327 191.044Z" fill="#263238"/>
<path d="M233.923 191.044C233.855 191.044 233.717 190.769 233.717 190.356C233.717 189.942 233.855 189.667 233.923 189.667C233.992 189.667 234.13 189.942 234.13 190.356C234.13 190.769 233.992 191.044 233.923 191.044Z" fill="#263238"/>
<path d="M252.52 191.044C252.382 191.044 252.313 190.769 252.313 190.356C252.313 189.942 252.382 189.667 252.52 189.667C252.658 189.667 252.658 189.942 252.658 190.356C252.658 190.769 252.589 191.044 252.52 191.044Z" fill="#263238"/>
<path d="M271.117 191.044C270.979 191.044 270.91 190.769 270.91 190.356C270.91 189.942 270.979 189.667 271.117 189.667C271.255 189.667 271.255 189.942 271.255 190.356C271.255 190.769 271.186 191.044 271.117 191.044Z" fill="#263238"/>
<path d="M289.644 191.044C289.575 191.044 289.506 190.769 289.506 190.356C289.506 189.942 289.575 189.667 289.644 189.667C289.712 189.667 289.85 189.942 289.85 190.356C289.85 190.769 289.781 191.044 289.644 191.044Z" fill="#263238"/>
<path d="M320.431 97.7861V93.1025C320.431 90.0031 320.363 85.4573 320.363 79.6028C320.363 67.9628 320.363 51.0193 320.294 30.2187L320.431 30.3564H179.029L179.167 30.2187V97.7861L179.029 97.6483H178.822V30.0121H320.569V30.1498C320.569 51.0193 320.5 67.9628 320.5 79.6028V93.1025C320.431 94.6178 320.431 95.7887 320.431 96.5463V97.7861Z" fill="#E0E0E0"/>
<path d="M288.404 59.6978H191.013C190.575 59.6978 190.155 59.5236 189.845 59.2136C189.535 58.9036 189.36 58.4831 189.36 58.0447C189.36 57.8308 189.403 57.619 189.487 57.4222C189.571 57.2253 189.694 57.0475 189.848 56.8995C190.003 56.7515 190.186 56.6362 190.386 56.5608C190.586 56.4854 190.8 56.4513 191.013 56.4606H288.404C288.618 56.4513 288.831 56.4854 289.031 56.5608C289.232 56.6362 289.415 56.7515 289.569 56.8995C289.724 57.0475 289.846 57.2253 289.93 57.4222C290.014 57.619 290.057 57.8308 290.057 58.0447C290.057 58.4831 289.883 58.9036 289.573 59.2136C289.263 59.5236 288.843 59.6978 288.404 59.6978Z" fill="#E0E0E0"/>
<path d="M288.404 46.8177H191.013C190.8 46.827 190.586 46.7929 190.386 46.7175C190.186 46.642 190.003 46.5268 189.848 46.3788C189.694 46.2307 189.571 46.0529 189.487 45.8561C189.403 45.6593 189.36 45.4475 189.36 45.2335C189.36 45.0165 189.403 44.8015 189.486 44.601C189.569 44.4004 189.691 44.2182 189.845 44.0647C189.998 43.9112 190.18 43.7894 190.381 43.7063C190.581 43.6233 190.796 43.5805 191.013 43.5805H288.404C288.621 43.5805 288.836 43.6233 289.037 43.7063C289.237 43.7894 289.419 43.9112 289.573 44.0647C289.726 44.2182 289.848 44.4004 289.931 44.601C290.014 44.8015 290.057 45.0165 290.057 45.2335C290.057 45.4475 290.014 45.6593 289.93 45.8561C289.846 46.0529 289.724 46.2307 289.569 46.3788C289.415 46.5268 289.232 46.642 289.031 46.7175C288.831 46.7929 288.618 46.827 288.404 46.8177Z" fill="#E0E0E0"/>
<path d="M235.025 59.6978H191.013C190.575 59.6978 190.155 59.5236 189.845 59.2136C189.535 58.9036 189.36 58.4831 189.36 58.0447C189.36 57.8308 189.403 57.619 189.487 57.4222C189.571 57.2253 189.694 57.0475 189.848 56.8995C190.003 56.7515 190.186 56.6362 190.386 56.5608C190.586 56.4854 190.8 56.4513 191.013 56.4606H235.025C235.239 56.4513 235.452 56.4854 235.653 56.5608C235.853 56.6362 236.036 56.7515 236.19 56.8995C236.345 57.0475 236.467 57.2253 236.551 57.4222C236.635 57.619 236.678 57.8308 236.678 58.0447C236.678 58.4831 236.504 58.9036 236.194 59.2136C235.884 59.5236 235.464 59.6978 235.025 59.6978Z" fill="#455A64"/>
<path d="M300.802 58.7328H300.044V59.6971H299.562V58.7328H297.427V58.3885L299.355 55.9089H299.975L298.116 58.3196H299.562V57.4931H300.044V58.3196H300.802V58.7328Z" fill="#263238"/>
<path d="M303.763 58.5262C303.763 59.215 303.281 59.6971 302.317 59.6971C301.823 59.7287 301.334 59.5821 300.939 59.2838L301.146 58.8706C301.491 59.1047 301.9 59.2252 302.317 59.215C302.868 59.215 303.212 59.0083 303.212 58.5951C303.212 58.1818 302.937 57.9063 302.041 57.9063H301.215L301.422 55.9089H303.557V56.3911H301.835V57.4242H302.248C303.281 57.4242 303.763 57.9063 303.763 58.5262Z" fill="#263238"/>
<path d="M304.107 56.8733C304.107 56.2534 304.452 55.8401 304.934 55.8401C305.208 55.8401 305.471 55.949 305.664 56.1428C305.858 56.3365 305.967 56.5993 305.967 56.8733C305.967 57.1473 305.858 57.4101 305.664 57.6038C305.471 57.7976 305.208 57.9064 304.934 57.9064C304.452 57.9064 304.107 57.4932 304.107 56.8733ZM305.485 56.8733C305.485 56.46 305.278 56.1845 304.934 56.1845C304.59 56.1845 304.452 56.46 304.452 56.8733C304.452 57.2865 304.658 57.6309 304.934 57.6309C305.209 57.6309 305.485 57.3554 305.485 56.8733ZM307.276 55.909H307.689L305.072 59.6972H304.658L307.276 55.909ZM306.518 58.6641C306.518 58.0442 306.862 57.6309 307.345 57.6309C307.619 57.6309 307.881 57.7398 308.075 57.9335C308.269 58.1273 308.378 58.3901 308.378 58.6641C308.378 58.9381 308.269 59.2009 308.075 59.3946C307.881 59.5884 307.619 59.6972 307.345 59.6972C306.862 59.6972 306.518 59.284 306.518 58.6641ZM307.896 58.6641C307.896 58.2508 307.689 57.9753 307.345 57.9753C307 57.9753 306.862 58.2508 306.862 58.6641C306.862 59.0773 307 59.4217 307.345 59.4217C307.689 59.4217 307.896 59.1462 307.896 58.6641Z" fill="#263238"/>
<path d="M288.404 71.6136H191.013C190.575 71.6136 190.155 71.4394 189.845 71.1294C189.535 70.8194 189.36 70.3989 189.36 69.9605C189.36 69.7466 189.403 69.5348 189.487 69.3379C189.571 69.1411 189.694 68.9633 189.848 68.8153C190.003 68.6672 190.186 68.552 190.386 68.4766C190.586 68.4012 190.8 68.3671 191.013 68.3764H288.404C288.618 68.3671 288.831 68.4012 289.031 68.4766C289.232 68.552 289.415 68.6672 289.569 68.8153C289.724 68.9633 289.846 69.1411 289.93 69.3379C290.014 69.5348 290.057 69.7466 290.057 69.9605C290.057 70.3989 289.883 70.8194 289.573 71.1294C289.263 71.4394 288.843 71.6136 288.404 71.6136Z" fill="#E0E0E0"/>
<path d="M249.351 71.6133H191.082C190.857 71.6332 190.63 71.6047 190.417 71.5296C190.203 71.4546 190.009 71.3347 189.845 71.1781C189.682 71.0215 189.555 70.8318 189.471 70.6218C189.387 70.4117 189.349 70.1862 189.36 69.9603C189.36 69.0649 189.911 68.3761 190.531 68.3761H248.8C249.028 68.3473 249.26 68.3663 249.48 68.432C249.7 68.4977 249.905 68.6086 250.08 68.7577C250.255 68.9068 250.397 69.0908 250.497 69.2978C250.596 69.5049 250.652 69.7305 250.66 69.9603C250.656 70.3419 250.525 70.7113 250.288 71.0105C250.051 71.3097 249.722 71.5218 249.351 71.6133Z" fill="#455A64"/>
<path d="M300.25 67.8258V68.1702L298.735 71.614H298.115L299.63 68.3079H297.908V68.9278H297.357V67.8258H300.25Z" fill="#263238"/>
<path d="M300.595 69.6845C300.595 68.4447 301.284 67.7559 302.179 67.7559C303.074 67.7559 303.694 68.4447 303.694 69.6845C303.694 70.9242 303.074 71.613 302.179 71.613C301.284 71.613 300.595 70.9242 300.595 69.6845ZM303.143 69.6845C303.143 68.7202 302.73 68.2381 302.179 68.2381C301.628 68.2381 301.146 68.7202 301.146 69.6845C301.146 70.6487 301.559 71.1308 302.179 71.1308C302.799 71.1308 303.143 70.6487 303.143 69.6845Z" fill="#263238"/>
<path d="M304.177 68.7891C304.157 68.6605 304.165 68.5291 304.201 68.4041C304.237 68.279 304.3 68.1632 304.385 68.0649C304.47 67.9666 304.576 67.888 304.694 67.8346C304.813 67.7813 304.942 67.7544 305.072 67.756C305.554 67.756 305.899 68.1692 305.899 68.7891C305.899 69.409 305.554 69.8223 305.072 69.8223C304.942 69.8238 304.813 69.797 304.694 69.7436C304.576 69.6903 304.47 69.6117 304.385 69.5134C304.3 69.415 304.237 69.2993 304.201 69.1742C304.165 69.0491 304.157 68.9177 304.177 68.7891ZM305.554 68.7891C305.554 68.3759 305.348 68.1004 305.072 68.1004C304.797 68.1004 304.521 68.3759 304.521 68.7891C304.521 69.2024 304.728 69.5468 305.072 69.5468C305.416 69.5468 305.554 69.2713 305.554 68.7891ZM307.345 67.8249H307.758L305.141 71.6131H304.728L307.345 67.8249ZM306.587 70.5799C306.587 69.96 306.932 69.5468 307.414 69.5468C307.688 69.5468 307.951 69.6556 308.144 69.8494C308.338 70.0431 308.447 70.3059 308.447 70.5799C308.447 70.8539 308.338 71.1167 308.144 71.3104C307.951 71.5042 307.688 71.6131 307.414 71.6131C306.932 71.6131 306.587 71.1998 306.587 70.5799ZM307.965 70.5799C307.965 70.1667 307.758 69.8912 307.414 69.8912C307.069 69.8912 306.932 70.1667 306.932 70.5799C306.932 70.9932 307.138 71.3375 307.414 71.3375C307.689 71.3375 307.965 71.062 307.965 70.5799Z" fill="#263238"/>
<path d="M288.404 83.2539H191.013C190.575 83.2539 190.155 83.0798 189.845 82.7698C189.535 82.4598 189.36 82.0393 189.36 81.6009C189.36 81.1625 189.535 80.742 189.845 80.432C190.155 80.122 190.575 79.9479 191.013 79.9479H288.404C288.843 79.9479 289.263 80.122 289.573 80.432C289.883 80.742 290.057 81.1625 290.057 81.6009C290.057 82.0393 289.883 82.4598 289.573 82.7698C289.263 83.0798 288.843 83.2539 288.404 83.2539Z" fill="#E0E0E0"/>
<path d="M227.173 83.2539H191.013C190.575 83.2539 190.155 83.0798 189.845 82.7698C189.535 82.4598 189.36 82.0393 189.36 81.6009C189.36 81.1625 189.535 80.742 189.845 80.432C190.155 80.122 190.575 79.9479 191.013 79.9479H227.173C227.612 79.9479 228.032 80.122 228.342 80.432C228.652 80.742 228.826 81.1625 228.826 81.6009C228.826 82.0393 228.652 82.4598 228.342 82.7698C228.032 83.0798 227.612 83.2539 227.173 83.2539Z" fill="#455A64"/>
<path d="M300.113 82.0827C300.113 82.7714 299.7 83.2536 298.735 83.2536C298.21 83.2831 297.692 83.1107 297.289 82.7714L297.565 82.3582C297.886 82.6429 298.306 82.7911 298.735 82.7714C299.286 82.7714 299.631 82.4959 299.631 82.0827C299.631 81.6694 299.355 81.3939 298.46 81.3939H297.565L297.771 79.4654H299.906V79.8787H298.253L298.116 80.9118H298.598C299.7 80.9118 300.113 81.3939 300.113 82.0827Z" fill="#263238"/>
<path d="M300.595 81.3252C300.595 80.0854 301.283 79.3966 302.11 79.3966C302.937 79.3966 303.694 80.0854 303.694 81.3252C303.694 82.5649 303.005 83.2537 302.11 83.2537C301.215 83.2537 300.595 82.5649 300.595 81.3252ZM303.143 81.3252C303.143 80.3609 302.73 79.8788 302.11 79.8788C301.49 79.8788 301.146 80.3609 301.146 81.3252C301.146 82.2894 301.559 82.7716 302.11 82.7716C302.661 82.7716 303.143 82.2894 303.143 81.3252Z" fill="#263238"/>
<path d="M304.177 80.4298C304.177 79.8099 304.521 79.3966 305.003 79.3966C305.277 79.3966 305.54 79.5055 305.734 79.6992C305.928 79.893 306.036 80.1558 306.036 80.4298C306.036 80.7038 305.928 80.9666 305.734 81.1603C305.54 81.3541 305.277 81.4629 305.003 81.4629C304.521 81.4629 304.177 81.0496 304.177 80.4298ZM305.554 80.4298C305.554 79.9476 305.348 79.741 305.003 79.741C304.659 79.741 304.521 80.0165 304.521 80.4298C304.521 80.843 304.728 81.1874 305.003 81.1874C305.279 81.1874 305.554 80.9119 305.554 80.4298ZM307.276 79.4655H307.758L305.141 83.2537H304.728L307.276 79.4655ZM306.519 82.2205C306.509 82.0938 306.525 81.9665 306.565 81.846C306.605 81.7254 306.668 81.6139 306.751 81.5179C306.835 81.4219 306.936 81.3432 307.05 81.2865C307.163 81.2298 307.287 81.1961 307.414 81.1874C307.688 81.1874 307.951 81.2963 308.144 81.49C308.338 81.6838 308.447 81.9465 308.447 82.2205C308.447 82.4945 308.338 82.7573 308.144 82.9511C307.951 83.1448 307.688 83.2537 307.414 83.2537C307.287 83.245 307.163 83.2113 307.05 83.1546C306.936 83.0978 306.835 83.0192 306.751 82.9232C306.668 82.8272 306.605 82.7157 306.565 82.5951C306.525 82.4745 306.509 82.3472 306.519 82.2205ZM307.965 82.2205C307.965 81.7384 307.758 81.4629 307.414 81.4629C307.07 81.4629 306.863 81.7384 306.863 82.2205C306.863 82.7027 307.07 82.9782 307.414 82.9782C307.758 82.9782 307.965 82.7027 307.965 82.2205Z" fill="#263238"/>
<path d="M255.481 46.8177H191.013C190.8 46.827 190.586 46.7929 190.386 46.7175C190.186 46.642 190.003 46.5268 189.848 46.3788C189.694 46.2307 189.571 46.0529 189.487 45.8561C189.403 45.6593 189.36 45.4475 189.36 45.2335C189.36 45.0165 189.403 44.8015 189.486 44.601C189.569 44.4004 189.691 44.2182 189.845 44.0647C189.998 43.9112 190.18 43.7894 190.381 43.7063C190.581 43.6233 190.796 43.5805 191.013 43.5805H255.481C255.92 43.5805 256.34 43.7547 256.65 44.0647C256.96 44.3747 257.134 44.7951 257.134 45.2335C257.135 45.4475 257.091 45.6593 257.008 45.8561C256.924 46.0529 256.801 46.2307 256.646 46.3788C256.492 46.5268 256.309 46.642 256.109 46.7175C255.909 46.7929 255.695 46.827 255.481 46.8177Z" fill="#505FE8"/>
<path d="M300.389 45.6474C300.389 45.8162 300.355 45.9832 300.288 46.1383C300.222 46.2934 300.124 46.4333 300.002 46.5493C299.879 46.6654 299.734 46.7552 299.576 46.8133C299.417 46.8714 299.249 46.8965 299.08 46.8872C298.047 46.8872 297.496 46.1984 297.496 44.9586C297.466 44.7099 297.49 44.4575 297.567 44.2191C297.645 43.9807 297.773 43.7621 297.944 43.5784C298.114 43.3948 298.323 43.2506 298.555 43.1559C298.787 43.0612 299.037 43.0182 299.287 43.0301C299.62 43.0253 299.949 43.0959 300.251 43.2367L300.044 43.65C299.817 43.5091 299.554 43.4373 299.287 43.4434C298.529 43.4434 298.047 43.9255 298.047 44.8898V45.0275C298.175 44.8602 298.343 44.7282 298.536 44.6439C298.729 44.5595 298.94 44.5256 299.149 44.5454C299.305 44.5257 299.463 44.5396 299.613 44.5862C299.763 44.6327 299.902 44.7107 300.019 44.8151C300.136 44.9195 300.23 45.0477 300.294 45.1913C300.358 45.3348 300.39 45.4903 300.389 45.6474ZM299.907 45.7163C299.907 45.2341 299.562 44.9586 299.011 44.9586C298.906 44.949 298.8 44.9615 298.7 44.9953C298.6 45.029 298.508 45.0833 298.431 45.1546C298.353 45.226 298.291 45.3128 298.248 45.4095C298.206 45.5062 298.184 45.6107 298.185 45.7163C298.185 46.0607 298.46 46.405 299.08 46.405C299.7 46.405 299.907 46.1295 299.907 45.7163Z" fill="#263238"/>
<path d="M300.802 44.9578C300.802 43.718 301.491 43.0293 302.386 43.0293C303.281 43.0293 303.901 43.718 303.901 44.9578C303.901 46.1975 303.281 46.8863 302.386 46.8863C301.491 46.8863 300.802 46.1975 300.802 44.9578ZM303.35 44.9578C303.35 43.9935 302.937 43.4425 302.386 43.4425C301.835 43.4425 301.353 43.9935 301.353 44.9578C301.353 45.922 301.766 46.4042 302.386 46.4042C303.006 46.4042 303.35 45.922 303.35 44.9578Z" fill="#263238"/>
<path d="M304.383 44.0625C304.363 43.9339 304.371 43.8025 304.407 43.6774C304.443 43.5523 304.506 43.4366 304.591 43.3382C304.676 43.2399 304.782 43.1613 304.9 43.1079C305.019 43.0546 305.148 43.0278 305.278 43.0293C305.76 43.0293 306.105 43.4426 306.105 44.0625C306.105 44.6823 305.76 45.0956 305.278 45.0956C305.148 45.0971 305.019 45.0703 304.9 45.017C304.782 44.9636 304.676 44.885 304.591 44.7867C304.506 44.6883 304.443 44.5726 304.407 44.4475C304.371 44.3224 304.363 44.191 304.383 44.0625ZM305.76 44.0625C305.76 43.5803 305.554 43.3048 305.278 43.3048C305.003 43.3048 304.727 43.5803 304.727 44.0625C304.727 44.5446 304.934 44.7512 305.278 44.7512C305.623 44.7512 305.76 44.4757 305.76 44.0625ZM307.551 43.0293H307.964L305.347 46.8175H304.934L307.551 43.0293ZM306.793 45.8532C306.773 45.7246 306.782 45.5932 306.818 45.4682C306.854 45.3431 306.916 45.2273 307.001 45.129C307.087 45.0307 307.192 44.9521 307.311 44.8987C307.43 44.8454 307.559 44.8185 307.689 44.8201C308.171 44.8201 308.515 45.2333 308.515 45.8532C308.515 46.4731 308.171 46.8864 307.689 46.8864C307.559 46.8879 307.43 46.8611 307.311 46.8077C307.192 46.7544 307.087 46.6758 307.001 46.5775C306.916 46.4791 306.854 46.3634 306.818 46.2383C306.782 46.1132 306.773 45.9818 306.793 45.8532ZM308.171 45.8532C308.171 45.3711 307.964 45.0956 307.689 45.0956C307.413 45.0956 307.138 45.3711 307.138 45.8532C307.138 46.3354 307.344 46.542 307.689 46.542C308.033 46.542 308.171 46.2665 308.171 45.8532Z" fill="#263238"/>
<path d="M286.131 104.743C286.131 104.811 262.3 104.949 232.89 104.949C203.48 104.949 179.648 104.811 179.648 104.743C179.648 104.674 203.48 104.536 232.89 104.536C262.3 104.536 286.131 104.674 286.131 104.743Z" fill="#E0E0E0"/>
<path d="M286.131 111.079C286.131 111.148 262.3 111.217 232.89 111.217C203.48 111.217 179.648 111.148 179.648 111.079C179.648 111.01 203.48 110.873 232.89 110.873C262.3 110.873 286.131 110.941 286.131 111.079Z" fill="#E0E0E0"/>
<path d="M286.131 116.796C286.131 116.865 262.3 116.934 232.89 116.934C203.48 116.934 179.648 116.865 179.648 116.796C179.648 116.727 203.48 116.589 232.89 116.589C262.3 116.589 286.131 116.658 286.131 116.796Z" fill="#E0E0E0"/>
<path d="M46.4422 181.47C45.9307 181.47 45.4402 181.267 45.0785 180.905C44.7169 180.544 44.5137 180.053 44.5137 179.542V143.657C44.5137 143.146 44.7169 142.655 45.0785 142.294C45.4402 141.932 45.9307 141.729 46.4422 141.729C46.6981 141.719 46.9531 141.762 47.1915 141.856C47.4299 141.949 47.6463 142.091 47.8274 142.272C48.0084 142.453 48.1501 142.67 48.2436 142.908C48.3371 143.146 48.3804 143.401 48.3707 143.657V179.542C48.3804 179.798 48.3371 180.053 48.2436 180.291C48.1501 180.529 48.0084 180.746 47.8274 180.927C47.6463 181.108 47.4299 181.25 47.1915 181.343C46.9531 181.437 46.6981 181.48 46.4422 181.47Z" fill="#E0E0E0"/>
<path d="M46.4422 181.608C45.9424 181.608 45.4621 181.414 45.1023 181.067C44.7426 180.721 44.5315 180.248 44.5137 179.748V156.537C44.5315 156.037 44.7426 155.564 45.1023 155.217C45.4621 154.871 45.9424 154.677 46.4422 154.677C46.6922 154.668 46.9414 154.709 47.175 154.798C47.4087 154.888 47.6219 155.023 47.8019 155.197C47.982 155.371 48.1252 155.579 48.2229 155.809C48.3206 156.039 48.3709 156.287 48.3707 156.537V179.748C48.3709 179.998 48.3206 180.246 48.2229 180.476C48.1252 180.706 47.982 180.914 47.8019 181.088C47.6219 181.262 47.4087 181.397 47.175 181.486C46.9414 181.576 46.6922 181.617 46.4422 181.608Z" fill="#92A3FD"/>
<path d="M45.2719 183.123V186.36H44.9276V183.398H44.1699V183.123H45.2719Z" fill="#263238"/>
<path d="M46.0293 184.707C46.0293 183.743 46.5803 183.123 47.2691 183.123C47.9578 183.123 48.5777 183.743 48.5777 184.707C48.5777 185.671 48.0267 186.36 47.2691 186.36C46.5114 186.36 46.0293 185.74 46.0293 184.707ZM48.2333 184.707C48.2333 183.88 47.8201 183.398 47.2691 183.398C46.7181 183.398 46.3737 183.88 46.3737 184.707C46.3737 185.533 46.7181 186.084 47.2691 186.084C47.8201 186.084 48.2333 185.602 48.2333 184.707Z" fill="#263238"/>
<path d="M54.0875 181.47C53.8374 181.47 53.5898 181.42 53.3596 181.322C53.1293 181.225 52.9212 181.082 52.7476 180.901C52.5739 180.721 52.4384 180.508 52.3491 180.275C52.2598 180.041 52.2186 179.792 52.2278 179.542V143.657C52.2186 143.407 52.2598 143.158 52.3491 142.925C52.4384 142.691 52.5739 142.478 52.7476 142.298C52.9212 142.118 53.1293 141.974 53.3596 141.877C53.5898 141.779 53.8374 141.729 54.0875 141.729C54.3433 141.719 54.5984 141.762 54.8368 141.856C55.0751 141.949 55.2916 142.091 55.4727 142.272C55.6537 142.453 55.7954 142.67 55.8889 142.908C55.9824 143.146 56.0257 143.401 56.016 143.657V179.542C56.0257 179.798 55.9824 180.053 55.8889 180.291C55.7954 180.529 55.6537 180.746 55.4727 180.927C55.2916 181.108 55.0751 181.25 54.8368 181.343C54.5984 181.437 54.3433 181.48 54.0875 181.47Z" fill="#E0E0E0"/>
<path d="M54.0875 181.608C53.5943 181.608 53.1213 181.412 52.7725 181.063C52.4238 180.715 52.2278 180.242 52.2278 179.748V149.305C52.2186 149.055 52.2598 148.806 52.3491 148.572C52.4384 148.339 52.5739 148.126 52.7476 147.945C52.9212 147.765 53.1293 147.622 53.3596 147.525C53.5898 147.427 53.8374 147.377 54.0875 147.377C54.3433 147.367 54.5984 147.41 54.8368 147.504C55.0751 147.597 55.2916 147.739 55.4727 147.92C55.6537 148.101 55.7954 148.318 55.8889 148.556C55.9824 148.794 56.0257 149.049 56.016 149.305V179.748C56.0162 179.999 55.9659 180.246 55.8682 180.476C55.7704 180.707 55.6273 180.915 55.4472 181.088C55.2672 181.262 55.054 181.397 54.8203 181.487C54.5867 181.576 54.3374 181.617 54.0875 181.608Z" fill="#92A3FD"/>
<path d="M53.6748 186.017V186.361H51.4019V186.086L52.7105 184.777C53.1238 184.433 53.1927 184.226 53.1927 184.02C53.1927 183.813 52.9172 183.4 52.435 183.4C52.2699 183.391 52.1048 183.417 51.9504 183.476C51.7961 183.535 51.6561 183.627 51.5396 183.744L51.333 183.537C51.4748 183.391 51.6471 183.279 51.8377 183.207C52.0282 183.136 52.2322 183.107 52.435 183.124C53.1238 183.124 53.537 183.469 53.537 183.951C53.5267 184.153 53.472 184.35 53.3768 184.529C53.2815 184.707 53.1481 184.863 52.986 184.984L51.884 186.017H53.6748Z" fill="#263238"/>
<path d="M54.0186 184.707C54.0186 183.743 54.5696 183.123 55.3272 183.123C56.0848 183.123 56.567 183.743 56.567 184.707C56.567 185.671 56.0848 186.36 55.3272 186.36C54.5696 186.36 54.0186 185.74 54.0186 184.707ZM56.2226 184.707C56.2226 183.88 55.8782 183.398 55.3272 183.398C54.7762 183.398 54.3629 183.88 54.3629 184.707C54.3629 185.533 54.7762 186.084 55.3272 186.084C55.8782 186.084 56.2226 185.602 56.2226 184.707Z" fill="#263238"/>
<path d="M61.733 181.47C61.4829 181.47 61.2353 181.42 61.0051 181.322C60.7748 181.225 60.5667 181.082 60.3931 180.901C60.2194 180.721 60.0839 180.508 59.9946 180.275C59.9053 180.041 59.8641 179.792 59.8733 179.542V143.657C59.8641 143.407 59.9053 143.158 59.9946 142.925C60.0839 142.691 60.2194 142.478 60.3931 142.298C60.5667 142.118 60.7748 141.974 61.0051 141.877C61.2353 141.779 61.4829 141.729 61.733 141.729C61.9889 141.719 62.2439 141.762 62.4823 141.856C62.7206 141.949 62.9371 142.091 63.1182 142.272C63.2992 142.453 63.4409 142.67 63.5344 142.908C63.6279 143.146 63.6712 143.401 63.6615 143.657V179.542C63.6712 179.798 63.6279 180.053 63.5344 180.291C63.4409 180.529 63.2992 180.746 63.1182 180.927C62.9371 181.108 62.7206 181.25 62.4823 181.343C62.2439 181.437 61.9889 181.48 61.733 181.47Z" fill="#E0E0E0"/>
<path d="M61.733 181.608C61.2398 181.608 60.7668 181.412 60.418 181.063C60.0693 180.715 59.8733 180.242 59.8733 179.748V162.047C59.8641 161.797 59.9053 161.548 59.9946 161.315C60.0839 161.081 60.2194 160.868 60.3931 160.688C60.5667 160.508 60.7748 160.364 61.0051 160.267C61.2353 160.169 61.4829 160.119 61.733 160.119C61.9889 160.109 62.2439 160.152 62.4823 160.246C62.7206 160.339 62.9371 160.481 63.1182 160.662C63.2992 160.843 63.4409 161.06 63.5344 161.298C63.6279 161.536 63.6712 161.791 63.6615 162.047V179.748C63.6617 179.999 63.6114 180.246 63.5137 180.476C63.4159 180.707 63.2728 180.915 63.0927 181.088C62.9127 181.262 62.6995 181.398 62.4658 181.487C62.2322 181.576 61.9829 181.617 61.733 181.608Z" fill="#92A3FD"/>
<path d="M61.2505 185.396C61.2505 185.947 60.9061 186.36 60.0795 186.36C59.8772 186.372 59.6745 186.342 59.4846 186.27C59.2948 186.199 59.122 186.089 58.9775 185.947L59.1153 185.671C59.3696 185.931 59.7162 186.079 60.0795 186.084C60.6306 186.084 60.9061 185.809 60.9061 185.396C60.9061 184.982 60.6306 184.776 60.0795 184.776H59.8729V184.569L60.6994 183.398H59.1153V183.123H61.1127V183.398L60.2173 184.5C60.9061 184.569 61.2505 184.913 61.2505 185.396Z" fill="#263238"/>
<path d="M61.7324 184.707C61.7324 183.743 62.2834 183.123 62.9722 183.123C63.661 183.123 64.2808 183.743 64.2808 184.707C64.2808 185.671 63.7298 186.36 62.9722 186.36C62.2146 186.36 61.7324 185.74 61.7324 184.707ZM63.9365 184.707C63.9365 183.88 63.5232 183.398 62.9722 183.398C62.4212 183.398 62.0768 183.88 62.0768 184.707C62.0768 185.533 62.4212 186.084 62.9722 186.084C63.5232 186.084 63.9365 185.602 63.9365 184.707Z" fill="#263238"/>
<path d="M69.4474 181.47C69.1916 181.48 68.9365 181.437 68.6981 181.343C68.4598 181.25 68.2433 181.108 68.0623 180.927C67.8812 180.746 67.7395 180.529 67.646 180.291C67.5525 180.053 67.5092 179.798 67.5189 179.542V143.657C67.5092 143.401 67.5525 143.146 67.646 142.908C67.7395 142.67 67.8812 142.453 68.0623 142.272C68.2433 142.091 68.4598 141.949 68.6981 141.856C68.9365 141.762 69.1916 141.719 69.4474 141.729C69.6976 141.729 69.9451 141.779 70.1754 141.877C70.4056 141.974 70.6138 142.118 70.7874 142.298C70.961 142.478 71.0965 142.691 71.1858 142.925C71.2751 143.158 71.3163 143.407 71.3071 143.657V179.542C71.3163 179.792 71.2751 180.041 71.1858 180.275C71.0965 180.508 70.961 180.721 70.7874 180.901C70.6138 181.082 70.4056 181.225 70.1754 181.322C69.9451 181.42 69.6976 181.47 69.4474 181.47Z" fill="#E0E0E0"/>
<path d="M69.4474 181.608C69.1975 181.617 68.9482 181.576 68.7146 181.487C68.481 181.397 68.2678 181.262 68.0877 181.088C67.9077 180.915 67.7645 180.707 67.6668 180.476C67.569 180.246 67.5187 179.999 67.5189 179.748V149.305C67.5092 149.049 67.5525 148.794 67.646 148.556C67.7395 148.318 67.8812 148.101 68.0623 147.92C68.2433 147.739 68.4598 147.597 68.6981 147.504C68.9365 147.41 69.1916 147.367 69.4474 147.377C69.6976 147.377 69.9451 147.427 70.1754 147.525C70.4056 147.622 70.6138 147.765 70.7874 147.945C70.961 148.126 71.0965 148.339 71.1858 148.572C71.2751 148.806 71.3163 149.055 71.3071 149.305V179.748C71.3071 179.993 71.259 180.234 71.1655 180.46C71.0721 180.686 70.9351 180.891 70.7624 181.063C70.5897 181.236 70.3847 181.373 70.1591 181.467C69.9335 181.56 69.6916 181.608 69.4474 181.608Z" fill="#92A3FD"/>
<path d="M69.4474 185.464H68.8275V186.36H68.4832V185.464H66.6924V185.258L68.3454 183.123H68.6898L67.1056 185.189H68.4832V184.431H68.8275V185.189H69.4474V185.464Z" fill="#263238"/>
<path d="M69.7227 184.707C69.7227 183.743 70.2737 183.123 71.0313 183.123C71.7889 183.123 72.2711 183.743 72.2711 184.707C72.2711 185.671 71.7201 186.36 71.0313 186.36C70.3425 186.36 69.7227 185.74 69.7227 184.707ZM71.9267 184.707C71.9267 183.88 71.5823 183.398 71.0313 183.398C70.4803 183.398 70.067 183.88 70.067 184.707C70.067 185.533 70.4803 186.084 71.0313 186.084C71.5823 186.084 71.9267 185.602 71.9267 184.707Z" fill="#263238"/>
<path d="M77.092 181.47C76.8361 181.48 76.581 181.437 76.3427 181.343C76.1043 181.25 75.8878 181.108 75.7068 180.927C75.5257 180.746 75.384 180.529 75.2905 180.291C75.197 180.053 75.1538 179.798 75.1634 179.542V143.657C75.1538 143.401 75.197 143.146 75.2905 142.908C75.384 142.67 75.5257 142.453 75.7068 142.272C75.8878 142.091 76.1043 141.949 76.3427 141.856C76.581 141.762 76.8361 141.719 77.092 141.729C77.3421 141.729 77.5897 141.779 77.8199 141.877C78.0501 141.974 78.2583 142.118 78.4319 142.298C78.6055 142.478 78.741 142.691 78.8303 142.925C78.9196 143.158 78.9609 143.407 78.9516 143.657V179.542C78.9609 179.792 78.9196 180.041 78.8303 180.275C78.741 180.508 78.6055 180.721 78.4319 180.901C78.2583 181.082 78.0501 181.225 77.8199 181.322C77.5897 181.42 77.3421 181.47 77.092 181.47Z" fill="#E0E0E0"/>
<path d="M77.0926 181.608C76.8426 181.617 76.5934 181.576 76.3598 181.486C76.1261 181.397 75.9129 181.262 75.7329 181.088C75.5528 180.914 75.4096 180.706 75.3119 180.476C75.2142 180.246 75.1639 179.998 75.1641 179.748V155.09C75.1641 154.837 75.2139 154.586 75.3109 154.352C75.4078 154.118 75.5498 153.906 75.7289 153.727C75.908 153.548 76.1206 153.406 76.3546 153.309C76.5886 153.212 76.8393 153.162 77.0926 153.162C77.592 153.18 78.065 153.391 78.412 153.751C78.7589 154.11 78.9526 154.591 78.9522 155.09V179.748C78.9522 180.241 78.7563 180.714 78.4076 181.063C78.0588 181.412 77.5858 181.608 77.0926 181.608Z" fill="#92A3FD"/>
<path d="M76.8852 185.396C76.8852 185.947 76.5408 186.36 75.7143 186.36C75.5119 186.372 75.3092 186.342 75.1194 186.27C74.9295 186.199 74.7568 186.089 74.6123 185.947L74.7501 185.671C75.0044 185.931 75.351 186.079 75.7143 186.084C76.2653 186.084 76.5408 185.809 76.5408 185.396C76.5408 184.982 76.3342 184.707 75.5077 184.707H74.8189L74.9567 183.123H76.7475V183.398H75.3011L75.1633 184.431H75.5766C76.5408 184.431 76.8852 184.845 76.8852 185.396Z" fill="#263238"/>
<path d="M77.2988 184.707C77.2988 183.743 77.8498 183.123 78.6075 183.123C79.3651 183.123 79.8472 183.743 79.8472 184.707C79.8472 185.671 79.2962 186.36 78.6075 186.36C77.9187 186.36 77.2988 185.74 77.2988 184.707ZM79.5029 184.707C79.5029 183.88 79.1585 183.398 78.6075 183.398C78.0565 183.398 77.6432 183.88 77.6432 184.707C77.6432 185.533 78.0565 186.084 78.6075 186.084C79.1585 186.084 79.5029 185.602 79.5029 184.707Z" fill="#263238"/>
<path d="M84.7375 181.47C84.4816 181.48 84.2265 181.437 83.9882 181.343C83.7498 181.25 83.5333 181.108 83.3523 180.927C83.1712 180.746 83.0295 180.529 82.936 180.291C82.8425 180.053 82.7993 179.798 82.8089 179.542V143.657C82.7993 143.401 82.8425 143.146 82.936 142.908C83.0295 142.67 83.1712 142.453 83.3523 142.272C83.5333 142.091 83.7498 141.949 83.9882 141.856C84.2265 141.762 84.4816 141.719 84.7375 141.729C85.249 141.729 85.7395 141.932 86.1012 142.294C86.4628 142.655 86.666 143.146 86.666 143.657V179.542C86.666 180.053 86.4628 180.544 86.1012 180.905C85.7395 181.267 85.249 181.47 84.7375 181.47Z" fill="#E0E0E0"/>
<path d="M84.7372 181.47C84.2552 181.49 83.7846 181.321 83.4247 180.999C83.0649 180.678 82.844 180.23 82.8086 179.748V162.047C82.7897 161.783 82.8255 161.517 82.9139 161.267C83.0023 161.017 83.1414 160.788 83.3224 160.594C83.5034 160.4 83.7225 160.245 83.9659 160.14C84.2093 160.034 84.4719 159.98 84.7372 159.981C85.2369 159.981 85.7173 160.174 86.0771 160.521C86.4368 160.868 86.6479 161.341 86.6657 161.841V179.542C86.6657 179.795 86.6158 180.046 86.5189 180.28C86.422 180.514 86.2799 180.726 86.1008 180.906C85.9218 181.085 85.7092 181.227 85.4752 181.324C85.2412 181.42 84.9904 181.47 84.7372 181.47Z" fill="#92A3FD"/>
<path d="M84.462 185.397C84.4532 185.533 84.4178 185.665 84.3576 185.788C84.2974 185.91 84.2137 186.018 84.1113 186.108C84.0089 186.198 83.8898 186.266 83.7609 186.31C83.632 186.353 83.4957 186.371 83.36 186.361C82.5335 186.361 82.0513 185.741 82.0513 184.777C82.0203 184.565 82.0369 184.348 82.1001 184.143C82.1632 183.938 82.2712 183.749 82.4163 183.591C82.5614 183.432 82.7399 183.308 82.9389 183.228C83.1378 183.147 83.3523 183.112 83.5666 183.124L84.3242 183.262L84.1865 183.537L83.5666 183.4C82.8778 183.4 82.3957 183.813 82.3957 184.708V184.984C82.4987 184.804 82.6503 184.657 82.833 184.56C83.0158 184.462 83.2223 184.418 83.4288 184.433C83.5634 184.411 83.7012 184.421 83.8315 184.46C83.9619 184.5 84.0815 184.569 84.1811 184.662C84.2808 184.755 84.3579 184.87 84.4065 184.997C84.4552 185.124 84.4742 185.261 84.462 185.397ZM84.1176 185.397C84.1181 185.3 84.0983 185.205 84.0594 185.116C84.0206 185.028 83.9636 184.949 83.8922 184.884C83.8207 184.819 83.7364 184.77 83.6447 184.739C83.5531 184.709 83.456 184.699 83.36 184.708C82.8778 184.708 82.5335 184.984 82.5335 185.397C82.5421 185.497 82.5704 185.594 82.6167 185.682C82.663 185.771 82.7264 185.85 82.8032 185.914C82.8801 185.978 82.9688 186.026 83.0644 186.055C83.1599 186.085 83.2604 186.095 83.36 186.086C83.456 186.095 83.5531 186.085 83.6447 186.054C83.7364 186.024 83.8207 185.975 83.8922 185.91C83.9636 185.845 84.0206 185.766 84.0594 185.678C84.0983 185.589 84.1181 185.494 84.1176 185.397Z" fill="#263238"/>
<path d="M84.875 184.707C84.875 183.743 85.3571 183.123 86.1148 183.123C86.8724 183.123 87.4234 183.743 87.4234 184.707C87.4234 185.671 86.8724 186.36 86.1148 186.36C85.3571 186.36 84.875 185.74 84.875 184.707ZM87.079 184.707C87.079 183.88 86.6658 183.398 86.1148 183.398C85.5638 183.398 85.1505 183.88 85.1505 184.707C85.1505 185.533 85.5638 186.084 86.1148 186.084C86.6658 186.084 87.079 185.602 87.079 184.707Z" fill="#263238"/>
<path d="M92.3826 181.47C91.8711 181.47 91.3806 181.267 91.019 180.905C90.6573 180.544 90.4541 180.053 90.4541 179.542V143.657C90.4541 143.146 90.6573 142.655 91.019 142.293C91.3806 141.932 91.8711 141.729 92.3826 141.729C92.8941 141.729 93.3846 141.932 93.7463 142.293C94.108 142.655 94.3112 143.146 94.3112 143.657V179.542C94.3112 180.053 94.108 180.544 93.7463 180.905C93.3846 181.267 92.8941 181.47 92.3826 181.47Z" fill="#E0E0E0"/>
<path d="M92.3826 181.609C91.8829 181.609 91.4025 181.415 91.0427 181.068C90.683 180.721 90.472 180.248 90.4541 179.749V147.446C90.4713 146.94 90.68 146.459 91.038 146.101C91.396 145.743 91.8766 145.535 92.3826 145.517C92.8886 145.535 93.3693 145.743 93.7273 146.101C94.0853 146.459 94.294 146.94 94.3112 147.446V179.749C94.2933 180.248 94.0823 180.721 93.7225 181.068C93.3628 181.415 92.8824 181.609 92.3826 181.609Z" fill="#92A3FD"/>
<path d="M91.9697 183.123V183.398L90.6611 186.36H90.2478L91.5565 183.398H89.9723V184.018H89.6279V183.123H91.9697Z" fill="#263238"/>
<path d="M92.3135 184.707C92.3135 183.743 92.8645 183.123 93.5532 183.123C94.242 183.123 94.8619 183.743 94.8619 184.707C94.8619 185.671 94.3109 186.36 93.5532 186.36C92.7956 186.36 92.3135 185.74 92.3135 184.707ZM94.5175 184.707C94.5175 183.88 94.1042 183.398 93.5532 183.398C93.0022 183.398 92.6579 183.88 92.6579 184.707C92.6579 185.533 93.0022 186.084 93.5532 186.084C94.1042 186.084 94.5175 185.602 94.5175 184.707Z" fill="#263238"/>
<path d="M100.028 181.47C99.5167 181.47 99.0261 181.267 98.6645 180.905C98.3028 180.544 98.0996 180.053 98.0996 179.542V143.657C98.0996 143.146 98.3028 142.655 98.6645 142.293C99.0261 141.932 99.5167 141.729 100.028 141.729C100.54 141.729 101.03 141.932 101.392 142.293C101.753 142.655 101.957 143.146 101.957 143.657V179.542C101.957 180.053 101.753 180.544 101.392 180.905C101.03 181.267 100.54 181.47 100.028 181.47Z" fill="#E0E0E0"/>
<path d="M100.028 181.609C99.5284 181.609 99.048 181.415 98.6882 181.069C98.3285 180.722 98.1175 180.249 98.0996 179.749V165.698C98.0996 165.445 98.1495 165.194 98.2464 164.96C98.3433 164.726 98.4854 164.514 98.6645 164.335C98.8435 164.156 99.0561 164.014 99.2901 163.917C99.5241 163.82 99.7749 163.77 100.028 163.77C100.281 163.77 100.532 163.82 100.766 163.917C101 164.014 101.213 164.156 101.392 164.335C101.571 164.514 101.713 164.726 101.81 164.96C101.907 165.194 101.957 165.445 101.957 165.698V179.749C101.939 180.249 101.728 180.722 101.368 181.069C101.008 181.415 100.528 181.609 100.028 181.609Z" fill="#92A3FD"/>
<path d="M99.6142 185.464C99.6142 186.016 99.201 186.36 98.3744 186.36C97.5479 186.36 97.2035 186.016 97.2035 185.464C97.1976 185.277 97.2558 185.093 97.3684 184.942C97.4811 184.792 97.6416 184.685 97.8234 184.638C97.6712 184.595 97.5362 184.506 97.4374 184.382C97.3385 184.259 97.2809 184.107 97.2724 183.949C97.2724 183.398 97.7546 183.123 98.3744 183.123C98.9943 183.123 99.5453 183.398 99.5453 183.949C99.5369 184.107 99.4792 184.259 99.3804 184.382C99.2816 184.506 99.1466 184.595 98.9943 184.638C99.1762 184.685 99.3367 184.792 99.4493 184.942C99.562 185.093 99.6201 185.277 99.6142 185.464ZM99.3387 185.464C99.3387 185.051 98.9943 184.776 98.3744 184.776C97.7546 184.776 97.4791 185.051 97.4791 185.464C97.4791 185.878 97.8234 186.084 98.3744 186.084C98.9254 186.084 99.3387 185.809 99.3387 185.464ZM98.3744 184.569C98.9254 184.569 99.201 184.294 99.201 183.949C99.201 183.605 98.8566 183.398 98.3744 183.398C97.8923 183.398 97.6168 183.605 97.6168 183.949C97.6168 184.294 97.8923 184.569 98.3744 184.569Z" fill="#263238"/>
<path d="M100.097 184.707C100.097 183.743 100.648 183.123 101.405 183.123C102.163 183.123 102.645 183.743 102.645 184.707C102.645 185.671 102.094 186.36 101.405 186.36C100.717 186.36 100.097 185.74 100.097 184.707ZM102.301 184.707C102.301 183.88 101.956 183.398 101.405 183.398C100.854 183.398 100.441 183.88 100.441 184.707C100.441 185.533 100.785 186.084 101.405 186.084C102.025 186.084 102.301 185.602 102.301 184.707Z" fill="#263238"/>
<path d="M107.674 181.47C107.162 181.47 106.672 181.267 106.31 180.905C105.948 180.544 105.745 180.053 105.745 179.542V143.657C105.745 143.146 105.948 142.655 106.31 142.293C106.672 141.932 107.162 141.729 107.674 141.729C108.185 141.729 108.676 141.932 109.037 142.293C109.399 142.655 109.602 143.146 109.602 143.657V179.542C109.602 180.053 109.399 180.544 109.037 180.905C108.676 181.267 108.185 181.47 107.674 181.47Z" fill="#E0E0E0"/>
<path d="M107.674 181.47C107.196 181.473 106.734 181.299 106.378 180.98C106.022 180.662 105.796 180.223 105.745 179.749V174.789C105.726 174.525 105.762 174.259 105.85 174.009C105.939 173.759 106.078 173.53 106.259 173.336C106.44 173.142 106.659 172.987 106.902 172.882C107.146 172.777 107.408 172.722 107.674 172.723C108.185 172.723 108.676 172.926 109.037 173.288C109.399 173.65 109.602 174.14 109.602 174.652V179.542C109.602 180.053 109.399 180.544 109.037 180.906C108.676 181.267 108.185 181.47 107.674 181.47Z" fill="#92A3FD"/>
<path d="M107.123 184.707C107.123 185.809 106.503 186.36 105.676 186.36C105.408 186.375 105.142 186.302 104.918 186.153L105.056 185.947L105.676 186.084C106.365 186.084 106.778 185.602 106.778 184.776V184.5C106.681 184.669 106.54 184.809 106.371 184.906C106.201 185.003 106.009 185.053 105.814 185.051C105.558 185.051 105.313 184.95 105.132 184.769C104.951 184.588 104.85 184.343 104.85 184.087C104.85 183.831 104.951 183.586 105.132 183.405C105.313 183.224 105.558 183.123 105.814 183.123C106.64 183.123 107.123 183.674 107.123 184.707ZM106.64 184.087C106.632 183.987 106.603 183.89 106.557 183.802C106.511 183.713 106.447 183.634 106.371 183.57C106.294 183.506 106.205 183.458 106.109 183.429C106.014 183.399 105.913 183.389 105.814 183.398C105.631 183.398 105.456 183.471 105.327 183.6C105.198 183.729 105.125 183.904 105.125 184.087C105.125 184.27 105.198 184.445 105.327 184.574C105.456 184.703 105.631 184.776 105.814 184.776C106.296 184.776 106.64 184.5 106.64 184.087Z" fill="#263238"/>
<path d="M107.604 184.707C107.604 183.743 108.087 183.123 108.844 183.123C109.602 183.123 110.153 183.743 110.153 184.707C110.153 185.671 109.602 186.36 108.844 186.36C108.087 186.36 107.604 185.74 107.604 184.707ZM109.809 184.707C109.809 183.88 109.395 183.398 108.844 183.398C108.293 183.398 107.88 183.88 107.88 184.707C107.88 185.533 108.293 186.084 108.844 186.084C109.395 186.084 109.809 185.602 109.809 184.707Z" fill="#263238"/>
<path d="M115.318 181.47C114.807 181.47 114.316 181.267 113.955 180.905C113.593 180.544 113.39 180.053 113.39 179.542V143.657C113.39 143.146 113.593 142.655 113.955 142.294C114.316 141.932 114.807 141.729 115.318 141.729C115.574 141.719 115.829 141.762 116.067 141.856C116.306 141.949 116.522 142.091 116.703 142.272C116.884 142.453 117.026 142.67 117.12 142.908C117.213 143.146 117.256 143.401 117.247 143.657V179.542C117.256 179.798 117.213 180.053 117.12 180.291C117.026 180.529 116.884 180.746 116.703 180.927C116.522 181.108 116.306 181.25 116.067 181.343C115.829 181.437 115.574 181.48 115.318 181.47Z" fill="#E0E0E0"/>
<path d="M115.318 181.471C114.841 181.473 114.379 181.299 114.023 180.981C113.666 180.663 113.441 180.224 113.39 179.749V162.047C113.371 161.783 113.407 161.517 113.495 161.267C113.583 161.017 113.722 160.788 113.903 160.594C114.084 160.4 114.304 160.245 114.547 160.14C114.79 160.035 115.053 159.981 115.318 159.981C115.568 159.972 115.817 160.013 116.051 160.103C116.285 160.192 116.498 160.327 116.678 160.501C116.858 160.675 117.001 160.883 117.099 161.113C117.197 161.343 117.247 161.591 117.247 161.841V179.542C117.256 179.798 117.213 180.053 117.12 180.291C117.026 180.53 116.884 180.746 116.703 180.927C116.522 181.108 116.306 181.25 116.068 181.343C115.829 181.437 115.574 181.48 115.318 181.471Z" fill="#92A3FD"/>
<path d="M112.563 183.123V186.36H112.288V183.398H111.53V183.123H112.563Z" fill="#263238"/>
<path d="M113.321 184.707C113.321 183.743 113.872 183.123 114.63 183.123C115.388 183.123 115.87 183.743 115.87 184.707C115.87 185.671 115.388 186.36 114.63 186.36C113.872 186.36 113.321 185.74 113.321 184.707ZM115.594 184.707C115.594 183.88 115.181 183.398 114.63 183.398C114.079 183.398 113.666 183.88 113.666 184.707C113.666 185.533 114.079 186.084 114.63 186.084C115.181 186.084 115.594 185.602 115.594 184.707Z" fill="#263238"/>
<path d="M116.352 184.707C116.352 183.743 116.903 183.123 117.66 183.123C118.418 183.123 118.9 183.743 118.9 184.707C118.9 185.671 118.349 186.36 117.66 186.36C116.971 186.36 116.352 185.74 116.352 184.707ZM118.556 184.707C118.556 183.88 118.211 183.398 117.66 183.398C117.109 183.398 116.696 183.88 116.696 184.707C116.696 185.533 117.109 186.084 117.66 186.084C118.211 186.084 118.556 185.602 118.556 184.707Z" fill="#263238"/>
<path d="M131.16 188.977C131.091 188.977 131.022 177.131 131.022 162.598C131.022 148.065 131.091 136.149 131.16 136.149C131.229 136.149 131.367 147.996 131.367 162.598C131.367 177.2 131.298 188.977 131.16 188.977Z" fill="#E0E0E0"/>
<path d="M175.723 139.594C175.723 139.731 168.422 139.8 159.468 139.8C150.514 139.8 143.145 139.731 143.145 139.594C143.145 139.456 150.445 139.456 159.468 139.456C168.491 139.456 175.723 139.525 175.723 139.594Z" fill="#263238"/>
<g opacity="0.5">
<path opacity="0.5" d="M140.313 185.726L147.545 175.326C147.75 175.041 148.01 174.8 148.309 174.617C148.608 174.435 148.941 174.314 149.288 174.263C149.635 174.211 149.989 174.23 150.329 174.318C150.668 174.406 150.986 174.561 151.265 174.775L155.122 177.668C155.419 177.88 155.758 178.027 156.115 178.1C156.473 178.174 156.842 178.171 157.199 178.093C157.556 178.016 157.892 177.864 158.187 177.648C158.482 177.433 158.728 177.158 158.91 176.841L169.999 157.762C170.2 157.387 170.493 157.068 170.849 156.834C171.206 156.601 171.615 156.46 172.04 156.426C172.465 156.392 172.892 156.465 173.281 156.638C173.671 156.811 174.01 157.079 174.269 157.418L181.157 166.165C181.415 166.495 181.748 166.759 182.129 166.933C182.51 167.108 182.927 167.188 183.346 167.168C183.764 167.148 184.171 167.027 184.534 166.817C184.896 166.606 185.202 166.312 185.427 165.959L190.455 158.038C190.694 157.656 191.028 157.343 191.423 157.128C191.819 156.913 192.263 156.804 192.713 156.811C193.163 156.818 193.604 156.941 193.993 157.168C194.381 157.395 194.705 157.718 194.932 158.107L199.065 165.339C199.292 165.727 199.616 166.051 200.004 166.278C200.393 166.505 200.834 166.628 201.284 166.635C201.734 166.641 202.178 166.532 202.574 166.317C202.969 166.102 203.303 165.789 203.542 165.408L217.799 143.161C218.021 142.787 218.336 142.476 218.712 142.258C219.088 142.039 219.514 141.921 219.949 141.914C220.384 141.907 220.814 142.012 221.197 142.218C221.58 142.424 221.904 142.725 222.138 143.092L245.625 178.219C245.842 178.555 246.134 178.837 246.477 179.043C246.821 179.25 247.207 179.374 247.606 179.407C248.006 179.441 248.407 179.382 248.78 179.235C249.153 179.089 249.488 178.859 249.758 178.563L264.015 162.859C264.25 162.594 264.536 162.379 264.857 162.228C265.177 162.076 265.525 161.991 265.879 161.979C266.234 161.966 266.587 162.025 266.917 162.153C267.248 162.28 267.549 162.474 267.803 162.721L279.168 174.155C279.452 174.441 279.799 174.658 280.181 174.788C280.563 174.918 280.97 174.958 281.371 174.905C281.771 174.852 282.153 174.706 282.488 174.481C282.823 174.255 283.101 173.955 283.3 173.604L303.619 138.408C303.905 137.906 304.35 137.513 304.884 137.29C305.417 137.068 306.01 137.028 306.568 137.178C307.127 137.327 307.62 137.657 307.971 138.117C308.322 138.576 308.511 139.139 308.509 139.717V185.726H140.313Z" fill="white"/>
</g>
<path d="M45.9129 188.15C39.7001 188.141 33.6229 186.333 28.4157 182.944C23.2085 179.555 19.0941 174.731 16.5697 169.054C14.0454 163.377 13.2191 157.091 14.1907 150.955C15.1624 144.818 17.8904 139.095 22.045 134.475C26.1997 129.856 31.6032 126.539 37.6026 124.925C43.602 123.31 49.9406 123.468 55.8522 125.379C61.7639 127.29 66.9957 130.871 70.9155 135.692C74.8352 140.512 77.2751 146.364 77.9403 152.541C78.829 161.031 76.3215 169.527 70.9656 176.173C65.6098 182.82 57.841 187.076 49.3567 188.012C48.2126 188.127 47.0626 188.173 45.9129 188.15ZM45.9818 128.572L43.0201 128.779C36.713 129.45 30.8336 132.287 26.3841 136.808C21.9346 141.328 19.1903 147.251 18.6188 153.568C18.0474 159.885 19.6841 166.205 23.2502 171.45C26.8163 176.695 32.091 180.542 38.1753 182.334C44.2597 184.126 50.7772 183.752 56.6171 181.277C62.457 178.802 67.2579 174.379 70.2016 168.76C73.1453 163.142 74.0496 156.677 72.7605 150.466C71.4714 144.256 68.0685 138.685 63.1319 134.702C58.3006 130.729 52.2369 128.562 45.9818 128.572Z" fill="#455A64"/>
<path d="M93.6438 217.906C93.293 217.908 92.9459 217.835 92.6253 217.692C92.3047 217.55 92.018 217.341 91.7842 217.079L61.341 181.333C60.9505 180.84 60.7618 180.218 60.8129 179.591C60.8641 178.964 61.1513 178.381 61.6165 177.958C61.8588 177.746 62.1411 177.584 62.4469 177.483C62.7526 177.382 63.0755 177.343 63.3965 177.369C63.7175 177.394 64.0301 177.484 64.3159 177.633C64.6017 177.781 64.8548 177.985 65.0603 178.233L95.5035 213.98C95.9104 214.466 96.1096 215.092 96.0581 215.724C96.0065 216.356 95.7083 216.942 95.228 217.355C94.7861 217.728 94.2218 217.924 93.6438 217.906Z" fill="#455A64"/>
</g>
<defs>
<filter id="filter0_d_1040_1655" x="0.794922" y="0.557068" width="343.036" height="241.35" filterUnits="userSpaceOnUse" color-interpolation-filters="sRGB">
<feFlood flood-opacity="0" result="BackgroundImageFix"/>
<feColorMatrix in="SourceAlpha" type="matrix" values="0 0 0 0 0 0 0 0 0 0 0 0 0 0 0 0 0 0 127 0" result="hardAlpha"/>
<feOffset dy="11"/>
<feGaussianBlur stdDeviation="6.5"/>
<feColorMatrix type="matrix" values="0 0 0 0 0 0 0 0 0 0 0 0 0 0 0 0 0 0 0.2 0"/>
<feBlend mode="normal" in2="BackgroundImageFix" result="effect1_dropShadow_1040_1655"/>
<feBlend mode="normal" in="SourceGraphic" in2="effect1_dropShadow_1040_1655" result="shape"/>
</filter>
</defs>
</svg>
