<svg width="270" height="272" viewBox="0 0 270 272" fill="none" xmlns="http://www.w3.org/2000/svg">
<g filter="url(#filter0_d_1039_454)">
<path d="M207.251 212.854L164.668 9.48102L29.0029 45.0807L73.8299 206.557L207.251 212.854Z" fill="#84B4CF"/>
</g>
<g filter="url(#filter1_d_1039_454)">
<path d="M156.002 3.80719L18.1546 39.9126L7.99219 63.1866L51.1981 260.504L203.385 220.644L156.002 3.80719Z" fill="#F6F4FF"/>
</g>
<path d="M18.1546 36.7886L7.99219 58.0487L18.1546 100.257C36.2974 60.1684 73.8298 32.8608 109.492 14.9674L18.1546 36.7886Z" fill="#E8E7F7"/>
<path d="M7.99219 58.0486L25.8856 50.0683L18.1546 36.7886L7.99219 58.0486Z" fill="white"/>
<path d="M146.85 41.7933L96.1475 53.8723L109.632 110.476L160.335 98.3969L146.85 41.7933Z" fill="#E8E7F7"/>
<path d="M139.667 86.1665L136.737 86.1042L133.121 87.1641L132.498 89.9073L130.69 87.7252L126.949 88.411L124.33 89.7203L115.664 97.3265L118.22 108.112L128.881 105.619L142.66 102.439L153.321 99.945L150.827 89.0968L139.667 86.1665Z" fill="#3E3D5E"/>
<path d="M131.75 104.995L140.603 102.938L140.728 87.289L132.622 89.1594L132.498 89.9076L131.999 89.3464L124.081 91.1545L131.75 104.995Z" fill="#E8E7F7"/>
<path d="M130.733 96.5539L131.854 94.7543C132.04 94.4554 132.283 94.1961 132.569 93.9911C132.855 93.7862 133.179 93.6396 133.522 93.5598C133.865 93.48 134.22 93.4686 134.567 93.5261C134.915 93.5836 135.247 93.7089 135.546 93.8949L137.346 95.0151L134.809 99.0908L130.733 96.5539Z" fill="#3E3D5E"/>
<path d="M138.67 103.375L134.306 96.8906L133.246 104.621L138.67 103.375Z" fill="#3E3D5E"/>
<path d="M139.168 88.6607C139.605 90.6558 137.049 92.9002 133.433 93.7731C129.816 94.6459 126.45 93.7107 126.013 91.7157C125.577 89.7206 128.133 87.4761 131.749 86.6656C135.365 85.8551 138.67 86.728 139.168 88.6607Z" fill="#FFEDE5"/>
<path d="M126.014 83.7978L127.136 88.7231C127.447 90.0181 128.257 91.1378 129.39 91.8384C130.522 92.539 131.886 92.7638 133.183 92.4639C134.478 92.1528 135.598 91.3428 136.299 90.2101C136.999 89.0775 137.224 87.7139 136.924 86.4163L135.74 81.491L126.014 83.7978Z" fill="#FFEDE5"/>
<path d="M126.512 85.8552C130.69 88.0373 134.243 88.5361 136.987 88.3491C137.058 87.7051 137.037 87.0543 136.924 86.4163L135.74 81.491L126.014 83.7978L126.512 85.8552Z" fill="#D88D87"/>
<path d="M139.418 68.8343C141.289 76.8769 138.172 84.5455 131.438 86.1042C124.705 87.6629 118.532 82.2387 116.662 74.1337C114.792 66.0287 118.595 61.4151 125.328 59.8564C132.062 58.2978 137.548 60.7293 139.418 68.8343Z" fill="#FFEDE5"/>
<path d="M137.361 63.7844C134.742 59.7319 130.316 58.672 125.328 59.8566C120.34 61.0412 117.659 63.2857 116.6 67.1511C127.136 73.3857 133.932 68.211 137.361 63.7844Z" fill="#D88D87"/>
<path d="M115.415 73.5104C115.415 73.5104 114.23 67.4628 116.911 64.4078L121.961 65.7795L117.472 68.7721V74.1338L115.415 73.5104Z" fill="#3E3D5E"/>
<path d="M139.543 67.8992C139.543 67.8992 137.984 61.914 134.181 60.3553L130.253 63.8467L135.615 64.5325L137.984 69.3332L139.543 67.8992Z" fill="#3E3D5E"/>
<path d="M125.452 73.1987C125.497 73.3911 125.504 73.5905 125.472 73.7855C125.44 73.9805 125.37 74.1673 125.265 74.3352C125.161 74.5031 125.025 74.6488 124.864 74.764C124.704 74.8793 124.522 74.9617 124.33 75.0068C124.137 75.0518 123.938 75.0585 123.743 75.0265C123.548 74.9944 123.361 74.9243 123.193 74.8201C123.025 74.7159 122.88 74.5797 122.765 74.4191C122.649 74.2586 122.567 74.077 122.522 73.8845C122.476 73.696 122.469 73.5001 122.501 73.3088C122.534 73.1175 122.604 72.9347 122.709 72.7715C122.814 72.6083 122.951 72.468 123.112 72.3593C123.272 72.2506 123.453 72.1756 123.644 72.1389C124.024 72.0436 124.426 72.1012 124.765 72.2994C125.103 72.4976 125.35 72.8205 125.452 73.1987Z" fill="#34344F"/>
<path d="M134.056 71.2038C134.078 71.5557 133.976 71.9042 133.766 72.1878C133.557 72.4714 133.254 72.6718 132.911 72.7538C132.568 72.8358 132.207 72.7941 131.892 72.636C131.577 72.4779 131.327 72.2136 131.188 71.8896C131.102 71.6893 131.061 71.4725 131.067 71.2545C131.073 71.0365 131.127 70.8225 131.225 70.6276C131.323 70.4326 131.462 70.2614 131.633 70.126C131.804 69.9905 132.003 69.894 132.215 69.8433C132.427 69.7926 132.647 69.7888 132.861 69.8323C133.075 69.8758 133.277 69.9655 133.452 70.0951C133.627 70.2247 133.772 70.3911 133.877 70.5826C133.981 70.7742 134.042 70.9862 134.056 71.2038Z" fill="#34344F"/>
<path d="M128.757 70.6425L128.508 74.5079L126.201 74.882C126.201 74.882 126.7 77.0641 128.757 77.0641L127.386 75.5055L129.443 75.3808L128.757 70.6425Z" fill="#D88D87"/>
<path d="M137.36 71.3281C137.547 73.6349 138.919 75.443 140.478 75.3806C142.036 75.3183 143.096 73.3855 142.971 71.0787C142.847 68.7719 141.413 66.9639 139.854 67.0262C138.295 67.0886 137.173 69.0213 137.36 71.3281Z" fill="#FFEDE5"/>
<path d="M138.981 71.1412L138.296 71.3906V71.2659C138.233 69.7696 138.981 68.4603 139.979 68.4603C140.976 68.4603 141.912 69.5826 142.036 71.1412C142.086 71.6253 142.022 72.1142 141.848 72.5689C141.675 73.0236 141.398 73.4314 141.039 73.7598C140.852 72.2634 139.979 71.1412 138.981 71.1412Z" fill="#D88D87"/>
<path d="M119.28 75.5678C120.153 77.6876 119.716 79.9321 118.282 80.5555C116.849 81.179 115.04 79.9321 114.105 77.8123C113.17 75.6925 113.669 73.4481 115.103 72.8246C116.537 72.2011 118.407 73.3857 119.28 75.5678Z" fill="#FFEDE5"/>
<path d="M117.722 76.1291C117.937 76.0317 118.172 75.9889 118.408 76.0044C117.784 74.5704 116.6 73.7599 115.664 74.1963C114.729 74.6328 114.418 76.0667 114.979 77.5007C115.54 78.9346 116.288 79.3087 117.036 79.3711C116.537 77.9371 116.849 76.5655 117.722 76.1291Z" fill="#D88D87"/>
<path d="M132.996 77.3136C130.649 78.3723 128.086 78.8635 125.515 78.7476C125.923 79.5651 126.592 80.2233 127.416 80.6184C128.241 81.0135 129.173 81.123 130.066 80.9297C130.914 80.7927 131.681 80.3482 132.221 79.6811C132.762 79.0141 133.038 78.1712 132.996 77.3136Z" fill="#34344F"/>
<path d="M126.263 79.8074L126.388 79.3086L126.014 78.7475C128.299 78.789 130.569 78.3648 132.685 77.5005L132.373 78.3734L132.747 78.8098C132.519 79.3633 132.153 79.849 131.684 80.2202C131.214 80.5914 130.657 80.8357 130.066 80.9296C129.389 81.084 128.684 81.0619 128.018 80.8654C127.352 80.6689 126.748 80.3046 126.263 79.8074Z" fill="#FBF2EB"/>
<path d="M132.56 78.5607C131.739 79.064 130.829 79.4028 129.879 79.5582C127.822 79.9947 126.762 79.6829 126.325 79.4959V79.3089C129.006 79.9947 132.31 78.3737 132.31 78.3737L132.56 78.5607Z" fill="#DACEEA"/>
<path d="M121.338 71.2658C122.539 70.4092 123.929 69.8533 125.39 69.6448L124.704 68.0238C123.267 68.5391 121.951 69.3456 120.839 70.393L121.338 71.2658Z" fill="#3E3D5E"/>
<path d="M133.869 68.3355C132.426 68.0953 130.947 68.2239 129.567 68.7096L129.442 66.9016C130.953 66.7328 132.482 66.8815 133.931 67.338L133.869 68.3355Z" fill="#3E3D5E"/>
<path d="M136.363 61.8514C136.363 61.8514 130.315 66.7144 122.584 67.0885C114.853 67.4626 113.17 64.5323 113.17 63.6595C113.17 62.7866 114.417 62.1631 115.414 62.4749C115.414 62.4749 112.734 59.2329 114.355 57.1131C115.976 54.9933 119.467 55.8662 120.901 58.173C120.901 58.173 119.716 56.3026 120.839 55.6168C121.961 54.931 123.457 55.4298 124.081 57.2378C124.081 57.2378 134.617 54.2452 136.363 61.8514Z" fill="#4C4C72"/>
<path d="M136.052 60.9168C128.009 63.8471 125.141 59.9816 124.144 57.2384C125.412 56.9303 126.706 56.7424 128.009 56.6772C129.069 58.6723 131.251 60.7921 135.304 59.4205C135.626 59.8791 135.878 60.3834 136.052 60.9168Z" fill="#60608C"/>
<path d="M140.728 87.2889L137.922 85.6055L136.737 85.9796L133.308 93.1494L127.074 88.2241L125.827 88.4111L124.081 91.1543L129.879 98.5112L133.558 94.0223L138.795 96.4538L140.728 87.2889Z" fill="#F6F4FF"/>
<path d="M85.6623 57.4192L26.8936 71.4199L29.0132 80.3171L87.782 66.3164L85.6623 57.4192Z" fill="#AEAED6"/>
<path d="M89.7307 73.7139L30.9619 87.7146L31.615 90.4559L90.3838 76.4552L89.7307 73.7139Z" fill="#C4C4E8"/>
<path d="M91.7698 82.7169L33.001 96.7177L33.6541 99.459L92.4228 85.4583L91.7698 82.7169Z" fill="#C4C4E8"/>
<path d="M93.8547 91.7072L35.0859 105.708L35.739 108.449L94.5078 94.4486L93.8547 91.7072Z" fill="#C4C4E8"/>
<path d="M95.9563 100.773L37.1875 114.774L37.8406 117.515L96.6094 103.514L95.9563 100.773Z" fill="#C4C4E8"/>
<path d="M97.9954 109.838L39.2266 123.839L39.8796 126.58L98.6484 112.579L97.9954 109.838Z" fill="#C4C4E8"/>
<path d="M164.98 112.851L116.163 124.26L118.283 133.176L167.1 121.704L164.98 112.851Z" fill="#AEAED6"/>
<path d="M169.094 129.061L120.277 140.533L120.963 143.276L169.78 131.804L169.094 129.061Z" fill="#C4C4E8"/>
<path d="M171.152 138.101L122.335 149.573L123.021 152.316L171.838 140.844L171.152 138.101Z" fill="#C4C4E8"/>
<path d="M173.272 147.141L124.455 158.551L125.079 161.294L173.896 149.885L173.272 147.141Z" fill="#C4C4E8"/>
<path d="M175.33 156.12L126.513 167.591L127.136 170.334L175.953 158.863L175.33 156.12Z" fill="#C4C4E8"/>
<path d="M177.386 165.16L128.569 176.631L129.255 179.375L178.01 167.903L177.386 165.16Z" fill="#C4C4E8"/>
<path d="M58.8138 133.936L45.0332 137.423L48.5263 151.228L62.307 147.741L58.8138 133.936Z" fill="white"/>
<path d="M59.7394 136.979L46.5844 143.151L45.1504 137.353L58.9289 133.862L59.7394 136.979Z" fill="#E4EAF4"/>
<path d="M48.6421 152.752C48.2967 152.749 47.9623 152.63 47.6915 152.416C47.4207 152.201 47.2287 151.903 47.1458 151.568L43.5921 137.727C43.5461 137.526 43.5404 137.318 43.5751 137.116C43.6099 136.913 43.6845 136.719 43.7946 136.545C43.9047 136.371 44.0482 136.221 44.2168 136.102C44.3854 135.984 44.5756 135.901 44.7767 135.857L58.5552 132.365C58.7539 132.305 58.9638 132.29 59.169 132.322C59.3742 132.355 59.5694 132.433 59.7398 132.552C59.9182 132.645 60.0729 132.778 60.1919 132.94C60.3108 133.102 60.3908 133.289 60.4256 133.487L63.917 147.266C63.9732 147.467 63.9887 147.676 63.9624 147.883C63.9361 148.09 63.8687 148.289 63.7641 148.469C63.6595 148.649 63.5198 148.807 63.3533 148.932C63.1868 149.057 62.9969 149.148 62.7947 149.199L49.0162 152.69L48.6421 152.752ZM47.0211 138.475L49.7644 149.261L60.5503 146.58L57.807 135.794L47.0211 138.475Z" fill="#9B9BBA"/>
<path d="M64.8517 138.163C64.4814 138.149 64.1283 138.004 63.8555 137.753C63.5827 137.503 63.4082 137.163 63.3631 136.795C63.3181 136.427 63.4055 136.056 63.6098 135.747C63.814 135.437 64.1217 135.211 64.4776 135.108L99.5785 126.193C99.9836 126.094 100.412 126.159 100.768 126.376C101.125 126.592 101.381 126.941 101.48 127.346C101.579 127.751 101.514 128.179 101.297 128.536C101.081 128.892 100.732 129.149 100.327 129.248L65.2257 138.101L64.8517 138.163Z" fill="#C4C4E8"/>
<path d="M66.0368 142.715C65.689 142.729 65.3466 142.626 65.0641 142.422C64.7816 142.219 64.5754 141.927 64.4782 141.592C64.3839 141.179 64.455 140.746 64.6764 140.385C64.8978 140.023 65.2519 139.763 65.6627 139.66L96.3371 131.929C96.5337 131.873 96.7397 131.858 96.9423 131.885C97.1449 131.912 97.3398 131.98 97.515 132.085C97.6903 132.19 97.8421 132.33 97.9612 132.496C98.0803 132.663 98.1641 132.851 98.2075 133.051C98.3022 133.448 98.2378 133.866 98.028 134.215C97.8182 134.565 97.4798 134.818 97.0852 134.921L66.4109 142.715H66.0368Z" fill="#C4C4E8"/>
<path d="M55.8117 146.331L51.6345 143.214C51.3699 143.015 51.195 142.72 51.1483 142.392C51.1015 142.065 51.1867 141.732 51.3851 141.468C51.5836 141.203 51.8789 141.028 52.2063 140.982C52.5337 140.935 52.8663 141.02 53.1308 141.218L55.0012 142.652L63.9167 126.193C64.0969 125.911 64.3738 125.705 64.6952 125.614C65.0167 125.522 65.3606 125.55 65.6624 125.694C65.9393 125.863 66.1436 126.129 66.2358 126.44C66.3279 126.751 66.3013 127.085 66.1612 127.378L55.8117 146.331Z" fill="#4EDD70"/>
<path d="M65.1371 160.509L51.3564 163.996L54.8496 177.8L68.6302 174.313L65.1371 160.509Z" fill="white"/>
<path d="M65.9738 163.601L52.8811 169.773L51.3848 163.975L65.2256 160.484L65.9738 163.601Z" fill="#E4EAF4"/>
<path d="M54.8771 179.312C54.5398 179.312 54.2117 179.203 53.9419 179C53.6721 178.798 53.4752 178.513 53.3808 178.19L49.8894 164.349C49.7946 163.952 49.859 163.534 50.0688 163.185C50.2786 162.835 50.6171 162.581 51.0116 162.478L64.8525 158.987C65.2483 158.87 65.6743 158.915 66.037 159.112C66.3666 159.362 66.607 159.712 66.7229 160.109L70.2142 173.888C70.3109 174.292 70.2483 174.719 70.0394 175.078C69.8306 175.438 69.4913 175.704 69.092 175.821L55.3135 179.312H54.8771ZM53.3184 165.097L56.0617 175.883L66.7852 173.14L64.1043 162.354L53.3184 165.097Z" fill="#9B9BBA"/>
<path d="M71.1487 164.785C70.8033 164.781 70.4689 164.663 70.1981 164.449C69.9273 164.234 69.7353 163.936 69.6524 163.601C69.5967 163.404 69.5818 163.198 69.6087 162.995C69.6357 162.793 69.7038 162.598 69.8089 162.423C69.9141 162.247 70.054 162.096 70.2201 161.976C70.3862 161.857 70.5749 161.774 70.7747 161.73L105.876 152.815C106.272 152.72 106.69 152.784 107.04 152.994C107.389 153.204 107.643 153.542 107.746 153.937C107.802 154.138 107.818 154.347 107.791 154.554C107.765 154.761 107.698 154.96 107.593 155.14C107.488 155.321 107.349 155.478 107.182 155.603C107.016 155.728 106.826 155.819 106.624 155.87L71.5228 164.723L71.1487 164.785Z" fill="#C4C4E8"/>
<path d="M72.2714 169.337C71.9231 169.344 71.5831 169.23 71.3099 169.014C71.0367 168.798 70.8476 168.493 70.7751 168.152C70.6803 167.755 70.7448 167.337 70.9546 166.988C71.1643 166.638 71.5028 166.385 71.8973 166.282L102.572 158.488C102.772 158.435 102.981 158.422 103.187 158.45C103.393 158.477 103.591 158.545 103.77 158.649C103.95 158.753 104.107 158.892 104.233 159.057C104.359 159.222 104.451 159.41 104.504 159.611C104.558 159.811 104.571 160.02 104.543 160.226C104.516 160.432 104.448 160.63 104.344 160.809C104.239 160.989 104.101 161.146 103.936 161.272C103.771 161.398 103.583 161.49 103.382 161.543L72.7078 169.274L72.2714 169.337Z" fill="#C4C4E8"/>
<path d="M62.1088 172.953L57.8693 169.835C57.6291 169.62 57.4725 169.327 57.4269 169.008C57.3813 168.689 57.4496 168.363 57.6199 168.09C57.7181 167.959 57.8412 167.848 57.9821 167.765C58.123 167.681 58.279 167.626 58.4411 167.603C58.6032 167.58 58.7683 167.589 58.9269 167.63C59.0855 167.67 59.2346 167.742 59.3656 167.84L61.2983 169.212L70.2138 152.815C70.372 152.526 70.6376 152.312 70.9528 152.219C71.2681 152.125 71.6075 152.16 71.8972 152.316C72.0462 152.388 72.1786 152.49 72.2859 152.616C72.3931 152.742 72.4728 152.888 72.5197 153.047C72.5667 153.206 72.58 153.372 72.5587 153.536C72.5373 153.7 72.4819 153.858 72.396 153.999L62.1088 172.953Z" fill="#4EDD70"/>
<path d="M71.4124 187.141L57.6318 190.628L61.125 204.433L74.9056 200.946L71.4124 187.141Z" fill="white"/>
<path d="M72.2707 190.16L59.178 196.332L57.6816 190.596L71.5225 187.105L72.2707 190.16Z" fill="#E4EAF4"/>
<path d="M61.1735 205.934C60.8308 205.92 60.5014 205.798 60.2325 205.585C59.9637 205.372 59.7692 205.08 59.6772 204.749L56.1858 190.971C56.1295 190.77 56.1141 190.56 56.1404 190.353C56.1666 190.147 56.2341 189.947 56.3387 189.767C56.4433 189.587 56.583 189.43 56.7495 189.304C56.916 189.179 57.1059 189.089 57.308 189.038L71.0865 185.547C71.4912 185.477 71.9075 185.543 72.2711 185.734C72.6307 185.938 72.8984 186.273 73.0193 186.669L76.5107 200.51C76.6054 200.906 76.541 201.324 76.3312 201.674C76.1214 202.023 75.783 202.277 75.3884 202.38L61.5476 205.871L61.1735 205.934ZM59.6148 191.719L62.2957 202.505L73.0816 199.761L70.3384 188.976L59.6148 191.719Z" fill="#9B9BBA"/>
<path d="M77.4458 191.345C77.098 191.359 76.7556 191.256 76.4731 191.052C76.1906 190.849 75.9843 190.557 75.8872 190.223C75.7905 189.818 75.8531 189.392 76.0619 189.032C76.2708 188.672 76.6101 188.407 77.0094 188.29L112.173 179.437C112.369 179.381 112.575 179.366 112.778 179.393C112.98 179.42 113.175 179.488 113.351 179.593C113.526 179.698 113.678 179.838 113.797 180.004C113.916 180.171 114 180.359 114.043 180.559C114.138 180.956 114.073 181.374 113.864 181.723C113.654 182.073 113.315 182.326 112.921 182.429L77.8199 191.345H77.4458Z" fill="#C4C4E8"/>
<path d="M78.568 195.958C78.2254 195.944 77.896 195.822 77.6271 195.609C77.3582 195.397 77.1638 195.104 77.0717 194.774C76.975 194.369 77.0376 193.943 77.2465 193.583C77.4554 193.223 77.7946 192.957 78.194 192.841L108.868 185.11C109.265 185.015 109.683 185.08 110.033 185.289C110.382 185.499 110.636 185.838 110.739 186.232C110.794 186.429 110.809 186.635 110.782 186.837C110.755 187.04 110.687 187.235 110.582 187.41C110.477 187.585 110.337 187.737 110.171 187.856C110.005 187.975 109.816 188.059 109.616 188.103L78.9421 195.896L78.568 195.958Z" fill="#C4C4E8"/>
<path d="M68.4053 199.574L64.1658 196.395C64.0348 196.296 63.9244 196.173 63.841 196.032C63.7575 195.891 63.7027 195.736 63.6795 195.573C63.6564 195.411 63.6654 195.246 63.706 195.088C63.7466 194.929 63.8181 194.78 63.9164 194.649C64.0146 194.518 64.1377 194.408 64.2786 194.324C64.4195 194.241 64.5755 194.186 64.7376 194.163C64.8997 194.14 65.0648 194.149 65.2234 194.189C65.382 194.23 65.5311 194.301 65.6621 194.4L67.5948 195.834L76.5103 179.436C76.582 179.287 76.684 179.155 76.81 179.048C76.9359 178.941 77.0829 178.861 77.2414 178.814C77.4 178.767 77.5666 178.754 77.7306 178.775C77.8946 178.796 78.0524 178.852 78.1937 178.938C78.482 179.096 78.6961 179.361 78.7895 179.677C78.8829 179.992 78.848 180.331 78.6924 180.621L68.4053 199.574Z" fill="#4EDD70"/>
<path d="M151.95 3.12156C151.182 2.01224 150.025 1.23307 148.708 0.939444C147.363 0.694784 145.976 0.98566 144.843 1.74995C144.267 2.11685 143.776 2.60067 143.4 3.16996C143.024 3.73924 142.772 4.38126 142.66 5.05429L142.224 7.11172L143.596 6.79999L143.845 5.30368C143.948 4.79776 144.15 4.3171 144.438 3.88918C144.727 3.46126 145.098 3.09449 145.528 2.80983C145.947 2.5096 146.424 2.29924 146.928 2.19195C147.433 2.08466 147.954 2.08276 148.459 2.18637C149.461 2.40242 150.348 2.97935 150.952 3.80737C151.239 4.23275 151.436 4.71162 151.532 5.21519C151.629 5.71875 151.622 6.23661 151.514 6.73764L149.144 19.2692L147.71 26.5637C147.62 27.0404 147.389 27.4791 147.047 27.8234C146.705 28.1676 146.268 28.4018 145.792 28.4956C145.316 28.5895 144.823 28.5388 144.376 28.3501C143.929 28.1613 143.549 27.8432 143.284 27.4366C143.1 27.1772 142.972 26.8827 142.908 26.5716C142.844 26.2605 142.844 25.9394 142.91 25.6286L145.466 12.4735L144.219 12.2241L141.725 25.3792C141.533 26.3518 141.735 27.3609 142.286 28.1847C142.558 28.5884 142.908 28.934 143.315 29.2016C143.721 29.4691 144.177 29.6533 144.655 29.7434H145.341C146.195 29.7322 147.019 29.4292 147.677 28.8848C148.335 28.3404 148.787 27.5874 148.957 26.7508L150.454 18.7705L152.76 6.92468C152.887 6.26879 152.88 5.59418 152.741 4.94088C152.602 4.28758 152.333 3.66891 151.95 3.12156Z" fill="#FF4060"/>
<g style="mix-blend-mode:multiply" opacity="0.14">
<path d="M90.4137 174.885C99.0891 180.998 109.201 184.758 119.762 185.8C130.324 186.841 140.975 185.127 150.677 180.825C160.379 176.524 168.801 169.781 175.121 161.255C181.441 152.73 185.444 142.711 186.739 132.178L176.763 90.7801C171.763 83.3094 165.18 77.0303 157.482 72.388C149.783 67.7457 141.158 64.8538 132.217 63.9174C123.276 62.981 114.239 64.0231 105.746 66.9696C97.2524 69.9162 89.5114 74.6951 83.0716 80.9676C76.6317 87.2401 71.6506 94.8525 68.4814 103.265C65.3123 111.678 64.0327 120.685 64.7333 129.647C65.434 138.609 68.0977 147.308 72.5357 155.126C76.9737 162.944 83.0773 169.69 90.4137 174.885Z" fill="#7991A5"/>
</g>
<g filter="url(#filter2_d_1039_454)">
<path d="M180.193 151.88L254.51 196.458C256.311 197.439 257.895 198.775 259.167 200.384C260.439 201.994 261.373 203.844 261.911 205.823C262.45 207.803 262.582 209.871 262.301 211.903C262.02 213.935 261.33 215.889 260.274 217.648C259.218 219.407 257.817 220.934 256.156 222.137C254.494 223.34 252.606 224.195 250.606 224.65C248.606 225.105 246.534 225.151 244.516 224.785C242.497 224.418 240.574 223.647 238.861 222.518C238.213 222.118 237.588 221.681 236.99 221.209L170.28 165.846C169.407 165.129 168.684 164.246 168.154 163.248C167.625 162.25 167.298 161.157 167.194 160.032C167.089 158.907 167.209 157.773 167.546 156.695C167.883 155.616 168.431 154.616 169.158 153.751C170.472 152.174 172.306 151.119 174.329 150.776C176.353 150.433 178.433 150.824 180.193 151.88Z" fill="#9DCEFF"/>
<path d="M190.542 161.606L250.893 198.203C253.372 199.884 255.113 202.45 255.759 205.375C256.405 208.299 255.907 211.36 254.368 213.929C252.828 216.498 250.363 218.38 247.479 219.189C244.596 219.998 241.512 219.672 238.86 218.278L237.427 217.218L182.936 172.329C182.263 171.78 181.706 171.103 181.297 170.337C180.888 169.571 180.635 168.732 180.554 167.867C180.473 167.003 180.564 166.13 180.824 165.302C181.083 164.473 181.504 163.704 182.063 163.04C183.08 161.839 184.489 161.036 186.041 160.774C187.592 160.512 189.187 160.806 190.542 161.606Z" fill="#B4C0FE"/>
<path d="M183.996 163.289L245.22 203.44" stroke="#92A3FD" stroke-width="16" stroke-miterlimit="10" stroke-linecap="round"/>
</g>
<path d="M159.556 163.538L176.078 175.197C177.022 175.852 178.187 176.109 179.319 175.91C180.452 175.712 181.46 175.075 182.125 174.137L191.976 160.296C192.631 159.352 192.888 158.187 192.689 157.055C192.491 155.922 191.854 154.914 190.916 154.249L174.394 142.59C173.457 141.928 172.298 141.662 171.166 141.848C170.034 142.035 169.021 142.66 168.347 143.587L158.496 157.491C158.163 157.956 157.927 158.482 157.8 159.039C157.673 159.597 157.658 160.174 157.757 160.737C157.856 161.3 158.066 161.838 158.374 162.319C158.683 162.8 159.085 163.214 159.556 163.538Z" fill="#C7BFBF"/>
<path d="M183.871 149.261L175.205 143.151C174.261 142.496 173.096 142.239 171.964 142.438C170.831 142.636 169.823 143.273 169.158 144.211L159.369 158.052C159.034 158.513 158.793 159.036 158.661 159.591C158.529 160.146 158.509 160.722 158.602 161.284C158.695 161.847 158.899 162.386 159.202 162.869C159.505 163.352 159.901 163.771 160.367 164.099L169.033 170.209C175.924 164.83 181.083 157.546 183.871 149.261Z" fill="#A19A9A"/>
<path d="M181.751 147.765L173.085 141.655C172.148 140.993 170.988 140.727 169.856 140.913C168.724 141.1 167.712 141.725 167.037 142.652L157.186 156.555C156.854 157.02 156.617 157.547 156.49 158.104C156.363 158.662 156.349 159.239 156.447 159.802C156.546 160.365 156.756 160.902 157.065 161.383C157.374 161.864 157.775 162.279 158.246 162.603L166.85 168.713C170.307 166.033 173.352 162.861 175.89 159.299C178.38 155.751 180.353 151.867 181.751 147.765Z" fill="#706E6E"/>
<path d="M145.029 172.329C145.108 172.828 145.291 173.305 145.566 173.728C145.841 174.152 146.201 174.514 146.624 174.79C147.047 175.066 147.523 175.25 148.021 175.331C148.52 175.412 149.03 175.388 149.518 175.26C159.49 172.609 168.218 166.549 174.186 158.132C180.155 149.715 182.986 139.473 182.187 129.186C182.142 128.684 181.995 128.196 181.753 127.754C181.512 127.311 181.183 126.923 180.785 126.613C180.388 126.303 179.931 126.078 179.443 125.953C178.954 125.827 178.446 125.802 177.948 125.881L138.233 132.615L145.029 172.329Z" fill="#20236B"/>
<path d="M164.855 147.328C164.986 147.14 165.153 146.979 165.346 146.855C165.539 146.731 165.755 146.647 165.98 146.606C166.206 146.566 166.438 146.57 166.662 146.619C166.886 146.668 167.098 146.761 167.287 146.892L172.399 150.508C171.567 152.013 170.651 153.47 169.656 154.872C168.596 156.306 167.536 157.678 166.414 158.987L161.301 155.371C161.113 155.24 160.952 155.074 160.828 154.88C160.704 154.687 160.62 154.472 160.579 154.246C160.539 154.02 160.543 153.788 160.592 153.564C160.641 153.34 160.734 153.128 160.865 152.94L164.855 147.328Z" fill="#706E6E"/>
<path d="M163.435 162.181C185.592 140.024 185.592 104.102 163.435 81.9451C141.279 59.7887 105.356 59.7887 83.1998 81.9451C61.0434 104.102 61.0434 140.024 83.1998 162.181C105.356 184.337 141.279 184.337 163.435 162.181Z" fill="#CACBCC"/>
<path d="M161.187 159.932C182.102 139.018 182.102 105.108 161.187 84.1935C140.273 63.2788 106.363 63.2788 85.4485 84.1935C64.5338 105.108 64.5338 139.018 85.4485 159.932C106.363 180.847 140.273 180.847 161.187 159.932Z" fill="#9CAAB5"/>
<path d="M159.247 157.992C179.09 138.149 179.09 105.977 159.247 86.1332C139.404 66.2898 107.231 66.2898 87.3876 86.1332C67.5443 105.977 67.5442 138.149 87.3876 157.992C107.231 177.836 139.404 177.836 159.247 157.992Z" fill="#EDE8E8"/>
<path d="M158.41 157.155C177.791 137.774 177.791 106.352 158.41 86.9709C139.029 67.5901 107.607 67.5901 88.2258 86.9709C68.845 106.352 68.845 137.774 88.2258 157.155C107.607 176.536 139.029 176.536 158.41 157.155Z" fill="#706E6E"/>
<path d="M157.616 156.361C176.559 137.419 176.559 106.707 157.616 87.7644C138.674 68.8219 107.962 68.8219 89.0192 87.7644C70.0767 106.707 70.0766 137.419 89.0192 156.361C107.962 175.304 138.674 175.304 157.616 156.361Z" fill="#E8E7F7"/>
<path d="M155.236 153.981C172.864 136.353 172.864 107.773 155.236 90.145C137.608 72.5173 109.028 72.5173 91.4003 90.145C73.7725 107.773 73.7725 136.353 91.4003 153.981C109.028 171.608 137.608 171.608 155.236 153.981Z" fill="#F6F4FF"/>
<g style="mix-blend-mode:color-dodge" opacity="0.2">
<path d="M102.634 153.501C103.488 158.527 105.129 163.388 107.497 167.903C116.681 171.102 126.615 171.463 136.006 168.939C145.398 166.415 153.812 161.123 160.155 153.751C166.498 146.38 170.475 137.27 171.569 127.607C172.663 117.943 170.824 108.175 166.29 99.5714C158.59 96.8693 150.327 96.1825 142.286 97.5764C136.009 98.6407 130.003 100.932 124.611 104.32C119.22 107.707 114.549 112.124 110.867 117.318C107.184 122.513 104.561 128.382 103.149 134.59C101.736 140.799 101.561 147.225 102.634 153.501Z" fill="#E0E5E8"/>
</g>
<path d="M182.811 156.244L187.611 159.61" stroke="white" stroke-width="10" stroke-linecap="round" stroke-linejoin="round"/>
<g style="mix-blend-mode:color-dodge" opacity="0.62">
<path d="M146.401 90.7803C145.465 94.5211 138.108 95.8303 130.003 93.7729C121.898 91.7155 116.1 86.9772 117.035 83.2364C117.971 79.4956 125.39 78.124 133.495 80.1814C141.6 82.2389 147.336 86.9772 146.401 90.7803Z" fill="#E0E5E8"/>
</g>
<path d="M152.366 50.5836L85.2881 66.5638L103.144 141.514L170.221 125.534L152.366 50.5836Z" fill="#E8E7F7"/>
<path d="M142.909 109.297L138.981 109.235L134.18 110.669L133.37 114.285L131.001 111.417L126.075 112.29L122.584 114.036L111.112 124.073L114.479 138.413L128.632 135.109L146.837 130.869L160.989 127.565L157.623 113.225L142.909 109.297Z" fill="#3E3D5E"/>
<path d="M132.373 134.236L144.094 131.493L144.281 110.794L133.619 113.287L133.37 114.285L132.684 113.537L122.272 115.968L132.373 134.236Z" fill="#E8E7F7"/>
<path d="M131.024 122.996L132.935 119.926C133.311 119.323 133.911 118.893 134.604 118.732C135.296 118.571 136.024 118.691 136.628 119.067L139.698 120.978L136.37 126.324L131.024 122.996Z" fill="#3E3D5E"/>
<path d="M141.538 132.116L135.74 123.512L134.368 133.799L141.538 132.116Z" fill="#3E3D5E"/>
<path d="M134.486 119.566C139.281 118.45 142.676 115.425 142.067 112.809C141.458 110.193 137.077 108.977 132.281 110.093C127.485 111.209 124.091 114.234 124.7 116.85C125.309 119.466 129.69 120.682 134.486 119.566Z" fill="#FFEDE5"/>
<path d="M124.829 106.18L126.325 112.726C126.523 113.575 126.887 114.377 127.396 115.084C127.905 115.792 128.549 116.392 129.291 116.85C130.032 117.307 130.857 117.614 131.718 117.752C132.579 117.889 133.458 117.855 134.306 117.652C136.012 117.237 137.485 116.167 138.407 114.673C139.329 113.179 139.625 111.382 139.231 109.671L137.672 103.187L124.829 106.18Z" fill="#FFEDE5"/>
<path d="M125.453 108.923C131.001 111.853 135.677 112.477 139.293 112.228C139.427 111.379 139.406 110.513 139.231 109.671L137.672 103.187L124.829 106.18L125.453 108.923Z" fill="#D88D87"/>
<path d="M142.598 86.3537C145.092 97.0149 140.852 107.177 131.999 109.235C123.146 111.292 114.916 104.122 112.422 93.3988C109.928 82.6753 114.978 76.5653 123.894 74.4456C132.809 72.3258 140.104 75.6925 142.598 86.3537Z" fill="#FFEDE5"/>
<path d="M139.855 79.7451C136.364 74.3833 130.565 72.887 123.894 74.4457C117.223 76.0043 113.794 78.9969 112.298 84.1093C126.263 92.4014 135.304 85.5433 139.855 79.7451Z" fill="#D88D87"/>
<path d="M110.802 92.5885C110.802 92.5885 109.181 84.5459 112.734 80.5557L119.468 82.3638L113.545 86.2916V93.399L110.802 92.5885Z" fill="#2A2931"/>
<path d="M142.723 85.1066C142.723 85.1066 140.603 77.1887 135.678 75.1936L130.44 79.8072L137.486 80.6801L140.665 87.0394L142.723 85.1066Z" fill="#2A2931"/>
<path d="M124.018 92.1517C124.142 92.6561 124.061 93.189 123.792 93.6333C123.523 94.0776 123.088 94.3969 122.584 94.5209C122.08 94.6449 121.547 94.5635 121.103 94.2946C120.658 94.0257 120.339 93.5913 120.215 93.0869C120.103 92.5746 120.197 92.0388 120.477 91.5955C120.757 91.1521 121.201 90.8368 121.711 90.7178C122.207 90.6053 122.727 90.6928 123.159 90.9612C123.591 91.2296 123.899 91.6574 124.018 92.1517Z" fill="#34344F"/>
<path d="M135.428 89.5335C135.493 89.7793 135.506 90.0358 135.468 90.2871C135.431 90.5385 135.342 90.7795 135.208 90.9953C135.073 91.2112 134.897 91.3975 134.688 91.5428C134.479 91.688 134.243 91.7893 133.994 91.8403C133.744 91.9052 133.484 91.9195 133.229 91.8822C132.973 91.8449 132.728 91.7568 132.507 91.6232C132.286 91.4895 132.095 91.313 131.943 91.104C131.792 90.895 131.683 90.6578 131.625 90.4063C131.513 89.894 131.607 89.3582 131.887 88.9148C132.167 88.4714 132.611 88.1562 133.121 88.0372C133.371 87.9823 133.629 87.9777 133.881 88.0234C134.133 88.0691 134.373 88.1643 134.587 88.3035C134.802 88.4427 134.987 88.6231 135.131 88.8342C135.275 89.0453 135.376 89.283 135.428 89.5335Z" fill="#34344F"/>
<path d="M128.445 88.7228L128.071 93.9599L125.078 94.3963C125.078 94.3963 125.702 97.3266 128.445 97.3266L126.637 95.2069L129.318 95.0198L128.445 88.7228Z" fill="#D88D87"/>
<path d="M139.854 89.6583C140.041 92.7133 141.849 95.1448 143.907 95.0201C145.964 94.8954 147.461 92.4015 147.274 89.3466C147.086 86.2916 145.216 83.9224 143.159 83.9848C141.101 84.0471 139.605 86.6033 139.854 89.6583Z" fill="#FFEDE5"/>
<path d="M141.974 89.4712C141.658 89.4801 141.352 89.5892 141.101 89.7829V89.5959C140.977 87.6008 141.974 85.9174 143.283 85.8551C144.593 85.7927 145.84 87.4137 146.027 89.4088C146.096 90.0582 146.008 90.7149 145.769 91.3228C145.53 91.9307 145.148 92.4718 144.655 92.9002C144.468 90.9051 143.283 89.4088 141.974 89.4712Z" fill="#D88D87"/>
<path d="M115.851 95.2692C117.036 98.0748 116.475 101.067 114.604 101.878C112.734 102.688 110.24 101.13 109.056 98.2619C107.871 95.3939 108.495 92.4637 110.365 91.6532C112.235 90.8427 114.729 92.4013 115.851 95.2692Z" fill="#FFEDE5"/>
<path d="M113.856 96.0177C114.156 95.9155 114.474 95.8732 114.791 95.893C114.729 95.893 114.729 95.8307 114.729 95.7684C113.98 93.898 112.297 92.8381 111.112 93.3992C109.928 93.9603 109.491 95.893 110.24 97.7634C110.441 98.3817 110.8 98.9368 111.281 99.3741C111.762 99.8114 112.348 100.116 112.983 100.257C112.297 98.4492 112.671 96.5789 113.856 96.0177Z" fill="#D88D87"/>
<path d="M134.056 97.6382C130.961 99.0135 127.589 99.6537 124.205 99.5086C124.725 100.584 125.592 101.453 126.667 101.973C127.743 102.494 128.962 102.636 130.128 102.377C134.43 101.504 134.056 97.6382 134.056 97.6382Z" fill="#34344F"/>
<path d="M125.141 100.881L125.328 100.257L124.767 99.5091C127.802 99.5611 130.815 98.9881 133.62 97.8257L133.246 99.0103L133.744 99.5715C133.308 100.694 132.373 101.941 130.128 102.377C129.239 102.597 128.307 102.575 127.43 102.311C126.552 102.048 125.762 101.554 125.141 100.881Z" fill="#FBF2EB"/>
<path d="M133.433 99.2594C132.375 99.9493 131.187 100.416 129.942 100.631C127.198 101.192 125.764 100.756 125.266 100.506V100.257C128.819 101.192 133.184 99.01 133.184 99.01L133.433 99.2594Z" fill="#DACEEA"/>
<path d="M118.657 89.5957C120.232 88.4828 122.048 87.7566 123.956 87.4759L123.021 85.2938C123.021 85.2938 119.716 86.4784 117.971 88.4735L118.657 89.5957Z" fill="#3E3D5E"/>
<path d="M135.178 85.7305C133.279 85.4203 131.334 85.57 129.505 86.1669L129.38 83.7978C129.38 83.7978 132.871 83.4237 135.303 84.4212L135.178 85.7305Z" fill="#3E3D5E"/>
<path d="M138.483 77.1892C138.483 77.1892 130.503 83.5485 120.215 84.1096C109.928 84.6707 107.809 80.7429 107.809 79.5584C107.809 78.3738 109.43 77.5009 110.801 77.9997C110.801 77.9997 107.247 73.6978 109.43 70.8299C111.612 67.962 116.101 69.2712 118.033 72.2638C118.033 72.2638 116.475 69.77 117.971 68.8348C119.467 67.8996 121.462 68.6478 122.273 71.0793C122.273 71.0793 136.176 67.0891 138.483 77.1892Z" fill="#2C2C31"/>
<path d="M144.281 110.793L140.54 108.549L139.044 109.11L134.492 118.587L126.2 112.103L124.579 112.29L122.272 115.968L129.879 125.694L134.742 119.771L141.724 122.951L144.281 110.793Z" fill="#F6F4FF"/>
<path d="M176.389 144.648L111.736 159.798L114.604 171.581L179.195 156.431L176.389 144.648Z" fill="#AEAED6"/>
<path d="M181.876 166.157L117.223 181.307L118.096 184.986L182.749 169.773L181.876 166.157Z" fill="#C4C4E8"/>
<path d="M184.619 178.065L119.966 193.277L120.839 196.893L185.492 181.743L184.619 178.065Z" fill="#C4C4E8"/>
<path d="M187.362 190.035L122.709 205.186L123.582 208.864L188.235 193.652L187.362 190.035Z" fill="#C4C4E8"/>
<path d="M190.105 201.944L125.452 217.156L126.325 220.773L190.978 205.622L190.105 201.944Z" fill="#C4C4E8"/>
<path d="M52.1334 213.415C51.6775 213.405 51.2371 213.247 50.8776 212.967C50.5182 212.686 50.259 212.297 50.1384 211.857C50.0063 211.328 50.0898 210.768 50.3703 210.3C50.6509 209.832 51.1057 209.495 51.6347 209.363L98.145 197.579C98.6675 197.466 99.214 197.56 99.6684 197.842C100.123 198.124 100.45 198.572 100.579 199.091C100.709 199.61 100.632 200.159 100.363 200.621C100.095 201.084 99.6572 201.424 99.1425 201.57L52.6322 213.353L52.1334 213.415Z" fill="#C4C4E8"/>
<path d="M53.6918 219.463C53.2331 219.463 52.7876 219.309 52.4262 219.027C52.0647 218.744 51.8079 218.349 51.6967 217.904C51.6224 217.642 51.6026 217.368 51.6385 217.097C51.6744 216.827 51.7652 216.567 51.9054 216.334C52.0456 216.1 52.2322 215.898 52.4536 215.739C52.6751 215.58 52.9267 215.468 53.193 215.41L93.7804 205.123C94.0466 205.049 94.3251 205.028 94.5993 205.063C94.8735 205.099 95.1378 205.189 95.3764 205.328C95.615 205.468 95.823 205.654 95.988 205.876C96.153 206.098 96.2715 206.351 96.3366 206.62C96.4374 207.147 96.3405 207.692 96.0645 208.152C95.7885 208.612 95.3527 208.954 94.8403 209.114L54.1906 219.401L53.6918 219.463Z" fill="#C4C4E8"/>
<path d="M158.41 157.155C177.791 137.774 177.791 106.352 158.41 86.9709C139.029 67.5901 107.607 67.5901 88.2258 86.9709C68.845 106.352 68.845 137.774 88.2258 157.155C107.607 176.536 139.029 176.536 158.41 157.155Z" stroke="#4C4C72" stroke-width="4" stroke-miterlimit="10"/>
<defs>
<filter id="filter0_d_1039_454" x="22.0029" y="6.48102" width="192.248" height="217.373" filterUnits="userSpaceOnUse" color-interpolation-filters="sRGB">
<feFlood flood-opacity="0" result="BackgroundImageFix"/>
<feColorMatrix in="SourceAlpha" type="matrix" values="0 0 0 0 0 0 0 0 0 0 0 0 0 0 0 0 0 0 127 0" result="hardAlpha"/>
<feOffset dy="4"/>
<feGaussianBlur stdDeviation="3.5"/>
<feComposite in2="hardAlpha" operator="out"/>
<feColorMatrix type="matrix" values="0 0 0 0 0 0 0 0 0 0 0 0 0 0 0 0 0 0 0.25 0"/>
<feBlend mode="normal" in2="BackgroundImageFix" result="effect1_dropShadow_1039_454"/>
<feBlend mode="normal" in="SourceGraphic" in2="effect1_dropShadow_1039_454" result="shape"/>
</filter>
<filter id="filter1_d_1039_454" x="0.992188" y="0.80719" width="209.394" height="270.696" filterUnits="userSpaceOnUse" color-interpolation-filters="sRGB">
<feFlood flood-opacity="0" result="BackgroundImageFix"/>
<feColorMatrix in="SourceAlpha" type="matrix" values="0 0 0 0 0 0 0 0 0 0 0 0 0 0 0 0 0 0 127 0" result="hardAlpha"/>
<feOffset dy="4"/>
<feGaussianBlur stdDeviation="3.5"/>
<feComposite in2="hardAlpha" operator="out"/>
<feColorMatrix type="matrix" values="0 0 0 0 0 0 0 0 0 0 0 0 0 0 0 0 0 0 0.25 0"/>
<feBlend mode="normal" in2="BackgroundImageFix" result="effect1_dropShadow_1039_454"/>
<feBlend mode="normal" in="SourceGraphic" in2="effect1_dropShadow_1039_454" result="shape"/>
</filter>
<filter id="filter2_d_1039_454" x="160.157" y="147.655" width="109.287" height="88.3744" filterUnits="userSpaceOnUse" color-interpolation-filters="sRGB">
<feFlood flood-opacity="0" result="BackgroundImageFix"/>
<feColorMatrix in="SourceAlpha" type="matrix" values="0 0 0 0 0 0 0 0 0 0 0 0 0 0 0 0 0 0 127 0" result="hardAlpha"/>
<feOffset dy="4"/>
<feGaussianBlur stdDeviation="3.5"/>
<feComposite in2="hardAlpha" operator="out"/>
<feColorMatrix type="matrix" values="0 0 0 0 0 0 0 0 0 0 0 0 0 0 0 0 0 0 0.25 0"/>
<feBlend mode="normal" in2="BackgroundImageFix" result="effect1_dropShadow_1039_454"/>
<feBlend mode="normal" in="SourceGraphic" in2="effect1_dropShadow_1039_454" result="shape"/>
</filter>
</defs>
</svg>
