<svg width="326" height="187" viewBox="0 0 326 187" fill="none" xmlns="http://www.w3.org/2000/svg">
<path d="M55.8484 92.9405C55.2002 93.0128 54.6574 92.4553 54.7471 91.8093L61.3031 44.5576C61.3758 44.0335 61.0278 43.5424 60.5072 43.4481C57.5103 42.9056 54.4701 42.6326 51.4231 42.6328C23.4301 42.6328 0.737305 65.2942 0.737305 93.2485C0.737305 121.203 23.4301 143.864 51.4231 143.864C79.4161 143.864 102.109 121.203 102.109 93.2485C102.108 91.7674 102.042 90.2871 101.912 88.812C101.863 88.2604 101.367 87.863 100.817 87.9244L55.8484 92.9405Z" fill="#92A3FD"/>
<g opacity="0.6" filter="url(#filter0_d_801_153)">
<path d="M108.262 81.8811C107.103 71.1878 102.564 61.1409 95.3035 53.1961C88.0432 45.2513 78.4384 39.8211 67.8807 37.6924L61.0186 87.151L108.262 81.8811Z" fill="#3B76EF"/>
</g>
<g filter="url(#filter1_d_801_153)">
<path d="M268.929 45.79H139.62V141.037H268.929V45.79Z" fill="white"/>
<path d="M268.929 45.79H139.62V141.037H268.929V45.79Z" stroke="#6981FF" stroke-opacity="0.4" stroke-width="4" stroke-miterlimit="10"/>
</g>
<path d="M160.793 106.665H152.346V122.278H160.793V106.665Z" fill="#C3D0F3"/>
<path d="M176.695 87.5811H168.247V122.278H176.695V87.5811Z" fill="#BF616D"/>
<path d="M192.596 69.5481H184.148V122.279H192.596V69.5481Z" fill="#C3D0F3"/>
<path d="M208.498 93.7637H200.051V122.278H208.498V93.7637Z" fill="#BF616D"/>
<path d="M224.399 74.8848H215.951V122.278H224.399V74.8848Z" fill="#C3D0F3"/>
<path d="M240.681 90.2561H231.681V121.942H240.681V90.2561Z" fill="#BF616D"/>
<path d="M256.681 48.9424H247.681V121.942H256.681V48.9424Z" fill="#C3D0F3"/>
<path d="M156.397 116.9L155.652 116.243L172.588 97.0925L189.605 85.4253L204.464 98.532L215.563 88.0908L216.244 88.8131L204.485 99.8753L189.529 86.6817L173.252 97.8413L156.397 116.9Z" fill="#03E75E"/>
<path d="M157.476 0.545898H22.4141C21.3095 0.545898 20.4141 1.44133 20.4141 2.5459V9.71145C20.4141 10.816 21.3095 11.7114 22.4141 11.7114H157.476C158.58 11.7114 159.476 10.816 159.476 9.71145V2.5459C159.476 1.44133 158.58 0.545898 157.476 0.545898Z" fill="#87ABF3"/>
<path d="M208.197 24.4824H20.4131V26.5125H208.197V24.4824Z" fill="#92A3FD"/>
<path d="M251.978 17.7114H20.4131V19.8876H251.978V17.7114Z" fill="#92A3FD"/>
<path d="M206.181 167.942H22.1807C21.3522 167.942 20.6807 168.614 20.6807 169.442C20.6807 170.271 21.3522 170.942 22.1807 170.942H206.181C207.009 170.942 207.681 170.271 207.681 169.442C207.681 168.614 207.009 167.942 206.181 167.942Z" fill="#92A3FD"/>
<path d="M141.181 175.942H22.1807C21.3522 175.942 20.6807 176.614 20.6807 177.442C20.6807 178.271 21.3522 178.942 22.1807 178.942H141.181C142.009 178.942 142.681 178.271 142.681 177.442C142.681 176.614 142.009 175.942 141.181 175.942Z" fill="#92A3FD"/>
<path d="M186.181 183.942H22.1807C21.3522 183.942 20.6807 184.614 20.6807 185.442C20.6807 186.271 21.3522 186.942 22.1807 186.942H186.181C187.009 186.942 187.681 186.271 187.681 185.442C187.681 184.614 187.009 183.942 186.181 183.942Z" fill="#92A3FD"/>
<path d="M74.7663 152.218H26.0928C24.9882 152.218 24.0928 153.113 24.0928 154.218V157C24.0928 158.104 24.9882 159 26.0928 159H74.7663C75.8709 159 76.7663 158.104 76.7663 157V154.218C76.7663 153.113 75.8709 152.218 74.7663 152.218Z" fill="#D3DFFF"/>
<path d="M228.611 152.218H179.938C178.833 152.218 177.938 153.113 177.938 154.218V157C177.938 158.104 178.833 159 179.937 159H228.611C229.716 159 230.611 158.104 230.611 157V154.218C230.611 153.113 229.716 152.218 228.611 152.218Z" fill="#D3DFFF"/>
<path d="M217.893 86.7038L214.081 87.253L216.764 90.2558" fill="#03E75E"/>
<path d="M31.2629 107.538C31.2629 106.955 31.3712 106.405 31.5879 105.888C31.8212 105.372 32.1296 104.922 32.5129 104.538C32.9129 104.138 33.3796 103.83 33.9129 103.613C34.4462 103.38 35.0296 103.263 35.6629 103.263C36.2962 103.263 36.8796 103.38 37.4129 103.613C37.9629 103.83 38.4296 104.138 38.8129 104.538C39.2129 104.922 39.5212 105.372 39.7379 105.888C39.9712 106.405 40.0879 106.955 40.0879 107.538C40.0879 108.122 39.9712 108.68 39.7379 109.213C39.5212 109.73 39.2129 110.18 38.8129 110.563C38.4296 110.947 37.9629 111.255 37.4129 111.488C36.8796 111.705 36.2962 111.813 35.6629 111.813C35.0296 111.813 34.4462 111.705 33.9129 111.488C33.3796 111.255 32.9129 110.947 32.5129 110.563C32.1296 110.18 31.8212 109.73 31.5879 109.213C31.3712 108.68 31.2629 108.122 31.2629 107.538ZM33.9379 107.538C33.9379 108.088 34.1046 108.53 34.4379 108.863C34.7712 109.197 35.1796 109.363 35.6629 109.363C36.1462 109.363 36.5546 109.197 36.8879 108.863C37.2212 108.53 37.3879 108.088 37.3879 107.538C37.3879 106.988 37.2212 106.547 36.8879 106.213C36.5546 105.88 36.1462 105.713 35.6629 105.713C35.1796 105.713 34.7712 105.88 34.4379 106.213C34.1046 106.547 33.9379 106.988 33.9379 107.538ZM34.4379 119.838L45.5379 103.263L47.5129 104.588L36.4129 121.163L34.4379 119.838ZM41.8629 116.888C41.8629 116.305 41.9712 115.755 42.1879 115.238C42.4212 114.722 42.7296 114.272 43.1129 113.888C43.5129 113.488 43.9796 113.18 44.5129 112.963C45.0462 112.73 45.6296 112.613 46.2629 112.613C46.8962 112.613 47.4796 112.73 48.0129 112.963C48.5629 113.18 49.0296 113.488 49.4129 113.888C49.8129 114.272 50.1212 114.722 50.3379 115.238C50.5712 115.755 50.6879 116.305 50.6879 116.888C50.6879 117.472 50.5712 118.03 50.3379 118.563C50.1212 119.08 49.8129 119.53 49.4129 119.913C49.0296 120.297 48.5629 120.597 48.0129 120.813C47.4796 121.047 46.8962 121.163 46.2629 121.163C45.6296 121.163 45.0462 121.047 44.5129 120.813C43.9796 120.597 43.5129 120.297 43.1129 119.913C42.7296 119.53 42.4212 119.08 42.1879 118.563C41.9712 118.03 41.8629 117.472 41.8629 116.888ZM44.5379 116.888C44.5379 117.438 44.7046 117.88 45.0379 118.213C45.3712 118.547 45.7796 118.713 46.2629 118.713C46.7462 118.713 47.1546 118.547 47.4879 118.213C47.8212 117.88 47.9879 117.438 47.9879 116.888C47.9879 116.338 47.8212 115.897 47.4879 115.563C47.1546 115.23 46.7462 115.063 46.2629 115.063C45.7796 115.063 45.3712 115.23 45.0379 115.563C44.7046 115.897 44.5379 116.338 44.5379 116.888Z" fill="white"/>
<g clip-path="url(#clip0_801_153)">
<path d="M325.515 175.276C325.515 181.609 320.182 186.943 313.848 186.943C310.515 186.943 307.515 185.609 305.181 183.276L267.848 142.609C266.514 141.275 266.514 139.275 267.848 137.942L276.515 129.275C277.848 127.942 279.848 127.942 281.181 129.275L321.848 166.942C324.182 168.942 325.515 172.276 325.515 175.276Z" fill="#472938"/>
<path d="M268.829 136.858L275.429 130.259L265.529 120.359L258.93 126.959L268.829 136.858Z" fill="#B0C4D8"/>
<path d="M270.515 131.942L272.181 133.609L275.515 130.276L265.514 120.276L258.848 126.942L263.848 131.942C265.848 129.942 268.515 129.942 270.515 131.942Z" fill="#99B4CD"/>
<path d="M228.847 40.2744C201.18 40.2744 178.847 62.6081 178.847 90.2748C178.847 117.941 201.18 140.275 228.847 140.275C256.514 140.275 278.847 117.941 278.847 90.2748C278.847 62.6081 256.514 40.2744 228.847 40.2744ZM228.847 131.878C206.847 131.878 186.686 112.275 186.686 90.2748C186.686 68.2746 206.847 48.2403 228.847 48.2403C250.847 48.2403 270.59 68.2746 270.59 90.2748C270.59 112.275 250.847 131.878 228.847 131.878Z" fill="#C4D7E5"/>
<path d="M228.848 132.108C251.952 132.108 270.682 113.378 270.682 90.274C270.682 67.1697 251.952 48.4399 228.848 48.4399C205.743 48.4399 187.014 67.1697 187.014 90.274C187.014 113.378 205.743 132.108 228.848 132.108Z" fill="#6FF6FF" fill-opacity="0.34"/>
<path d="M190.347 92.9092C190.347 70.3324 208.347 51.8606 230.347 51.8606C240.681 51.8606 250.055 54.5709 257.389 60.7281C250.055 52.1763 239.014 48.4399 227.014 48.4399C205.014 48.4399 185.895 68.0131 185.895 90.5899C185.895 102.905 192.347 112.749 200.347 120.275C194.347 112.749 190.347 103.514 190.347 92.9092Z" fill="#4C9CD6"/>
<path d="M228.847 140.276C256.514 140.276 278.847 117.942 278.847 90.2751C277.18 90.2751 275.514 91.6086 275.514 93.6084C274.847 104.942 269.847 115.275 262.18 122.942C254.514 130.942 243.847 135.942 232.18 136.942C230.18 136.942 228.847 138.609 228.847 140.276Z" fill="#B0C9DB"/>
<path d="M321.535 166.608L319.546 164.942C321.204 166.942 322.198 169.608 322.198 172.275C322.198 176.608 316.894 178.275 313.911 175.275L279.106 140.275C277.117 138.275 274.133 138.275 272.145 140.275L268.83 143.608L304.961 182.608C306.95 184.608 309.602 186.275 312.254 186.608C315.9 186.942 319.547 185.608 321.867 183.275C324.187 180.942 325.513 177.275 325.181 173.609C325.181 170.942 323.524 168.608 321.535 166.608Z" fill="#3B2645"/>
</g>
<defs>
<filter id="filter0_d_801_153" x="53.0186" y="31.6924" width="63.2441" height="65.4587" filterUnits="userSpaceOnUse" color-interpolation-filters="sRGB">
<feFlood flood-opacity="0" result="BackgroundImageFix"/>
<feColorMatrix in="SourceAlpha" type="matrix" values="0 0 0 0 0 0 0 0 0 0 0 0 0 0 0 0 0 0 127 0" result="hardAlpha"/>
<feOffset dy="2"/>
<feGaussianBlur stdDeviation="4"/>
<feColorMatrix type="matrix" values="0 0 0 0 0 0 0 0 0 0 0 0 0 0 0 0 0 0 0.08 0"/>
<feBlend mode="normal" in2="BackgroundImageFix" result="effect1_dropShadow_801_153"/>
<feBlend mode="normal" in="SourceGraphic" in2="effect1_dropShadow_801_153" result="shape"/>
</filter>
<filter id="filter1_d_801_153" x="130.62" y="40.79" width="147.31" height="113.247" filterUnits="userSpaceOnUse" color-interpolation-filters="sRGB">
<feFlood flood-opacity="0" result="BackgroundImageFix"/>
<feColorMatrix in="SourceAlpha" type="matrix" values="0 0 0 0 0 0 0 0 0 0 0 0 0 0 0 0 0 0 127 0" result="hardAlpha"/>
<feOffset dy="4"/>
<feGaussianBlur stdDeviation="3.5"/>
<feColorMatrix type="matrix" values="0 0 0 0 0 0 0 0 0 0 0 0 0 0 0 0 0 0 0.14 0"/>
<feBlend mode="normal" in2="BackgroundImageFix" result="effect1_dropShadow_801_153"/>
<feBlend mode="normal" in="SourceGraphic" in2="effect1_dropShadow_801_153" result="shape"/>
</filter>
<clipPath id="clip0_801_153">
<rect width="146.668" height="146.668" fill="white" transform="translate(178.847 40.2744)"/>
</clipPath>
</defs>
</svg>
