<svg width="237" height="195" viewBox="0 0 237 195" fill="none" xmlns="http://www.w3.org/2000/svg">
<g filter="url(#filter0_d_445_605)">
<path d="M50.2031 91.9082C50.2031 142.175 90.9519 182.924 141.218 182.924C191.485 182.924 232.234 142.175 232.234 91.9082C232.234 41.6419 191.485 0.892564 141.218 0.892564C90.9519 0.892564 50.2031 41.6419 50.2031 91.9082" fill="#92A3FD" fill-opacity="0.2"/>
<path d="M133.615 4.58001C96.7294 10.0322 107.181 50.6308 112.638 64.6533C115.856 72.9214 105.095 112.902 126.946 134.261C148.798 155.62 201.159 134.473 204.881 120.777C208.603 107.081 182.855 73.0767 175.878 58.5338C171.541 49.4949 176.438 -1.75068 133.615 4.58001" fill="#070809"/>
<path d="M107.323 133.34C107.323 133.34 106.624 149.768 105.75 152.04C104.876 154.312 88.2737 160.254 88.0989 160.779C87.924 161.303 95.0891 174.761 95.6137 174.586C96.1376 174.411 119.252 168.559 121.829 166.197C126.024 162.352 126.723 137.535 126.198 137.36C125.674 137.185 117.285 132.641 116.586 132.641C115.886 132.641 107.323 133.34 107.323 133.34Z" fill="#FFEDE5"/>
<path d="M210.611 124.777C210.611 124.777 213.233 135.612 213.233 146.098C213.233 154.948 198.553 155.361 196.63 155.536C194.708 155.71 184.222 151.166 183.872 146.972C183.523 142.778 183.174 131.592 184.921 129.845C186.669 128.097 194.184 124.602 196.98 123.728C199.776 122.854 210.611 124.777 210.611 124.777" fill="#FFEDE5"/>
<path d="M128.47 88.4248C115.013 92.2697 111.811 101.12 109.421 106.95C107.03 112.782 103.828 132.292 104.352 135.787C104.352 135.787 113.964 138.933 120.955 138.234C120.955 138.234 120.431 148.254 131.15 162.935C137.561 171.714 133.305 181.926 134.878 182.276C136.452 182.625 205.543 182.276 205.543 182.276C205.543 182.276 192.261 139.807 191.911 133.515C191.911 133.515 207.815 131.243 215.155 126C215.155 126 208.514 93.493 198.028 86.153C187.542 78.813 179.37 79.1998 171.485 78.8312C165.055 83.6476 152.414 84.9297 151.714 85.1045C151.015 85.2787 128.47 88.4248 128.47 88.4248" fill="#92A3FD"/>
<path d="M213.233 146.098C213.233 146.098 156.958 159.206 139.307 162.702C132.524 164.044 129.17 161.478 124.8 162.702C120.431 163.925 116.761 167.945 114.489 169.867C112.217 171.79 110.819 175.11 111.169 176.333C111.518 177.557 139.132 176.858 139.831 176.683C140.53 176.508 199.427 173.013 207.641 166.721C215.855 160.429 213.233 146.098 213.233 146.098Z" fill="#FFEDE5"/>
<path d="M136.859 74.9672C136.859 74.9672 139.83 78.6379 137.558 82.8317C135.286 87.0263 128.47 88.4245 128.47 88.4245C128.47 88.4245 136.859 105.027 153.112 101.707C171.416 97.9677 171.484 78.8309 171.484 78.8309C171.484 78.8309 167.618 79.1618 162.517 78.4105C158.536 77.8237 154.16 65.5303 153.811 65.88C153.462 66.229 136.859 74.9672 136.859 74.9672Z" fill="#FFEDE5"/>
<path d="M157.967 73.8664C155.75 70.1901 154.026 65.6654 153.812 65.8802C153.462 66.2292 136.859 74.968 136.859 74.968C136.859 74.968 138.204 76.6376 138.388 79.0073C142.254 79.7005 146.358 79.008 150.129 77.7651C152.907 76.8489 155.626 75.5948 157.967 73.8664Z" fill="#FFAF79"/>
<path d="M157.356 46.8336C157.356 46.8336 163.659 42.6593 165.847 48.9844C168.035 55.3102 163.062 58.7997 158.769 59.0081C158.769 59.0081 158.764 74.4764 142.247 77.498C128.053 80.095 118.031 62.2752 116.615 45.1416C116.615 45.1416 125.997 38.3262 127.612 29.9371C127.612 29.9371 134.106 35.6879 142.074 36.9008C150.04 38.1143 156.927 43.3287 157.356 46.8336Z" fill="#FFEDE5"/>
<path d="M162.543 53.419C162.228 52.8818 161.657 52.614 161.056 52.5559C160.747 52.5265 160.459 52.5867 160.197 52.7021C160.163 52.2272 160.225 51.7466 160.411 51.3144C160.815 50.3701 161.638 49.8414 162.498 49.3552C162.916 49.1188 162.749 48.39 162.245 48.4215C161.663 48.4578 161.193 48.6334 160.723 48.9761C160.255 49.3182 159.858 49.7315 159.542 50.2184C158.911 51.1955 158.736 52.3964 158.987 53.5246C159.006 53.6093 159.044 53.6904 159.069 53.7743C158.992 53.952 158.939 54.1429 158.939 54.3612C158.937 54.9473 159.236 55.5446 159.764 55.8237C160.13 56.0175 160.565 56.037 160.944 55.9014L161.105 55.9083C162.238 55.7936 163.169 54.4885 162.543 53.419" fill="#FFAF79"/>
<path d="M207.569 146.123C207.01 146.48 206.222 146.584 205.585 146.76C204.846 146.966 204.108 147.172 203.37 147.377C201.999 147.759 200.626 148.133 199.259 148.527C197.891 148.92 196.525 149.319 195.158 149.714C194.422 149.928 193.687 150.142 192.96 150.386C192.4 150.575 191.829 150.728 191.403 151.152C191.336 151.219 191.367 151.336 191.458 151.361C192.041 151.517 192.616 151.364 193.197 151.247C193.949 151.096 194.694 150.916 195.439 150.733C196.928 150.369 198.419 150.013 199.906 149.641C201.393 149.269 202.876 148.882 204.361 148.502C205.103 148.312 205.846 148.122 206.588 147.932C207.158 147.787 207.803 147.706 208.28 147.341C208.977 146.806 208.356 145.622 207.569 146.123" fill="#FFB786"/>
<path d="M123.555 163.466C122.745 163.073 121.969 163.454 121.22 163.831C120.438 164.224 119.682 164.671 118.962 165.168C118.227 165.674 117.531 166.24 116.877 166.845C116.297 167.382 115.513 168.129 115.486 168.968C115.479 169.148 115.653 169.241 115.809 169.215C116.57 169.084 117.23 168.339 117.789 167.847C118.404 167.307 119.055 166.816 119.73 166.357C120.401 165.901 121.101 165.487 121.825 165.121C122.532 164.761 123.289 164.503 123.624 163.726C123.662 163.638 123.656 163.516 123.555 163.466" fill="#FFAF79"/>
<path d="M126.362 166.819C125.576 165.99 124.32 166.373 123.404 166.75C122.325 167.194 121.344 167.847 120.402 168.529C119.492 169.188 118.619 169.901 117.796 170.667C117.358 171.075 116.93 171.498 116.523 171.938C116.357 172.117 116.176 172.307 116.056 172.523C115.905 172.793 115.965 173.057 115.872 173.35L115.941 173.404C116.172 173.289 116.443 173.308 116.662 173.171C116.85 173.054 117.018 172.871 117.172 172.713C117.549 172.326 117.928 171.944 118.326 171.577C119.107 170.855 119.932 170.179 120.798 169.561C121.629 168.969 122.493 168.391 123.42 167.958C124.357 167.521 125.406 167.527 126.327 167.081C126.428 167.032 126.43 166.892 126.362 166.819" fill="#FFAF79"/>
<path d="M130.001 169.239C129.606 169.135 129.226 168.966 128.809 168.942C128.396 168.919 127.925 169.012 127.531 169.132C126.67 169.392 125.829 169.736 125.032 170.149C124.264 170.547 123.491 171.001 122.82 171.549C122.5 171.811 122.202 172.103 121.914 172.399C121.604 172.72 121.278 173.018 121.22 173.478C121.194 173.682 121.424 173.891 121.619 173.877C122.032 173.848 122.319 173.575 122.648 173.349C122.971 173.129 123.305 172.925 123.637 172.721C124.35 172.28 125.043 171.831 125.801 171.466C126.518 171.122 127.254 170.848 128.006 170.593C128.381 170.466 128.79 170.331 129.13 170.13C129.451 169.939 129.72 169.656 130.028 169.457C130.112 169.403 130.103 169.266 130.001 169.239" fill="#FFAF79"/>
<path d="M123.951 20.0049C123.932 19.9049 123.775 19.8853 123.73 19.9763C123.405 20.6414 123.105 21.2619 122.971 21.9963C122.838 22.723 122.688 23.4448 122.534 24.1666C122.518 24.2429 122.499 24.3191 122.483 24.3954C122.38 24.2974 122.286 24.1953 122.16 24.1065C122.059 24.0351 121.959 24.1701 122.003 24.2632C122.182 24.629 122.247 25.0305 122.247 25.4466C122.182 25.7404 122.122 26.0363 122.05 26.3293C121.935 26.7952 121.81 27.2617 121.731 27.7352C121.485 28.3724 121.203 28.9802 120.991 29.4943C120.264 31.2604 119.434 32.9853 118.464 34.631C117.526 36.2202 116.492 37.7653 115.27 39.1516C114.115 40.4602 112.698 41.5101 111.635 42.8894L111.706 42.9824C113.632 42.5278 115.179 40.9624 116.485 39.5461C117.916 37.994 119.133 36.2684 120.168 34.431C121.209 32.5845 122.132 30.6386 122.849 28.6431C123.161 27.7779 123.374 26.8273 123.26 25.9621C123.401 25.4403 123.537 24.9172 123.652 24.3898C123.816 23.6428 123.959 22.8874 124.077 22.132C124.193 21.3982 124.087 20.7268 123.951 20.0049" fill="#1C313D" fill-opacity="0.45"/>
<path d="M117.284 20.4112C117.197 20.2867 117.013 20.3629 117.041 20.514C117.223 21.4912 116.854 22.3291 116.587 23.2545C116.366 24.019 116.154 24.7842 115.91 25.5417C115.379 27.184 114.732 28.7955 113.991 30.3545C113.292 31.8248 112.498 33.2628 111.605 34.6246C111.216 35.2185 110.778 35.7669 110.272 36.2656C109.78 36.7496 109.119 36.993 108.646 37.4812L108.654 37.5406C109.835 38.224 111.384 36.7601 112.089 35.9508C113.354 34.4981 114.394 32.8131 115.318 31.1295C116.266 29.3998 117.039 27.5861 117.661 25.7137C118.289 23.8259 118.484 22.1137 117.284 20.4112" fill="#1C313D" fill-opacity="0.45"/>
<path d="M170.571 37.8183C169.142 37.9687 167.71 37.763 166.282 37.6658C164.757 37.5623 163.228 37.2818 161.769 36.8258C158.806 35.8983 156.28 34.3246 153.868 32.4109C152.771 31.5408 151.634 30.7148 150.299 30.2496C148.743 29.7075 147.079 29.8244 145.461 29.7894C142.723 29.7306 140.086 28.8647 137.801 27.3644C136.544 26.5405 135.418 25.5269 134.451 24.3778C133.4 23.1292 132.724 21.7248 131.87 20.3518C131.691 20.0636 131.298 20.2615 131.348 20.5714C131.779 23.1901 133.842 25.6689 135.801 27.3406C137.905 29.1368 140.46 30.4413 143.18 30.9812C144.72 31.2883 146.265 31.2505 147.824 31.3512C149.699 31.4716 151.177 32.2703 152.621 33.4223C155.139 35.4325 157.564 37.3742 160.633 38.487C162.283 39.0857 164.038 39.4998 165.801 39.5068C167.586 39.5138 169.087 38.9479 170.66 38.1492C170.812 38.0722 170.747 37.7994 170.571 37.8183" fill="#1C313D" fill-opacity="0.45"/>
<path d="M168.195 28.0702C167.289 28.0212 166.385 27.8506 165.476 27.782C164.637 27.7191 163.798 27.6575 162.965 27.54C161.382 27.3183 159.826 26.9378 158.346 26.3272C155.396 25.1102 153.033 22.49 149.891 21.7598C148.259 21.38 146.722 21.8179 145.094 21.9263C143.235 22.0501 141.603 21.2149 140.198 20.0609C138.932 19.0194 137.796 17.8017 136.729 16.5587C135.566 15.2025 134.576 13.5434 133.223 12.3739C133.166 12.3243 133.078 12.3712 133.096 12.4481C133.506 14.2072 134.783 15.8208 135.869 17.2225C136.9 18.555 138.001 19.8748 139.266 20.9932C140.485 22.0704 141.907 23.0125 143.528 23.3308C145.348 23.6875 147.123 22.9936 148.932 23.221C150.684 23.4399 152.176 24.545 153.593 25.5151C155.015 26.4888 156.46 27.3442 158.068 27.9772C159.667 28.6074 161.372 29.0327 163.086 29.1816C164 29.2614 164.908 29.2481 165.818 29.1222C166.704 28.9991 167.412 28.6738 168.233 28.3444C168.375 28.287 168.361 28.0793 168.195 28.0702" fill="#1C313D" fill-opacity="0.45"/>
<path d="M119.182 65.4353C118.35 64.7114 117.485 64.0903 116.814 63.1908C116.033 62.143 115.438 60.94 114.866 59.7705C114.239 58.4877 113.697 57.1707 113.184 55.8382C112.939 55.2052 112.727 54.5617 112.494 53.9246C112.292 53.3741 112.133 52.6089 111.696 52.1976C111.6 52.1067 111.451 52.1501 111.41 52.2739C111.211 52.8782 111.484 53.6867 111.63 54.2869C111.816 55.0569 112.066 55.8207 112.321 56.5705C112.808 58.0079 113.427 59.4124 114.094 60.7742C114.692 61.9982 115.319 63.237 116.183 64.2987C116.885 65.1604 117.946 65.9865 119.116 65.6899C119.221 65.6626 119.27 65.5109 119.182 65.4353" fill="#1C313D" fill-opacity="0.45"/>
<path d="M117.74 58.862C117.506 58.3074 117.233 57.7814 116.941 57.2554C116.648 56.7273 116.335 56.2083 116.025 55.6901C115.751 55.2319 115.426 54.757 114.992 54.438L114.896 54.4926C114.924 55.0389 115.153 55.5753 115.388 56.0629C115.644 56.5895 115.899 57.1176 116.169 57.6373C116.438 58.1577 116.718 58.6676 117.045 59.1551C117.387 59.6629 117.782 60.1182 118.136 60.6169C118.206 60.7135 118.396 60.6589 118.345 60.5288C118.129 59.9756 117.971 59.4104 117.74 58.862" fill="#1C313D" fill-opacity="0.45"/>
<path d="M119.438 74.2295C119.345 73.4797 119.242 72.7306 119.138 71.9815C119.043 71.2876 119.055 70.4336 118.498 69.9426C118.439 69.8916 118.33 69.8727 118.272 69.9426C117.921 70.3847 117.945 70.8932 117.945 71.445C117.946 72.2557 118 73.0705 118.031 73.8805C118.095 75.5892 118.128 77.2945 118.007 79.0011C117.885 80.7141 117.67 82.4018 117.421 84.1001C117.206 85.564 116.784 87.3651 117.265 88.8081C117.314 88.9564 117.53 89.0501 117.646 88.9088C118.633 87.7148 118.905 85.876 119.145 84.3911C119.415 82.7313 119.618 81.0379 119.687 79.3572C119.757 77.64 119.648 75.9334 119.438 74.2295" fill="#1C313D" fill-opacity="0.45"/>
<path d="M124.274 78.0384C124.293 77.3676 124.38 76.7067 124.21 76.0499C124.132 75.7484 123.689 75.6827 123.537 75.9617C123.159 76.6577 123.121 77.4754 123.024 78.2482C122.924 79.0449 122.867 79.8381 122.843 80.6396C122.822 81.3531 122.729 82.1693 122.908 82.8681C123.044 83.3948 123.594 83.855 124.135 83.6074C124.271 83.5458 124.3 83.3528 124.233 83.2339L124.227 83.208L124.216 83.0667L124.223 82.9114C124.26 82.6303 124.243 82.3323 124.244 82.0476C124.248 81.3664 124.226 80.6872 124.24 80.0059C124.253 79.3506 124.255 78.6938 124.274 78.0384" fill="#1C313D" fill-opacity="0.45"/>
<path d="M129.342 75.7357C129.213 75.5182 128.94 75.5525 128.805 75.7357C128.582 76.0358 128.527 76.468 128.461 76.8345C128.389 77.2486 128.346 77.6697 128.285 78.0859C128.161 78.9238 128.054 79.7631 127.925 80.6004C127.796 81.446 127.659 82.3021 127.582 83.1547C127.542 83.5793 127.572 83.992 127.596 84.4172C127.617 84.797 127.624 85.0838 127.848 85.3993C127.897 85.4685 127.995 85.5119 128.074 85.4587C128.389 85.2433 128.503 84.9999 128.645 84.6481C128.815 84.2207 128.99 83.8101 129.084 83.3583C129.258 82.5238 129.353 81.6523 129.423 80.8025C129.492 79.9576 129.552 79.1077 129.568 78.26C129.582 77.5137 129.739 76.4016 129.342 75.7357" fill="#1C313D" fill-opacity="0.45"/>
<path d="M179.978 75.7586H179.98L179.977 75.7544L179.878 75.6117C179.035 74.3415 178.044 73.1783 177.145 71.9459C176.176 70.6177 175.3 69.2334 174.476 67.8122C173.678 66.4364 172.93 65.0375 172.268 63.5896C171.6 62.1292 171.165 60.4988 170.354 59.1167C170.299 59.0215 170.178 58.9383 170.063 58.9495L169.958 58.9642L169.892 58.9957C169.791 59.0432 169.722 59.1775 169.726 59.2866C169.782 60.8709 170.446 62.4985 170.996 63.9701C171.575 65.5166 172.234 67.0435 172.997 68.5095C173.752 69.9616 174.632 71.3591 175.565 72.7034C176.539 74.1072 177.573 75.504 178.896 76.5937C179.653 77.2169 180.233 76.2958 179.978 75.7586" fill="#1C313D" fill-opacity="0.45"/>
<path d="M168.547 70.4293C168.256 70.0208 167.984 69.5983 167.73 69.1668C167.484 68.7471 167.209 68.3435 166.946 67.9357C166.815 67.7329 166.699 67.5168 166.55 67.3265C166.416 67.1573 166.199 67.0838 166.089 66.9069C166.031 66.811 165.896 66.8761 165.916 66.9796C165.953 67.1894 165.84 67.3916 165.875 67.6105C165.912 67.849 165.988 68.0791 166.06 68.3085C166.218 68.8121 166.416 69.3234 166.675 69.7837C166.92 70.2201 167.186 70.6461 167.467 71.0602C167.737 71.454 168.102 72.0478 168.616 72.1142C168.899 72.2394 169.247 71.9932 169.154 71.6722L169.151 71.6652C169.176 71.2056 168.803 70.7902 168.547 70.4293" fill="#1C313D" fill-opacity="0.45"/>
<path d="M165.592 75.5549C164.345 73.9035 163.094 72.2997 162.092 70.4797C161.519 69.4383 160.983 68.3723 160.537 67.2707C160.159 66.3411 159.925 65.1626 159.257 64.3946L159.161 64.4197C158.932 65.285 159.264 66.2957 159.508 67.1287C159.794 68.1128 160.14 69.0788 160.536 70.0251C161.321 71.8982 162.375 73.6566 163.618 75.2611C164.02 75.7794 164.914 77.2343 165.708 77.051C166.515 76.865 165.867 75.9186 165.592 75.5549" fill="#1C313D" fill-opacity="0.45"/>
<path d="M171.599 54.1344C171.525 53.6036 171.423 53.0776 171.291 52.5586C171.16 52.0368 170.976 51.5332 170.768 51.0373C170.658 50.7743 170.53 50.5225 170.392 50.2728C170.265 50.0455 170.153 49.7776 169.904 49.6657C169.724 49.5859 169.506 49.6419 169.447 49.851C169.373 50.1217 169.49 50.3623 169.57 50.619C169.642 50.8492 169.705 51.0814 169.776 51.3108C169.931 51.8053 170.062 52.3068 170.187 52.8083C170.314 53.3133 170.4 53.8218 170.484 54.3352C170.525 54.5877 170.571 54.8185 170.691 55.0451C170.79 55.2333 170.914 55.4704 171.072 55.6138H171.252C171.603 55.2207 171.668 54.6332 171.599 54.1344Z" fill="#1C313D" fill-opacity="0.45"/>
<path d="M168.654 55.6565C168.65 55.432 168.605 55.2194 168.55 55.0025C168.496 54.7871 168.46 54.55 168.275 54.4087L168.352 54.4856C168.292 54.394 168.223 54.3178 168.171 54.2226C168.129 54.1436 168.007 54.1814 168.006 54.2674L168.003 54.3884C167.977 54.4479 167.961 54.5108 167.94 54.5745C167.906 54.6822 167.929 54.8102 167.93 54.9214C167.933 55.1333 167.905 55.3494 167.917 55.5614C167.931 55.7747 167.933 55.9894 167.925 56.2035C167.919 56.3489 167.931 56.47 167.975 56.6098C168.005 56.705 168.005 56.7952 168.089 56.8679C168.163 56.9316 168.248 56.9414 168.335 56.8994L168.458 56.7805C168.466 56.7658 168.545 56.6091 168.501 56.6777C168.58 56.5532 168.615 56.4469 168.631 56.2986C168.654 56.086 168.657 55.8691 168.654 55.6565" fill="#1C313D" fill-opacity="0.45"/>
<path d="M171.761 80.2242C171.484 79.4156 170.252 79.3156 170.019 80.2242C169.815 81.0167 169.965 81.8427 169.815 82.6429C169.652 83.5165 169.447 84.4083 169.229 85.2735C168.811 86.9431 168.174 88.5273 167.33 90.0262C165.688 92.9422 163.366 95.4448 160.466 97.1389C156.894 99.2253 152.58 99.8499 148.497 99.8681C144.421 99.8856 140.277 99.0889 136.75 96.9731C135.04 95.9477 133.499 94.6391 132.235 93.0954C131.609 92.3309 131.07 91.4832 130.55 90.6445C130.053 89.8444 129.755 88.9869 128.942 88.4965C128.807 88.4147 128.582 88.4553 128.51 88.6098C127.807 90.1451 129.092 92.3155 129.973 93.5927C131.106 95.2364 132.498 96.6542 134.091 97.8537C137.654 100.538 142.061 101.82 146.471 102.129C151.053 102.45 156.036 101.914 160.237 99.9779C163.729 98.3678 166.675 95.6561 168.77 92.4498C169.917 90.6928 170.788 88.7267 171.351 86.7053C171.636 85.6806 171.934 84.5244 171.931 83.4542C171.928 82.4372 172.096 81.1985 171.761 80.2242" fill="#9DCEFF"/>
<path d="M124.904 150.789C124.533 149.798 124.206 148.751 123.864 147.739C123.506 146.679 123.052 145.662 122.742 144.584C122.086 142.308 121.853 139.987 121.712 137.63C121.565 135.143 121.667 132.662 121.726 130.175C121.755 128.971 121.792 127.769 121.853 126.567C121.904 125.574 122.257 124.102 121.656 123.232C121.574 123.113 121.438 123.101 121.329 123.19C120.52 123.844 120.538 125.25 120.433 126.207C120.289 127.526 120.209 128.851 120.125 130.175C119.966 132.676 119.812 135.208 119.871 137.717C119.659 137.628 119.424 137.589 119.201 137.551C118.475 137.426 117.728 137.374 116.996 137.286C115.43 137.098 113.862 136.923 112.299 136.716C110.876 136.526 109.445 136.306 108.045 135.986C106.885 135.721 105.556 135.122 104.428 135.65L104.412 135.69C104.764 136.933 106.296 137.355 107.427 137.689C108.851 138.11 110.3 138.383 111.767 138.598C113.297 138.822 114.833 139.012 116.366 139.213C117.203 139.324 118.044 139.47 118.886 139.544C119.239 139.576 119.624 139.63 119.954 139.46C120.101 141.467 120.424 143.479 120.995 145.399C121.302 146.429 121.645 147.516 122.219 148.432C122.504 148.887 122.834 149.319 123.166 149.741C123.603 150.297 124.022 150.55 124.575 150.981C124.711 151.086 124.981 150.996 124.904 150.789" fill="#9DCEFF"/>
<path d="M213.644 125.126C213.078 125.497 212.616 126.049 212.021 126.4C211.267 126.846 210.457 127.196 209.661 127.559C207.745 128.436 205.818 129.285 203.84 130.015C201.951 130.713 200.012 131.218 198.057 131.695C197.092 131.93 196.126 132.138 195.148 132.318C194.35 132.466 193.339 132.457 192.712 133.009C192.509 132.102 192.307 131.196 192.098 130.291C191.546 127.89 190.908 125.496 190.217 123.131C189.492 120.649 188.827 118.118 187.91 115.7C187.69 115.119 186.901 115.349 186.992 115.954C187.358 118.398 187.939 120.818 188.402 123.247C188.878 125.737 189.356 128.23 189.878 130.71C190.387 133.129 190.876 135.551 191.346 137.977C191.576 139.165 191.716 140.455 192.153 141.586C192.581 142.691 193.173 143.784 193.761 144.808C193.804 144.883 193.943 144.877 193.957 144.783C194.132 143.695 194.257 142.577 194.303 141.477C194.353 140.23 193.968 138.921 193.723 137.705C193.44 136.311 193.139 134.92 192.831 133.531C193.485 133.965 194.428 133.9 195.189 133.915C196.292 133.936 197.416 133.882 198.512 133.756C200.729 133.5 202.886 132.893 204.985 132.151C207.055 131.419 209.064 130.51 211.064 129.605C212.526 128.944 215.218 127.971 215.544 126.16C215.757 124.977 214.213 124.397 213.644 125.126Z" fill="#9DCEFF"/>
<path d="M130.068 55.583C130.061 55.148 129.92 54.6961 129.802 54.2834C129.829 54.387 129.856 54.4912 129.883 54.5954C129.752 54.0582 129.599 53.5994 129.303 53.1286L129.247 53.0538C129.161 52.881 129.071 52.709 128.951 52.5593C128.523 52.0228 127.909 51.6696 127.206 51.7347C126.372 51.8109 125.845 52.5712 125.748 53.3441C125.637 54.2247 125.757 55.1591 126.119 55.9712C126.33 56.4447 126.622 56.9126 127.051 57.2197C127.62 57.6254 128.282 57.787 128.954 57.5345C129.376 57.3764 129.711 57.0204 129.9 56.6189C130.057 56.2846 130.074 55.9425 130.068 55.583Z" fill="#1C313D"/>
<path d="M146.181 52.5376C146.174 52.1025 146.034 51.6507 145.916 51.2373C145.943 51.3415 145.969 51.4457 145.997 51.5492C145.865 51.0135 145.713 50.5546 145.417 50.0832L145.36 50.0084C145.275 49.8349 145.185 49.6635 145.065 49.5139C144.637 48.9781 144.023 48.6242 143.319 48.6892C142.485 48.7655 141.959 49.5264 141.861 50.2986C141.75 51.1785 141.871 52.113 142.232 52.9251C142.443 53.3993 142.735 53.8672 143.165 54.1743C143.734 54.5799 144.396 54.7422 145.068 54.4897C145.49 54.3302 145.825 53.9742 146.013 53.5727C146.17 53.2391 146.188 52.8964 146.181 52.5376" fill="#1C313D"/>
<path d="M138.616 59.662C138.512 59.5795 138.415 59.5669 138.29 59.5382C138.051 59.4851 137.834 59.6494 137.686 59.8096C137.58 59.925 137.506 60.0614 137.41 60.1859L137.328 60.2866L137.282 60.3328L137.248 60.3636L137.17 60.4321L136.983 60.5727L136.982 60.5748L136.975 60.5783L136.884 60.628C136.807 60.6678 136.726 60.7 136.647 60.7329L136.628 60.7406L136.531 60.7657C136.449 60.7853 136.367 60.7979 136.283 60.8091L136.173 60.8231L136.081 60.8287L136.037 60.828L135.897 60.8196C135.814 60.8126 135.732 60.7944 135.649 60.7846L135.644 60.7839L135.642 60.7832L135.508 60.7427C135.429 60.7154 135.351 60.6846 135.275 60.6496C135.115 60.5762 134.963 60.5182 134.795 60.465C134.44 60.351 134.056 60.6972 134.231 61.0637C134.342 61.2945 134.496 61.4869 134.711 61.6282C134.907 61.7555 135.125 61.8639 135.346 61.9387C135.803 62.094 136.305 62.1527 136.781 62.059C137.693 61.8786 138.666 61.2064 138.887 60.2663C138.94 60.039 138.782 59.7963 138.616 59.662" fill="#FFAF79"/>
<path d="M141.056 65.3435C141.054 65.2554 141.05 65.168 141.047 65.0805C141.022 64.8847 140.951 64.7896 140.862 64.6427L140.861 64.642C140.774 64.5573 140.718 64.4615 140.604 64.4C140.5 64.3433 140.135 64.2985 140.491 64.3454C140.41 64.3349 140.377 64.2999 140.246 64.2839L140.178 64.2713C140.091 64.2741 140.003 64.2776 139.916 64.2804L139.778 64.323C139.559 64.3944 139.42 64.4293 139.225 64.5804C139.162 64.6301 139.104 64.6867 139.042 64.7378C138.98 64.7896 138.916 64.8385 138.85 64.8861L138.779 64.935C138.627 65.0155 138.476 65.0938 138.317 65.1582C138.241 65.1882 138.166 65.2176 138.09 65.247L137.989 65.2841C137.614 65.3652 137.238 65.4505 136.855 65.4939C136.76 65.5044 136.664 65.5177 136.569 65.5261L136.456 65.5345L136.438 65.5359H136.433C136.209 65.5373 135.991 65.5422 135.773 65.5911C135.469 65.6576 135.275 65.9772 135.412 66.2738C135.761 67.0257 136.793 67.4188 137.575 67.4405C138.521 67.4663 139.415 67.1404 140.184 66.6088C140.317 66.5172 140.445 66.4165 140.561 66.306C140.741 66.136 140.876 65.9737 140.964 65.7373C141.003 65.6303 141.071 65.2799 141.015 65.5184C140.975 65.6842 140.989 65.6254 141.056 65.3435" fill="white" fill-opacity="0.4"/>
<path d="M140.874 64.6551C140.92 64.7155 140.943 64.7239 140.874 64.6551Z" fill="white"/>
<path d="M139.777 64.3231L139.822 64.3091C139.637 64.3665 139.628 64.37 139.777 64.3231Z" fill="white"/>
<path d="M140.832 64.5952L140.861 64.6427L140.873 64.6553L140.832 64.5952Z" fill="white"/>
<path d="M129.693 46.9594C129.436 46.7307 129.097 46.6398 128.772 46.5509C128.479 46.4712 128.182 46.395 127.88 46.3663C127.352 46.3166 126.805 46.367 126.297 46.5202C125.739 46.688 125.278 46.944 124.827 47.3119C124.398 47.6603 123.933 48.1387 123.936 48.7262C123.938 49.1494 124.295 49.4333 124.707 49.2767C125.124 49.1179 125.41 48.7717 125.781 48.5374L125.783 48.536L125.807 48.5262L125.942 48.4604C126.035 48.4191 126.129 48.3807 126.224 48.3464C126.319 48.3121 126.414 48.2737 126.51 48.2387L126.58 48.2149L126.697 48.1827C126.896 48.1352 127.093 48.1163 127.294 48.0911L127.442 48.0946C127.543 48.0995 127.644 48.1086 127.743 48.1219L127.948 48.1603C128.069 48.1939 128.19 48.2331 128.313 48.2702C128.653 48.373 129.009 48.4828 129.361 48.3821C130.042 48.1876 130.223 47.4322 129.693 46.9594" fill="#1C313D"/>
<path d="M145.486 44.6204C145.336 44.2162 144.893 44.0224 144.521 43.8601C144.21 43.7251 143.879 43.6391 143.547 43.5727C142.959 43.4559 142.318 43.467 141.736 43.6125C141.143 43.7608 140.603 44.0231 140.113 44.3903C139.879 44.5659 139.621 44.7834 139.452 45.0205C139.27 45.2751 139.089 45.7221 139.159 46.0277C139.235 46.3648 139.521 46.5649 139.866 46.5278C140.031 46.5089 140.162 46.4292 140.295 46.3341L140.344 46.2984L140.355 46.2928L140.537 46.1837C140.741 46.0515 140.909 45.8689 141.108 45.7284L141.21 45.6598L141.258 45.6325C141.362 45.5773 141.466 45.5227 141.574 45.4759C141.67 45.4332 141.767 45.3961 141.867 45.3618L141.948 45.336L142.067 45.3059C142.174 45.2807 142.284 45.2604 142.393 45.2457L142.566 45.2262L142.614 45.2234C142.856 45.2199 143.096 45.2464 143.333 45.2891L143.367 45.2947L143.404 45.3052L143.571 45.3563C143.681 45.3926 143.79 45.4339 143.897 45.4808L144.055 45.5542C144.186 45.6178 144.049 45.55 144.125 45.5934C144.384 45.7388 144.586 45.7864 144.883 45.7626C145.445 45.7172 145.652 45.0695 145.486 44.6204" fill="#1C313D"/>
<path d="M186.616 146.342C186.186 146.597 185.836 146.598 185.371 146.704C184.955 146.799 184.606 147.008 184.205 147.149C183.335 147.457 182.548 148.022 181.732 148.458C180.042 149.361 178.236 150.018 176.369 150.447C172.626 151.308 168.825 151.091 165.163 149.981C163.088 149.351 160.999 148.605 158.805 148.565C156.761 148.527 154.895 149.254 153.248 150.428C151.715 151.521 150.385 152.879 148.824 153.933C147.294 154.968 145.595 155.699 143.805 156.148C141.824 156.646 139.778 156.722 137.746 156.562C136.669 156.478 135.609 156.301 134.562 156.033C133.612 155.791 132.699 155.24 131.722 155.365C131.571 155.385 131.496 155.51 131.558 155.651C131.919 156.474 132.674 156.783 133.459 157.174C134.299 157.591 135.172 157.935 136.072 158.2C137.938 158.748 139.878 158.903 141.811 158.723C145.916 158.342 149.315 156.626 152.446 154.018C153.938 152.777 155.485 151.423 157.436 151.008C159.721 150.522 162.06 151.46 164.205 152.139C168.155 153.39 172.209 153.717 176.293 152.945C178.431 152.541 180.505 151.826 182.457 150.868C183.381 150.414 184.488 149.895 185.214 149.147C185.572 148.777 186.004 148.294 186.24 147.835C186.46 147.407 186.563 146.977 186.861 146.586C186.974 146.439 186.759 146.258 186.616 146.342" fill="#9DCEFF"/>
<path d="M9.69196 186.595H228.68C230.063 186.595 231.185 185.195 231.185 183.466V182.905C231.185 181.176 230.063 179.776 228.68 179.776H9.69196C8.30894 179.776 7.1875 181.176 7.1875 182.905V183.466C7.1875 185.195 8.30894 186.595 9.69196 186.595Z" fill="#4F4F4F"/>
<path d="M141.49 176.483H99.9015C98.4521 176.483 97.5399 178.344 98.2519 179.849C98.3432 180.041 98.5141 180.16 98.6993 180.16H143.457C143.85 180.16 144.097 179.656 143.904 179.247L143.139 177.631C142.804 176.922 142.173 176.483 141.49 176.483" fill="#090C0F"/>
<mask id="path-44-inside-1_445_605" fill="white">
<path d="M84.452 122.593H7.24926C5.26913 122.593 3.82687 124.47 4.33816 126.384L17.9732 177.466C18.325 178.785 19.5196 179.702 20.8843 179.702H98.0877C100.068 179.702 101.509 177.825 100.999 175.911L87.3638 124.829C87.012 123.51 85.8173 122.593 84.452 122.593"/>
</mask>
<path d="M84.452 122.593H7.24926C5.26913 122.593 3.82687 124.47 4.33816 126.384L17.9732 177.466C18.325 178.785 19.5196 179.702 20.8843 179.702H98.0877C100.068 179.702 101.509 177.825 100.999 175.911L87.3638 124.829C87.012 123.51 85.8173 122.593 84.452 122.593" fill="white"/>
<path d="M4.33816 126.384L4.78224 126.265L4.78227 126.265L4.33816 126.384ZM17.9732 177.466L18.4173 177.347L18.4173 177.347L17.9732 177.466ZM100.999 175.911L101.443 175.793L101.443 175.793L100.999 175.911ZM87.3638 124.829L86.9197 124.947L86.9197 124.947L87.3638 124.829ZM84.452 123.052H7.24926V122.133H84.452V123.052ZM7.24926 123.052C5.57116 123.052 4.34895 124.643 4.78224 126.265L3.89408 126.502C3.30478 124.297 4.9671 122.133 7.24926 122.133V123.052ZM4.78227 126.265L18.4173 177.347L17.5291 177.584L3.89405 126.502L4.78227 126.265ZM18.4173 177.347C18.7154 178.465 19.7277 179.242 20.8843 179.242V180.161C19.3115 180.161 17.9346 179.104 17.529 177.584L18.4173 177.347ZM20.8843 179.242H98.0877V180.161H20.8843V179.242ZM98.0877 179.242C99.7657 179.242 100.987 177.652 100.555 176.03L101.443 175.793C102.031 177.998 100.37 180.161 98.0877 180.161V179.242ZM100.555 176.03L86.9197 124.947L87.8079 124.71L101.443 175.793L100.555 176.03ZM86.9197 124.947C86.6216 123.83 85.6091 123.052 84.452 123.052V122.133C86.0254 122.133 87.4024 123.191 87.8079 124.71L86.9197 124.947Z" fill="black" mask="url(#path-44-inside-1_445_605)"/>
<path d="M58.0771 150.196C58.0771 154.198 54.8323 157.444 50.8294 157.444C46.8265 157.444 43.5811 154.198 43.5811 150.196C43.5811 146.193 46.8265 142.948 50.8294 142.948C54.8323 142.948 58.0771 146.193 58.0771 150.196" fill="#92A3FD"/>
<path d="M73.3212 86.4596C73.2387 84.9025 73.2756 83.2649 72.9402 81.7357C72.6341 80.3403 71.8049 79.2223 70.4552 78.6998C69.0363 78.1504 67.3578 78.2089 65.8622 78.158C62.2145 78.0357 58.5582 78.1782 54.9312 78.5841C53.425 78.753 51.8257 78.9075 50.7461 80.1018C49.8881 81.05 49.5479 82.2899 49.3958 83.5307C49.1861 85.2423 49.309 87.0013 49.4117 88.7162C49.4702 89.698 49.5503 90.6783 49.6511 91.6562C49.7399 92.5136 49.7269 93.5534 50.1549 94.3274C50.5359 95.0145 51.271 95.3413 52.0076 95.4948C52.4303 95.5836 52.8602 95.6498 53.2921 95.7036C54.2868 96.0241 55.4009 95.9977 56.4431 96.013C60.0471 96.0663 63.6535 95.9598 67.2484 95.6954C68.7465 95.5855 70.3837 95.5332 71.637 94.5995C72.7699 93.7545 73.2434 92.4373 73.4047 91.078C73.5856 89.5521 73.4023 87.9869 73.3212 86.4596" fill="#E54F69"/>
<path d="M63.3674 85.9386C62.9658 85.6781 62.5641 85.4185 62.1625 85.1579C61.3267 84.6167 60.4874 84.0812 59.6448 83.5481C57.6766 82.3034 58.4165 89.6439 58.4822 90.4389C58.5086 90.7571 58.6343 91.0354 58.9203 91.2028C59.1698 91.3487 59.5676 91.3861 59.8133 91.2028C60.5959 90.6184 61.3785 90.034 62.1611 89.45C62.5603 89.152 62.9595 88.8536 63.3592 88.5551C63.8107 88.2178 64.3841 87.879 64.388 87.2385C64.3923 86.5653 63.864 86.2606 63.3674 85.9386" fill="white"/>
<path d="M49.5517 102.785L49.5355 102.78C49.4338 102.763 49.3845 102.754 49.5517 102.785Z" fill="white"/>
<path d="M31.1526 109.303L31.1455 109.301C31.0984 109.293 31.0761 109.289 31.1526 109.303Z" fill="white"/>
<path d="M35.1108 109.303L35.1033 109.301C35.0566 109.293 35.034 109.289 35.1108 109.303Z" fill="white"/>
<path d="M46.5638 101.94C46.5099 100.926 46.5343 99.8584 46.3156 98.8613C46.1162 97.9518 45.5757 97.2235 44.6958 96.8825C43.7709 96.5247 42.6771 96.5626 41.7022 96.5299C39.3248 96.4496 36.9413 96.5427 34.5771 96.8073C33.5954 96.9171 32.5533 97.0183 31.849 97.7964C31.2903 98.4146 31.0683 99.2223 30.9691 100.031C30.8326 101.147 30.9126 102.294 30.9794 103.411C31.0179 104.051 31.0699 104.69 31.1358 105.327C31.1936 105.886 31.1849 106.564 31.464 107.069C31.7122 107.517 32.1917 107.73 32.6718 107.83C32.947 107.888 33.2273 107.931 33.5087 107.966C34.157 108.175 34.8835 108.158 35.5627 108.168C37.8267 108.201 40.0917 108.135 42.3502 107.976L42.3647 108.024C42.4263 108.226 42.5053 108.416 42.592 108.609C42.7503 108.96 42.9572 109.288 43.1527 109.619C43.3544 109.961 43.9174 109.997 44.1094 109.619C44.437 108.974 44.7003 108.285 44.8676 107.579C45.077 107.492 45.2787 107.386 45.4659 107.246C46.2045 106.695 46.5131 105.837 46.6181 104.951C46.736 103.956 46.6168 102.936 46.5638 101.94" fill="#92A3FD"/>
<path d="M33.9266 106.088L33.917 106.085C33.8561 106.075 33.8269 106.07 33.9266 106.088Z" fill="white"/>
<path d="M35.2729 104.196C35.1431 103.94 34.8923 103.773 34.6322 103.683C34.5224 103.644 34.3994 103.629 34.2834 103.629C34.2019 103.629 34.1184 103.643 34.0384 103.657C34.0031 103.663 33.9694 103.671 33.9357 103.684C33.7638 103.747 33.6415 103.82 33.5044 103.944C33.4764 103.97 33.4523 103.998 33.4292 104.027C33.3766 104.095 33.3197 104.162 33.2792 104.238C33.2211 104.348 33.1694 104.469 33.1463 104.592C33.1232 104.716 33.1026 104.851 33.1132 104.978C33.1241 105.109 33.1392 105.245 33.1864 105.369C33.2182 105.451 33.25 105.54 33.2959 105.616C33.3441 105.696 33.4022 105.777 33.4713 105.84C33.5978 105.954 33.7484 106.052 33.9173 106.085C33.9832 106.097 34.0863 106.113 34.1068 106.112C34.1646 106.11 34.2285 106.097 34.2857 106.088L34.3416 106.077C34.4238 106.055 34.5044 106.018 34.5802 105.978C34.6543 105.939 34.7224 105.881 34.786 105.829C34.8191 105.803 34.8525 105.777 34.8795 105.744C34.9739 105.628 35.0343 105.52 35.0898 105.39L35.0953 105.385L35.0725 105.439L35.0953 105.385C35.1643 105.316 35.2269 105.241 35.2722 105.153C35.3503 105.003 35.3965 104.849 35.3981 104.677C35.3994 104.505 35.3493 104.347 35.2729 104.196" fill="white"/>
<path d="M38.198 106.088L38.1884 106.085C38.1277 106.075 38.0982 106.07 38.198 106.088Z" fill="white"/>
<path d="M39.5443 104.196C39.4146 103.94 39.1638 103.773 38.904 103.683C38.7935 103.644 38.6708 103.629 38.5552 103.629C38.4733 103.629 38.3899 103.643 38.3102 103.657C38.2749 103.663 38.2408 103.671 38.2071 103.684C38.0353 103.747 37.913 103.82 37.7758 103.944C37.7482 103.97 37.7238 103.998 37.7007 104.027C37.648 104.095 37.5912 104.162 37.5507 104.238C37.4926 104.348 37.4406 104.469 37.4178 104.592C37.3946 104.716 37.3741 104.851 37.3847 104.978C37.3956 105.109 37.411 105.245 37.4582 105.369C37.4897 105.451 37.5215 105.54 37.5674 105.616C37.6156 105.696 37.6737 105.777 37.7428 105.84C37.8693 105.954 38.0199 106.052 38.1888 106.085C38.2546 106.097 38.3577 106.113 38.3783 106.112C38.4364 106.11 38.5 106.097 38.5575 106.088L38.6131 106.077C38.6953 106.055 38.7762 106.018 38.8516 105.978C38.9258 105.939 38.9939 105.881 39.0578 105.829C39.0906 105.803 39.1243 105.777 39.1513 105.744C39.2457 105.628 39.3061 105.52 39.3613 105.39L39.3667 105.385L39.3443 105.439L39.3667 105.385C39.4358 105.316 39.4984 105.241 39.5437 105.153C39.6217 105.003 39.6683 104.849 39.6696 104.677C39.6709 104.505 39.6208 104.347 39.5443 104.196" fill="white"/>
<path d="M42.1452 106.088L42.1355 106.085C42.0749 106.075 42.0457 106.07 42.1452 106.088Z" fill="white"/>
<path d="M43.4905 104.196C43.3611 103.94 43.1103 103.773 42.8501 103.683C42.74 103.644 42.6173 103.629 42.5014 103.629C42.4195 103.629 42.3363 103.643 42.2564 103.657C42.221 103.663 42.1873 103.671 42.1533 103.684C41.9818 103.747 41.8591 103.82 41.722 103.944C41.6944 103.97 41.6703 103.998 41.6472 104.027C41.5942 104.095 41.5373 104.162 41.4969 104.238C41.4387 104.348 41.387 104.469 41.3642 104.592C41.3411 104.716 41.3206 104.851 41.3308 104.978C41.3418 105.109 41.3572 105.245 41.4044 105.369C41.4359 105.451 41.468 105.54 41.5139 105.616C41.5617 105.696 41.6202 105.777 41.6889 105.84C41.8158 105.954 41.9661 106.052 42.135 106.085C42.2011 106.097 42.3042 106.113 42.3244 106.112C42.3826 106.11 42.4462 106.097 42.5036 106.088L42.5592 106.077C42.6414 106.055 42.7223 106.018 42.7981 105.978C42.8723 105.939 42.9404 105.881 43.004 105.829C43.037 105.803 43.0704 105.777 43.0974 105.744C43.1918 105.628 43.2522 105.52 43.3078 105.39L43.3129 105.385L43.2904 105.439L43.3132 105.385C43.3819 105.316 43.4446 105.241 43.4898 105.153C43.5682 105.003 43.6144 104.849 43.6157 104.677C43.6173 104.505 43.5672 104.347 43.4905 104.196" fill="white"/>
<path d="M60.1892 111.246C60.1829 111.16 60.1775 111.071 60.1585 110.988C60.1322 110.922 60.1147 110.88 60.1015 110.848C60.0698 110.648 59.9909 110.418 59.8642 110.264C59.7842 110.168 59.7038 110.061 59.6166 109.952C59.5386 109.854 59.3802 109.897 59.3232 109.989C59.2569 110.096 59.1965 110.18 59.1219 110.264C59.0479 110.348 59.0167 110.423 58.9728 110.521C58.9606 110.548 58.9397 110.612 58.9163 110.662C58.9158 110.659 58.8812 110.704 58.8017 110.81C58.7671 110.887 58.7345 110.966 58.7057 111.045L58.678 111.115L58.6697 111.133L58.6614 111.155L58.6599 111.159L58.6609 111.157C58.5815 111.343 58.5386 111.521 58.4855 111.715C58.4445 111.863 58.3972 112.009 58.3441 112.153C58.329 112.193 58.2471 112.451 58.3115 112.243C58.2876 112.319 58.2427 112.394 58.2106 112.467C58.0522 112.827 57.9928 113.214 57.9845 113.604C57.9781 113.894 58.2925 114.157 58.58 114.057C58.9991 113.912 59.3544 113.654 59.602 113.281C59.8208 112.95 59.9587 112.53 60.0747 112.154C60.1419 111.936 60.1985 111.717 60.198 111.487C60.198 111.407 60.1946 111.326 60.1892 111.246" fill="white"/>
<path d="M60.7608 106.085C60.7594 105.592 60.6458 105.212 60.6053 104.749C60.5659 104.299 60.5586 103.847 60.5215 103.396C60.4991 103.124 60.4606 102.886 60.3578 102.633C60.3032 102.499 60.2642 102.368 60.158 102.261C60.1112 102.216 60.0581 102.18 60.0015 102.149L59.966 102.095C59.8773 101.956 59.6531 101.898 59.5332 102.039C59.4494 102.138 59.3373 102.169 59.2452 102.261C59.1511 102.356 59.1077 102.469 59.0546 102.586C58.9191 102.888 58.8777 103.164 58.8636 103.493C58.8431 103.984 58.924 104.481 58.999 104.966C59.0721 105.437 59.137 105.941 59.3387 106.377C59.5161 106.759 59.7691 107.312 60.2101 107.438C60.3154 107.469 60.466 107.442 60.5381 107.352C60.8125 107.009 60.7628 106.5 60.7608 106.085" fill="white"/>
<path d="M91.7213 74.2509L91.7234 74.2607C91.717 74.1662 91.7121 74.1408 91.71 74.1563L91.7206 74.241L91.7213 74.2509" fill="white"/>
<path d="M58.9759 99.451C58.9784 99.3706 58.9638 99.2921 58.9433 99.2107L58.9404 99.2029L58.9408 99.199L58.9394 99.0796C58.9355 98.9592 58.8989 98.8462 58.8741 98.7302L58.8775 98.7799L58.8726 98.7234L58.8682 98.7058L58.8648 98.6581C58.858 98.5816 58.8492 98.5055 58.8385 98.429C58.8463 98.486 58.8536 98.543 58.8619 98.6006C58.8473 98.485 58.8531 98.37 58.8629 98.255C58.8887 98.1483 58.9213 98.044 58.936 97.9363L58.9477 97.8237L58.9326 97.7121L58.9316 97.7048C58.9262 97.621 58.9145 97.543 58.8906 97.4689L58.8877 97.4221L58.8936 97.4002L58.9028 97.3739L58.9282 97.3203C58.9871 97.1985 58.9179 97.0381 58.7678 97.0406C58.6923 97.042 58.6177 97.0615 58.5432 97.0781L58.5358 97.0761C58.4725 97.0674 58.4116 97.0717 58.3497 97.0898L58.3019 97.1093C58.1328 97.1361 57.9725 97.2292 57.8492 97.3461C57.7064 97.4816 57.6347 97.66 57.5987 97.8491C57.5382 98.16 57.5383 98.4465 57.5938 98.7589C57.6416 99.028 57.8575 99.4227 58.0982 99.5621C58.2722 99.663 58.5758 99.7848 58.7873 99.7054L58.8209 99.702C58.9564 99.6849 59.0213 99.5762 58.9759 99.451" fill="white"/>
</g>
<defs>
<filter id="filter0_d_445_605" x="0.234375" y="0.892578" width="235.999" height="193.703" filterUnits="userSpaceOnUse" color-interpolation-filters="sRGB">
<feFlood flood-opacity="0" result="BackgroundImageFix"/>
<feColorMatrix in="SourceAlpha" type="matrix" values="0 0 0 0 0 0 0 0 0 0 0 0 0 0 0 0 0 0 127 0" result="hardAlpha"/>
<feOffset dy="4"/>
<feGaussianBlur stdDeviation="2"/>
<feComposite in2="hardAlpha" operator="out"/>
<feColorMatrix type="matrix" values="0 0 0 0 0 0 0 0 0 0 0 0 0 0 0 0 0 0 0.25 0"/>
<feBlend mode="normal" in2="BackgroundImageFix" result="effect1_dropShadow_445_605"/>
<feBlend mode="normal" in="SourceGraphic" in2="effect1_dropShadow_445_605" result="shape"/>
</filter>
</defs>
</svg>
