<svg width="393" height="233" viewBox="0 0 393 233" fill="none" xmlns="http://www.w3.org/2000/svg">
<path d="M59.957 22.3954C116.432 1.43629 173.832 19.9624 212.76 60.3312C251.688 100.7 333.377 32.4672 376.709 72.768C406.272 100.279 392.734 170.999 352.189 201.622C297.072 243.255 129.495 222.132 93.2306 215.051C51.4755 206.882 20.9339 182.117 8.52424 152.065C-21.3649 79.632 35.0018 31.6653 59.957 22.3954Z" fill="#FCFCFC"/>
<path d="M252.979 51.5234C253.175 49.795 253.275 48.0571 253.278 46.3176C253.278 45.3797 253.251 44.4691 253.197 43.5448L244.593 40.772C244.07 37.2067 243.045 33.7335 241.548 30.4555L247.244 23.442C245.93 21.1284 244.42 18.932 242.731 16.877L234.127 19.6905C231.615 17.1158 228.75 14.9101 225.618 13.1391L226.108 4.10033C223.682 3.00279 221.167 2.11162 218.591 1.43627L213.277 8.77604C211.176 8.4151 209.048 8.23322 206.916 8.23235C205.453 8.23589 203.992 8.32211 202.539 8.4906L197.632 0.892578C195.024 1.41729 192.468 2.17235 189.993 3.14888V12.2013C186.772 13.7997 183.794 15.8452 181.145 18.277L172.704 15.0284C170.914 16.9965 169.291 19.1107 167.852 21.3488L173.18 28.6614C171.497 31.844 170.288 35.2554 169.592 38.7875L160.852 41.1118C160.656 42.8402 160.556 44.5781 160.553 46.3176C160.553 47.2419 160.594 48.1661 160.648 49.0768L169.238 51.8632C169.761 55.4241 170.786 58.8928 172.283 62.1661L166.588 69.1796C167.901 71.4975 169.411 73.6985 171.1 75.7582L179.704 72.9447C182.222 75.5196 185.091 77.7253 188.226 79.4961L187.737 88.5349C190.156 89.636 192.666 90.5229 195.24 91.1853L200.554 83.8592C202.656 84.215 204.784 84.3923 206.916 84.3893C208.378 84.3902 209.839 84.3085 211.292 84.1446L216.213 91.7426C218.82 91.2142 221.376 90.4592 223.851 89.4863V80.4339C227.068 78.8296 230.042 76.7796 232.686 74.3447L241.127 77.6068C242.926 75.6456 244.549 73.5307 245.98 71.2864L240.665 63.9738C242.334 60.7852 243.542 57.3758 244.253 53.8477L252.979 51.5234ZM206.916 64.5039C203.319 64.5039 199.803 63.4373 196.812 61.439C193.821 59.4406 191.49 56.6003 190.114 53.2772C188.737 49.9541 188.377 46.2974 189.079 42.7696C189.78 39.2418 191.513 36.0013 194.056 33.4579C196.599 30.9145 199.84 29.1824 203.368 28.4807C206.895 27.779 210.552 28.1392 213.875 29.5156C217.198 30.8921 220.039 33.2231 222.037 36.2138C224.035 39.2045 225.102 42.7207 225.102 46.3176C225.102 48.7059 224.632 51.0707 223.718 53.2772C222.804 55.4837 221.464 57.4885 219.775 59.1773C218.087 60.866 216.082 62.2056 213.875 63.1196C211.669 64.0335 209.304 64.5039 206.916 64.5039Z" fill="#92A3FD"/>
<path d="M231.722 67.0592C231.561 67.0614 231.406 67.0031 231.287 66.8961C231.149 66.782 231.061 66.6181 231.043 66.44C231.026 66.2618 231.079 66.0838 231.191 65.9447C234.564 61.8872 236.835 57.0295 237.785 51.8396C238.734 46.6497 238.332 41.3027 236.615 36.3137C236.585 36.229 236.573 36.1392 236.578 36.0496C236.583 35.96 236.606 35.8723 236.645 35.7915C236.684 35.7108 236.739 35.6385 236.806 35.5788C236.873 35.5192 236.951 35.4733 237.036 35.4438C237.121 35.4144 237.211 35.4019 237.3 35.4072C237.39 35.4124 237.478 35.4352 237.558 35.4744C237.639 35.5135 237.711 35.5681 237.771 35.6352C237.831 35.7023 237.877 35.7804 237.906 35.8652C239.694 41.0748 240.112 46.6569 239.12 52.0747C238.127 57.4925 235.757 62.5638 232.238 66.801C232.176 66.8793 232.098 66.9431 232.009 66.9877C231.919 67.0323 231.821 67.0567 231.722 67.0592Z" fill="white"/>
<path d="M229.084 24.1356C228.998 24.1383 228.913 24.1226 228.833 24.0899C228.753 24.0571 228.682 24.0078 228.622 23.9454C225.575 21.0809 221.977 18.8658 218.048 17.4347C217.883 17.3698 217.75 17.2434 217.677 17.0821C217.605 16.9209 217.598 16.7376 217.658 16.5713C217.718 16.4049 217.841 16.2685 218 16.1912C218.159 16.1138 218.342 16.1016 218.51 16.157C222.616 17.6484 226.372 19.966 229.547 22.9667C229.612 23.0269 229.664 23.0995 229.701 23.1802C229.737 23.2609 229.758 23.3481 229.76 23.4367C229.763 23.5253 229.748 23.6136 229.716 23.6962C229.684 23.7789 229.635 23.8544 229.574 23.9182C229.513 23.9884 229.438 24.0443 229.354 24.0819C229.269 24.1195 229.177 24.1379 229.084 24.1356Z" fill="white"/>
<path d="M199.861 16.5642C199.711 16.5604 199.566 16.5079 199.448 16.4148C199.331 16.3216 199.247 16.1929 199.208 16.0477C199.186 15.9612 199.181 15.871 199.193 15.7824C199.206 15.6939 199.235 15.6086 199.281 15.5316C199.326 15.4546 199.387 15.3873 199.458 15.3336C199.53 15.2799 199.611 15.2408 199.698 15.2186C202.271 14.5724 204.914 14.2437 207.567 14.24C207.748 14.24 207.921 14.3116 208.048 14.439C208.176 14.5665 208.247 14.7394 208.247 14.9196C208.247 15.0998 208.176 15.2727 208.048 15.4002C207.921 15.5276 207.748 15.5992 207.567 15.5992C205.028 15.5969 202.499 15.9119 200.037 16.5371L199.861 16.5642Z" fill="white"/>
<path d="M106.836 166.649C106.973 165.453 107.041 164.25 107.04 163.047C107.04 162.408 107.027 161.769 106.986 161.13L101.033 159.2C100.673 156.734 99.9634 154.331 98.9259 152.064L102.868 147.198C101.96 145.597 100.914 144.078 99.7414 142.659L93.788 144.602C92.0436 142.821 90.0579 141.293 87.889 140.063L88.2288 133.81C86.5509 133.043 84.809 132.425 83.023 131.962L79.3395 137.045C77.885 136.794 76.4117 136.667 74.9357 136.665C73.9229 136.668 72.911 136.727 71.9046 136.841L68.5066 131.581C66.697 131.945 64.9232 132.468 63.2056 133.144V139.41C60.9747 140.52 58.9111 141.939 57.0756 143.624L51.2309 141.381C49.9794 142.732 48.8512 144.192 47.8601 145.744L51.5572 150.814C50.3955 153.02 49.5578 155.382 49.0698 157.828L43.0077 159.445C42.8822 160.642 42.8187 161.844 42.8174 163.047C42.8174 163.686 42.831 164.325 42.8718 164.963L48.8251 166.894C49.1869 169.36 49.8962 171.762 50.9319 174.029L46.9902 178.882C47.8948 180.489 48.941 182.013 50.1164 183.435L56.0697 181.492C57.8145 183.269 59.8002 184.793 61.9688 186.018L61.6289 192.284C63.3084 193.047 65.05 193.665 66.8347 194.132L70.5182 189.049C71.9731 189.296 73.4464 189.419 74.9221 189.416C75.9351 189.419 76.9473 189.36 77.9531 189.239L81.3512 194.513C83.1591 194.142 84.9325 193.62 86.6521 192.95V186.684C88.8864 185.574 90.9506 184.15 92.7822 182.457L98.6268 184.713C99.8703 183.35 100.998 181.886 101.998 180.336L98.3006 175.28C99.4622 173.074 100.3 170.711 100.788 168.266L106.836 166.649ZM74.9357 175.633C72.4431 175.633 70.0065 174.894 67.9341 173.509C65.8618 172.124 64.2468 170.155 63.2936 167.852C62.3403 165.549 62.0916 163.015 62.5788 160.57C63.0661 158.126 64.2675 155.881 66.031 154.119C67.7945 152.357 70.0409 151.158 72.4859 150.674C74.9309 150.189 77.4648 150.441 79.7669 151.396C82.069 152.352 84.0359 153.969 85.4188 156.043C86.8016 158.117 87.5383 160.554 87.5356 163.047C87.5356 164.701 87.2096 166.339 86.5762 167.867C85.9429 169.395 85.0145 170.783 83.8444 171.952C82.6742 173.121 81.2851 174.047 79.7564 174.679C78.2278 175.311 76.5897 175.635 74.9357 175.633Z" fill="#92A3FD"/>
<path d="M92.1161 177.618C91.9558 177.62 91.8005 177.562 91.6812 177.455C91.5432 177.341 91.4558 177.177 91.4379 176.999C91.4201 176.821 91.4733 176.643 91.586 176.504C93.8972 173.72 95.4536 170.389 96.1058 166.831C96.7581 163.272 96.4841 159.606 95.3103 156.183C95.2534 156.012 95.2656 155.825 95.3443 155.663C95.423 155.501 95.562 155.375 95.7316 155.314C95.9011 155.257 96.0859 155.27 96.2462 155.349C96.4064 155.427 96.5292 155.566 96.5879 155.735C97.8429 159.378 98.1382 163.282 97.4454 167.073C96.7527 170.863 95.0951 174.41 92.6326 177.374C92.5701 177.45 92.4913 177.512 92.4019 177.554C92.3126 177.597 92.215 177.618 92.1161 177.618Z" fill="white"/>
<path d="M90.2944 147.892C90.2063 147.895 90.1185 147.879 90.0366 147.846C89.9547 147.814 89.8805 147.764 89.8187 147.701C87.7325 145.738 85.2673 144.221 82.574 143.243C82.4877 143.215 82.408 143.169 82.3396 143.109C82.2712 143.05 82.2155 142.977 82.1758 142.895C82.1361 142.813 82.1132 142.724 82.1084 142.634C82.1036 142.543 82.117 142.452 82.1479 142.367C82.1789 142.281 82.2266 142.203 82.2883 142.136C82.35 142.069 82.4245 142.016 82.5073 141.978C82.5901 141.941 82.6796 141.921 82.7704 141.918C82.8613 141.916 82.9516 141.932 83.0362 141.966C85.9098 143.003 88.5381 144.622 90.7565 146.723C90.8216 146.783 90.874 146.856 90.9107 146.936C90.9474 147.017 90.9676 147.104 90.9701 147.193C90.9727 147.281 90.9575 147.37 90.9255 147.452C90.8935 147.535 90.8453 147.61 90.7837 147.674C90.7222 147.743 90.6467 147.798 90.5624 147.835C90.478 147.873 90.3867 147.892 90.2944 147.892Z" fill="white"/>
<path d="M70.0563 142.646C69.883 142.659 69.7112 142.605 69.5763 142.495C69.4414 142.386 69.3536 142.229 69.331 142.056C69.3084 141.884 69.3526 141.71 69.4546 141.569C69.5567 141.428 69.7087 141.332 69.8796 141.3C71.6798 140.849 73.5286 140.621 75.3844 140.62C75.5646 140.62 75.7375 140.692 75.8649 140.819C75.9924 140.947 76.064 141.12 76.064 141.3C76.064 141.48 75.9924 141.653 75.8649 141.781C75.7375 141.908 75.5646 141.98 75.3844 141.98C73.643 141.979 71.9082 142.194 70.2194 142.618L70.0563 142.646Z" fill="white"/>
<path d="M280.748 86.1425C280.748 85.8027 280.734 85.4493 280.721 85.0959L285.179 81.5212C284.832 79.7539 284.289 78.0308 283.561 76.3833L277.798 75.9484C276.486 73.8853 274.793 72.0909 272.81 70.661L272.783 64.9115C271.161 64.0592 269.446 63.3978 267.672 62.9407L263.744 67.1814C263.064 67.1135 262.371 67.0727 261.664 67.0727C259.975 67.0712 258.293 67.2952 256.662 67.7387L252.136 64.164C250.443 64.8977 248.841 65.8284 247.365 66.9368L248.222 72.6319C246.521 74.3168 245.156 76.3094 244.198 78.5037L238.571 79.795C238.088 81.5649 237.809 83.3846 237.742 85.2182L242.69 88.0726C242.937 90.5212 243.657 92.8986 244.81 95.0726L242.336 100.265C243.395 101.719 244.617 103.046 245.979 104.22L251.28 102.14C253.404 103.527 255.784 104.474 258.28 104.927L260.781 110.078H261.678C263.151 110.081 264.621 109.944 266.068 109.671L267.754 104.22C270.182 103.404 272.42 102.105 274.332 100.401L279.919 101.651C281.064 100.301 282.058 98.8285 282.882 97.2609L279.647 92.5172C280.373 90.4703 280.746 88.3145 280.748 86.1425ZM261.461 94.5561C259.872 94.5561 258.319 94.0849 256.998 93.2023C255.677 92.3196 254.647 91.065 254.039 89.5972C253.431 88.1293 253.272 86.5142 253.582 84.9559C253.892 83.3977 254.657 81.9663 255.78 80.8429C256.904 79.7195 258.335 78.9544 259.893 78.6445C261.452 78.3345 263.067 78.4936 264.535 79.1016C266.002 79.7096 267.257 80.7392 268.14 82.0602C269.022 83.3812 269.493 84.9343 269.493 86.5231C269.49 88.6525 268.642 90.6936 267.137 92.1993C265.631 93.705 263.59 94.5525 261.461 94.5561Z" fill="#92A3FD"/>
<path d="M377.837 218.19C349.566 216.804 253.401 219.142 224.164 220.052C194.928 220.963 160.961 218.856 143.332 215.744C125.703 212.631 23.7614 216.002 28.3964 224.375C33.0313 232.747 73.8078 228.113 120.062 231.483C166.316 234.854 270.351 231.062 293.811 231.483C317.271 231.905 338.801 230.641 369.043 228.955C399.286 227.27 394.216 218.992 377.837 218.19Z" fill="#EBEBEB"/>
<path d="M88.8947 43.1641H29.8096V140.018H88.8947V43.1641Z" fill="#9DCEFF"/>
<path d="M86.9643 45.135H32.9082V136.324H86.9643V45.135Z" fill="#FAFAFA"/>
<path d="M49.0693 81.6981C51.1082 77.3214 54.547 75.9214 60.2013 75.9214C66.943 75.9214 70.4362 78.368 71.4284 81.9155C59.3722 82.0786 49.0693 81.6981 49.0693 81.6981Z" fill="#9BD6E8"/>
<path d="M57.8497 54.6359C55.009 55.4378 55.1313 57.0417 54.1798 58.5232C53.2284 60.0048 51.1624 60.997 50.9177 61.9892C50.6731 62.9814 51.5565 65.0475 50.5099 66.2028C49.4634 67.3581 49.0964 67.9426 49.5177 69.0979C49.9391 70.2533 50.8362 72.0746 50.9177 72.3193C50.9993 72.5639 52.1546 74.3037 53.5546 74.5484C54.9546 74.793 57.6051 75.2144 58.9235 75.7853C60.2419 76.3561 64.4963 75.0513 66.8613 75.1328C69.2264 75.2144 70.8166 73.4746 70.6535 72.3193C70.4904 71.1639 72.3933 68.8533 72.3933 66.8688C72.3933 64.8844 69.906 63.1446 69.2535 61.7446C68.6011 60.3446 69.3351 57.8708 66.8613 56.4028C65.2846 55.465 64.2109 55.5601 62.974 55.1388C61.7371 54.7174 59.6711 54.1329 57.8497 54.6359Z" fill="#3A384D"/>
<path d="M61.3166 79.4145C60.6778 80.366 60.202 80.4067 59.5088 79.4145C58.9516 78.6262 57.8506 76.8456 57.8506 75.9349V66.8689C57.8506 66.6512 57.8935 66.4355 57.9768 66.2344C58.0601 66.0332 58.1823 65.8504 58.3363 65.6964C58.4903 65.5424 58.6731 65.4203 58.8742 65.3369C59.0754 65.2536 59.2911 65.2107 59.5088 65.2107H61.3166C61.7564 65.2107 62.1782 65.3854 62.4891 65.6964C62.8001 66.0074 62.9748 66.4291 62.9748 66.8689V75.9349C62.9748 76.8456 61.9011 78.5718 61.3166 79.4145Z" fill="#FFEDE5"/>
<path d="M61.3166 65.2107H59.5088C59.069 65.2107 58.6473 65.3854 58.3363 65.6964C58.0253 66.0074 57.8506 66.4291 57.8506 66.8689V74.9563C59.8894 75.6087 61.7515 74.3174 62.9748 72.8631V66.8689C62.9748 66.4291 62.8001 66.0074 62.4891 65.6964C62.1782 65.3854 61.7564 65.2107 61.3166 65.2107Z" fill="#E38540"/>
<path d="M60.419 72.7955C63.4517 72.7955 65.9102 69.4424 65.9102 65.3062C65.9102 61.17 63.4517 57.8169 60.419 57.8169C57.3862 57.8169 54.9277 61.17 54.9277 65.3062C54.9277 69.4424 57.3862 72.7955 60.419 72.7955Z" fill="#FFEDE5"/>
<path d="M62.974 59.3523C59.508 65.2105 54.3838 64.6397 54.3838 64.6397C54.3838 64.6397 54.5061 56.8785 58.5702 56.4572C62.6342 56.0358 65.04 57.6805 65.8692 60.3717C66.6983 63.063 65.8692 64.8435 65.8692 64.8435C65.0029 64.1227 64.3224 63.2044 63.8847 62.1659C63.5081 61.2533 63.2036 60.3125 62.974 59.3523Z" fill="#3A384D"/>
<path d="M55.1057 67.7687C55.8245 67.4274 55.9922 66.2766 55.4802 65.1984C54.9682 64.1202 53.9705 63.5229 53.2517 63.8642C52.5329 64.2055 52.3652 65.3562 52.8772 66.4344C53.3892 67.5126 54.3869 68.11 55.1057 67.7687Z" fill="#FFEDE5"/>
<path d="M65.0947 65.1972C64.5782 66.271 64.7549 67.4263 65.4753 67.7661C66.1957 68.1059 67.1879 67.5078 67.7044 66.4341C68.2209 65.3603 68.0578 64.1913 67.3374 63.8515C66.617 63.5117 65.6112 64.1098 65.0947 65.1972Z" fill="#FFEDE5"/>
<path d="M66.9573 93.5775H53.0797C52.6781 93.5406 52.3047 93.3549 52.0329 93.057C51.761 92.759 51.6104 92.3702 51.6104 91.9669C51.6104 91.5635 51.761 91.1748 52.0329 90.8768C52.3047 90.5788 52.6781 90.3931 53.0797 90.3562H66.9573C67.3589 90.3931 67.7323 90.5788 68.0041 90.8768C68.276 91.1748 68.4267 91.5635 68.4267 91.9669C68.4267 92.3702 68.276 92.759 68.0041 93.057C67.7323 93.3549 67.3589 93.5406 66.9573 93.5775Z" fill="#92A3FD"/>
<path d="M69.4852 98.525H50.5377C50.1361 98.4881 49.7627 98.3024 49.4909 98.0044C49.2191 97.7065 49.0684 97.3177 49.0684 96.9143C49.0684 96.511 49.2191 96.1222 49.4909 95.8242C49.7627 95.5263 50.1361 95.3406 50.5377 95.3037H69.4852C69.7091 95.2831 69.9349 95.3094 70.1481 95.381C70.3613 95.4526 70.5573 95.5678 70.7234 95.7194C70.8896 95.871 71.0223 96.0555 71.1131 96.2613C71.2039 96.467 71.2508 96.6894 71.2508 96.9143C71.2508 97.1392 71.2039 97.3617 71.1131 97.5674C71.0223 97.7732 70.8896 97.9577 70.7234 98.1093C70.5573 98.2609 70.3613 98.3761 70.1481 98.4477C69.9349 98.5193 69.7091 98.5456 69.4852 98.525Z" fill="#92A3FD"/>
<path d="M83.0635 116.345H36.9724C36.8407 116.36 36.7071 116.348 36.5805 116.309C36.4538 116.269 36.337 116.203 36.2377 116.115C36.1384 116.027 36.0589 115.919 36.0045 115.798C35.95 115.677 35.9219 115.546 35.9219 115.413C35.9219 115.281 35.95 115.15 36.0045 115.029C36.0589 114.908 36.1384 114.8 36.2377 114.712C36.337 114.624 36.4538 114.558 36.5805 114.518C36.7071 114.479 36.8407 114.466 36.9724 114.482H83.0635C83.1952 114.466 83.3288 114.479 83.4554 114.518C83.5821 114.558 83.6989 114.624 83.7982 114.712C83.8975 114.8 83.977 114.908 84.0314 115.029C84.0859 115.15 84.114 115.281 84.114 115.413C84.114 115.546 84.0859 115.677 84.0314 115.798C83.977 115.919 83.8975 116.027 83.7982 116.115C83.6989 116.203 83.5821 116.269 83.4554 116.309C83.3288 116.348 83.1952 116.36 83.0635 116.345Z" fill="#92A3FD"/>
<path d="M83.0635 120.694H36.9724C36.8407 120.71 36.7071 120.698 36.5805 120.658C36.4538 120.619 36.337 120.553 36.2377 120.465C36.1384 120.377 36.0589 120.269 36.0045 120.148C35.95 120.027 35.9219 119.895 35.9219 119.763C35.9219 119.63 35.95 119.499 36.0045 119.378C36.0589 119.257 36.1384 119.149 36.2377 119.061C36.337 118.973 36.4538 118.907 36.5805 118.867C36.7071 118.828 36.8407 118.816 36.9724 118.832H83.0635C83.1952 118.816 83.3288 118.828 83.4554 118.867C83.5821 118.907 83.6989 118.973 83.7982 119.061C83.8975 119.149 83.977 119.257 84.0314 119.378C84.0859 119.499 84.114 119.63 84.114 119.763C84.114 119.895 84.0859 120.027 84.0314 120.148C83.977 120.269 83.8975 120.377 83.7982 120.465C83.6989 120.553 83.5821 120.619 83.4554 120.658C83.3288 120.698 83.1952 120.71 83.0635 120.694Z" fill="#92A3FD"/>
<path d="M83.0641 125.043H36.973C36.7243 125.043 36.4857 124.945 36.3098 124.769C36.134 124.593 36.0352 124.354 36.0352 124.106C36.0352 123.857 36.134 123.618 36.3098 123.442C36.4857 123.267 36.7243 123.168 36.973 123.168H83.0641C83.3128 123.168 83.5513 123.267 83.7272 123.442C83.9031 123.618 84.0019 123.857 84.0019 124.106C84.0019 124.354 83.9031 124.593 83.7272 124.769C83.5513 124.945 83.3128 125.043 83.0641 125.043Z" fill="#92A3FD"/>
<path d="M76.6207 82.7853H43.415C42.9727 82.7818 42.5495 82.6045 42.2368 82.2917C41.924 81.979 41.7467 81.5558 41.7432 81.1135V50.5175C41.7432 50.298 41.7864 50.0806 41.8704 49.8778C41.9544 49.6749 42.0776 49.4906 42.2328 49.3354C42.3881 49.1801 42.5724 49.057 42.7752 48.973C42.978 48.8889 43.1955 48.8457 43.415 48.8457H76.6207C77.0617 48.8493 77.4835 49.027 77.7941 49.3402C78.1046 49.6533 78.2789 50.0765 78.2789 50.5175V81.1135C78.2789 81.5546 78.1046 81.9777 77.7941 82.2909C77.4835 82.604 77.0617 82.7818 76.6207 82.7853ZM43.415 50.2049C43.3321 50.2049 43.2526 50.2379 43.1939 50.2965C43.1353 50.3551 43.1024 50.4346 43.1024 50.5175V81.1135C43.1057 81.1953 43.1397 81.2729 43.1977 81.3308C43.2556 81.3888 43.3332 81.4228 43.415 81.4261H76.6207C76.7012 81.4226 76.7773 81.3881 76.833 81.3299C76.8887 81.2716 76.9198 81.1941 76.9197 81.1135V50.5175C76.9215 50.4771 76.9151 50.4368 76.9009 50.3989C76.8867 50.3611 76.865 50.3265 76.8371 50.2973C76.8091 50.268 76.7755 50.2448 76.7383 50.2289C76.7011 50.213 76.6611 50.2049 76.6207 50.2049H43.415Z" fill="#C6C6C6"/>
<path d="M48.2132 102.739L49.1646 104.683L51.3122 104.995L49.7627 106.518L50.1297 108.652L48.2132 107.646L46.2831 108.652L46.6501 106.518L45.1006 104.995L47.2481 104.683L48.2132 102.739Z" fill="#92A3FD"/>
<path d="M56.0833 102.739L57.0484 104.683L59.1959 104.995L57.6328 106.518L57.9998 108.652L56.0833 107.646L54.1532 108.652L54.5202 106.518L52.9707 104.995L55.1183 104.683L56.0833 102.739Z" fill="#92A3FD"/>
<path d="M63.9534 102.739L64.9185 104.683L67.066 104.995L65.5029 106.518L65.8699 108.652L63.9534 107.646L62.0369 108.652L62.4039 106.518L60.8408 104.995L62.9884 104.683L63.9534 102.739Z" fill="#92A3FD"/>
<path d="M71.8226 102.739L72.7876 104.683L74.9352 104.995L73.3857 106.518L73.7527 108.652L71.8226 107.646L69.9061 108.652L70.2731 106.518L68.71 104.995L70.8575 104.683L71.8226 102.739Z" fill="#92A3FD"/>
<path d="M220.63 43.1641H161.545V140.018H220.63V43.1641Z" fill="#9DCEFF"/>
<path d="M218.7 45.135H164.644V136.324H218.7V45.135Z" fill="#FAFAFA"/>
<path d="M183.374 64.8169C183.374 69.1528 185.984 76.1528 192.155 75.9217C198.325 75.6906 199.671 69.0305 199.916 67.1412C200.16 65.2518 183.374 64.8169 183.374 64.8169Z" fill="#7A4E34"/>
<path d="M180.805 81.6981C182.844 77.3214 186.282 75.9214 191.937 75.9214C198.678 75.9214 202.172 78.368 203.164 81.9155C191.108 82.0786 180.805 81.6981 180.805 81.6981Z" fill="#D54A41"/>
<path d="M193.066 79.4145C192.413 80.366 191.937 80.4067 191.244 79.4145C190.687 78.6262 189.586 76.8456 189.586 75.9349V66.8689C189.586 66.6512 189.629 66.4355 189.712 66.2344C189.795 66.0332 189.918 65.8504 190.072 65.6964C190.226 65.5424 190.408 65.4203 190.61 65.3369C190.811 65.2536 191.026 65.2107 191.244 65.2107H193.066C193.503 65.2143 193.921 65.3906 194.229 65.7012C194.537 66.0118 194.71 66.4315 194.71 66.8689V75.9349C194.71 76.8456 193.636 78.5718 193.066 79.4145Z" fill="#FFEDE5"/>
<path d="M193.066 65.2107H191.244C191.026 65.2107 190.811 65.2536 190.61 65.3369C190.408 65.4203 190.226 65.5424 190.072 65.6964C189.918 65.8504 189.795 66.0332 189.712 66.2344C189.629 66.4355 189.586 66.6512 189.586 66.8689V74.9563C191.625 75.6087 193.487 74.3174 194.71 72.8631V66.8689C194.71 66.4315 194.537 66.0118 194.229 65.7012C193.921 65.3906 193.503 65.2143 193.066 65.2107Z" fill="#E38540"/>
<path d="M192.154 72.7955C195.187 72.7955 197.646 69.4424 197.646 65.3062C197.646 61.17 195.187 57.8169 192.154 57.8169C189.122 57.8169 186.663 61.17 186.663 65.3062C186.663 69.4424 189.122 72.7955 192.154 72.7955Z" fill="#FFEDE5"/>
<path d="M195.172 59.6242C194.52 61.9213 193.093 61.8941 191.095 62.6552C189.097 63.4164 188.145 64.164 187.493 65.6319C186.664 67.5212 187.873 72.9853 187.873 72.9853C187.873 72.9853 182.817 69.2067 183.402 63.2669C183.986 57.3271 187.493 55.03 190.796 55.03C194.099 55.03 195.335 57.0281 195.335 57.0281C195.335 57.0281 197.102 57.0417 198.761 59.0125C200.99 61.6494 200.31 68.0785 198.761 70.3756C197.211 72.6727 196.178 73.4066 196.219 73.2979C196.26 73.1892 197.66 67.9154 196.899 64.6397C196.137 61.364 195.172 59.6242 195.172 59.6242Z" fill="#7A4E34"/>
<path d="M198.693 93.5775H184.815C184.413 93.5406 184.04 93.3549 183.768 93.057C183.496 92.759 183.346 92.3702 183.346 91.9669C183.346 91.5635 183.496 91.1748 183.768 90.8768C184.04 90.5788 184.413 90.3931 184.815 90.3562H198.693C199.094 90.3931 199.468 90.5788 199.739 90.8768C200.011 91.1748 200.162 91.5635 200.162 91.9669C200.162 92.3702 200.011 92.759 199.739 93.057C199.468 93.3549 199.094 93.5406 198.693 93.5775Z" fill="#92A3FD"/>
<path d="M201.234 98.525H182.286C182.062 98.5456 181.836 98.5193 181.623 98.4477C181.41 98.3761 181.214 98.2609 181.048 98.1093C180.882 97.9577 180.749 97.7732 180.658 97.5674C180.567 97.3617 180.521 97.1392 180.521 96.9143C180.521 96.6894 180.567 96.467 180.658 96.2613C180.749 96.0555 180.882 95.871 181.048 95.7194C181.214 95.5678 181.41 95.4526 181.623 95.381C181.836 95.3094 182.062 95.2831 182.286 95.3037H201.234C201.635 95.3406 202.009 95.5263 202.28 95.8242C202.552 96.1222 202.703 96.511 202.703 96.9143C202.703 97.3177 202.552 97.7065 202.28 98.0044C202.009 98.3024 201.635 98.4881 201.234 98.525Z" fill="#92A3FD"/>
<path d="M214.799 116.345H168.708C168.576 116.36 168.442 116.348 168.316 116.309C168.189 116.269 168.072 116.203 167.973 116.115C167.874 116.027 167.794 115.919 167.74 115.798C167.685 115.677 167.657 115.546 167.657 115.413C167.657 115.281 167.685 115.15 167.74 115.029C167.794 114.908 167.874 114.8 167.973 114.712C168.072 114.624 168.189 114.558 168.316 114.518C168.442 114.479 168.576 114.466 168.708 114.482H214.799C214.931 114.466 215.064 114.479 215.191 114.518C215.317 114.558 215.434 114.624 215.534 114.712C215.633 114.8 215.712 114.908 215.767 115.029C215.821 115.15 215.849 115.281 215.849 115.413C215.849 115.546 215.821 115.677 215.767 115.798C215.712 115.919 215.633 116.027 215.534 116.115C215.434 116.203 215.317 116.269 215.191 116.309C215.064 116.348 214.931 116.36 214.799 116.345Z" fill="#92A3FD"/>
<path d="M214.799 120.694H168.708C168.576 120.71 168.442 120.698 168.316 120.658C168.189 120.619 168.072 120.553 167.973 120.465C167.874 120.377 167.794 120.269 167.74 120.148C167.685 120.027 167.657 119.895 167.657 119.763C167.657 119.63 167.685 119.499 167.74 119.378C167.794 119.257 167.874 119.149 167.973 119.061C168.072 118.973 168.189 118.907 168.316 118.867C168.442 118.828 168.576 118.816 168.708 118.832H214.799C214.931 118.816 215.064 118.828 215.191 118.867C215.317 118.907 215.434 118.973 215.534 119.061C215.633 119.149 215.712 119.257 215.767 119.378C215.821 119.499 215.849 119.63 215.849 119.763C215.849 119.895 215.821 120.027 215.767 120.148C215.712 120.269 215.633 120.377 215.534 120.465C215.434 120.553 215.317 120.619 215.191 120.658C215.064 120.698 214.931 120.71 214.799 120.694Z" fill="#92A3FD"/>
<path d="M214.799 125.043H168.708C168.46 125.043 168.221 124.945 168.045 124.769C167.869 124.593 167.771 124.354 167.771 124.106C167.771 123.857 167.869 123.618 168.045 123.442C168.221 123.267 168.46 123.168 168.708 123.168H214.799C215.048 123.168 215.287 123.267 215.463 123.442C215.638 123.618 215.737 123.857 215.737 124.106C215.737 124.354 215.638 124.593 215.463 124.769C215.287 124.945 215.048 125.043 214.799 125.043Z" fill="#92A3FD"/>
<path d="M208.356 82.7853H175.15C174.708 82.7818 174.285 82.6045 173.972 82.2917C173.659 81.979 173.482 81.5558 173.479 81.1135V50.5175C173.482 50.0752 173.659 49.6521 173.972 49.3393C174.285 49.0265 174.708 48.8493 175.15 48.8457H208.356C208.798 48.8493 209.221 49.0265 209.534 49.3393C209.847 49.6521 210.024 50.0752 210.028 50.5175V81.1135C210.024 81.5558 209.847 81.979 209.534 82.2917C209.221 82.6045 208.798 82.7818 208.356 82.7853ZM175.15 50.2049C175.067 50.2049 174.988 50.2379 174.929 50.2965C174.871 50.3551 174.838 50.4346 174.838 50.5175V81.1135C174.841 81.1953 174.875 81.2729 174.933 81.3308C174.991 81.3888 175.069 81.4228 175.15 81.4261H208.356C208.438 81.4228 208.515 81.3888 208.573 81.3308C208.631 81.2729 208.665 81.1953 208.669 81.1135V50.5175C208.669 50.4346 208.636 50.3551 208.577 50.2965C208.518 50.2379 208.439 50.2049 208.356 50.2049H175.15Z" fill="#C6C6C6"/>
<path d="M179.949 102.739L180.914 104.683L183.061 104.995L181.498 106.518L181.865 108.652L179.949 107.646L178.018 108.652L178.385 106.518L176.836 104.995L178.984 104.683L179.949 102.739Z" fill="#92A3FD"/>
<path d="M187.819 102.739L188.784 104.683L190.931 104.995L189.368 106.518L189.735 108.652L187.819 107.646L185.902 108.652L186.269 106.518L184.706 104.995L186.854 104.683L187.819 102.739Z" fill="#92A3FD"/>
<path d="M195.689 102.739L196.654 104.683L198.801 104.995L197.252 106.518L197.619 108.652L195.689 107.646L193.772 108.652L194.139 106.518L192.576 104.995L194.724 104.683L195.689 102.739Z" fill="#92A3FD"/>
<path d="M203.558 102.739L204.523 104.683L206.671 104.995L205.121 106.518L205.488 108.652L203.558 107.646L201.641 108.652L202.008 106.518L200.445 104.995L202.606 104.683L203.558 102.739Z" fill="#92A3FD"/>
<path opacity="0.2" d="M168.191 139.044H74.9355L81.5277 43.5178H171.549L168.191 139.044Z" fill="#99BBEB"/>
<path d="M165.446 25.4534H84.7354V157.74H165.446V25.4534Z" fill="#9DCEFF"/>
<path d="M162.796 28.145H88.9629V152.695H162.796V28.145Z" fill="#FAFAFA"/>
<path d="M118.988 54.3102C118.933 54.1471 117.642 46.7258 117.493 43.8442C117.343 40.9627 122.128 40.5413 122.128 40.5413C122.128 40.5413 126.042 38.4345 128.883 39.5219C131.454 40.4619 133.6 42.2952 134.931 44.6869C136.223 46.9568 133.79 54.0247 133.79 54.0247L118.988 54.3102Z" fill="#2E2D3D"/>
<path d="M110.112 78.1369C110.085 78.0146 110.438 75.0923 110.452 74.9836C111.104 68.8263 118.689 67.1001 126.246 67.1001C135.135 67.1001 141.156 68.7312 142.121 75.1195C142.149 75.3098 142.665 78.2321 142.638 78.436C126.164 78.6534 110.112 78.1369 110.112 78.1369Z" fill="#D5E1E8"/>
<path d="M127.768 71.8711C126.884 73.176 126.246 73.2303 125.294 71.8711C124.533 70.7973 121.991 68.3507 121.991 67.1003L123.038 54.7314C123.038 54.133 123.276 53.5591 123.699 53.136C124.122 52.7128 124.696 52.4751 125.294 52.4751H127.768C128.365 52.4787 128.937 52.7175 129.359 53.1399C129.782 53.5623 130.021 54.1341 130.024 54.7314L130.514 67.1003C130.514 68.3507 128.556 70.7158 127.768 71.8711Z" fill="#FFEDE5"/>
<path d="M127.769 52.4751H125.295C124.697 52.4751 124.123 52.7128 123.699 53.136C123.276 53.5591 123.039 54.133 123.039 54.7314L122.128 65.7003C124.914 66.5974 128.679 64.7896 130.338 62.8051L130.025 54.7314C130.021 54.1341 129.783 53.5623 129.36 53.1399C128.938 52.7175 128.366 52.4787 127.769 52.4751Z" fill="#E38540"/>
<path d="M118.009 68.0105L121.991 75.3639C121.991 75.3639 124.125 73.6105 124.329 73.9503C124.533 74.2901 123.949 78.626 123.949 78.626C123.949 78.626 128.692 78.694 128.896 78.4901C129.1 78.2862 127.931 73.7736 128.42 73.7736C128.91 73.7736 130.337 75.0785 130.337 75.0785L134.782 68.0105L133.803 67.7659L126.531 71.6804L118.743 67.8474L118.009 68.0105Z" fill="#BDCCD4"/>
<path d="M122.562 71.395L125.512 73.3795L124.601 78.6396L128.584 78.4086L127.592 73.6241L130.038 71.395L128.896 70.3076H123.718L122.562 71.395Z" fill="#D54A41"/>
<path d="M122.195 64.395L118.539 67.8746C118.539 67.8746 122.263 74.494 122.467 74.494C122.671 74.494 125.634 70.8513 125.634 70.8513L127.523 70.8105L130.514 73.9503L133.98 67.8066L130.446 64.0552C130.446 64.0552 127.415 69.8998 126.871 70.0357C126.327 70.1717 126.314 70.2396 125.865 69.8998C125.417 69.56 122.195 64.395 122.195 64.395Z" fill="#D5E1E8"/>
<path d="M126.531 62.8188C130.675 62.8188 134.034 58.2426 134.034 52.5975C134.034 46.9525 130.675 42.3762 126.531 42.3762C122.387 42.3762 119.028 46.9525 119.028 52.5975C119.028 58.2426 122.387 62.8188 126.531 62.8188Z" fill="#FFEDE5"/>
<path d="M119.804 52.4475C120.497 53.9155 120.266 55.4922 119.287 55.9679C118.308 56.4436 116.936 55.6145 116.229 54.133C115.522 52.6514 115.753 51.0883 116.745 50.6126C117.738 50.1369 119.097 50.966 119.804 52.4475Z" fill="#FFEDE5"/>
<path d="M132.919 52.4475C132.226 53.9155 132.457 55.4922 133.436 55.9679C134.414 56.4436 135.787 55.6145 136.494 54.133C137.201 52.6514 136.956 51.0883 135.978 50.6126C134.999 50.1369 133.626 50.966 132.919 52.4475Z" fill="#FFEDE5"/>
<path d="M122.128 45.6515C125.227 43.4903 126.613 43.8437 128.938 47.4049C131.262 50.966 134.035 51.0204 134.035 51.0204L134.388 47.3369C134.388 47.3369 130.936 40.6496 126.301 41.5195C121.666 42.3894 119.029 46.5758 119.029 46.5758C119.029 46.5758 118.798 54.3913 119.45 54.6631C120.103 54.9349 120.171 52.135 120.633 51.5777C121.095 51.0204 120.171 48.3291 120.796 47.0923C121.421 45.8554 122.128 45.6515 122.128 45.6515Z" fill="#2E2D3D"/>
<path d="M132.077 49.6611C133.151 50.8437 132.743 55.5465 133.314 55.4922C133.885 55.4378 134.089 51.0068 133.926 50.5446C133.763 50.0825 132.077 49.6611 132.077 49.6611Z" fill="#2E2D3D"/>
<path d="M143.209 94.2981H108.766C108.182 94.2981 107.622 94.0662 107.209 93.6532C106.796 93.2403 106.564 92.6802 106.564 92.0962C106.564 91.5122 106.796 90.9522 107.209 90.5392C107.622 90.1263 108.182 89.8943 108.766 89.8943H143.209C143.793 89.8943 144.353 90.1263 144.766 90.5392C145.179 90.9522 145.411 91.5122 145.411 92.0962C145.411 92.6802 145.179 93.2403 144.766 93.6532C144.353 94.0662 143.793 94.2981 143.209 94.2981Z" fill="#92A3FD"/>
<path d="M138.927 101.067H113.048C112.464 101.067 111.904 100.835 111.491 100.422C111.078 100.009 110.846 99.4488 110.846 98.8648C110.846 98.2808 111.078 97.7207 111.491 97.3078C111.904 96.8948 112.464 96.6628 113.048 96.6628H138.927C139.511 96.6628 140.071 96.8948 140.484 97.3078C140.897 97.7207 141.129 98.2808 141.129 98.8648C141.129 99.4488 140.897 100.009 140.484 100.422C140.071 100.835 139.511 101.067 138.927 101.067Z" fill="#92A3FD"/>
<path d="M157.467 125.41H94.5081C94.1693 125.41 93.8443 125.275 93.6047 125.036C93.3651 124.796 93.2305 124.471 93.2305 124.132C93.2305 123.794 93.3651 123.469 93.6047 123.229C93.8443 122.989 94.1693 122.855 94.5081 122.855H157.467C157.806 122.855 158.131 122.989 158.37 123.229C158.61 123.469 158.745 123.794 158.745 124.132C158.745 124.471 158.61 124.796 158.37 125.036C158.131 125.275 157.806 125.41 157.467 125.41Z" fill="#92A3FD"/>
<path d="M157.467 131.351H94.5081C94.3404 131.351 94.1742 131.317 94.0192 131.253C93.8642 131.189 93.7233 131.095 93.6047 130.976C93.486 130.858 93.3919 130.717 93.3277 130.562C93.2635 130.407 93.2305 130.241 93.2305 130.073C93.2305 129.905 93.2635 129.739 93.3277 129.584C93.3919 129.429 93.486 129.288 93.6047 129.169C93.7233 129.051 93.8642 128.957 94.0192 128.892C94.1742 128.828 94.3404 128.795 94.5081 128.795H157.467C157.806 128.795 158.131 128.93 158.37 129.169C158.61 129.409 158.745 129.734 158.745 130.073C158.745 130.412 158.61 130.737 158.37 130.976C158.131 131.216 157.806 131.351 157.467 131.351Z" fill="#92A3FD"/>
<path d="M157.467 137.29H94.5081C94.1693 137.29 93.8443 137.156 93.6047 136.916C93.3651 136.676 93.2305 136.351 93.2305 136.013C93.2305 135.674 93.3651 135.349 93.6047 135.109C93.8443 134.869 94.1693 134.735 94.5081 134.735H157.467C157.806 134.735 158.131 134.869 158.37 135.109C158.61 135.349 158.745 135.674 158.745 136.013C158.745 136.351 158.61 136.676 158.37 136.916C158.131 137.156 157.806 137.29 157.467 137.29Z" fill="#92A3FD"/>
<path d="M148.66 79.3063H103.316C102.779 79.3063 102.264 79.093 101.884 78.7132C101.504 78.3333 101.291 77.8182 101.291 77.2811V35.4852C101.291 34.9481 101.504 34.4329 101.884 34.0531C102.264 33.6733 102.779 33.46 103.316 33.46H148.66C149.198 33.4599 149.715 33.6729 150.097 34.0523C150.479 34.4317 150.695 34.9468 150.699 35.4852V77.2811C150.695 77.8195 150.479 78.3346 150.097 78.714C149.715 79.0934 149.198 79.3063 148.66 79.3063ZM103.316 34.8192C103.14 34.8192 102.97 34.8893 102.845 35.0142C102.72 35.1391 102.65 35.3086 102.65 35.4852V77.2811C102.65 77.4577 102.72 77.6271 102.845 77.752C102.97 77.8769 103.14 77.9471 103.316 77.9471H148.66C148.838 77.9472 149.008 77.8774 149.136 77.7529C149.263 77.6284 149.336 77.459 149.339 77.2811V35.4852C149.336 35.3073 149.263 35.1379 149.136 35.0134C149.008 34.8889 148.838 34.8191 148.66 34.8192H103.316Z" fill="#C6C6C6"/>
<path d="M104.404 106.816L105.709 109.467L108.645 109.902L106.524 111.968L107.027 114.89L104.404 113.517L101.78 114.89L102.27 111.968L100.149 109.902L103.085 109.467L104.404 106.816Z" fill="#92A3FD"/>
<path d="M115.155 106.816L116.46 109.467L119.395 109.902L117.275 111.968L117.778 114.89L115.155 113.517L112.531 114.89L113.021 111.968L110.9 109.902L113.836 109.467L115.155 106.816Z" fill="#92A3FD"/>
<path d="M125.906 106.816L127.211 109.467L130.146 109.902L128.026 111.968L128.529 114.89L125.906 113.517L123.282 114.89L123.772 111.968L121.651 109.902L124.587 109.467L125.906 106.816Z" fill="#92A3FD"/>
<path d="M136.658 106.816L137.963 109.467L140.898 109.902L138.778 111.968L139.281 114.89L136.658 113.517L134.034 114.89L134.537 111.968L132.403 109.902L135.339 109.467L136.658 106.816Z" fill="#92A3FD"/>
<path d="M147.572 106.816L148.89 109.467L151.826 109.902L149.706 111.968L150.209 114.89L147.572 113.517L144.949 114.89L145.451 111.968L143.331 109.902L146.267 109.467L147.572 106.816Z" fill="#92A3FD"/>
<path d="M295.061 149.537H191.502C190.879 149.537 190.374 150.042 190.374 150.665V152.352C190.374 152.975 190.879 153.48 191.502 153.48H295.061C295.684 153.48 296.189 152.975 296.189 152.352V150.665C296.189 150.042 295.684 149.537 295.061 149.537Z" fill="#2E5B9A"/>
<path d="M321.728 96.6905C323.128 101.638 319.703 106.735 315.924 107.809C312.146 108.883 309.455 105.512 308.055 100.564C306.655 95.6167 308.571 90.7371 312.35 89.6769C316.128 88.6167 320.328 91.7429 321.728 96.6905Z" fill="#FFEDE5"/>
<path d="M300.565 192.556C300.565 192.556 310.243 207.589 311.548 208.241C312.852 208.893 316.115 209.057 314.891 211.503C313.668 213.95 313.179 223.6 312.037 224.089C310.895 224.579 301.095 225.721 302.563 224.089C304.031 222.458 304.928 223.274 305.676 220.324C306.423 217.375 307.456 211.829 306.07 210.688C304.684 209.546 296.188 199.257 296.188 199.257L300.565 192.556Z" fill="#FFEDE5"/>
<path d="M251.865 199.012C251.865 199.012 240.094 218.394 237.919 220.134C235.744 221.874 228.554 224.497 234.439 224.932C240.325 225.367 243.152 222.975 246.849 221.888C250.546 220.8 255.127 220.134 253.387 217.307C251.647 214.48 252.367 208.295 256.119 204.367C259.87 200.439 251.865 199.012 251.865 199.012Z" fill="#FFEDE5"/>
<path d="M311.888 154.063C311.888 154.063 282.774 153.302 271.22 162.775C264.465 173.01 248.141 203.212 246.863 206.542C247.733 207.412 252.64 208.989 254.815 208.771C261.244 201.105 269.739 194.486 273.11 188.478C277.283 181.07 278.56 177.36 285.316 176.707C292.071 176.055 307.308 173.88 311.888 173.88C316.469 173.88 311.888 154.063 311.888 154.063Z" fill="#36383A"/>
<path d="M337.278 224.987H335.756L324.801 179.317H328.158L337.278 224.987Z" fill="#2E5B9A"/>
<path d="M291.554 224.987H293.076L305.635 177.7H302.278L291.554 224.987Z" fill="#2E5B9A"/>
<path d="M328.471 152.064L311.548 154.987C311.548 154.987 289.053 155.191 278.764 157.107C269.413 158.847 268.026 169.476 278.764 184.115C284.867 192.433 290.018 199.066 300.566 206.542C303.244 204.571 304.277 203.823 305.011 199.093C304.249 198.047 302.279 191.495 301.653 190.218C295.822 178.025 288.048 173.594 287.939 172.398C289.244 170.264 322.558 183.462 329.177 175.701C335.498 168.293 328.471 152.064 328.471 152.064Z" fill="#4C4D4F"/>
<path d="M329.177 113.735C324.719 113.109 320.179 113.966 315.925 117.038C312.214 120.816 308.014 127.055 308.272 137.344C308.598 150.42 306.261 151.249 308.707 154.851C318.928 159.065 336.408 177.197 332.29 157.76C329.313 143.678 338.827 133.199 331.148 117.581C330.523 116.304 329.748 115.08 329.177 113.735Z" fill="#9DCEFF"/>
<path d="M308.272 142.265C308.082 149.074 307.117 151.086 307.851 153.22C312.01 153.641 319.635 155.313 321.538 157.977C323.726 161.022 325.901 161.457 324.882 159.214C323.862 156.971 321.185 153.763 325.317 142.808C329.449 131.853 331.42 124.432 327.356 116.806L308.272 142.265Z" fill="#92A3FD"/>
<path d="M329.177 113.735C326.432 107.237 325.752 99.9385 325.752 99.9385L318.575 102.059C318.575 102.059 322.653 111.206 318.738 114.482C317.757 115.284 316.818 116.137 315.925 117.037C320.179 113.966 324.719 113.109 329.177 113.735Z" fill="#FFEDE5"/>
<path d="M325.969 101.665L324.461 100.319L318.589 102.059V102.086C318.738 102.412 320.234 105.892 320.424 109.249C322.177 108.189 324.08 106.463 326.268 103.432L325.969 101.665Z" fill="#E38540"/>
<path d="M324.121 115.788C316.727 118.37 317.542 126.172 310.733 137.671C307.199 143.624 303.923 143.543 303.923 143.543C297.816 143.503 291.717 143.113 285.655 142.374C279.389 141.613 278.995 143.475 283.344 145.038C292.139 148.178 301.259 151.562 308.599 150.747C315.939 149.931 328.525 131.174 329.177 126.281C330.074 119.539 327.845 114.483 324.121 115.788Z" fill="#FFEDE5"/>
<path d="M320.315 181.22H318.902C312.867 181.07 308.762 180.241 305.459 179.561C301.599 178.787 299.478 178.352 297.005 179.534C296.549 179.75 296.025 179.777 295.55 179.607C295.075 179.438 294.686 179.086 294.47 178.63C294.253 178.174 294.227 177.651 294.397 177.176C294.566 176.7 294.918 176.312 295.374 176.095C298.989 174.369 302.02 174.981 306.22 175.837C309.374 176.476 313.288 177.278 318.983 177.414C325.372 177.577 329.259 176.625 331.23 174.437C332.983 172.493 333.5 169.218 332.847 164.148C332.616 162.408 332.399 160.967 332.195 159.69C331.638 156.088 331.271 153.709 331.733 150.039C332.154 146.628 333.282 142.088 335.905 133.266C335.967 133.016 336.079 132.782 336.235 132.576C336.39 132.371 336.585 132.199 336.809 132.071C337.032 131.944 337.279 131.863 337.535 131.833C337.791 131.804 338.05 131.827 338.297 131.9C338.544 131.974 338.773 132.097 338.971 132.262C339.168 132.427 339.331 132.63 339.448 132.859C339.565 133.089 339.634 133.339 339.651 133.596C339.668 133.853 339.633 134.111 339.548 134.354C334.669 150.773 334.913 152.377 335.96 159.105C336.164 160.396 336.395 161.878 336.612 163.658C337.428 169.924 336.612 174.152 334.057 176.992C331.502 179.833 327.152 181.22 320.315 181.22Z" fill="#2E5B9A"/>
<path d="M252.667 215.35C244.851 219.169 240.651 221.358 238.15 221.14C237.566 221.1 237.077 221.032 236.669 220.977C233.882 222.622 229.438 224.566 234.44 224.933C240.311 225.368 243.152 222.975 246.849 221.888C250.546 220.801 255.127 220.135 253.387 217.307C253.026 216.706 252.782 216.042 252.667 215.35Z" fill="#233A67"/>
<path d="M312.391 208.554C312.2 214.738 311.358 220.855 307.579 222.024C306.695 222.295 305.764 222.374 304.847 222.255C304.263 222.989 303.529 223.002 302.564 224.09C301.096 225.721 310.896 224.579 312.037 224.09C313.179 223.6 313.668 213.95 314.892 211.503C315.897 209.492 313.872 209.03 312.391 208.554Z" fill="#233A67"/>
<path d="M282.339 150.08H257.533C257.172 150.079 256.819 149.975 256.516 149.78C256.212 149.585 255.971 149.307 255.821 148.979L245.789 127.408C245.577 126.951 245.555 126.427 245.728 125.953C245.901 125.479 246.256 125.093 246.714 124.88C247.172 124.668 247.695 124.646 248.169 124.819C248.643 124.992 249.029 125.347 249.242 125.805L258.756 146.274H282.339C282.844 146.274 283.328 146.475 283.684 146.832C284.041 147.189 284.242 147.673 284.242 148.177C284.242 148.682 284.041 149.166 283.684 149.523C283.328 149.88 282.844 150.08 282.339 150.08Z" fill="#BABCBE"/>
<path d="M287.517 142.591C282.515 142.523 277.541 139.533 275.081 139.968C272.62 140.403 264.547 146.003 265.566 146.22C266.585 146.438 272.974 143.121 273.191 143.067C273.409 143.012 274.782 145.364 278.193 146.22C281.605 147.076 278.22 143.665 288.795 146.859C295.673 148.939 287.517 142.591 287.517 142.591Z" fill="#FFEDE5"/>
<path d="M328.444 107.809L329.177 113.735C329.177 113.735 322.694 114.129 319.473 115.937C316.251 117.745 311.48 123.005 311.48 123.005L315.368 116.304L315.925 112.022L328.444 107.809Z" fill="#E6E6E6"/>
<path d="M325.684 115.067C320.859 114.17 318.643 118.478 315.517 125.519C312.391 132.56 307.063 141.123 306.003 142.224C304.942 143.325 288.142 142.224 288.142 142.224C288.142 142.224 287.64 147.09 288.142 147.674C288.645 148.259 291.554 148.177 291.554 148.177C291.554 148.177 292.723 149.102 293.81 149.836C294.898 150.57 304.113 151.956 308.395 151.738C312.676 151.521 316.604 151.154 317.189 150.502C317.773 149.849 329.463 131.84 330.183 125.383C330.903 118.927 328.144 115.529 325.684 115.067Z" fill="#E6E6E6"/>
<path d="M311.48 85.4497C302.373 85.8846 303.8 99.5855 303.8 99.5855C303.8 99.5855 306.165 100.306 311.126 99.4904C310.746 98.0224 310.909 94.271 310.909 94.271C310.909 94.271 311.48 97.3156 312.214 99.1641C313.26 99.6535 314.443 99.2185 316.454 98.7292C317.487 103.092 320.423 104.927 322.421 105.552C324.637 106.246 326.975 107.088 329.584 105.77C332.194 104.452 330.767 91.104 329.38 88.4263C327.287 84.3895 323.835 80.774 317.841 82.6904C314.837 83.6419 311.48 85.4497 311.48 85.4497Z" fill="#3B2645"/>
<path d="M327.314 101.72L331.039 107.156C331.039 107.156 326.92 117.459 338.909 122.135C348.314 125.791 347.213 132.234 342.959 138.717C338.705 145.201 345.501 150.869 345.501 150.869C345.501 150.869 346.534 143.679 355.668 142.333C368.118 140.484 371.652 123.766 362.341 115.407C354.648 108.488 352.31 114.211 347.105 108.013C341.899 101.815 332.058 105.988 332.058 105.988L328.456 100.741L327.314 101.72Z" fill="#3B2645"/>
<path d="M366.623 132.247L366.474 132.206C366.398 132.163 366.341 132.093 366.316 132.009C366.291 131.926 366.298 131.836 366.338 131.758C369.464 126.036 366.909 119.104 365.631 117.228L365.223 116.603C363.959 114.632 362.396 112.185 354.01 110.676C351.984 110.31 350.353 109.113 348.627 107.836C345.052 105.212 341.002 102.236 332.194 106.3C332.115 106.333 332.025 106.334 331.945 106.304C331.864 106.274 331.798 106.214 331.759 106.137C331.739 106.097 331.727 106.053 331.724 106.009C331.721 105.964 331.728 105.919 331.743 105.877C331.759 105.835 331.782 105.796 331.813 105.764C331.844 105.731 331.881 105.706 331.922 105.688C341.07 101.475 345.297 104.574 349.021 107.306C350.68 108.529 352.256 109.684 354.132 110.024C362.79 111.587 364.448 114.17 365.78 116.249L366.175 116.847C367.52 118.818 370.198 126.076 366.922 132.071C366.892 132.123 366.848 132.167 366.796 132.198C366.744 132.229 366.684 132.246 366.623 132.247Z" fill="#3B2645"/>
<path d="M325.331 107.292C324.684 107.288 324.039 107.234 323.401 107.129C320.207 106.653 315.939 104.846 315.599 94.6787C315.597 94.6348 315.604 94.5909 315.62 94.5497C315.635 94.5086 315.659 94.471 315.69 94.4392C315.72 94.4075 315.757 94.3822 315.797 94.365C315.838 94.3477 315.881 94.3389 315.925 94.3389C315.968 94.3371 316.011 94.3437 316.051 94.3585C316.091 94.3732 316.128 94.3957 316.16 94.4248C316.191 94.4538 316.217 94.4888 316.235 94.5277C316.253 94.5666 316.263 94.6087 316.265 94.6515C316.401 98.8515 317.23 101.951 318.739 103.867C319.88 105.335 321.389 106.164 323.496 106.477C326.445 106.925 328.403 106.382 329.3 104.859C329.322 104.821 329.352 104.787 329.388 104.761C329.423 104.734 329.464 104.715 329.507 104.705C329.551 104.695 329.596 104.694 329.639 104.702C329.683 104.709 329.725 104.726 329.762 104.751C329.799 104.773 329.83 104.802 329.856 104.837C329.881 104.871 329.899 104.911 329.909 104.952C329.919 104.994 329.921 105.037 329.915 105.079C329.908 105.122 329.893 105.162 329.871 105.199C329.042 106.585 327.519 107.292 325.331 107.292Z" fill="#3B2645"/>
<path d="M201.465 224.986H203.911L213.44 152.228H208.057L201.465 224.986Z" fill="#2E5B9A"/>
<path d="M284.499 224.986H282.053L272.538 152.228H277.921L284.499 224.986Z" fill="#2E5B9A"/>
</svg>
