<svg width="360" height="225" viewBox="0 0 360 225" fill="none" xmlns="http://www.w3.org/2000/svg">
<path d="M127.45 140.883C126.825 141.392 126.208 141.908 125.6 142.436C125.094 141.353 124.56 140.286 123.997 139.236C125.131 139.814 126.283 140.362 127.45 140.883ZM39.4229 221.232H324.019C343.56 221.232 359.559 205.508 359.68 185.967C359.681 185.835 359.681 185.703 359.681 185.57C359.681 150.849 331.534 122.702 296.812 122.702C296.504 122.702 296.197 122.709 295.889 122.713C296.252 119.696 296.445 116.625 296.445 113.51C296.445 72.0924 263.358 38.4034 222.174 37.4293C209.196 15.4149 185.245 0.641205 157.84 0.641205C120.793 0.641205 90.0552 27.6367 84.212 63.028C79.1361 61.3698 73.6436 60.6315 67.9223 61.0525C46.829 62.6041 29.9762 79.8094 28.8551 100.93C28.5461 106.742 29.4225 112.311 31.2492 117.428C12.9783 129.037 0.852539 149.452 0.852539 172.703C0.852539 183.003 3.23248 192.748 7.47216 201.415C13.4258 213.588 25.8739 221.232 39.4229 221.232Z" fill="#E7EEF1"/>
<path d="M342.785 224.787H21.0435C19.6259 224.787 18.4766 223.925 18.4766 222.861C18.4766 221.797 19.6259 220.935 21.0435 220.935H54.1504H263.169C263.582 221.082 264.042 221.165 264.525 221.165H271.086H275.297C275.78 221.165 276.241 221.082 276.653 220.935H318.53H342.785C344.203 220.935 345.352 221.797 345.352 222.861C345.352 223.925 344.203 224.787 342.785 224.787Z" fill="#4F4F4F"/>
<path d="M89.5379 162.376C88.6097 162.376 87.6809 162.021 86.9729 161.313L75.8759 150.216C75.1959 149.535 74.273 149.154 73.3109 149.154H50.2313C48.2278 149.154 46.6035 147.529 46.6035 145.526V68.7707V37.3508C46.6035 35.3478 48.2278 33.7236 50.2313 33.7236H95.8379H128.845C130.848 33.7236 132.472 35.3478 132.472 37.3508V145.526C132.472 147.529 130.848 149.154 128.845 149.154H105.765C104.803 149.154 103.88 149.535 103.2 150.216L92.1029 161.313C91.3944 162.021 90.4662 162.376 89.5379 162.376ZM88.1501 40.6183C75.5079 40.6183 65.2646 50.8622 65.2646 63.5044C65.2646 68.2301 66.6971 72.6223 69.149 76.2668C73.2608 82.3721 80.2336 86.3904 88.1501 86.3904C96.0624 86.3904 103.035 82.3721 107.147 76.2668C109.599 72.6223 111.031 68.2301 111.031 63.5044C111.031 50.8622 100.788 40.6183 88.1501 40.6183Z" fill="#9DCEFF"/>
<path d="M111.031 63.5043C111.031 68.23 109.599 72.6222 107.147 76.2667C103.035 82.372 96.0624 86.3903 88.1501 86.3903C80.2336 86.3903 73.2609 82.372 69.149 76.2667C66.6972 72.6222 65.2646 68.23 65.2646 63.5043C65.2646 50.8621 75.5079 40.6182 88.1501 40.6182C100.788 40.6182 111.031 50.8621 111.031 63.5043Z" fill="white"/>
<path d="M107.147 76.2667C103.036 82.372 96.0628 86.3903 88.1505 86.3903C80.234 86.3903 73.2613 82.372 69.1494 76.2667L83.8124 71.2159L84.3506 71.029H91.9467L92.2444 71.1314L107.147 76.2667Z" fill="#263238"/>
<path d="M82.1179 64.0126C82.1179 64.0126 74.4313 60.5712 79.5714 49.5009C81.4457 45.4646 86.8275 43.7588 89.2776 45.7046C89.2776 45.7046 92.185 44.119 95.2846 46.4256C98.3837 48.7322 101.267 61.3458 92.978 64.5895L82.1179 64.0126Z" fill="#1E244A"/>
<path d="M88.0892 73.6602L83.4844 71.0285V65.6955V67.0184C85.0616 68.1711 87.9076 69.749 91.6301 69.749C91.8867 69.749 92.1469 69.7418 92.4118 69.7263V71.0285L88.0892 73.6602Z" fill="#FFEDE5"/>
<path d="M84.1711 58.893C84.1711 57.5182 83.0565 56.4042 81.6818 56.4042C80.307 56.4042 79.1924 57.5182 79.1924 58.893C79.1924 60.2678 80.7011 61.7938 82.0759 61.7938C83.4507 61.7938 84.1711 60.2678 84.1711 58.893Z" fill="#F5B99B"/>
<path d="M92.3369 58.9798C92.3369 57.605 93.4515 56.491 94.8263 56.491C96.2011 56.491 97.3151 57.605 97.3151 58.9798C97.3151 60.3546 95.8069 61.8806 94.4321 61.8806C93.0579 61.8806 92.3369 60.3546 92.3369 58.9798Z" fill="#F5B99B"/>
<path d="M88.2191 67.5549C86.0947 67.5549 84.5716 66.7535 83.4844 65.6931V65.6955C81.3845 63.6449 80.9248 60.6352 80.9248 60.6352V55.5379C80.9248 55.5379 86.9705 53.8744 89.7576 51.4231C89.7576 51.4231 93.3884 54.4638 95.2008 54.6972V56.2858V60.6626C95.2008 60.6626 94.4083 63.63 92.4119 65.6717V65.6687C91.3664 66.7386 89.9904 67.5549 88.2191 67.5549Z" fill="#FFEDE5"/>
<path d="M91.6301 69.7489C87.9076 69.7489 85.0616 68.1711 83.4844 67.0184V65.6954C84.5698 66.7552 86.0928 67.5584 88.2172 67.5584C89.9862 67.5584 91.3645 66.7427 92.4118 65.6716V69.7263C92.1469 69.7418 91.8867 69.7489 91.6301 69.7489Z" fill="#F5B99B"/>
<path d="M88.2172 67.5584C86.0928 67.5584 84.5698 66.7552 83.4844 65.6954V65.693C84.5716 66.7534 86.0946 67.5548 88.219 67.5548C89.9903 67.5548 91.3663 66.7385 92.4118 65.6686V65.6716C91.3645 66.7427 89.9862 67.5584 88.2172 67.5584Z" fill="url(#paint0_linear_1182_1781)"/>
<path d="M111.168 95.1018H66.1328C65.6136 95.1018 65.1885 95.5269 65.1885 96.0467C65.1885 96.5659 65.6136 96.991 66.1328 96.991H111.168C111.688 96.991 112.113 96.5659 112.113 96.0467C112.113 95.5269 111.688 95.1018 111.168 95.1018Z" fill="white"/>
<path d="M111.168 101.19H66.1328C65.6136 101.19 65.1885 101.616 65.1885 102.135C65.1885 102.655 65.6136 103.08 66.1328 103.08H111.168C111.688 103.08 112.113 102.655 112.113 102.135C112.113 101.616 111.688 101.19 111.168 101.19Z" fill="white"/>
<path d="M111.168 107.594H66.1328C65.6136 107.594 65.1885 108.019 65.1885 108.539C65.1885 109.059 65.6136 109.483 66.1328 109.483H111.168C111.688 109.483 112.113 109.059 112.113 108.539C112.113 108.019 111.688 107.594 111.168 107.594Z" fill="white"/>
<path d="M87.8632 113.997H66.1328C65.6136 113.997 65.1885 114.422 65.1885 114.942C65.1885 115.462 65.6136 115.887 66.1328 115.887H87.8632C88.383 115.887 88.8081 115.462 88.8081 114.942C88.8081 114.422 88.383 113.997 87.8632 113.997Z" fill="white"/>
<path d="M119.369 132.018L119.365 132.103C119.322 137.914 114.601 142.608 108.778 142.608C102.93 142.608 98.1885 137.868 98.1885 132.018C98.1885 126.169 102.93 121.428 108.778 121.428C114.628 121.428 119.369 126.169 119.369 132.018Z" fill="#AB8DA8"/>
<path d="M119.369 132.018L119.365 132.103H108.778V121.428C114.628 121.428 119.369 126.169 119.369 132.018Z" fill="white"/>
<path d="M68.387 125.86H64.5967V141.168H68.387V125.86Z" fill="#AB8DA8" fill-opacity="0.5"/>
<path d="M76.0794 132.318H72.2891V141.168H76.0794V132.318Z" fill="#3B2645" fill-opacity="0.5"/>
<path d="M82.8796 141.168V135.667H79.0898V141.168H82.8796Z" fill="#AB8DA8" fill-opacity="0.5"/>
<path d="M89.2337 141.168V131.361H85.4434V141.168H89.2337Z" fill="#3B2645" fill-opacity="0.5"/>
<path d="M95.3254 219.944H158.306L176.924 195.958L154.552 185.326L139.954 205.764L94.2828 210.456C94.2828 210.456 89.4857 207.015 85.5239 207.223C81.5615 207.432 65.6077 216.608 69.1527 218.276C72.6983 219.944 95.3254 219.944 95.3254 219.944Z" fill="#FFEDE5"/>
<path d="M246.192 215.694C246.192 215.694 246.152 215.654 246.077 215.579C246.41 215.425 246.691 215.253 246.904 215.063C249.958 212.663 248.982 199.915 238.661 193.003L254.269 185.507C256.123 193.411 258.132 209.403 246.192 215.694Z" fill="#F5B99B"/>
<path d="M202.489 134.233C202.489 134.233 231.219 137.051 241.306 150.916C251.89 165.462 257.677 183.867 257.677 183.867L233.382 195.545L230.306 198.465L231.088 220.975H167.273V199.507L146.627 188.037L156.901 158.178C158.573 153.318 162.075 149.302 166.662 146.983L187.971 136.214L202.489 134.233Z" fill="#AB8DA8"/>
<path d="M177.619 160.613L165.105 161.991C163.917 162.122 162.848 161.266 162.718 160.078L159.786 133.456C159.655 132.268 160.511 131.2 161.699 131.069L174.213 129.69C175.401 129.56 176.469 130.416 176.6 131.603L179.533 158.226C179.664 159.413 178.807 160.482 177.619 160.613Z" fill="#575757"/>
<path d="M172.22 145.528C172.383 147.002 171.319 148.328 169.846 148.491C168.372 148.653 167.045 147.59 166.883 146.116C166.721 144.642 167.783 143.315 169.258 143.153C170.732 142.99 172.058 144.054 172.22 145.528Z" fill="white"/>
<path d="M246.903 215.064C250.209 212.465 248.791 197.755 235.937 191.426C223.248 185.179 185 165.097 185 165.097C185 165.097 180.344 152.713 178.534 152.48C176.918 152.271 176.71 160.196 176.71 160.196C176.71 160.196 164.145 151.333 162.268 153.836C160.467 156.236 161.162 169.864 177.146 174.329C178.6 174.735 179.944 175.468 181.059 176.485C188.154 182.953 214.168 206.551 220.504 210.664C230.462 217.129 244.088 217.566 246.903 215.064Z" fill="#FFEDE5"/>
<path d="M202.493 118.461C203.239 115.212 202.958 112.526 202.958 112.526C202.958 112.526 207.877 110.149 206.184 105.144C204.485 100.138 201.942 103.617 201.942 103.617C201.942 103.617 196.167 102.515 191.414 98.273C191.414 98.273 182.333 104.891 171.645 105.741C171.645 105.741 164.194 108.157 158.575 100.988C152.719 93.5199 159.889 87.7909 165.997 89.7432C165.997 89.7432 178.688 77.7346 189.635 83.5892C189.635 83.5892 192.947 79.7375 201.517 84.6912C210.087 89.6456 212.682 111.791 202.493 123.082V118.461Z" fill="#3B2645"/>
<path d="M193.236 143.878C190.151 143.878 187.904 140.21 186.771 136.629L187.372 129.66C187.373 129.66 187.374 129.66 187.374 129.66L186.988 134.134C193.712 133.674 199.485 128.644 202.49 125.475V118.69L202.461 118.635C202.472 118.59 202.482 118.545 202.493 118.5V123.082V134.235L201.379 136.278C198.278 141.857 195.526 143.878 193.236 143.878Z" fill="#FFEDE5"/>
<path d="M188.099 129.675C187.854 129.675 187.612 129.669 187.374 129.656V129.658C172.992 128.907 171.659 106.037 171.643 105.741C171.643 105.74 171.643 105.739 171.643 105.739C182.335 104.89 191.416 98.2704 191.416 98.2704C194.427 100.959 197.847 102.387 199.949 103.072C201.164 103.469 201.939 103.617 201.939 103.617C201.957 103.592 202.811 102.44 203.854 102.44C203.938 102.44 204.022 102.447 204.107 102.463C204.799 102.591 205.55 103.279 206.182 105.144C206.403 105.797 206.512 106.405 206.534 106.969C206.68 110.715 202.989 112.513 202.958 112.528C202.958 112.528 202.964 112.583 202.971 112.688C203.018 113.314 203.136 115.703 202.493 118.5C202.482 118.545 202.472 118.59 202.461 118.635L202.459 118.632C201.8 121.411 200.386 124.569 197.412 126.8C197.41 126.801 197.409 126.803 197.407 126.804C197.403 126.807 197.399 126.81 197.395 126.813C197.39 126.817 197.384 126.821 197.378 126.825C197.376 126.827 197.373 126.829 197.37 126.831C196.586 127.415 195.693 127.934 194.679 128.365C194.677 128.366 194.675 128.367 194.672 128.369C194.665 128.372 194.655 128.375 194.648 128.378C194.644 128.38 194.639 128.382 194.634 128.384C194.632 128.385 194.629 128.386 194.626 128.388C193.191 128.991 191.512 129.418 189.55 129.605C189.053 129.652 188.57 129.675 188.099 129.675Z" fill="#FFEDE5"/>
<path d="M186.987 134.134L187.374 129.66C187.618 129.672 187.867 129.678 188.119 129.678C188.582 129.678 189.058 129.657 189.548 129.609C196.811 128.916 200.187 124.92 201.735 120.966C202.044 120.179 202.28 119.393 202.461 118.635L202.489 118.69V125.475C199.485 128.644 193.712 133.674 186.987 134.134Z" fill="#D9A58B"/>
<path d="M188.103 129.676C187.857 129.676 187.613 129.67 187.374 129.658V129.657C187.612 129.669 187.854 129.675 188.099 129.675C188.57 129.675 189.053 129.652 189.55 129.605C191.512 129.418 193.191 128.991 194.626 128.388C193.19 128.992 191.512 129.42 189.549 129.607C189.052 129.654 188.573 129.676 188.103 129.676ZM194.634 128.384C194.639 128.382 194.643 128.381 194.648 128.378C194.643 128.381 194.639 128.382 194.634 128.384ZM194.672 128.369C194.674 128.368 194.677 128.366 194.679 128.365C194.676 128.366 194.674 128.368 194.672 128.369ZM197.37 126.831C197.373 126.83 197.376 126.827 197.378 126.825C197.376 126.827 197.373 126.83 197.37 126.831ZM197.395 126.813C197.399 126.81 197.403 126.807 197.407 126.804C197.402 126.808 197.399 126.81 197.395 126.813ZM197.411 126.8C200.385 124.569 201.8 121.411 202.459 118.632L202.461 118.635C202.28 119.393 202.045 120.179 201.736 120.967C200.913 123.067 199.574 125.179 197.411 126.8Z" fill="url(#paint1_linear_1182_1781)"/>
<path d="M157.475 215.494H91.5259C89.6069 215.494 88.2149 216.522 88.724 217.562L89.7951 219.734C90.1416 220.444 91.289 220.935 92.5971 220.935H158.546C160.465 220.935 161.857 219.908 161.348 218.867L160.277 216.695C159.93 215.986 158.783 215.494 157.475 215.494Z" fill="#C0BAB3"/>
<path d="M117.072 173.439H51.1226C49.2036 173.439 47.8116 175.266 48.3206 177.116L60.0548 218.8C60.4019 220.062 61.5493 220.935 62.8568 220.935H128.806C130.725 220.935 132.118 219.108 131.608 217.258L119.874 175.574C119.527 174.313 118.38 173.439 117.072 173.439Z" fill="#DED1C5"/>
<path d="M92.7374 200.252C92.7374 202.526 90.8933 204.37 88.619 204.37C86.3447 204.37 84.501 202.526 84.501 200.252C84.501 197.977 86.3447 196.134 88.619 196.134C90.8933 196.134 92.7374 197.977 92.7374 200.252Z" fill="white"/>
<path d="M302.072 58.8959H219.644C217.24 58.8959 215.291 60.8447 215.291 63.2489V120.09C215.291 121.596 217.112 122.35 218.176 121.284L227.251 112.211C228.94 110.521 231.231 109.572 233.62 109.572H302.072C304.476 109.572 306.425 107.623 306.425 105.219V63.2489C306.425 60.8447 304.476 58.8959 302.072 58.8959Z" fill="#9DCEFF"/>
<path d="M292.802 70.6128H235.891C235.371 70.6128 234.946 71.0379 234.946 71.5577V72.0358C234.946 72.5556 235.371 72.9807 235.891 72.9807H292.802C293.322 72.9807 293.747 72.5556 293.747 72.0358V71.5577C293.747 71.0379 293.322 70.6128 292.802 70.6128Z" fill="white"/>
<path d="M292.802 78.2429H235.891C235.371 78.2429 234.946 78.668 234.946 79.1878V79.6659C234.946 80.1851 235.371 80.6102 235.891 80.6102H292.802C293.322 80.6102 293.747 80.1851 293.747 79.6659V79.1878C293.747 78.668 293.322 78.2429 292.802 78.2429Z" fill="white"/>
<path d="M292.802 86.267H235.891C235.371 86.267 234.946 86.6921 234.946 87.2119V87.69C234.946 88.2092 235.371 88.6349 235.891 88.6349H292.802C293.322 88.6349 293.747 88.2092 293.747 87.69V87.2119C293.747 86.6921 293.322 86.267 292.802 86.267Z" fill="white"/>
<path d="M263.599 94.2914H235.891C235.371 94.2914 234.946 94.7165 234.946 95.2363V95.7144C234.946 96.2342 235.371 96.6593 235.891 96.6593H263.599C264.119 96.6593 264.544 96.2342 264.544 95.7144V95.2363C264.544 94.7165 264.119 94.2914 263.599 94.2914Z" fill="white"/>
<path d="M186.803 45.5855C185.472 46.2587 183.9 45.292 183.9 43.801V42.6428C183.9 41.5382 183.004 40.6428 181.9 40.6428H156.976C155.871 40.6428 154.976 41.5382 154.976 42.6428V59.9486C154.976 61.0532 155.871 61.9486 156.976 61.9486H181.9C183.004 61.9486 183.9 61.0532 183.9 59.9486V58.7904C183.9 57.2994 185.472 56.3326 186.803 57.0059L193.667 60.4795C194.997 61.1527 196.57 60.186 196.57 58.695V43.8964C196.57 42.4054 194.997 41.4387 193.667 42.1119L186.803 45.5855Z" fill="#92A3FD"/>
<defs>
<linearGradient id="paint0_linear_1182_1781" x1="80.9253" y1="59.4907" x2="95.2011" y2="59.4907" gradientUnits="userSpaceOnUse">
<stop stop-color="#F9A737"/>
<stop offset="1" stop-color="#FABD66"/>
</linearGradient>
<linearGradient id="paint1_linear_1182_1781" x1="202.181" y1="124.567" x2="180.157" y2="102.543" gradientUnits="userSpaceOnUse">
<stop stop-color="#F9A637"/>
<stop offset="1" stop-color="#FABB63"/>
</linearGradient>
</defs>
</svg>
