<svg width="28" height="37" viewBox="0 0 28 37" fill="none" xmlns="http://www.w3.org/2000/svg">
<path fill-rule="evenodd" clip-rule="evenodd" d="M5.3742 5.94141C7.55128 5.67145 10.8822 5.42872 14.1183 6.17643C15.2048 6.42749 15.9345 7.23573 16.3399 8.13741C16.7449 9.03814 16.876 10.1201 16.7437 11.1687C16.4785 13.2702 15.0873 15.5276 12.2309 15.9356C10.6811 16.157 8.56437 15.9843 6.6908 15.6593C5.74146 15.4946 4.82499 15.2857 4.03849 15.0541C3.8063 14.9857 3.57919 14.9136 3.36163 14.8378C3.11152 16.6415 2.91544 19.3128 2.96645 21.9856C2.99859 23.6693 3.12841 25.3217 3.39416 26.7364C3.66505 28.1785 4.0567 29.2566 4.53549 29.889L4.79229 30.2282L4.726 30.6484C4.41731 32.6053 4.96968 33.2701 5.3772 33.4911C5.63236 33.6295 6.25452 33.7665 6.9702 33.7261C7.70919 33.6844 8.17882 33.4757 8.34664 33.2875C8.74441 32.8414 8.97085 32.0436 9.0547 31.023C9.10302 30.4349 9.09988 29.8795 9.08883 29.3782C8.37947 29.3473 7.62412 29.2441 6.91164 28.9009C6.41406 28.6613 6.20497 28.0636 6.44462 27.566C6.68428 27.0685 7.28192 26.8594 7.7795 27.099C8.34939 27.3735 9.01366 27.3912 10.0689 27.3912C11.3445 27.3912 12.2685 27.332 12.8651 27.2746C13.1634 27.2459 13.3798 27.2176 13.5174 27.1973C13.5863 27.1872 13.6354 27.1791 13.6652 27.1739L13.6954 27.1685L13.6969 27.1682L13.6983 27.168L13.6997 27.1677L15.083 26.8909L14.8832 28.2897L14.8819 28.2988L14.8771 28.3346C14.8729 28.3672 14.8666 28.4168 14.8591 28.4814C14.8439 28.6106 14.8238 28.799 14.8045 29.0299C14.7656 29.4938 14.731 30.1183 14.7449 30.7729C14.759 31.4348 14.8222 32.0872 14.9616 32.6227C15.108 33.185 15.2978 33.4615 15.4417 33.5689C15.9504 33.9488 16.7674 34.2405 17.6736 34.311C18.5077 34.376 19.3026 34.245 19.9001 33.9354C20.3632 33.2995 20.6125 32.3429 20.7341 31.1605C20.7973 30.5456 20.8226 29.9128 20.8411 29.2869C20.8444 29.1743 20.8476 29.0612 20.8507 28.9481C20.8642 28.4561 20.8777 27.9649 20.9086 27.5263L20.9108 27.4344L20.9184 27.1013C20.9249 26.811 20.9339 26.3887 20.9438 25.8616C20.9638 24.8074 20.9877 23.3344 21.0036 21.6599C21.0355 18.3169 21.0353 14.1877 20.9097 10.9833C20.6952 8.87437 20.3943 6.94063 19.7098 5.37528C19.0534 3.87426 18.0603 2.74498 16.4279 2.13593C13.7121 1.7624 10.9035 2.17667 8.72974 3.15423C7.12888 3.87416 5.97616 4.84412 5.3742 5.94141ZM3.07885 6.3274C3.66849 4.06141 5.60082 2.36841 7.90945 1.33019C10.4747 0.176589 13.7118 -0.278673 16.8149 0.170751L16.9133 0.185002L17.007 0.218349C19.3143 1.03978 20.699 2.64568 21.5422 4.57398C22.2405 6.17085 22.5771 8.00914 22.795 9.83138C23.5465 9.81492 24.2351 9.92398 24.8497 10.1946C25.763 10.5967 26.3922 11.3017 26.8126 12.189C27.2213 13.0516 27.4431 14.1052 27.5675 15.2799C27.6928 16.4627 27.7254 17.8356 27.7182 19.369C27.7162 19.8047 27.7241 20.2645 27.7324 20.748C27.7334 20.8063 27.7344 20.8649 27.7354 20.9238C27.7445 21.4667 27.7526 22.0346 27.7449 22.5982C27.7296 23.7114 27.6526 24.883 27.3647 25.898C27.076 26.9158 26.5328 27.919 25.4815 28.4727C24.7348 28.8659 23.8542 28.9674 22.8551 28.8198C22.8535 28.8737 22.852 28.9283 22.8505 28.9836C22.8472 29.1013 22.8439 29.2221 22.8402 29.346C22.8215 29.9789 22.7947 30.6731 22.7236 31.365C22.5851 32.7116 22.2647 34.2368 21.3301 35.3518L21.223 35.4796L21.0802 35.5657C20.0145 36.2085 18.7076 36.3976 17.5184 36.305C16.3309 36.2125 15.1258 35.829 14.2451 35.1715C13.5581 34.6585 13.2137 33.8471 13.0261 33.1266C12.8316 32.3793 12.7611 31.5539 12.7454 30.8155C12.7335 30.2614 12.7522 29.7336 12.7801 29.2902C12.3349 29.3272 11.7731 29.3609 11.0898 29.3785C11.0996 29.9141 11.0996 30.5586 11.048 31.1868C10.9575 32.2885 10.696 33.6579 9.83941 34.6185C9.13088 35.4132 7.98212 35.6722 7.08287 35.7229C6.16031 35.775 5.12438 35.6292 4.42379 35.2492C3.00854 34.4818 2.45182 32.8578 2.69523 30.7407C2.0766 29.7621 1.68428 28.4671 1.42854 27.1056C1.13532 25.5447 1.00021 23.7732 0.966816 22.0238C0.907129 18.8967 1.17122 15.738 1.49433 13.8183C0.436352 12.8052 0.103672 11.1844 0.312386 9.81927C0.534207 8.3684 1.41598 6.87341 3.07885 6.3274ZM22.9254 26.8036C22.9307 26.5533 22.9369 26.2493 22.9435 25.8994C22.9635 24.8405 22.9875 23.3611 23.0036 21.679C23.0325 18.6396 23.0355 14.9243 22.9403 11.8297C23.4176 11.8297 23.7739 11.9062 24.0438 12.025C24.4332 12.1964 24.7477 12.5019 25.0052 13.0453C25.2743 13.6133 25.4642 14.4107 25.5786 15.4906C25.6921 16.5623 25.7253 17.8477 25.7183 19.3597C25.7161 19.8187 25.7244 20.3015 25.7327 20.7816C25.7337 20.8403 25.7347 20.8989 25.7357 20.9575C25.7448 21.5004 25.7524 22.0409 25.7451 22.5707C25.7303 23.6443 25.6541 24.5997 25.4406 25.3522C25.2279 26.1021 24.9215 26.5072 24.5495 26.7031C24.2483 26.8617 23.7511 26.964 22.9254 26.8036ZM4.21105 8.12108C6.1091 7.84346 9.99145 7.2756 13.668 8.12509C13.9707 8.19503 14.283 8.43982 14.5158 8.9576C14.749 9.47632 14.8525 10.1802 14.7594 10.9183C14.5737 12.3901 13.6738 13.7092 11.9481 13.9557C10.7064 14.1331 8.83212 14.0009 7.03263 13.6887C6.14544 13.5348 5.30487 13.3421 4.60349 13.1356C3.88227 12.9232 3.37493 12.7152 3.10966 12.5529C2.52701 12.1965 2.12011 11.2289 2.28941 10.1215C2.44962 9.07365 3.06789 8.28783 4.07949 8.1403C4.12221 8.13408 4.16607 8.12766 4.21105 8.12108Z" fill="#111111"/>
</svg>
