<svg width="48" height="48" viewBox="0 0 48 48" fill="none" xmlns="http://www.w3.org/2000/svg">
<path fill-rule="evenodd" clip-rule="evenodd" d="M42 30C43.0544 30 43.9182 30.8159 43.9945 31.8507L44 32V36C44 40.3349 40.5522 43.8645 36.2492 43.9962L36 44H32C30.8954 44 30 43.1046 30 42C30 40.9456 30.8159 40.0818 31.8507 40.0055L32 40H36C38.1422 40 39.8911 38.316 39.9951 36.1996L40 36V32C40 30.8954 40.8954 30 42 30ZM6 30C7.05436 30 7.91817 30.8159 7.99451 31.8507L8 32V36C8 38.1422 9.68397 39.8911 11.8004 39.9951L12 40H16C17.1046 40 18 40.8954 18 42C18 43.0544 17.1841 43.9182 16.1493 43.9945L16 44H12C7.66509 44 4.13546 40.5522 4.00381 36.2492L4 36V32C4 30.8954 4.89543 30 6 30ZM18.7959 30.7284L18.9146 30.8111L19.523 31.2791C22.3569 33.459 26.3455 33.2951 28.991 30.8901C29.604 30.3328 30.5527 30.378 31.1099 30.991C31.6672 31.604 31.622 32.5527 31.009 33.1099C27.3645 36.4231 21.9074 36.7119 17.9398 33.8405L17.6938 33.6569L17.0854 33.1889C16.4288 32.6838 16.306 31.7421 16.8111 31.0854C17.2865 30.4674 18.1486 30.3223 18.7959 30.7284ZM24.2942 15.5291C25.0587 15.682 25.5704 16.391 25.4925 17.1512L25.4709 17.2942L23.7705 24.7962C23.7318 24.9897 23.8106 25.1849 23.966 25.2982L24.0371 25.3415L24.6708 25.6584C25.4118 26.0288 25.7121 26.9299 25.3416 27.6708C24.993 28.3682 24.1743 28.6753 23.4615 28.4001L23.3292 28.3416L22.6955 28.0248C21.3426 27.3484 20.584 25.8844 20.7956 24.4014L20.8287 24.2079L22.5291 16.7058C22.6916 15.8935 23.4818 15.3667 24.2942 15.5291ZM16 14C17.1046 14 18 14.8954 18 16V20C18 21.1046 17.1046 22 16 22C14.8954 22 14 21.1046 14 20V16C14 14.8954 14.8954 14 16 14ZM32 14C33.1046 14 34 14.8954 34 16V20C34 21.1046 33.1046 22 32 22C30.8954 22 30 21.1046 30 20V16C30 14.8954 30.8954 14 32 14ZM36 4C40.3349 4 43.8645 7.44784 43.9962 11.7508L44 12V16C44 17.1046 43.1046 18 42 18C40.9456 18 40.0818 17.1841 40.0055 16.1493L40 16V12C40 9.8578 38.316 8.10892 36.1996 8.0049L36 8H32C30.8954 8 30 7.10457 30 6C30 4.94564 30.8159 4.08183 31.8507 4.00549L32 4H36ZM16 4C17.1046 4 18 4.89543 18 6C18 7.05436 17.1841 7.91817 16.1493 7.99451L16 8H12C9.8578 8 8.10892 9.68397 8.0049 11.8004L8 12V16C8 17.1046 7.10457 18 6 18C4.94564 18 4.08183 17.1841 4.00549 16.1493L4 16V12C4 7.66509 7.44784 4.13546 11.7508 4.00381L12 4H16Z" fill="#333333"/>
</svg>
