<svg width="22" height="22" viewBox="0 0 22 22" fill="none" xmlns="http://www.w3.org/2000/svg">
<path fill-rule="evenodd" clip-rule="evenodd" d="M16.2779 12.8894C16.9527 12.8894 17.519 13.4462 17.4158 14.1125C16.8106 18.0325 13.4548 20.9431 9.40742 20.9431C4.92952 20.9431 1.30005 17.3136 1.30005 12.8368C1.30005 9.14834 4.10215 5.71255 7.25689 4.9357C7.93479 4.76834 8.62952 5.24518 8.62952 5.94307C8.62952 10.6715 8.78847 11.8947 9.68636 12.5599C10.5843 13.2252 11.64 12.8894 16.2779 12.8894Z" stroke="#130F26" stroke-width="1.5" stroke-linecap="round" stroke-linejoin="round"/>
<path fill-rule="evenodd" clip-rule="evenodd" d="M20.6926 8.9517C20.7463 5.9138 17.0147 1.01696 12.4674 1.10117C12.1137 1.10749 11.8305 1.40222 11.8147 1.75485C11.7 4.25275 11.8547 7.48959 11.9411 8.95696C11.9674 9.4138 12.3263 9.77275 12.7821 9.79906C14.2905 9.88538 17.6453 10.0033 20.1074 9.63064C20.4421 9.58012 20.6874 9.28959 20.6926 8.9517Z" stroke="#130F26" stroke-width="1.5" stroke-linecap="round" stroke-linejoin="round"/>
</svg>
