<svg width="24" height="22" viewBox="0 0 24 22" fill="none" xmlns="http://www.w3.org/2000/svg">
<path fill-rule="evenodd" clip-rule="evenodd" d="M20.411 14.9768H20.5003C21.1633 14.9768 21.7991 14.7135 22.2679 14.2447C22.7366 13.7759 23 13.1401 23 12.4771V10.5348C23 9.87186 22.7366 9.23605 22.2679 8.76726C21.7991 8.29847 21.1633 8.03512 20.5003 8.03512H19.6269V8.01363C19.6269 3.80135 16.2122 0.386658 12 0.386658C7.78769 0.386658 4.373 3.80135 4.373 8.01363V8.03512H3.49965C2.83669 8.03512 2.20088 8.29847 1.73209 8.76726C1.2633 9.23605 0.999939 9.87186 0.999939 10.5348V12.4771C0.999939 13.1401 1.2633 13.7759 1.73209 14.2447C2.20088 14.7135 2.83669 14.9768 3.49965 14.9768H4.7106C4.82619 14.9768 4.93705 14.9309 5.01877 14.8492C5.1005 14.7674 5.14643 14.6566 5.14643 14.541V8.01363C5.14643 4.22855 8.21484 1.1601 12 1.1601C15.7851 1.1601 18.8535 4.22855 18.8535 8.01363V14.541C18.8535 14.6566 18.8994 14.7674 18.9811 14.8492C19.0629 14.9309 19.1737 14.9768 19.2893 14.9768H19.6375C19.6177 17.4234 17.6285 19.4004 15.1775 19.4004H14.4293C14.3556 19.0604 14.1856 18.7456 13.9358 18.4958C13.5933 18.1533 13.1288 17.9609 12.6445 17.9609H11.3554C10.3469 17.9609 9.52926 18.7785 9.52926 19.7871C9.52926 20.7957 10.3469 21.6133 11.3554 21.6133H12.6445C13.5203 21.6133 14.2522 20.9967 14.4296 20.1738H15.1775C18.0558 20.1738 20.3914 17.8503 20.411 14.9768ZM10.3027 19.7871C10.3027 19.2057 10.774 18.7344 11.3554 18.7344H12.6445C12.9237 18.7344 13.1915 18.8453 13.3889 19.0427C13.5863 19.2402 13.6972 19.5079 13.6972 19.7871C13.6972 20.3685 13.2259 20.8398 12.6445 20.8398H11.3554C10.774 20.8398 10.3027 20.3685 10.3027 19.7871ZM19.6269 8.80856H20.5003C20.9581 8.80856 21.3972 8.99044 21.7209 9.31417C22.0447 9.6379 22.2266 10.077 22.2266 10.5348V12.4771C22.2266 12.9349 22.0447 13.374 21.7209 13.6978C21.3972 14.0215 20.9581 14.2034 20.5003 14.2034H19.6269V8.80856ZM4.373 8.80856V14.2034H3.49965C3.04182 14.2034 2.60272 14.0215 2.27899 13.6978C1.95522 13.374 1.77338 12.9349 1.77338 12.4771V10.5348C1.77338 10.077 1.95522 9.6379 2.27899 9.31417C2.60272 8.99044 3.04182 8.80856 3.49965 8.80856H4.373Z" fill="#2DB2A2" stroke="#2DB2A2" stroke-width="0.75"/>
</svg>
