<svg width="48" height="48" viewBox="0 0 48 48" fill="none" xmlns="http://www.w3.org/2000/svg">
<path fill-rule="evenodd" clip-rule="evenodd" d="M13.5772 19.7054C17.7536 15.5289 24.4434 15.3924 28.5207 19.4697C29.4579 20.407 29.4579 21.9266 28.5207 22.8638C27.6225 23.762 26.1894 23.7994 25.2467 22.9761L25.1266 22.8638C23.006 20.7432 19.4726 20.765 17.1361 22.9405L16.9713 23.0995L11.0787 28.9921C8.74645 31.3243 8.67192 34.9763 10.843 37.1474C12.9636 39.268 16.497 39.2462 18.8335 37.0707L18.9983 36.9117L20.4714 35.4385C21.4087 34.5013 22.9283 34.5013 23.8656 35.4385C24.7638 36.3367 24.8012 37.7698 23.9778 38.7125L23.8656 38.8326L22.3924 40.3058C18.2159 44.4823 11.5262 44.6188 7.44889 40.5415C3.43843 36.531 3.50477 29.9931 7.48245 25.8054L7.68459 25.598L13.5772 19.7054ZM25.598 7.68459C29.7744 3.50811 36.4642 3.37159 40.5415 7.44889C44.5519 11.4594 44.4856 17.9973 40.5079 22.185L40.3058 22.3924L34.4132 28.285C30.2368 32.4614 23.547 32.598 19.4697 28.5207C18.5324 27.5834 18.5324 26.0638 19.4697 25.1266C20.3679 24.2284 21.8009 24.1909 22.7437 25.0143L22.8638 25.1266C24.9844 27.2472 28.5178 27.2254 30.8543 25.0499L31.0191 24.8909L36.9117 18.9983C39.2439 16.666 39.3185 13.0141 37.1474 10.843C35.0268 8.72241 31.4934 8.74419 29.1569 10.9197L28.9921 11.0787L27.5189 12.5518C26.5817 13.4891 25.0621 13.4891 24.1248 12.5518C23.2266 11.6536 23.1892 10.2206 24.0126 9.27784L24.1248 9.15773L25.598 7.68459Z" fill="#333333"/>
</svg>
