<svg width="26" height="40" viewBox="0 0 26 40" fill="none" xmlns="http://www.w3.org/2000/svg">
<path fill-rule="evenodd" clip-rule="evenodd" d="M21.125 0C23.742 0 25.8845 2.12682 25.9955 4.78347L26 5V35C26 37.6841 23.9264 39.8816 21.3361 39.9954L21.125 40H4.875C2.25798 40 0.115465 37.8732 0.00451341 35.2165L0 35V5C0 2.31588 2.07365 0.118426 4.66388 0.00462914L4.875 0H21.125ZM17.7125 3.33L17.7126 3.4C17.7126 4.23456 17.0737 4.91989 16.2583 4.99346L16.1126 5H9.8875C9.05294 5 8.36761 4.36104 8.29404 3.54563L8.2875 3.4V3.33L6.6625 3.33333H4.875C4.02521 3.33333 3.3271 4.00347 3.25597 4.85626L3.25 5V35C3.25 35.8716 3.90339 36.5876 4.73485 36.6605L4.875 36.6667H21.125C21.9748 36.6667 22.6729 35.9965 22.744 35.1437L22.75 35V5C22.75 4.12842 22.0966 3.41241 21.2651 3.33945L21.125 3.33333L17.7125 3.33ZM18 33C18.5523 33 19 33.4477 19 34C19 34.5523 18.5523 35 18 35H8C7.44772 35 7 34.5523 7 34C7 33.4477 7.44772 33 8 33H18Z" fill="#333333"/>
</svg>
