<svg width="48" height="48" viewBox="0 0 48 48" fill="none" xmlns="http://www.w3.org/2000/svg">
<path fill-rule="evenodd" clip-rule="evenodd" d="M32 4C38.5255 4 43.8344 9.20854 43.9962 15.695L44 16V32C44 38.5255 38.7915 43.8344 32.305 43.9962L32 44H16C9.47454 44 4.16561 38.7915 4.0038 32.305L4 32V16C4 9.47454 9.20854 4.16561 15.695 4.0038L16 4H32ZM32 8H16C11.6651 8 8.13546 11.4478 8.00381 15.7508L8 16V32C8 36.3349 11.4478 39.8645 15.7508 39.9962L16 40H32C36.3349 40 39.8645 36.5522 39.9962 32.2492L40 32V16C40 11.6651 36.5522 8.13546 32.2492 8.00381L32 8ZM35 28C35.5523 28 36 28.4477 36 29V31.5C36 33.9143 34.0988 35.8845 31.7118 35.9951L31.5 36H29C27.8954 36 27 35.1046 27 34C27 32.9456 27.8159 32.0818 28.8507 32.0055L29 32H31.5C31.7455 32 31.9496 31.8231 31.9919 31.5899L32 31.5V29C32 28.4477 32.4477 28 33 28H35ZM15 28C15.5523 28 16 28.4477 16 29V31.5C16 31.7455 16.1769 31.9496 16.4101 31.9919L16.5 32H19C20.1046 32 21 32.8954 21 34C21 35.0544 20.1841 35.9182 19.1493 35.9945L19 36H16.5C14.0857 36 12.1155 34.0988 12.0049 31.7118L12 31.5V29C12 28.4477 12.4477 28 13 28H15ZM35 22C35.5523 22 36 22.4477 36 23V25C36 25.5523 35.5523 26 35 26H13C12.4477 26 12 25.5523 12 25V23C12 22.4477 12.4477 22 13 22H35ZM31.5 12C33.9143 12 35.8845 13.9012 35.9951 16.2882L36 16.5V19C36 19.5523 35.5523 20 35 20H33C32.4477 20 32 19.5523 32 19V16.5C32 16.2545 31.8231 16.0504 31.5899 16.0081L31.5 16H29C27.8954 16 27 15.1046 27 14C27 12.9456 27.8159 12.0818 28.8507 12.0055L29 12H31.5ZM19 12C20.1046 12 21 12.8954 21 14C21 15.0544 20.1841 15.9182 19.1493 15.9945L19 16H16.5C16.2545 16 16.0504 16.1769 16.0081 16.4101L16 16.5V19C16 19.5523 15.5523 20 15 20H13C12.4477 20 12 19.5523 12 19V16.5C12 14.0857 13.9012 12.1155 16.2882 12.0049L16.5 12H19Z" fill="#333333"/>
</svg>
