<svg width="48" height="48" viewBox="0 0 48 48" fill="none" xmlns="http://www.w3.org/2000/svg">
<path fill-rule="evenodd" clip-rule="evenodd" d="M35.6354 28.2671C38.4044 28.5501 40.5135 30.9071 40.4999 33.7054L40.4924 33.969L40.1806 39.9353L40.1628 40.1226C40.0099 41.2312 39.0349 42.0565 37.9025 41.997C36.7701 41.9375 35.8864 41.0145 35.85 39.896L35.8518 39.7079L36.0443 36.0374L35.0657 36.923C28.3889 42.9655 18.1491 42.5073 12.0332 35.9524L11.803 35.7006L11.3679 35.215C10.487 34.2316 10.5662 32.7165 11.5448 31.8309C12.4809 30.9837 13.9008 31.0194 14.7934 31.8847L14.9118 32.0078L15.3468 32.4934C19.6016 37.2429 26.8336 37.6959 31.6411 33.5686L31.8756 33.362L32.8534 32.4755L29.2022 32.285L29.0159 32.2672C27.913 32.1139 27.0921 31.1341 27.1516 29.9959C27.2111 28.8577 28.1296 27.9694 29.2425 27.9324L29.4296 27.9343L35.3657 28.2462L35.6354 28.2671ZM36.6321 12.785C37.513 13.7684 37.4338 15.2835 36.4552 16.1691C35.5191 17.0163 34.0992 16.9806 33.2066 16.1153L33.0882 15.9922L32.6532 15.5066C28.3984 10.7571 21.1664 10.3041 16.3589 14.4314L16.1244 14.638L15.1451 15.5228L18.7978 15.715L18.9841 15.7328C20.087 15.8861 20.9079 16.8659 20.8484 18.0041C20.789 19.1423 19.8704 20.0306 18.7575 20.0676L18.5704 20.0657L12.6343 19.7538L12.3646 19.7329C9.59557 19.4499 7.48654 17.0929 7.50006 14.2946L7.5076 14.031L7.81944 8.06468L7.83719 7.87739C7.99008 6.76881 8.96507 5.94352 10.0975 6.00302C11.2299 6.06253 12.1136 6.9855 12.15 8.10403L12.1482 8.29215L11.9558 11.9611L12.9343 11.077C19.6111 5.03453 29.8509 5.4927 35.9668 12.0476L36.197 12.2994L36.6321 12.785Z" fill="#333333"/>
</svg>
